<svg width="16" height="16" viewBox="0 0 16 16" fill="none" xmlns="http://www.w3.org/2000/svg">
<path fill-rule="evenodd" clip-rule="evenodd" d="M3 1H5L1 5V3C1 1.89543 1.89543 1 3 1ZM13 1H11L15 5V3C15 1.89543 14.1046 1 13 1Z" fill="white" fill-opacity="0.5"/>
<path fill-rule="evenodd" clip-rule="evenodd" d="M13 8C13 10.7614 10.7614 13 8 13C5.23858 13 3 10.7614 3 8C3 5.23858 5.23858 3 8 3C10.7614 3 13 5.23858 13 8ZM14 8C14 9.52963 13.4276 10.9256 12.4853 11.9853L13.7071 13.2071C13.8946 13.3946 14 13.649 14 13.9142V14C14 14.5523 13.5523 15 13 15H12.9142C12.649 15 12.3946 14.8946 12.2071 14.7071L10.8052 13.3052C9.96807 13.7488 9.01337 14 8 14C6.98663 14 6.03193 13.7488 5.19479 13.3052L3.79289 14.7071C3.60536 14.8946 3.351 15 3.08579 15H3C2.44772 15 2 14.5523 2 14V13.9142C2 13.649 2.10536 13.3946 2.29289 13.2071L3.51469 11.9853C2.5724 10.9256 2 9.52963 2 8C2 4.68629 4.68629 2 8 2C11.3137 2 14 4.68629 14 8ZM8 5.5V5H7V5.5V7.5V7.70711L7.14645 7.85355L9.14645 9.85355L9.5 10.2071L10.2071 9.5L9.85355 9.14645L8 7.29289V5.5Z" fill="white"/>
</svg>
