<svg width="16" height="16" viewBox="0 0 16 16" fill="none" xmlns="http://www.w3.org/2000/svg">
<path fill-rule="evenodd" clip-rule="evenodd" d="M3 1H5L1 5V3C1 1.89543 1.89543 1 3 1ZM8 2C8.70127 2 9.37444 2.12031 10 2.34141V3.41604C9.38754 3.14845 8.7111 3 8 3C5.23858 3 3 5.23858 3 8C3 10.7614 5.23858 13 8 13C10.7614 13 13 10.7614 13 8C13 7.2889 12.8516 6.61246 12.584 6H13.6586C13.8797 6.62556 14 7.29873 14 8C14 9.52963 13.4276 10.9256 12.4853 11.9853L13.7071 13.2071C13.8946 13.3946 14 13.649 14 13.9142V14C14 14.5523 13.5523 15 13 15H12.9142C12.649 15 12.3946 14.8946 12.2071 14.7071L10.8052 13.3052C9.96807 13.7488 9.01337 14 8 14C6.98663 14 6.03193 13.7488 5.19479 13.3052L3.79289 14.7071C3.60536 14.8946 3.351 15 3.08579 15H3C2.44772 15 2 14.5523 2 14V13.9142C2 13.649 2.10536 13.3946 2.29289 13.2071L3.51469 11.9853C2.5724 10.9256 2 9.52963 2 8C2 4.68629 4.68629 2 8 2Z" fill="white" fill-opacity="0.5"/>
<path fill-rule="evenodd" clip-rule="evenodd" d="M11.1464 4.14645L11 4.29282V5H11.4999H14.4999H14.9999V4H14.4999H12.707L14.8535 1.85355L15 1.70703V1H14.4999H11.4999H11V2H11.4999H13.2928L11.1464 4.14645ZM9.5 6H10V6.70711L9.85355 6.85355L8.70711 8H9.5H10V9H9.5H7.5H7V8.29289L7.14645 8.14645L8.29289 7H7.5H7V6H7.5H9.5Z" fill="white"/>
</svg>
