<svg width="16" height="16" viewBox="0 0 16 16" fill="none" xmlns="http://www.w3.org/2000/svg">
<path fill-rule="evenodd" clip-rule="evenodd" d="M8.99995 3.5C8.99995 4.32843 8.32838 5 7.49995 5C6.67152 5 5.99995 4.32843 5.99995 3.5C5.99995 2.67157 6.67152 2 7.49995 2C8.32838 2 8.99995 2.67157 8.99995 3.5ZM9.99995 3.5C9.99995 4.70948 9.14107 5.71836 7.99995 5.94999V9H8.99995V10H7.99995V14.4725C10.2499 14.2238 12 12.3163 12 10H11.2071C10.7616 10 10.5385 9.46143 10.8535 9.14645L12.5 7.5L14.1464 9.14645C14.4614 9.46143 14.2383 10 13.7928 10H13C13 13.0376 10.5375 15.5 7.49995 15.5C4.46238 15.5 1.99995 13.0376 1.99995 10H1.20706C0.761605 10 0.538521 9.46143 0.853503 9.14645L2.49995 7.5L4.1464 9.14645C4.46138 9.46143 4.2383 10 3.79284 10H2.99995C2.99995 12.3163 4.74998 14.2238 6.99995 14.4725V10H5.99995V9H6.99995V5.94999C5.85883 5.71836 4.99995 4.70948 4.99995 3.5C4.99995 2.11929 6.11924 1 7.49995 1C8.88066 1 9.99995 2.11929 9.99995 3.5Z" fill="white"/>
</svg>
