<svg width="16" height="16" viewBox="0 0 16 16" fill="none" xmlns="http://www.w3.org/2000/svg">
<path fill-rule="evenodd" clip-rule="evenodd" d="M7.49995 5C8.32838 5 8.99995 4.32843 8.99995 3.5C8.99995 2.67157 8.32838 2 7.49995 2C6.67152 2 5.99995 2.67157 5.99995 3.5C5.99995 4.32843 6.67152 5 7.49995 5ZM7.99995 5.94999C9.14107 5.71836 9.99995 4.70948 9.99995 3.5C9.99995 2.11929 8.88066 1 7.49995 1C6.11924 1 4.99995 2.11929 4.99995 3.5C4.99995 4.70948 5.85883 5.71836 6.99995 5.94999V7.87873L7.99995 6.87873V5.94999ZM7.99995 11.1214L6.99995 12.1214V14.4725C6.36118 14.4019 5.7627 14.1976 5.23312 13.8882L4.50651 14.6148C5.36795 15.1747 6.39597 15.5 7.49995 15.5C10.5375 15.5 13 13.0376 13 10H13.7928C14.2383 10 14.4614 9.46143 14.1464 9.14645L12.5 7.5L10.8535 9.14645C10.5385 9.46143 10.7616 10 11.2071 10H12C12 12.3163 10.2499 14.2238 7.99995 14.4725V11.1214ZM2.52676 12.3519L3.28885 11.5898C3.10213 11.0955 2.99995 10.5597 2.99995 10H3.79284C4.2383 10 4.46138 9.46143 4.1464 9.14645L2.49995 7.5L0.853503 9.14645C0.538521 9.46143 0.761605 10 1.20706 10H1.99995C1.99995 10.8415 2.18893 11.6388 2.52676 12.3519Z" fill="white" fill-opacity="0.5"/>
<path fill-rule="evenodd" clip-rule="evenodd" d="M12.5001 3.79289L12.1465 4.14645L2.14652 14.1464L1.79297 14.5L2.50008 15.2071L2.85363 14.8536L12.8536 4.85355L13.2072 4.5L12.5001 3.79289Z" fill="white"/>
</svg>
