<svg width="16" height="16" viewBox="0 0 16 16" fill="none" xmlns="http://www.w3.org/2000/svg">
<path fill-rule="evenodd" clip-rule="evenodd" d="M10 5.75736V1.28988C9.36629 1.10128 8.69497 1 8 1C7.17475 1 6.38286 1.14281 5.64769 1.40505L10 5.75736ZM4.6698 1.84138C3.36618 2.54779 2.31208 3.65603 1.67363 5L7.82842 5L4.6698 1.84138ZM11.3302 14.1586C12.6338 13.4522 13.6879 12.344 14.3264 11L8.17156 11L11.3302 14.1586ZM10.3523 14.595C9.61713 14.8572 8.82524 15 8 15C7.30503 15 6.63371 14.8987 6 14.7101V10.2427L10.3523 14.595ZM1.84138 11.3302C2.54779 12.6338 3.65603 13.6879 5 14.3264V8.17158L1.84138 11.3302ZM1.40505 10.3523L5.75736 6L1.28988 6C1.10128 6.63371 1 7.30503 1 8C1 8.82525 1.14281 9.61714 1.40505 10.3523ZM10.2426 10H14.7101C14.8987 9.36629 15 8.69497 15 8C15 7.17475 14.8572 6.38285 14.5949 5.64767L10.2426 10ZM11 7.8284V1.67363C12.344 2.31208 13.4522 3.36617 14.1586 4.66979L11 7.8284Z" fill="white"/>
</svg>
