<svg width="16" height="16" viewBox="0 0 16 16" fill="none" xmlns="http://www.w3.org/2000/svg">
<path fill-rule="evenodd" clip-rule="evenodd" d="M4 2C3.44772 2 3 2.44772 3 3V5.5V6.26756C3.5978 6.61337 4 7.25972 4 8V9.26756C4.29417 9.09739 4.63571 9 5 9H11C11.3643 9 11.7058 9.09739 12 9.26756V8C12 7.25972 12.4022 6.61337 13 6.26756V5.5V3C13 2.44772 12.5523 2 12 2H4ZM2 7C1.44772 7 1 7.44772 1 8V13C1 13.5523 1.44772 14 2 14H3V8C3 7.44772 2.55228 7 2 7ZM5 10C4.44772 10 4 10.4477 4 11V14H12V11C12 10.4477 11.5523 10 11 10H5ZM13 8C13 7.44772 13.4477 7 14 7C14.5523 7 15 7.44772 15 8V13C15 13.5523 14.5523 14 14 14H13V8Z" fill="white"/>
</svg>
