<svg width="16" height="16" viewBox="0 0 16 16" fill="none" xmlns="http://www.w3.org/2000/svg">
<path fill-rule="evenodd" clip-rule="evenodd" d="M9.41399 7.51167L2.23014 1.52512C1.74164 1.11804 1 1.46541 1 2.10129V13.8987C1 14.5346 1.74164 14.882 2.23014 14.4749L7.13953 10.3837C7.45805 9.1358 8.29818 8.09647 9.41399 7.51167Z" fill="white" fill-opacity="0.5"/>
<path fill-rule="evenodd" clip-rule="evenodd" d="M15 11.5C15 13.433 13.433 15 11.5 15C9.567 15 8 13.433 8 11.5C8 9.567 9.567 8 11.5 8C13.433 8 15 9.567 15 11.5ZM10 9.29289L10.3536 9.64645L11.5 10.7929L12.6464 9.64645L13 9.29289L13.7071 10L13.3536 10.3536L12.2071 11.5L13.3536 12.6464L13.7071 13L13 13.7071L12.6464 13.3536L11.5 12.2071L10.3536 13.3536L10 13.7071L9.29289 13L9.64645 12.6464L10.7929 11.5L9.64645 10.3536L9.29289 10L10 9.29289Z" fill="white"/>
</svg>
