<svg width="16" height="16" viewBox="0 0 16 16" fill="none" xmlns="http://www.w3.org/2000/svg">
<path fill-rule="evenodd" clip-rule="evenodd" d="M2 3.5C2 3.22386 2.22386 3 2.5 3H4.5H5V2H4.5H2.5C1.67157 2 1 2.67157 1 3.5V5.5V6H2V5.5V3.5ZM11.5 2H11V3H11.5H13.5C13.7761 3 14 3.22386 14 3.5V5.5V6H15V5.5V3.5C15 2.67157 14.3284 2 13.5 2H11.5ZM2 10.5V10H1V10.5V12.5C1 13.3284 1.67157 14 2.5 14H4.5H5V13H4.5H2.5C2.22386 13 2 12.7761 2 12.5V10.5ZM15 10.5V10H14V10.5V12.5C14 12.7761 13.7761 13 13.5 13H11.5H11V14H11.5H13.5C14.3284 14 15 13.3284 15 12.5V10.5ZM7.25172 4.62656L11 8.00001L7.25172 11.3735C6.76908 11.8078 6 11.4653 6 10.816V5.18403C6 4.5347 6.76908 4.19218 7.25172 4.62656Z" fill="white"/>
</svg>
