<svg width="16" height="16" viewBox="0 0 16 16" fill="none" xmlns="http://www.w3.org/2000/svg">
<path fill-rule="evenodd" clip-rule="evenodd" d="M2.23014 1.52512L9.13261 7.27718C8.26516 7.64569 7.57702 8.35418 7.23543 9.23543C6.03058 9.70247 5.14865 10.8173 5.01704 12.1525L2.23014 14.4749C1.74164 14.882 1 14.5346 1 13.8987V2.10129C1 1.46541 1.74164 1.11804 2.23014 1.52512Z" fill="white" fill-opacity="0.5"/>
<path fill-rule="evenodd" clip-rule="evenodd" d="M12.5 6C13.8807 6 15 7.11929 15 8.5C15 9.88071 13.8807 11 12.5 11C11.1193 11 10 9.88071 10 8.5C10 7.11929 11.1193 6 12.5 6ZM9 8.49975C8.39278 8.95586 8 9.68203 8 10.4999C8 11.8806 9.11929 12.9999 10.5 12.9999C11.3179 12.9999 12.044 12.6072 12.5001 12H12.5C10.567 12 9 10.433 9 8.49998V8.49975ZM6 12.4999C6 11.682 6.39278 10.9559 7 10.4998V10.5C7 12.433 8.567 14 10.5 14H10.5001C10.044 14.6072 9.31789 14.9999 8.5 14.9999C7.11929 14.9999 6 13.8806 6 12.4999Z" fill="white"/>
</svg>
