<svg width="16" height="16" viewBox="0 0 16 16" fill="none" xmlns="http://www.w3.org/2000/svg">
<path fill-rule="evenodd" clip-rule="evenodd" d="M15 3V6.5V7H14V6.5V3C14 2.44772 13.5523 2 13 2L9.5 2L9 2V1H9.5H13C14.1046 1 15 1.89543 15 3ZM3 15C1.89543 15 1 14.1046 1 13V9.5V9H2V9.5L2 13C2 13.5523 2.44772 14 3 14H6.5H7V15H6.5H3ZM9.70711 3C9.26165 3 9.03857 3.53857 9.35355 3.85355L10.3964 4.89645L4.89645 10.3964L3.85355 9.35355C3.53857 9.03857 3 9.26165 3 9.70711V13H6.29289C6.73835 13 6.96143 12.4614 6.64645 12.1464L5.60355 11.1036L11.1036 5.60355L12.1464 6.64645C12.4614 6.96143 13 6.73835 13 6.29289V3H9.70711Z" fill="white"/>
</svg>
