<svg width="16" height="16" viewBox="0 0 16 16" fill="none" xmlns="http://www.w3.org/2000/svg">
<path fill-rule="evenodd" clip-rule="evenodd" d="M11 5.29289C11 5.73835 11.5386 5.96143 11.8535 5.64645L12.9266 4.57344C14.5578 6.91301 14.3299 10.1554 12.2426 12.2426C9.8995 14.5858 6.1005 14.5858 3.75736 12.2426C1.41421 9.89949 1.41421 6.10051 3.75736 3.75736L3.05025 3.05025C0.316583 5.78392 0.316583 10.2161 3.05025 12.9497C5.78392 15.6834 10.2161 15.6834 12.9497 12.9497C15.4285 10.471 15.6596 6.59589 13.6433 3.8567L14.6464 2.85355C14.9614 2.53857 14.7383 2 14.2929 2H11V5.29289Z" fill="white"/>
</svg>
