<svg width="16" height="16" viewBox="0 0 16 16" fill="none" xmlns="http://www.w3.org/2000/svg">
<path fill-rule="evenodd" clip-rule="evenodd" d="M7.79314 6.79265C6.6837 7.90209 6.26917 9.44329 6.54956 10.8754L2.23014 14.4749C1.74164 14.882 1 14.5346 1 13.8987V2.10129C1 1.46541 1.74164 1.11804 2.23014 1.52512L8.15785 6.46488C8.0319 6.56641 7.91012 6.67567 7.79314 6.79265Z" fill="white" fill-opacity="0.5"/>
<path fill-rule="evenodd" clip-rule="evenodd" d="M11.0004 14.9998L8.50038 12.4998C7.11967 11.1191 7.11967 8.88048 8.50038 7.49977C9.88109 6.11906 12.1197 6.11906 13.5004 7.49977C14.8811 8.88048 14.8811 11.1191 13.5004 12.4998L11.0004 14.9998ZM11.0005 10.9999C11.5528 10.9999 12.0005 10.5522 12.0005 9.99988C12.0005 9.44759 11.5528 8.99988 11.0005 8.99988C10.4482 8.99988 10.0005 9.44759 10.0005 9.99988C10.0005 10.5522 10.4482 10.9999 11.0005 10.9999Z" fill="white"/>
</svg>
