<svg width="16" height="16" viewBox="0 0 16 16" fill="none" xmlns="http://www.w3.org/2000/svg">
<path fill-rule="evenodd" clip-rule="evenodd" d="M6 11V11.3333L2.23014 14.4749C1.74164 14.882 1 14.5346 1 13.8987V2.10129C1 1.46541 1.74164 1.11804 2.23014 1.52512L6.99988 5.49991C6.39273 5.95602 6 6.68215 6 7.50001V11Z" fill="white" fill-opacity="0.5"/>
<path fill-rule="evenodd" clip-rule="evenodd" d="M10.5 1C9.67157 1 9 1.67157 9 2.5V3.5C9 4.32843 9.67157 5 10.5 5H11.5C12.3284 5 13 4.32843 13 3.5V2.5C13 1.67157 12.3284 1 11.5 1H10.5ZM8.5 6C7.67157 6 7 6.67157 7 7.5V11H9V14C9 14.5523 9.44772 15 10 15H12C12.5523 15 13 14.5523 13 14V11H15V7.5C15 6.67157 14.3284 6 13.5 6H8.5Z" fill="white"/>
</svg>
