<svg width="16" height="16" viewBox="0 0 16 16" fill="none" xmlns="http://www.w3.org/2000/svg">
<path fill-rule="evenodd" clip-rule="evenodd" d="M2.23014 1.52512L8.8 7.00001H7C5.89543 7.00001 5 7.89544 5 9.00001V12.1667L2.23014 14.4749C1.74164 14.882 1 14.5346 1 13.8987V2.10129C1 1.46541 1.74164 1.11804 2.23014 1.52512Z" fill="white" fill-opacity="0.5"/>
<path fill-rule="evenodd" clip-rule="evenodd" d="M7 8C6.44772 8 6 8.44772 6 9V10C6 10.5523 6.44772 11 7 11H14C14.5523 11 15 10.5523 15 10V9C15 8.44772 14.5523 8 14 8H7ZM10 9H9V10H10V9ZM7 9H8V10H7V9ZM7 12C6.44772 12 6 12.4477 6 13V14C6 14.5523 6.44772 15 7 15H14C14.5523 15 15 14.5523 15 14V13C15 12.4477 14.5523 12 14 12H7ZM14 13H10V14H14V13ZM7 13H8V14H7V13Z" fill="white"/>
</svg>
