<svg width="16" height="16" viewBox="0 0 16 16" fill="none" xmlns="http://www.w3.org/2000/svg">
<path fill-rule="evenodd" clip-rule="evenodd" d="M2.5 4C2.73157 4 2.95089 3.94752 3.14671 3.85381L4.12853 4.83563C4.34011 4.57708 4.57708 4.34011 4.83563 4.12853L3.85381 3.14671C3.94752 2.95089 4 2.73157 4 2.5C4 1.67157 3.32843 1 2.5 1C1.67157 1 1 1.67157 1 2.5C1 3.32843 1.67157 4 2.5 4ZM3.14671 12.1462L4.12853 11.1644C4.34011 11.4229 4.57708 11.6599 4.83563 11.8715L3.85381 12.8533C3.94752 13.0491 4 13.2684 4 13.5C4 14.3284 3.32843 15 2.5 15C1.67157 15 1 14.3284 1 13.5C1 12.6716 1.67157 12 2.5 12C2.73157 12 2.95089 12.0525 3.14671 12.1462ZM12.1462 12.8533L11.1644 11.8715C11.4229 11.6599 11.6599 11.4229 11.8715 11.1644L12.8533 12.1462C13.0491 12.0525 13.2684 12 13.5 12C14.3284 12 15 12.6716 15 13.5C15 14.3284 14.3284 15 13.5 15C12.6716 15 12 14.3284 12 13.5C12 13.2684 12.0525 13.0491 12.1462 12.8533ZM12.8533 3.85381L11.8715 4.83563C11.6599 4.57708 11.4229 4.34011 11.1644 4.12853L12.1462 3.14671C12.0525 2.95089 12 2.73157 12 2.5C12 1.67157 12.6716 1 13.5 1C14.3284 1 15 1.67157 15 2.5C15 3.32843 14.3284 4 13.5 4C13.2684 4 13.0491 3.94752 12.8533 3.85381ZM8 12C10.2091 12 12 10.2091 12 8C12 5.79086 10.2091 4 8 4C5.79086 4 4 5.79086 4 8C4 10.2091 5.79086 12 8 12Z" fill="white"/>
</svg>
