<svg width="16" height="16" viewBox="0 0 16 16" fill="none" xmlns="http://www.w3.org/2000/svg">
<path fill-rule="evenodd" clip-rule="evenodd" d="M10 7.91465V9H7V6H8.29289C8.73835 6 8.96143 5.46143 8.64645 5.14645L6.5 3L4.35355 5.14645C4.03857 5.46143 4.26165 6 4.70711 6H6V9H3L3 7.70711C3 7.26165 2.46143 7.03857 2.14645 7.35355L0 9.5L2.14645 11.6464C2.46143 11.9614 3 11.7383 3 11.2929L3 10H6V13H4.70711C4.26165 13 4.03857 13.5386 4.35355 13.8536L6.5 16L8.64645 13.8536C8.96143 13.5386 8.73835 13 8.29289 13H7V10L10 10V11.2929C10 11.7383 10.5386 11.9614 10.8536 11.6464L13 9.5L11.5 8H10.5C10.3247 8 10.1564 7.96992 10 7.91465Z" fill="white" fill-opacity="0.5"/>
<path fill-rule="evenodd" clip-rule="evenodd" d="M12 2C12 1.44772 12.4477 1 13 1C13.5523 1 14 1.44772 14 2H12ZM11 2C11 0.895431 11.8954 0 13 0C14.1046 0 15 0.895431 15 2H15.5C15.7761 2 16 2.22386 16 2.5V5H10V2.5C10 2.22386 10.2239 2 10.5 2H11ZM10 6.5V6H16V6.5C16 6.77614 15.7761 7 15.5 7H10.5C10.2239 7 10 6.77614 10 6.5Z" fill="white"/>
</svg>
