<svg width="16" height="16" viewBox="0 0 16 16" fill="none" xmlns="http://www.w3.org/2000/svg">
<path fill-rule="evenodd" clip-rule="evenodd" d="M6.5 0L4.35355 2.14645C4.03857 2.46143 4.26165 3 4.70711 3H6.00008V9V9.29289L2.89648 12.3965L1.85355 11.3536C1.53857 11.0386 1 11.2617 1 11.7071V15H4.29289C4.73835 15 4.96143 14.4614 4.64645 14.1464L3.60359 13.1036L6.70718 10H7.00008H13V11.2929C13 11.7383 13.5386 11.9614 13.8536 11.6464L16 9.5L13.8536 7.35355C13.5386 7.03857 13 7.26165 13 7.70711V9H7.00008V3H8.29289C8.73835 3 8.96143 2.46143 8.64645 2.14645L6.5 0Z" fill="white"/>
</svg>
