<svg width="16" height="16" viewBox="0 0 16 16" fill="none" xmlns="http://www.w3.org/2000/svg">
<path fill-rule="evenodd" clip-rule="evenodd" d="M4.35355 2.14645L6.5 0L8.64645 2.14645C8.96143 2.46143 8.73835 3 8.29289 3H7.00008V9H13V8H14.5L16 9.5L13.8536 11.6464C13.5386 11.9614 13 11.7383 13 11.2929V10H7.00008H6.70718L3.60359 13.1036L4.64645 14.1464C4.96143 14.4614 4.73835 15 4.29289 15H1V11.7071C1 11.2617 1.53857 11.0386 1.85355 11.3536L2.89648 12.3965L6.00008 9.29289V9V3H4.70711C4.26165 3 4.03857 2.46143 4.35355 2.14645Z" fill="white" fill-opacity="0.5"/>
<path fill-rule="evenodd" clip-rule="evenodd" d="M12 2C12 1.44772 12.4477 1 13 1C13.5523 1 14 1.44772 14 2H12ZM11 2C11 0.895431 11.8954 0 13 0C14.1046 0 15 0.895431 15 2H15.5C15.7761 2 16 2.22386 16 2.5V5H10V2.5C10 2.22386 10.2239 2 10.5 2H11ZM10 6.5V6H16V6.5C16 6.77614 15.7761 7 15.5 7H10.5C10.2239 7 10 6.77614 10 6.5Z" fill="white"/>
</svg>
