<svg width="16" height="16" viewBox="0 0 16 16" fill="none" xmlns="http://www.w3.org/2000/svg">
<path fill-rule="evenodd" clip-rule="evenodd" d="M5.35355 2.14645L7.5 0L9.64645 2.14645C9.96143 2.46143 9.73835 3 9.29289 3H8V7H12V5.70711C12 5.26165 12.5386 5.03857 12.8536 5.35355L15 7.5L12.8536 9.64645C12.5386 9.96143 12 9.73835 12 9.29289V8H8V12H9.29289C9.73835 12 9.96143 12.5386 9.64645 12.8536L7.5 15L5.35355 12.8536C5.03857 12.5386 5.26165 12 5.70711 12H7V8H3L3 9.29289C3 9.73835 2.46143 9.96143 2.14645 9.64645L0 7.5L2.14645 5.35355C2.46143 5.03857 3 5.26165 3 5.70711L3 7H7V3H5.70711C5.26165 3 5.03857 2.46143 5.35355 2.14645Z" fill="white"/>
</svg>
