<svg width="16" height="16" viewBox="0 0 16 16" fill="none" xmlns="http://www.w3.org/2000/svg">
<path fill-rule="evenodd" clip-rule="evenodd" d="M6 11H3V14C3 14.5523 3.44772 15 4 15H12C12.5523 15 13 14.5523 13 14V11H10V11.5C10 12.3284 9.32843 13 8.5 13H7.5C6.67157 13 6 12.3284 6 11.5V11Z" fill="white" fill-opacity="0.5"/>
<path fill-rule="evenodd" clip-rule="evenodd" d="M2 2.91421C2 2.40931 2.40931 2 2.91421 2C3.15668 2 3.38921 2.09632 3.56066 2.26777L4.43934 3.14645L5 2.58579C5.04914 2.53665 5.10057 2.49033 5.15405 2.44694L4.26777 1.56066C3.90878 1.20168 3.42189 1 2.91421 1C1.85702 1 1 1.85702 1 2.91421V10.4999C1 11.3178 1.39278 12.044 2 12.5001V10.4999V6.41421V2.91421ZM11 2.58579L11.5607 3.14645L12.4393 2.26777C12.6108 2.09632 12.8433 2 13.0858 2C13.5907 2 14 2.40931 14 2.91421V6.41421V10.4999V12.5001C14.6072 12.044 15 11.3178 15 10.4999V2.91421C15 1.85702 14.143 1 13.0858 1C12.5781 1 12.0912 1.20168 11.7322 1.56066L10.846 2.44694C10.8994 2.49033 10.9509 2.53665 11 2.58579ZM3.29289 5.70711C3.10536 5.89464 3 6.149 3 6.41421V10H6V9.5C6 8.67157 6.67157 8 7.5 8H8.5C9.32843 8 10 8.67157 10 9.5V10H13V6.41421C13 6.149 12.8946 5.89464 12.7071 5.70711L10.2929 3.29289C10.1054 3.10536 9.851 3 9.58579 3H6.41421C6.149 3 5.89464 3.10536 5.70711 3.29289L3.29289 5.70711ZM9 10.5V11V11.5C9 11.7761 8.77614 12 8.5 12H7.5C7.22386 12 7 11.7761 7 11.5V11V10.5V9.5C7 9.22386 7.22386 9 7.5 9H8.5C8.77614 9 9 9.22386 9 9.5V10.5Z" fill="white"/>
</svg>
