<svg width="16" height="16" viewBox="0 0 16 16" fill="none" xmlns="http://www.w3.org/2000/svg">
<path fill-rule="evenodd" clip-rule="evenodd" d="M11 6.5C11 6.22386 10.7761 6 10.5 6H9.5C9.22386 6 9 6.22386 9 6.5V9.5C9 9.77614 9.22386 10 9.5 10H10.5C10.7761 10 11 9.77614 11 9.5L11 6.5ZM15 7.5C15 7.22386 14.7761 7 14.5 7L13.5 7C13.2239 7 13 7.22386 13 7.5V8.5C13 8.77614 13.2239 9 13.5 9H14.5C14.7761 9 15 8.77614 15 8.5V7.5Z" fill="white" fill-opacity="0.5"/>
<path fill-rule="evenodd" clip-rule="evenodd" d="M3 1.5C3 1.22386 2.77614 1 2.5 1H1.5C1.22386 1 1 1.22386 1 1.5V14.5C1 14.7761 1.22386 15 1.5 15H2.5C2.77614 15 3 14.7761 3 14.5L3 1.5ZM7 4.5C7 4.22386 6.77614 4 6.5 4H5.5C5.22386 4 5 4.22386 5 4.5L5 11.5C5 11.7761 5.22386 12 5.5 12H6.5C6.77614 12 7 11.7761 7 11.5L7 4.5Z" fill="white"/>
</svg>
