<svg width="16" height="16" viewBox="0 0 16 16" fill="none" xmlns="http://www.w3.org/2000/svg">
<path fill-rule="evenodd" clip-rule="evenodd" d="M5.5 1C5.22386 1 5 1.22386 5 1.5V2.5C5 2.77614 5.22386 3 5.5 3H12.5C12.7761 3 13 2.77614 13 2.5V1.5C13 1.22386 12.7761 1 12.5 1H5.5ZM5.5 13C5.22386 13 5 13.2239 5 13.5V14.5C5 14.7761 5.22386 15 5.5 15H12.5C12.7761 15 13 14.7761 13 14.5V13.5C13 13.2239 12.7761 13 12.5 13H5.5Z" fill="white" fill-opacity="0.5"/>
<path fill-rule="evenodd" clip-rule="evenodd" d="M3.85356 7.35356L6 9.50001L3.85355 11.6465C3.53857 11.9614 3 11.7384 3 11.2929L3 10C1.89543 10 1 9.10457 1 8V2.5V2H2L2 2.5L2 8C2 8.55229 2.44771 9 3 9L3 7.70711C3 7.26166 3.53857 7.03858 3.85356 7.35356ZM7 5.5C7 5.22386 7.22386 5 7.5 5H14.5C14.7761 5 15 5.22386 15 5.5V6.5C15 6.77614 14.7761 7 14.5 7H7.5C7.22386 7 7 6.77614 7 6.5V5.5ZM7 9.5C7 9.22386 7.22386 9 7.5 9H14.5C14.7761 9 15 9.22386 15 9.5V10.5C15 10.7761 14.7761 11 14.5 11H7.5C7.22386 11 7 10.7761 7 10.5V9.5Z" fill="white"/>
</svg>
