<svg width="16" height="16" viewBox="0 0 16 16" fill="none" xmlns="http://www.w3.org/2000/svg">
<path fill-rule="evenodd" clip-rule="evenodd" d="M2.5 1C2.22386 1 2 1.22386 2 1.5V2.5C2 2.77614 2.22386 3 2.5 3H13.5C13.7761 3 14 2.77614 14 2.5V1.5C14 1.22386 13.7761 1 13.5 1H2.5ZM2.5 13C2.22386 13 2 13.2239 2 13.5V14.5C2 14.7761 2.22386 15 2.5 15H13.5C13.7761 15 14 14.7761 14 14.5V13.5C14 13.2239 13.7761 13 13.5 13H2.5Z" fill="white" fill-opacity="0.5"/>
<path fill-rule="evenodd" clip-rule="evenodd" d="M7.99995 7L10.1464 4.85355C10.4614 4.53857 10.2383 4 9.79284 4H6.20706C5.7616 4 5.53852 4.53857 5.8535 4.85355L7.99995 7ZM7.99995 9L5.8535 11.1464C5.53852 11.4614 5.7616 12 6.20706 12H9.79284C10.2383 12 10.4614 11.4614 10.1464 11.1464L7.99995 9Z" fill="white"/>
</svg>
