<svg width="16" height="16" viewBox="0 0 16 16" fill="none" xmlns="http://www.w3.org/2000/svg">
<path fill-rule="evenodd" clip-rule="evenodd" d="M2.5 5C2.22386 5 2 5.22386 2 5.5V6.5C2 6.77614 2.22386 7 2.5 7H13.5C13.7761 7 14 6.77614 14 6.5V5.5C14 5.22386 13.7761 5 13.5 5H2.5ZM2.5 9C2.22386 9 2 9.22386 2 9.5V10.5C2 10.7761 2.22386 11 2.5 11H13.5C13.7761 11 14 10.7761 14 10.5V9.5C14 9.22386 13.7761 9 13.5 9H2.5Z" fill="white" fill-opacity="0.5"/>
<path fill-rule="evenodd" clip-rule="evenodd" d="M8.00033 3.99997L10.1468 1.85353C10.4618 1.53855 10.2387 0.999973 9.79322 0.999973H6.20744C5.76199 0.999973 5.5389 1.53854 5.85388 1.85353L8.00033 3.99997ZM7.99995 12L5.8535 14.1464C5.53852 14.4614 5.7616 15 6.20706 15H9.79284C10.2383 15 10.4614 14.4614 10.1464 14.1464L7.99995 12Z" fill="white"/>
</svg>
