<svg width="16" height="16" viewBox="0 0 16 16" fill="none" xmlns="http://www.w3.org/2000/svg">
<path fill-rule="evenodd" clip-rule="evenodd" d="M5.5 3C5.22386 3 5 3.22386 5 3.5V4.5C5 4.77614 5.22386 5 5.5 5H14.5C14.7761 5 15 4.77614 15 4.5V3.5C15 3.22386 14.7761 3 14.5 3H5.5ZM3 7.5C3 7.22386 3.22386 7 3.5 7H12.5C12.7761 7 13 7.22386 13 7.5V8.5C13 8.77614 12.7761 9 12.5 9H3.5C3.22386 9 3 8.77614 3 8.5V7.5ZM1 11.5C1 11.2239 1.22386 11 1.5 11H10.5C10.7761 11 11 11.2239 11 11.5V12.5C11 12.7761 10.7761 13 10.5 13H1.5C1.22386 13 1 12.7761 1 12.5V11.5Z" fill="white"/>
</svg>
