<svg width="16" height="16" viewBox="0 0 16 16" fill="none" xmlns="http://www.w3.org/2000/svg">
<path fill-rule="evenodd" clip-rule="evenodd" d="M5.5 1C5.22386 1 5 1.22386 5 1.5V2.5C5 2.77614 5.22386 3 5.5 3H12.5C12.7761 3 13 2.77614 13 2.5V1.5C13 1.22386 12.7761 1 12.5 1H5.5ZM5.5 13C5.22386 13 5 13.2239 5 13.5V14.5C5 14.7761 5.22386 15 5.5 15H12.5C12.7761 15 13 14.7761 13 14.5V13.5C13 13.2239 12.7761 13 12.5 13H5.5Z" fill="white" fill-opacity="0.5"/>
<path fill-rule="evenodd" clip-rule="evenodd" d="M4.9999 10H4.4999H3.9999C2.89533 10 1.9999 9.10457 1.9999 8L1.9999 4.49999L1.9999 4H0.707057C0.261604 4 0.0385213 3.46143 0.353504 3.14645L2.49995 1L4.6464 3.14645C4.96138 3.46143 4.7383 4 4.29284 4H2.9999V4.49999L2.9999 8C2.9999 8.55228 3.44761 9 3.9999 9H4.4999H4.9999V10ZM6.9999 5.5C6.9999 5.22386 7.22376 5 7.4999 5H14.4999C14.776 5 14.9999 5.22386 14.9999 5.5V6.5C14.9999 6.77614 14.776 7 14.4999 7H7.4999C7.22376 7 6.9999 6.77614 6.9999 6.5V5.5ZM6.9999 9.5C6.9999 9.22386 7.22376 9 7.4999 9H14.4999C14.776 9 14.9999 9.22386 14.9999 9.5V10.5C14.9999 10.7761 14.776 11 14.4999 11H7.4999C7.22376 11 6.9999 10.7761 6.9999 10.5V9.5Z" fill="white"/>
</svg>
