<svg width="16" height="16" viewBox="0 0 16 16" fill="none" xmlns="http://www.w3.org/2000/svg">
<path fill-rule="evenodd" clip-rule="evenodd" d="M2.5 1C2.22386 1 2 1.22386 2 1.5V2.5C2 2.77614 2.22386 3 2.5 3H13.5C13.7761 3 14 2.77614 14 2.5V1.5C14 1.22386 13.7761 1 13.5 1H2.5ZM2.5 13C2.22386 13 2 13.2239 2 13.5V14.5C2 14.7761 2.22386 15 2.5 15H13.5C13.7761 15 14 14.7761 14 14.5V13.5C14 13.2239 13.7761 13 13.5 13H2.5Z" fill="white" fill-opacity="0.5"/>
<path fill-rule="evenodd" clip-rule="evenodd" d="M7.99995 4.00002L5.8535 6.14647C5.53852 6.46145 5.7616 7.00002 6.20706 7.00002H9.79284C10.2383 7.00002 10.4614 6.46145 10.1464 6.14647L7.99995 4.00002ZM7.99999 12L10.1464 9.85358C10.4614 9.53859 10.2383 9.00002 9.79288 9.00002L6.2071 9.00002C5.76165 9.00002 5.53856 9.53859 5.85354 9.85358L7.99999 12Z" fill="white"/>
</svg>
