<svg width="16" height="16" viewBox="0 0 16 16" fill="none" xmlns="http://www.w3.org/2000/svg">
<path fill-rule="evenodd" clip-rule="evenodd" d="M7.5 5C7.22386 5 7 5.22386 7 5.5V6.5C7 6.77614 7.22386 7 7.5 7H14.5C14.7761 7 15 6.77614 15 6.5V5.5C15 5.22386 14.7761 5 14.5 5H7.5ZM7.5 9C7.22386 9 7 9.22386 7 9.5V10.5C7 10.7761 7.22386 11 7.5 11H14.5C14.7761 11 15 10.7761 15 10.5V9.5C15 9.22386 14.7761 9 14.5 9H7.5Z" fill="white" fill-opacity="0.5"/>
<path fill-rule="evenodd" clip-rule="evenodd" d="M4.99984 1.5C4.99984 1.22386 5.2237 1 5.49984 1H12.4998C12.776 1 12.9998 1.22386 12.9998 1.5V2.5C12.9998 2.77614 12.776 3 12.4998 3H5.49984C5.2237 3 4.99984 2.77614 4.99984 2.5V1.5ZM4.99984 13.5C4.99984 13.2239 5.2237 13 5.49984 13H12.4998C12.776 13 12.9998 13.2239 12.9998 13.5V14.5C12.9998 14.7761 12.776 15 12.4998 15H5.49984C5.2237 15 4.99984 14.7761 4.99984 14.5V13.5ZM0.353504 10.8536L2.49995 13L4.6464 10.8536C4.96138 10.5386 4.7383 10 4.29284 10H2.99989V9.50001V3.5V3L1.99989 3L1.99989 3.5L1.99989 9.50001L1.99989 10H0.707057C0.261604 10 0.0385213 10.5386 0.353504 10.8536Z" fill="white"/>
</svg>
