<svg width="16" height="16" viewBox="0 0 16 16" fill="none" xmlns="http://www.w3.org/2000/svg">
<path fill-rule="evenodd" clip-rule="evenodd" d="M2.5 5C2.22386 5 2 5.22386 2 5.5V6.5C2 6.77614 2.22386 7 2.5 7H13.5C13.7761 7 14 6.77614 14 6.5V5.5C14 5.22386 13.7761 5 13.5 5H2.5ZM2.5 9C2.22386 9 2 9.22386 2 9.5V10.5C2 10.7761 2.22386 11 2.5 11H13.5C13.7761 11 14 10.7761 14 10.5V9.5C14 9.22386 13.7761 9 13.5 9H2.5Z" fill="white" fill-opacity="0.5"/>
<path fill-rule="evenodd" clip-rule="evenodd" d="M7.99995 1L5.8535 3.14645C5.53852 3.46143 5.7616 4 6.20706 4H9.79284C10.2383 4 10.4614 3.46143 10.1464 3.14645L7.99995 1ZM7.99995 15L10.1464 12.8536C10.4614 12.5386 10.2383 12 9.79284 12H6.20706C5.7616 12 5.53852 12.5386 5.8535 12.8536L7.99995 15Z" fill="white"/>
</svg>
