<svg width="16" height="16" viewBox="0 0 16 16" fill="none" xmlns="http://www.w3.org/2000/svg">
<path fill-rule="evenodd" clip-rule="evenodd" d="M3.35305 1.85348L4.39596 2.89639L1.14556 6.14644L0.791992 6.49998L1.49906 7.20712L1.85263 6.85359L5.10307 3.6035L6.14594 4.64637C6.46092 4.96135 6.99949 4.73827 6.99949 4.29282L6.99949 0.999924H3.7066C3.26115 0.999924 3.03807 1.53849 3.35305 1.85348ZM11.9995 4.50005C11.9995 4.2239 12.2234 4.00005 12.4995 4.00005H14.4995C14.7757 4.00005 14.9995 4.2239 14.9995 4.50005V14.5C14.9995 14.7762 14.7757 15 14.4995 15H12.4995C12.2234 15 11.9995 14.7762 11.9995 14.5V4.50005ZM8.49951 8.00005C8.22337 8.00005 7.99951 8.2239 7.99951 8.50005V14.5C7.99951 14.7762 8.22337 15 8.49951 15H10.4995C10.7757 15 10.9995 14.7762 10.9995 14.5V8.50005C10.9995 8.2239 10.7757 8.00005 10.4995 8.00005H8.49951ZM4.49951 12C4.22337 12 3.99951 12.2239 3.99951 12.5V14.5C3.99951 14.7762 4.22337 15 4.49951 15H6.49951C6.77565 15 6.99951 14.7762 6.99951 14.5V12.5C6.99951 12.2239 6.77565 12 6.49951 12H4.49951Z" fill="white"/>
</svg>
