<svg width="16" height="16" viewBox="0 0 16 16" fill="none" xmlns="http://www.w3.org/2000/svg">
<path fill-rule="evenodd" clip-rule="evenodd" d="M4 2C2.34315 2 1 3.34315 1 5V11C1 12.6569 2.34315 14 4 14C5.65685 14 7 12.6569 7 11H9C9 12.6569 10.3431 14 12 14C13.6569 14 15 12.6569 15 11V5C15 3.34315 13.6569 2 12 2C11.1115 2 10.3132 2.38625 9.76389 3H6.23611C5.68679 2.38625 4.8885 2 4 2ZM9 9H7V10H9V9ZM10 11C10 12.1046 10.8954 13 12 13C13.1046 13 14 12.1046 14 11C14 9.89543 13.1046 9 12 9C10.8954 9 10 9.89543 10 11ZM4 9C5.10457 9 6 9.89543 6 11C6 12.1046 5.10457 13 4 13C2.89543 13 2 12.1046 2 11C2 9.89543 2.89543 9 4 9Z" fill="white"/>
</svg>
