<svg width="16" height="16" viewBox="0 0 16 16" fill="none" xmlns="http://www.w3.org/2000/svg">
<path fill-rule="evenodd" clip-rule="evenodd" d="M9 3H6.23611C5.68679 2.38625 4.8885 2 4 2C2.34315 2 1 3.34315 1 5V11C1 12.6569 2.34315 14 4 14C5.65685 14 7 12.6569 7 11H9C9 12.6569 10.3431 14 12 14C13.6569 14 15 12.6569 15 11V5H14.5H14V5.5V7H11V5.5V5H10.5H9V3ZM7 9H9V10H7V9ZM12 13C10.8954 13 10 12.1046 10 11C10 9.89543 10.8954 9 12 9C13.1046 9 14 9.89543 14 11C14 12.1046 13.1046 13 12 13ZM6 11C6 9.89543 5.10457 9 4 9C2.89543 9 2 9.89543 2 11C2 12.1046 2.89543 13 4 13C5.10457 13 6 12.1046 6 11Z" fill="white" fill-opacity="0.5"/>
<path fill-rule="evenodd" clip-rule="evenodd" d="M13 1V1.5V3H14.5H15V4H14.5H13V5.5V6H12V5.5V4H10.5H10V3H10.5H12V1.5V1H13Z" fill="white"/>
</svg>
