<svg width="16" height="16" viewBox="0 0 16 16" fill="none" xmlns="http://www.w3.org/2000/svg">
<path fill-rule="evenodd" clip-rule="evenodd" d="M11.5 4.20711L11.1464 3.85355L10.5 3.20711L9.85355 3.85355L9.5 4.20711L8.79289 3.5L9.14645 3.14645L9.79289 2.5L9.14645 1.85355L8.79289 1.5L9.5 0.792892L9.85355 1.14645L10.5 1.79289L11.1464 1.14645L11.5 0.792892L12.2071 1.5L11.8536 1.85355L11.2071 2.5L11.8536 3.14645L12.2071 3.5L11.5 4.20711ZM6 15C8.76142 15 11 12.7614 11 10C11 8.79936 10.5768 7.69757 9.87147 6.83563L10.1464 6.56066C10.3417 6.3654 10.6583 6.3654 10.8536 6.56066L11.4393 7.14645C12.0251 7.73223 12.9749 7.73223 13.5607 7.14645L13.6464 7.06066C14.2322 6.47488 14.2322 5.52513 13.6464 4.93934L12.9142 4.20711L12.2071 4.91421L12.9393 5.64645C13.1346 5.84171 13.1346 6.15829 12.9393 6.35355L12.8536 6.43934C12.6583 6.6346 12.3417 6.6346 12.1464 6.43934L11.5607 5.85355C10.9749 5.26777 10.0251 5.26777 9.43934 5.85355L9.16437 6.12853C8.30243 5.42318 7.20063 5 6 5C3.23858 5 1 7.23858 1 10C1 12.7614 3.23858 15 6 15ZM4.46927 6.30448C4.95457 6.10346 5.47471 6 6 6V7C5.60603 7 5.21593 7.0776 4.85195 7.22836C4.48797 7.37913 4.15726 7.6001 3.87868 7.87868C3.6001 8.15726 3.37913 8.48797 3.22836 8.85195C3.0776 9.21593 3 9.60604 3 10H2C2 9.47471 2.10346 8.95457 2.30448 8.46927C2.5055 7.98396 2.80014 7.54301 3.17157 7.17157C3.54301 6.80014 3.98396 6.5055 4.46927 6.30448Z" fill="white"/>
</svg>
