<svg width="16" height="16" viewBox="0 0 16 16" fill="none" xmlns="http://www.w3.org/2000/svg">
<path fill-rule="evenodd" clip-rule="evenodd" d="M6 2.5C6 3.32843 6.67157 4 7.5 4C8.32843 4 9 3.32843 9 2.5C9 1.67157 8.32843 1 7.5 1C6.67157 1 6 1.67157 6 2.5ZM4.94074 3.94074L6.05925 5.05925C6.28544 5.28544 6.244 5.66291 5.97414 5.83464L1.94912 8.39602C1.72353 8.53957 1.46043 8.27647 1.60399 8.05088L4.16536 4.02586C4.33709 3.756 4.71456 3.71456 4.94074 3.94074ZM6 9.41421C6 9.149 6.10536 8.89464 6.29289 8.70711L8.70711 6.29289C8.89464 6.10536 9.149 6 9.41421 6H14C14.5523 6 15 6.44772 15 7V11.5858C15 11.851 14.8946 12.1054 14.7071 12.2929L12.2929 14.7071C12.1054 14.8946 11.851 15 11.5858 15H7C6.44772 15 6 14.5523 6 14V9.41421ZM14.2071 7.5L13.8536 7.85355L12 9.70711V13.5V14H11V13.5V10H7.5H7V9H7.5H11.2929L13.1464 7.14645L13.5 6.79289L14.2071 7.5Z" fill="white"/>
</svg>
