<svg width="16" height="16" viewBox="0 0 16 16" fill="none" xmlns="http://www.w3.org/2000/svg">
<path fill-rule="evenodd" clip-rule="evenodd" d="M6.5 0.792892L6.85355 1.14645L7.5 1.79289L8.14645 1.14645L8.5 0.792892L9.20711 1.5L8.85355 1.85355L8.20711 2.5L8.85355 3.14645L9.20711 3.5L8.5 4.20711L8.14645 3.85355L7.5 3.20711L6.85355 3.85355L6.5 4.20711L5.79289 3.5L6.14645 3.14645L6.79289 2.5L6.14645 1.85355L5.79289 1.5L6.5 0.792892ZM4.94074 3.94074L6.05925 5.05925C6.28544 5.28544 6.244 5.66291 5.97414 5.83464L1.94912 8.39601C1.72353 8.53957 1.46043 8.27647 1.60399 8.05088L4.16536 4.02586C4.33709 3.75599 4.71456 3.71456 4.94074 3.94074ZM6 9.41421C6 9.149 6.10536 8.89464 6.29289 8.70711L8.70711 6.29289C8.89464 6.10536 9.149 6 9.41421 6H14C14.5523 6 15 6.44771 15 7V11.5858C15 11.851 14.8946 12.1054 14.7071 12.2929L12.2929 14.7071C12.1054 14.8946 11.851 15 11.5858 15H7C6.44772 15 6 14.5523 6 14V9.41421ZM14.2071 7.5L13.8536 7.85355L12 9.70711V13.5V14H11V13.5V10H7.5H7V9H7.5H11.2929L13.1464 7.14645L13.5 6.79289L14.2071 7.5Z" fill="white"/>
</svg>
