<svg width="16" height="16" viewBox="0 0 16 16" fill="none" xmlns="http://www.w3.org/2000/svg">
<path fill-rule="evenodd" clip-rule="evenodd" d="M9 3C9 3.52142 9.19954 3.99624 9.52642 4.35226L4.35226 9.52642C3.99624 9.19954 3.52142 9 3 9C1.89543 9 1 9.89543 1 11C1 12.1046 1.89543 13 3 13C3 14.1046 3.89543 15 5 15C6.10457 15 7 14.1046 7 13C7 12.4786 6.80046 12.0038 6.47358 11.6477L11.6477 6.47358C12.0038 6.80046 12.4786 7 13 7C14.1046 7 15 6.10457 15 5C15 3.89543 14.1046 3 13 3C13 1.89543 12.1046 1 11 1C9.89543 1 9 1.89543 9 3ZM12.5 16C14.433 16 16 14.433 16 12.5C16 10.567 14.433 9 12.5 9C10.567 9 9 10.567 9 12.5C9 14.433 10.567 16 12.5 16ZM11.3536 10.6464L11 10.2929L10.2929 11L10.6464 11.3536L11.7929 12.5L10.6464 13.6464L10.2929 14L11 14.7071L11.3536 14.3536L12.5 13.2071L13.6464 14.3536L14 14.7071L14.7071 14L14.3536 13.6464L13.2071 12.5L14.3536 11.3536L14.7071 11L14 10.2929L13.6464 10.6464L12.5 11.7929L11.3536 10.6464Z" fill="white"/>
</svg>
