<svg width="16" height="16" viewBox="0 0 16 16" fill="none" xmlns="http://www.w3.org/2000/svg">
<path fill-rule="evenodd" clip-rule="evenodd" d="M6.00032 2.5C6.00032 3.32843 6.6719 4 7.50032 4C8.32875 4 9.00032 3.32843 9.00032 2.5C9.00032 1.67157 8.32875 1 7.50032 1C6.6719 1 6.00032 1.67157 6.00032 2.5ZM4.94107 3.94074L6.05958 5.05925C6.28576 5.28544 6.24433 5.66291 5.97446 5.83464L1.94944 8.39602C1.72385 8.53957 1.46075 8.27647 1.60431 8.05088L4.16568 4.02586C4.33742 3.756 4.71488 3.71456 4.94107 3.94074ZM12.7177 6.69571C13.2093 7.70609 13.5003 9.05861 13.5003 10.5C13.5003 10.8341 13.4847 11.1622 13.4545 11.4814C13.58 11.4307 13.6994 11.377 13.8122 11.3206C14.5647 10.9443 14.915 10.5134 14.9863 10.143C14.8639 8.58325 13.9462 7.24701 12.6386 6.53951C12.6658 6.59106 12.6921 6.64316 12.7177 6.69571ZM12.5003 10.5C12.5003 10.9536 12.4686 11.3896 12.4103 11.7998C11.8327 11.9274 11.1868 12 10.5003 12C9.81384 12 9.16789 11.9274 8.59037 11.7998C8.53205 11.3896 8.50032 10.9537 8.50032 10.5C8.50032 9.17997 8.76895 7.98249 9.18216 7.13322C9.47199 6.53755 9.79211 6.18536 10.089 6.01854C10.2245 6.00627 10.3616 6 10.5003 6C10.6389 6 10.7762 6.00627 10.9116 6.01855C11.2086 6.18537 11.5287 6.53756 11.8185 7.13322C12.2317 7.98249 12.5003 9.17997 12.5003 10.5ZM10.5003 13C9.9151 13 9.34832 12.952 8.81537 12.862L10.5027 15C10.9012 14.9987 11.3959 14.6619 11.8209 13.8119C11.9604 13.5329 12.0835 13.2136 12.1853 12.862C11.6523 12.952 11.0855 13 10.5003 13ZM8.81537 12.862L10.5003 15C10.1014 15 9.60561 14.6636 9.17977 13.8119C9.04024 13.5329 8.91713 13.2136 8.81537 12.862ZM12.7153 14.2591C12.6774 14.335 12.6378 14.4097 12.5964 14.483C13.6157 13.9455 14.4036 13.0282 14.7718 11.9195C14.6097 12.0273 14.4376 12.1259 14.2594 12.215C13.9623 12.3635 13.6343 12.4937 13.2815 12.6032C13.1475 13.2183 12.9553 13.7791 12.7153 14.2591ZM6.22875 11.9195C6.59703 13.0283 7.38497 13.9456 8.40426 14.4831C8.36291 14.4097 8.32326 14.335 8.28534 14.2591C8.04532 13.7791 7.8532 13.2183 7.71911 12.6032C7.36636 12.4938 7.03829 12.3636 6.74114 12.215C6.56299 12.1259 6.39088 12.0273 6.22875 11.9195ZM7.18836 11.3206C7.30122 11.377 7.42065 11.4307 7.54614 11.4815C7.51596 11.1622 7.50032 10.8341 7.50032 10.5C7.50032 9.05861 7.79134 7.70609 8.28295 6.69571C8.30853 6.64314 8.33492 6.59102 8.36211 6.53944C7.05438 7.24693 6.13667 8.5832 6.01424 10.143C6.08558 10.5134 6.43582 10.9443 7.18836 11.3206Z" fill="white"/>
</svg>
