<svg width="16" height="16" viewBox="0 0 16 16" fill="none" xmlns="http://www.w3.org/2000/svg">
<path fill-rule="evenodd" clip-rule="evenodd" d="M9.52642 4.35226C9.19954 3.99624 9 3.52142 9 3C9 1.89543 9.89543 1 11 1C12.1046 1 13 1.89543 13 3C14.1046 3 15 3.89543 15 5C15 6.10457 14.1046 7 13 7C12.4786 7 12.0038 6.80046 11.6477 6.47358L6.47358 11.6477C6.80046 12.0038 7 12.4786 7 13C7 14.1046 6.10457 15 5 15C3.89543 15 3 14.1046 3 13C1.89543 13 1 12.1046 1 11C1 9.89543 1.89543 9 3 9C3.52142 9 3.99624 9.19954 4.35226 9.52642L9.52642 4.35226Z" fill="white"/>
</svg>
