<svg width="16" height="16" viewBox="0 0 16 16" fill="none" xmlns="http://www.w3.org/2000/svg">
<path fill-rule="evenodd" clip-rule="evenodd" d="M10.8535 1.14645L10.4999 0.792892L9.79282 1.5L10.1464 1.85355L10.1487 1.85592L10.1512 1.85833L10.1536 1.86079L10.1561 1.8633L10.1587 1.86585L10.1613 1.86845L10.1639 1.87109L10.1666 1.87378L10.1693 1.87651L10.1721 1.87929L10.1749 1.88212L10.1778 1.88499L10.1807 1.8879L10.1837 1.89086L10.1867 1.89386L10.1897 1.89691L10.1928 1.9L10.196 1.90314L10.1991 1.90632L10.2024 1.90954L10.2056 1.91281L10.2089 1.91612L10.2123 1.91947L10.2157 1.92287L10.2191 1.92631L10.2226 1.92979L10.2261 1.93331L10.2297 1.93688L10.2333 1.94049L10.237 1.94414L10.2407 1.94784L10.2444 1.95158L10.2482 1.95535L10.252 1.95917L10.2559 1.96303L10.2598 1.96694L10.2637 1.97088L10.2677 1.97487L10.2717 1.97889L10.2758 1.98296L10.2799 1.98707L10.284 1.99122L10.2882 1.9954L10.2925 1.99963L10.2967 2.0039L10.301 2.00821L10.3054 2.01256L10.3098 2.01695L10.3142 2.02137L10.3187 2.02584L10.3232 2.03035L10.3277 2.03489L10.3323 2.03948L10.3369 2.0441L10.3416 2.04876L10.3463 2.05346L10.351 2.0582L10.3558 2.06297L10.3606 2.06779L10.3655 2.07264L10.3703 2.07753L10.3753 2.08245L10.3802 2.08742L10.3852 2.09242L10.3903 2.09746L10.3954 2.10253L10.4005 2.10765L10.4056 2.1128L10.4108 2.11798L10.416 2.1232L10.4213 2.12846L10.4266 2.13376L10.4319 2.13909L10.4373 2.14445L10.4427 2.14985L10.4481 2.15529L10.4536 2.16076L10.4591 2.16627L10.4646 2.17181L10.4702 2.17739L10.4758 2.183L10.4815 2.18865L10.4871 2.19433L10.4929 2.20005L10.4986 2.2058L10.5044 2.21158L10.5102 2.2174L10.5161 2.22325L10.522 2.22913L10.5279 2.23505L10.5338 2.241L10.5398 2.24699L10.5458 2.253L10.5519 2.25905L10.558 2.26514L10.5641 2.27125L10.5702 2.2774L10.5764 2.28358L10.5826 2.28979L10.5889 2.29604L10.5951 2.30231L10.6014 2.30862L10.6078 2.31496L10.6141 2.32133L10.6206 2.32773L10.627 2.33416L10.6334 2.34063L10.6399 2.34712L10.6465 2.35365L10.653 2.3602L10.6596 2.36679L10.6662 2.3734L10.6729 2.38005L10.6795 2.38673L10.6863 2.39343L10.693 2.40017L10.6997 2.40693L10.7065 2.41372L10.7134 2.42055L10.7202 2.4274L10.7271 2.43428L10.734 2.44119L10.7409 2.44813L10.7479 2.45509L10.7549 2.46209L10.7619 2.46911L10.769 2.47616L10.7761 2.48324L10.7832 2.49035L10.7903 2.49748L10.7975 2.50464L10.8046 2.51183L10.8119 2.51904L10.8191 2.52629L10.8264 2.53356L10.8337 2.54085L10.841 2.54817L10.8483 2.55552L10.8557 2.5629L10.8631 2.5703L10.8705 2.57772L10.878 2.58518L10.8855 2.59265L10.893 2.60016L10.9005 2.60768L10.9081 2.61524L10.9156 2.62282L10.9232 2.63042L10.9309 2.63805L10.9385 2.6457L10.9462 2.65338L10.9539 2.66108L10.9616 2.66881L10.9694 2.67656L10.9771 2.68433L10.9849 2.69213L10.9928 2.69995L11.0006 2.70779L11.0085 2.71566L11.0164 2.72355L11.0243 2.73146L11.0322 2.7394L11.0402 2.74736L11.0482 2.75534L11.0562 2.76334L11.0642 2.77137L11.0722 2.77941L11.0803 2.78748L11.0884 2.79557L11.0965 2.80369L11.1046 2.81182L11.1128 2.81998L11.121 2.82815L11.1292 2.83635L11.1374 2.84457L11.1456 2.85281L11.1539 2.86107L11.1622 2.86935L11.1705 2.87765L11.1788 2.88597L11.1871 2.89431L11.1955 2.90268L11.2039 2.91106L11.2123 2.91946L11.2207 2.92788L11.2291 2.93631L11.2376 2.94477L11.2461 2.95325L11.2546 2.96174L11.2631 2.97026L11.2716 2.97879L11.2802 2.98734L11.2887 2.99591L11.2973 3.0045L11.3059 3.0131L11.3145 3.02173L11.3232 3.03037L11.3318 3.03903L11.3405 3.0477L11.3492 3.05639L11.3579 3.0651L11.3666 3.07383L11.3754 3.08257L11.3842 3.09133L11.3929 3.10011L11.4017 3.1089L11.4105 3.11771L11.4194 3.12654L11.4282 3.13538L11.4371 3.14423L11.4459 3.1531L11.4548 3.16199L11.4637 3.17089L11.4726 3.17981L11.4816 3.18874L11.4905 3.19769L11.4995 3.20665L11.5084 3.21563L11.5174 3.22462L11.5264 3.23363L11.5355 3.24265L11.5445 3.25168L11.5535 3.26073L11.5626 3.26979L11.5717 3.27886L11.5808 3.28795L11.5899 3.29705L11.599 3.30616L11.6081 3.31529L11.6172 3.32443L11.6264 3.33358L11.6356 3.34275L11.6447 3.35192L11.6539 3.36111L11.6631 3.37031L11.6723 3.37953L11.6816 3.38875L11.6908 3.39799L11.7001 3.40724L11.7093 3.4165L11.7186 3.42577L11.7279 3.43505L11.7372 3.44434L11.7465 3.45364L11.7558 3.46295L11.7651 3.47228L11.7744 3.48161L11.7838 3.49096L11.7928 3.5L10.1464 5.14645L9.79282 5.5L10.4999 6.20711L10.8535 5.85355L12.4999 4.20711L12.5026 4.20975L12.5122 4.21943L12.5219 4.22911L12.5316 4.23878L12.5413 4.24846L12.551 4.25813L12.5606 4.26781L12.5703 4.27748L12.58 4.28714L12.5896 4.29681L12.5993 4.30647L12.609 4.31613L12.6186 4.32579L12.6283 4.33545L12.6379 4.3451L12.6476 4.35475L12.6572 4.36439L12.6669 4.37404L12.6765 4.38367L12.6861 4.39331L12.6958 4.40294L12.7054 4.41257L12.715 4.42219L12.7246 4.43181L12.7342 4.44142L12.7438 4.45103L12.7535 4.46063L12.7631 4.47023L12.7726 4.47983L12.7822 4.48942L12.7918 4.499L12.8014 4.50858L12.811 4.51815L12.8205 4.52772L12.8301 4.53728L12.8397 4.54683L12.8492 4.55638L12.8587 4.56592L12.8683 4.57546L12.8778 4.58499L12.8873 4.59451L12.8968 4.60402L12.9063 4.61353L12.9158 4.62303L12.9253 4.63252L12.9348 4.64201L12.9443 4.65149L12.9538 4.66095L12.9632 4.67042L12.9727 4.67987L12.9821 4.68931L12.9916 4.69875L13.001 4.70818L13.0104 4.7176L13.0198 4.72701L13.0292 4.73641L13.0386 4.7458L13.048 4.75518L13.0574 4.76456L13.0667 4.77392L13.0761 4.78327L13.0854 4.79262L13.0948 4.80195L13.1041 4.81127L13.1134 4.82058L13.1227 4.82989L13.132 4.83918L13.1413 4.84846L13.1505 4.85773L13.1598 4.86699L13.1691 4.87623L13.1783 4.88547L13.1875 4.89469L13.1967 4.90391L13.2059 4.91311L13.2151 4.92229L13.2243 4.93147L13.2335 4.94063L13.2426 4.94979L13.2517 4.95892L13.2609 4.96805L13.27 4.97716L13.2791 4.98626L13.2882 4.99535L13.2972 5.00443L13.3063 5.01348L13.3154 5.02253L13.3244 5.03156L13.3334 5.04058L13.3424 5.04959L13.3514 5.05858L13.3604 5.06755L13.3693 5.07652L13.3783 5.08546L13.3872 5.09439L13.3961 5.10331L13.405 5.11221L13.4139 5.1211L13.4228 5.12997L13.4316 5.13883L13.4405 5.14767L13.4493 5.15649L13.4581 5.1653L13.4669 5.17409L13.4757 5.18286L13.4844 5.19162L13.4932 5.20037L13.5019 5.20909L13.5106 5.2178L13.5193 5.22649L13.528 5.23517L13.5366 5.24382L13.5453 5.25246L13.5539 5.26109L13.5625 5.26969L13.5711 5.27828L13.5797 5.28685L13.5882 5.2954L13.5967 5.30393L13.6053 5.31244L13.6138 5.32094L13.6222 5.32941L13.6307 5.33787L13.6391 5.34631L13.6475 5.35472L13.6559 5.36312L13.6643 5.3715L13.6727 5.37986L13.681 5.3882L13.6893 5.39652L13.6976 5.40482L13.7059 5.4131L13.7142 5.42136L13.7224 5.4296L13.7306 5.43782L13.7388 5.44601L13.747 5.45419L13.7552 5.46234L13.7633 5.47048L13.7714 5.47859L13.7795 5.48668L13.7876 5.49475L13.7956 5.50279L13.8036 5.51082L13.8116 5.51882L13.8196 5.5268L13.8276 5.53476L13.8355 5.54269L13.8434 5.55061L13.8513 5.5585L13.8592 5.56636L13.867 5.5742L13.8748 5.58202L13.8826 5.58982L13.8904 5.59759L13.8982 5.60534L13.9059 5.61306L13.9136 5.62076L13.9213 5.62844L13.9289 5.63609L13.9365 5.64372L13.9441 5.65132L13.9517 5.6589L13.9593 5.66645L13.9668 5.67398L13.9743 5.68148L13.9818 5.68896L13.9892 5.69641L13.9967 5.70383L14.0041 5.71123L14.0114 5.71861L14.0188 5.72595L14.0261 5.73327L14.0334 5.74057L14.0407 5.74783L14.0479 5.75508L14.0551 5.76229L14.0623 5.76948L14.0695 5.77664L14.0766 5.78377L14.0837 5.79087L14.0908 5.79795L14.0978 5.805L14.1048 5.81202L14.1118 5.81901L14.1188 5.82598L14.1257 5.83291L14.1326 5.83982L14.1395 5.8467L14.1464 5.85355L14.4999 6.20711L15.207 5.5L14.8535 5.14645L14.8466 5.1396L14.8397 5.13272L14.8328 5.12581L14.8259 5.11887L14.8189 5.11191L14.8119 5.10491L14.8049 5.09789L14.7979 5.09084L14.7908 5.08377L14.7837 5.07666L14.7766 5.06953L14.7694 5.06237L14.7622 5.05518L14.755 5.04797L14.7478 5.04073L14.7405 5.03346L14.7332 5.02617L14.7259 5.01885L14.7185 5.0115L14.7112 5.00413L14.7038 4.99673L14.6963 4.9893L14.6889 4.98185L14.6814 4.97437L14.6739 4.96687L14.6664 4.95934L14.6588 4.95179L14.6512 4.94421L14.6436 4.93661L14.636 4.92899L14.6284 4.92133L14.6207 4.91366L14.613 4.90596L14.6053 4.89823L14.5975 4.89048L14.5897 4.88271L14.5819 4.87492L14.5741 4.8671L14.5663 4.85925L14.5584 4.85139L14.5505 4.8435L14.5426 4.83559L14.5347 4.82765L14.5267 4.81969L14.5187 4.81172L14.5107 4.80371L14.5027 4.79569L14.4947 4.78764L14.4866 4.77957L14.4785 4.77148L14.4704 4.76337L14.4623 4.75524L14.4541 4.74708L14.4459 4.73891L14.4377 4.73071L14.4295 4.72249L14.4213 4.71425L14.413 4.70599L14.4047 4.69772L14.3964 4.68942L14.3881 4.6811L14.3798 4.67276L14.3714 4.6644L14.363 4.65602L14.3546 4.64762L14.3462 4.6392L14.3378 4.63076L14.3293 4.6223L14.3209 4.61383L14.3124 4.60533L14.3039 4.59682L14.2953 4.58829L14.2868 4.57974L14.2782 4.57117L14.2696 4.56258L14.261 4.55398L14.2524 4.54536L14.2437 4.53672L14.2351 4.52806L14.2264 4.51939L14.2177 4.51069L14.209 4.50199L14.2003 4.49326L14.1915 4.48452L14.1828 4.47576L14.174 4.46698L14.1652 4.45819L14.1564 4.44938L14.1476 4.44056L14.1388 4.43172L14.1299 4.42286L14.121 4.41399L14.1121 4.40511L14.1032 4.3962L14.0943 4.38729L14.0854 4.37836L14.0764 4.36941L14.0675 4.36045L14.0585 4.35147L14.0495 4.34248L14.0405 4.33348L14.0315 4.32446L14.0225 4.31542L14.0134 4.30638L14.0044 4.29732L13.9953 4.28824L13.9862 4.27916L13.9771 4.27006L13.968 4.26094L13.9589 4.25182L13.9497 4.24268L13.9406 4.23353L13.9314 4.22436L13.9222 4.21519L13.913 4.206L13.9038 4.1968L13.8946 4.18759L13.8854 4.17836L13.8762 4.16913L13.8669 4.15988L13.8577 4.15062L13.8484 4.14135L13.8391 4.13207L13.8298 4.12278L13.8205 4.11348L13.8112 4.10416L13.8019 4.09484L13.7925 4.08551L13.7832 4.07616L13.7738 4.06681L13.7645 4.05745L13.7551 4.04808L13.7457 4.03869L13.7363 4.0293L13.7269 4.0199L13.7175 4.01049L13.7081 4.00107L13.6987 3.99164L13.6892 3.98221L13.6798 3.97276L13.6703 3.96331L13.6609 3.95385L13.6514 3.94438L13.6419 3.9349L13.6324 3.92542L13.623 3.91592L13.6135 3.90642L13.6039 3.89692L13.5944 3.8874L13.5849 3.87788L13.5754 3.86835L13.5658 3.85882L13.5563 3.84927L13.5468 3.83973L13.5372 3.83017L13.5276 3.82061L13.5181 3.81104L13.5085 3.80147L13.4989 3.79189L13.4893 3.78231L13.4798 3.77272L13.4702 3.76313L13.4606 3.75353L13.451 3.74392L13.4413 3.73431L13.4317 3.7247L13.4221 3.71508L13.4125 3.70546L13.4029 3.69583L13.3932 3.6862L13.3836 3.67657L13.374 3.66693L13.3643 3.65729L13.3547 3.64764L13.345 3.63799L13.3354 3.62834L13.3257 3.61868L13.3161 3.60903L13.3064 3.59937L13.2967 3.5897L13.2871 3.58004L13.2774 3.57037L13.2677 3.5607L13.2581 3.55103L13.2484 3.54135L13.2387 3.53168L13.229 3.522L13.2194 3.51232L13.2097 3.50264L13.207 3.5L14.8535 1.85355L15.207 1.5L14.4999 0.792892L14.1464 1.14645L12.4999 2.79289L12.4909 2.78385L12.4815 2.7745L12.4722 2.76517L12.4629 2.75585L12.4536 2.74653L12.4443 2.73723L12.435 2.72794L12.4257 2.71866L12.4164 2.70939L12.4072 2.70013L12.3979 2.69088L12.3887 2.68165L12.3795 2.67242L12.3702 2.66321L12.361 2.65401L12.3518 2.64482L12.3427 2.63564L12.3335 2.62648L12.3244 2.61732L12.3152 2.60818L12.3061 2.59906L12.297 2.58994L12.2879 2.58084L12.2788 2.57176L12.2697 2.56268L12.2607 2.55362L12.2516 2.54457L12.2426 2.53554L12.2336 2.52652L12.2245 2.51752L12.2156 2.50852L12.2066 2.49955L12.1976 2.49059L12.1887 2.48164L12.1797 2.47271L12.1708 2.46379L12.1619 2.45488L12.153 2.446L12.1442 2.43713L12.1353 2.42827L12.1265 2.41943L12.1176 2.4106L12.1088 2.4018L12.1 2.393L12.0913 2.38423L12.0825 2.37547L12.0738 2.36672L12.065 2.358L12.0563 2.34929L12.0476 2.34059L12.039 2.33192L12.0303 2.32326L12.0217 2.31462L12.013 2.306L12.0044 2.29739L11.9958 2.2888L11.9873 2.28023L11.9787 2.27168L11.9702 2.26315L11.9617 2.25464L11.9532 2.24614L11.9447 2.23766L11.9362 2.22921L11.9278 2.22077L11.9194 2.21235L11.911 2.20395L11.9026 2.19557L11.8942 2.18721L11.8859 2.17887L11.8776 2.17055L11.8693 2.16224L11.861 2.15396L11.8527 2.1457L11.8445 2.13746L11.8363 2.12925L11.8281 2.12105L11.8199 2.11287L11.8117 2.10472L11.8036 2.09658L11.7955 2.08847L11.7874 2.08038L11.7793 2.07231L11.7713 2.06426L11.7633 2.05623L11.7553 2.04823L11.7473 2.04025L11.7393 2.03229L11.7314 2.02435L11.7235 2.01644L11.7156 2.00855L11.7077 2.00068L11.6999 1.99284L11.6921 1.98502L11.6843 1.97722L11.6765 1.96945L11.6687 1.9617L11.661 1.95397L11.6533 1.94627L11.6456 1.93859L11.638 1.93094L11.6303 1.92331L11.6227 1.91571L11.6152 1.90813L11.6076 1.90058L11.6001 1.89305L11.5926 1.88555L11.5851 1.87807L11.5776 1.87062L11.5702 1.86319L11.5628 1.85579L11.5554 1.84841L11.5481 1.84107L11.5408 1.83374L11.5335 1.82645L11.5262 1.81918L11.519 1.81194L11.5118 1.80472L11.5046 1.79753L11.4974 1.79037L11.4903 1.78324L11.4832 1.77613L11.4761 1.76905L11.469 1.762L11.462 1.75498L11.455 1.74799L11.4481 1.74102L11.4411 1.73408L11.4342 1.72717L11.4273 1.72029L11.4205 1.71344L11.4137 1.70662L11.4069 1.69982L11.4001 1.69306L11.3934 1.68632L11.3867 1.67962L11.38 1.67294L11.3733 1.6663L11.3667 1.65968L11.3601 1.6531L11.3536 1.64654L11.347 1.64002L11.3406 1.63352L11.3341 1.62706L11.3277 1.62063L11.3213 1.61422L11.3149 1.60785L11.3085 1.60151L11.3022 1.59521L11.296 1.58893L11.2897 1.58269L11.2835 1.57647L11.2773 1.57029L11.2712 1.56415L11.2651 1.55803L11.259 1.55195L11.2529 1.5459L11.2469 1.53988L11.2409 1.5339L11.235 1.52794L11.2291 1.52203L11.2232 1.51614L11.2173 1.51029L11.2115 1.50447L11.2057 1.49869L11.2 1.49294L11.1943 1.48722L11.1886 1.48154L11.1829 1.4759L11.1773 1.47028L11.1717 1.46471L11.1662 1.45916L11.1607 1.45366L11.1552 1.44818L11.1498 1.44275L11.1444 1.43734L11.139 1.43198L11.1337 1.42665L11.1284 1.42135L11.1231 1.4161L11.1179 1.41087L11.1127 1.40569L11.1076 1.40054L11.1025 1.39543L11.0974 1.39035L11.0923 1.38531L11.0873 1.38031L11.0824 1.37535L11.0775 1.37042L11.0726 1.36553L11.0677 1.36068L11.0629 1.35587L11.0581 1.35109L11.0534 1.34635L11.0487 1.34165L11.044 1.33699L11.0394 1.33237L11.0348 1.32778L11.0303 1.32324L11.0258 1.31873L11.0213 1.31427L11.0169 1.30984L11.0125 1.30545L11.0081 1.3011L11.0038 1.2968L10.9996 1.29253L10.9953 1.2883L10.9911 1.28411L10.987 1.27996L10.9829 1.27585L10.9788 1.27179L10.9748 1.26776L10.9708 1.26378L10.9669 1.25983L10.963 1.25593L10.9591 1.25207L10.9553 1.24825L10.9515 1.24447L10.9478 1.24073L10.9441 1.23704L10.9404 1.23338L10.9368 1.22977L10.9332 1.22621L10.9297 1.22268L10.9262 1.2192L10.9228 1.21576L10.9194 1.21236L10.916 1.20901L10.9127 1.2057L10.9095 1.20243L10.9062 1.19921L10.9031 1.19603L10.8999 1.19289L10.8968 1.1898L10.8938 1.18675L10.8908 1.18375L10.8878 1.18079L10.8849 1.17788L10.882 1.17501L10.8792 1.17219L10.8764 1.16941L10.8737 1.16667L10.871 1.16398L10.8684 1.16134L10.8658 1.15874L10.8632 1.15619L10.8607 1.15369L10.8583 1.15123L10.8558 1.14881L10.8535 1.14645ZM10.6285 7.62853L8.3714 5.37147C7.92226 4.92233 7.17365 5.00028 6.82668 5.53231L1.29731 14.0107C1.00182 14.4638 1.53616 14.9981 1.98925 14.7026L10.4676 9.17324C10.9996 8.82627 11.0776 8.07766 10.6285 7.62853Z" fill="white"/>
</svg>
