<svg width="16" height="16" viewBox="0 0 16 16" fill="none" xmlns="http://www.w3.org/2000/svg">
<path fill-rule="evenodd" clip-rule="evenodd" d="M5.99983 2.5C5.99983 3.32843 6.67141 4 7.49983 4C8.32826 4 8.99983 3.32843 8.99983 2.5C8.99983 1.67157 8.32826 1 7.49983 1C6.67141 1 5.99983 1.67157 5.99983 2.5ZM4.94058 3.94074L6.05909 5.05925C6.28527 5.28544 6.24384 5.66291 5.97397 5.83464L1.94895 8.39602C1.72337 8.53957 1.46026 8.27647 1.60382 8.05088L4.1652 4.02586C4.33693 3.756 4.71439 3.71456 4.94058 3.94074ZM12.7172 6.69571C13.2088 7.70609 13.4998 9.05861 13.4998 10.5C13.4998 10.8341 13.4842 11.1622 13.454 11.4814C13.5795 11.4307 13.6989 11.377 13.8117 11.3206C14.5643 10.9443 14.9145 10.5134 14.9858 10.143C14.8634 8.58325 13.9458 7.24701 12.6381 6.53951C12.6653 6.59106 12.6916 6.64316 12.7172 6.69571ZM12.4998 10.5C12.4998 10.9536 12.4681 11.3896 12.4098 11.7998C11.8323 11.9274 11.1863 12 10.4998 12C9.81336 12 9.1674 11.9274 8.58989 11.7998C8.53156 11.3896 8.49984 10.9537 8.49984 10.5C8.49984 9.17997 8.76846 7.98249 9.18167 7.13322C9.4715 6.53755 9.79162 6.18536 10.0886 6.01854C10.224 6.00627 10.3612 6 10.4998 6C10.6385 6 10.7757 6.00627 10.9111 6.01855C11.2081 6.18537 11.5282 6.53756 11.818 7.13322C12.2312 7.98249 12.4998 9.17997 12.4998 10.5ZM10.4998 13C9.91461 13 9.34784 12.952 8.81488 12.862L10.5022 15C10.9007 14.9987 11.3954 14.6619 11.8204 13.8119C11.9599 13.5329 12.083 13.2136 12.1848 12.862C11.6518 12.952 11.085 13 10.4998 13ZM8.81488 12.862L10.4998 15C10.1009 15 9.60512 14.6636 9.17928 13.8119C9.03975 13.5329 8.91664 13.2136 8.81488 12.862ZM12.7148 14.2591C12.6769 14.335 12.6373 14.4097 12.5959 14.483C13.6152 13.9455 14.4031 13.0282 14.7713 11.9195C14.6092 12.0273 14.4371 12.1259 14.2589 12.215C13.9618 12.3635 13.6338 12.4937 13.2811 12.6032C13.147 13.2183 12.9548 13.7791 12.7148 14.2591ZM6.22826 11.9195C6.59654 13.0283 7.38448 13.9456 8.40377 14.4831C8.36242 14.4097 8.32278 14.335 8.28485 14.2591C8.04483 13.7791 7.85271 13.2183 7.71862 12.6032C7.36587 12.4938 7.0378 12.3636 6.74065 12.215C6.5625 12.1259 6.3904 12.0273 6.22826 11.9195ZM7.18787 11.3206C7.30073 11.377 7.42016 11.4307 7.54565 11.4815C7.51547 11.1622 7.49984 10.8341 7.49984 10.5C7.49984 9.05861 7.79086 7.70609 8.28246 6.69571C8.30804 6.64314 8.33443 6.59102 8.36162 6.53944C7.05389 7.24693 6.13618 8.5832 6.01375 10.143C6.08509 10.5134 6.43533 10.9443 7.18787 11.3206Z" fill="white"/>
</svg>
