<svg width="16" height="16" viewBox="0 0 16 16" fill="none" xmlns="http://www.w3.org/2000/svg">
<path fill-rule="evenodd" clip-rule="evenodd" d="M2.5 4H13.5C13.7761 4 14 4.22386 14 4.5V11.5C14 11.7761 13.7761 12 13.5 12H2.5C2.22386 12 2 11.7761 2 11.5V4.5C2 4.22386 2.22386 4 2.5 4ZM1 4.5C1 3.67157 1.67157 3 2.5 3H13.5C14.3284 3 15 3.67157 15 4.5V11.5C15 12.3284 14.3284 13 13.5 13H2.5C1.67157 13 1 12.3284 1 11.5V4.5ZM4.85355 5.14645L4.5 4.79289L3.79289 5.5L4.14645 5.85355L6.29289 8L4.14645 10.1464L3.79289 10.5L4.5 11.2071L4.85355 10.8536L7.35355 8.35355L7.70711 8L7.35355 7.64645L4.85355 5.14645ZM8.5 10H8V11H8.5H11.5H12V10H11.5H8.5Z" fill="white"/>
</svg>
