<svg width="16" height="16" viewBox="0 0 16 16" fill="none" xmlns="http://www.w3.org/2000/svg">
<path fill-rule="evenodd" clip-rule="evenodd" d="M13.5 2H2.5C2.22386 2 2 2.22386 2 2.5V9.5C2 9.77614 2.22386 10 2.5 10H7.16457C7.00117 10.3188 6.96288 10.6718 7.03395 11H2.5C1.67157 11 1 10.3284 1 9.5V2.5C1 1.67157 1.67157 1 2.5 1H13.5C14.3284 1 15 1.67157 15 2.5V8.38227C14.6791 8.28443 14.3262 8.29382 14 8.42616V2.5C14 2.22386 13.7761 2 13.5 2ZM4.5 2.79289L4.85355 3.14645L7.35355 5.64645L7.70711 6L7.35355 6.35355L4.85355 8.85355L4.5 9.20711L3.79289 8.5L4.14645 8.14645L6.29289 6L4.14645 3.85355L3.79289 3.5L4.5 2.79289ZM12.7812 9.17071V8.5C12.7812 8.22386 12.5573 8 12.2812 8H11.2812C11.005 8 10.7812 8.22386 10.7812 8.5V9.17071C10.4301 9.29481 10.109 9.48242 9.83164 9.71973L9.25008 9.38397C9.01094 9.2459 8.70514 9.32784 8.56707 9.56699L8.06707 10.433C7.929 10.6722 8.01094 10.978 8.25008 11.116L8.8312 11.4515C8.79835 11.6294 8.78118 11.8127 8.78118 12C8.78118 12.1873 8.79835 12.3706 8.8312 12.5485L8.25008 12.884C8.01094 13.022 7.929 13.3278 8.06707 13.567L8.56707 14.433C8.70514 14.6722 9.01094 14.7541 9.25008 14.616L9.83164 14.2803C10.1089 14.5176 10.4301 14.7052 10.7812 14.8293V15.5C10.7812 15.7761 11.005 16 11.2812 16H12.2812C12.5573 16 12.7812 15.7761 12.7812 15.5V14.8293C13.1323 14.7052 13.4534 14.5176 13.7307 14.2803L14.3123 14.616C14.5514 14.7541 14.8572 14.6722 14.9953 14.433L15.4953 13.567C15.6334 13.3278 15.5514 13.022 15.3123 12.884L14.7312 12.5485C14.764 12.3706 14.7812 12.1873 14.7812 12C14.7812 11.8127 14.764 11.6294 14.7312 11.4515L15.3123 11.116C15.5514 10.978 15.6334 10.6722 15.4953 10.433L14.9953 9.56699C14.8572 9.32784 14.5514 9.24591 14.3123 9.38398L13.7307 9.71974C13.4534 9.48242 13.1323 9.29481 12.7812 9.17071ZM11.7812 13.5C12.6096 13.5 13.2812 12.8284 13.2812 12C13.2812 11.1716 12.6096 10.5 11.7812 10.5C10.9528 10.5 10.2812 11.1716 10.2812 12C10.2812 12.8284 10.9528 13.5 11.7812 13.5Z" fill="white"/>
</svg>
