<svg width="16" height="16" viewBox="0 0 16 16" fill="none" xmlns="http://www.w3.org/2000/svg">
<path fill-rule="evenodd" clip-rule="evenodd" d="M13.5 2H2.5C2.22386 2 2 2.22386 2 2.5V9.5C2 9.77614 2.22386 10 2.5 10H7V11H2.5C1.67157 11 1 10.3284 1 9.5V2.5C1 1.67157 1.67157 1 2.5 1H13.5C14.3284 1 15 1.67157 15 2.5V7H14V2.5C14 2.22386 13.7761 2 13.5 2ZM4.5 2.79289L4.85355 3.14645L7.35355 5.64645L7.70711 6L7.35355 6.35355L4.85355 8.85355L4.5 9.20711L3.79289 8.5L4.14645 8.14645L6.29289 6L4.14645 3.85355L3.79289 3.5L4.5 2.79289ZM8 9C8 8.44772 8.44772 8 9 8H15C15.5523 8 16 8.44772 16 9V13C16 13.5523 15.5523 14 15 14H12.5L10.8536 15.6464C10.5386 15.9614 10 15.7383 10 15.2929V14H9C8.44772 14 8 13.5523 8 13V9Z" fill="white"/>
</svg>
