<svg width="16" height="16" viewBox="0 0 16 16" fill="none" xmlns="http://www.w3.org/2000/svg">
<path fill-rule="evenodd" clip-rule="evenodd" d="M7.5 13.3229C7.86647 13.7381 8.40265 14 9 14L10 14C10 14.5523 9.55228 15 9 15H6C5.44772 15 5 14.5523 5 14L6 14C6.59735 14 7.13353 13.7381 7.5 13.3229Z" fill="white" fill-opacity="0.5"/>
<path fill-rule="evenodd" clip-rule="evenodd" d="M6 13H3.41421C3.149 13 2.89464 12.8946 2.70711 12.7071L1.29289 11.2929C1.10536 11.1054 1 10.851 1 10.5858V4.41421C1 4.149 1.10536 3.89464 1.29289 3.70711L3.70711 1.29289C3.89464 1.10536 4.149 1 4.41421 1H6C6.55228 1 7 1.44772 7 2V12C7 12.5523 6.55228 13 6 13ZM4.5 7C3.67157 7 3 7.67157 3 8.5V9H2V10H3.5C3.77614 10 4 10.2239 4 10.5V11H5V10.5C5 9.84689 4.5826 9.29127 4 9.08535V8.5C4 8.22386 4.22386 8 4.5 8H5V7H4.5ZM4 5V4.5C4 3.67157 4.67157 3 5.5 3H6V4H5.5C5.22386 4 5 4.22386 5 4.5V5H4ZM9 13H11.5858C11.851 13 12.1054 12.8946 12.2929 12.7071L13.7071 11.2929C13.8946 11.1054 14 10.851 14 10.5858V4.41421C14 4.149 13.8946 3.89464 13.7071 3.70711L11.2929 1.29289C11.1054 1.10536 10.851 1 10.5858 1H9C8.44772 1 8 1.44772 8 2V12C8 12.5523 8.44772 13 9 13ZM10.5 7C11.3284 7 12 7.67157 12 8.5V9H13V10H11.5C11.2239 10 11 10.2239 11 10.5V11H10V10.5C10 9.84689 10.4174 9.29127 11 9.08535V8.5C11 8.22386 10.7761 8 10.5 8H10V7H10.5ZM11 5V4.5C11 3.67157 10.3284 3 9.5 3H9V4H9.5C9.77614 4 10 4.22386 10 4.5V5H11Z" fill="white"/>
</svg>
