<svg width="16" height="16" viewBox="0 0 16 16" fill="none" xmlns="http://www.w3.org/2000/svg">
<path fill-rule="evenodd" clip-rule="evenodd" d="M6 13H3.41421C3.149 13 2.89464 12.8946 2.70711 12.7071L1.29289 11.2929C1.10536 11.1054 1 10.851 1 10.5858V4.41421C1 4.149 1.10536 3.89464 1.29289 3.70711L3.70711 1.29289C3.89464 1.10536 4.149 1 4.41421 1H6C6.55228 1 7 1.44772 7 2V10.2071V12C7 12.5523 6.55228 13 6 13ZM14 9.42121V4.41421C14 4.149 13.8946 3.89464 13.7071 3.70711L11.2929 1.29289C11.1054 1.10536 10.851 1 10.5858 1H9C8.44772 1 8 1.44772 8 2V8.79282C8.50756 8.61238 9.11029 8.69608 9.56066 9.14645L11 10.5858V10.1019C11 8.81313 12.5179 8.12436 13.4878 8.973L14 9.42121ZM4.5 7C3.67157 7 3 7.67157 3 8.5V9H2V10H3.5C3.77614 10 4 10.2239 4 10.5V11H5V10.5C5 9.84689 4.5826 9.29127 4 9.08535V8.5C4 8.22386 4.22386 8 4.5 8H5V7H4.5ZM4 5V4.5C4 3.67157 4.67157 3 5.5 3H6V4H5.5C5.22386 4 5 4.22386 5 4.5V5H4ZM11 5V4.5C11 3.67157 10.3284 3 9.5 3H9V4H9.5C9.77614 4 10 4.22386 10 4.5V5H11Z" fill="white" fill-opacity="0.5"/>
<path fill-rule="evenodd" clip-rule="evenodd" d="M16 12.5L12.8293 15.2744C12.506 15.5573 12 15.3277 12 14.8981L12 10.1019C12 9.67228 12.506 9.4427 12.8293 9.72558L16 12.5ZM11 13L8.85355 15.1464C8.53857 15.4614 8 15.2383 8 14.7929V10.2071C8 9.76165 8.53857 9.53857 8.85355 9.85355L11 12L11 13Z" fill="white"/>
</svg>
