<svg width="16" height="16" viewBox="0 0 16 16" fill="none" xmlns="http://www.w3.org/2000/svg">
<path fill-rule="evenodd" clip-rule="evenodd" d="M2 1V12.5V15H3V13H8.5C9.32843 13 10 12.3284 10 11.5V10H9V11.5C9 11.7761 8.77614 12 8.5 12H3V1H2ZM5 3C5 2.44772 5.44772 2 6 2H13C13.5523 2 14 2.44772 14 3V4C14 4.55228 13.5523 5 13 5H6C5.44772 5 5 4.55228 5 4V3ZM6 3H7V4H6V3ZM9 3H8V4H9V3ZM5 7C5 6.44772 5.44772 6 6 6H13C13.5523 6 14 6.44772 14 7V8C14 8.55228 13.5523 9 13 9H6C5.44772 9 5 8.55228 5 8V7ZM9 7H13V8H9V7ZM7 7H6V8H7V7Z" fill="white"/>
</svg>
