<svg width="16" height="16" viewBox="0 0 16 16" fill="none" xmlns="http://www.w3.org/2000/svg">
<path fill-rule="evenodd" clip-rule="evenodd" d="M9 11.5V10.5858C9.3458 10.5858 9.69161 10.4967 10 10.3184V11.5C10 12.3284 9.32843 13 8.5 13H3V15H2V12.5V1H3V12H8.5C8.77614 12 9 11.7761 9 11.5ZM10.4141 1H13.9998V4.58579C13.9998 4.851 13.8945 5.10536 13.707 5.29289L9.70696 9.29289C9.31643 9.68342 8.68327 9.68342 8.29274 9.29289L5.70696 6.70711C5.31643 6.31658 5.31643 5.68342 5.70696 5.29289L9.70696 1.29289C9.89449 1.10536 10.1488 1 10.4141 1ZM10.9998 3C10.9998 2.44772 11.4475 2 11.9998 2C12.552 2 12.9998 2.44772 12.9998 3C12.9998 3.55228 12.552 4 11.9998 4C11.4475 4 10.9998 3.55228 10.9998 3Z" fill="white"/>
</svg>
