<svg width="16" height="16" viewBox="0 0 16 16" fill="none" xmlns="http://www.w3.org/2000/svg">
<path fill-rule="evenodd" clip-rule="evenodd" d="M2 1V12.5V15H3V13H8.5C9.32843 13 10 12.3284 10 11.5V11H9V11.5C9 11.7761 8.77614 12 8.5 12H3V1H2ZM8.5 1C7.67157 1 7 1.67157 7 2.5V3.5C7 4.32843 7.67157 5 8.5 5H9.5C10.3284 5 11 4.32843 11 3.5V2.5C11 1.67157 10.3284 1 9.5 1H8.5ZM6.5 6C5.67157 6 5 6.67157 5 7.5V10H7H11V8C12.6569 8 14 6.65685 14 5V3H12V5C12 5.55228 11.5523 6 11 6H6.5Z" fill="white"/>
</svg>
