<svg width="16" height="16" viewBox="0 0 16 16" fill="none" xmlns="http://www.w3.org/2000/svg">
<path fill-rule="evenodd" clip-rule="evenodd" d="M1.5 10C1.22386 10 1 10.2239 1 10.5V11.5C1 11.7761 1.22386 12 1.5 12H6V10H1.5ZM14.5 10H10V12H14.5C14.7761 12 15 11.7761 15 11.5V10.5C15 10.2239 14.7761 10 14.5 10Z" fill="white" fill-opacity="0.5"/>
<path fill-rule="evenodd" clip-rule="evenodd" d="M7 1.5C7 1.22386 7.22386 1 7.5 1H8.5C8.77614 1 9 1.22386 9 1.5V14.5C9 14.7761 8.77614 15 8.5 15H7.5C7.22386 15 7 14.7761 7 14.5V1.5ZM10 3.50002V1.84863L10.9159 3.22243L10.9159 3.22246L10.9159 3.22252L10.916 3.22267L10.9165 3.22333L10.9198 3.2282L10.9347 3.25006C10.9483 3.26983 10.9692 3.29973 10.9967 3.33831C11.0519 3.41551 11.1337 3.52719 11.2384 3.6618C11.4485 3.93185 11.7472 4.29012 12.1036 4.64647C12.4615 5.0044 12.8667 5.34946 13.2885 5.60252C13.7129 5.85719 14.1229 6.00002 14.5 6.00002H15V7.00002H14.5C14.3306 7.00002 14.1636 6.98285 14 6.95166V8.50002V9.00002H13V8.50002V6.58767C12.9232 6.54699 12.8478 6.50429 12.774 6.46002C12.2583 6.15058 11.7885 5.74564 11.3964 5.35357C11.2551 5.21226 11.1225 5.07118 11 4.93487V8.50002V9.00002H10V8.50002V3.50002ZM6 1.84863V3.50002V8.50002V9.00002H5V8.50002V4.93487C4.87751 5.07118 4.74487 5.21226 4.60355 5.35357C4.21149 5.74564 3.74173 6.15058 3.226 6.46002C3.15221 6.50429 3.07684 6.54699 3 6.58767V8.50002V9.00002H2V8.50002V6.95166C1.83636 6.98285 1.6694 7.00002 1.5 7.00002H1V6.00002H1.5C1.87706 6.00002 2.28706 5.85719 2.7115 5.60252C3.13327 5.34946 3.53851 5.0044 3.89645 4.64647C4.25279 4.29012 4.55153 3.93185 4.76157 3.6618C4.86627 3.52719 4.94814 3.41551 5.00329 3.33831C5.03084 3.29973 5.05168 3.26983 5.0653 3.25006L5.08024 3.2282L5.08353 3.22333L5.08397 3.22267L5.08408 3.22252L5.08411 3.22246L5.08413 3.22243L6 1.84863Z" fill="white"/>
</svg>
