<svg width="16" height="16" viewBox="0 0 16 16" fill="none" xmlns="http://www.w3.org/2000/svg">
<path fill-rule="evenodd" clip-rule="evenodd" d="M4.22132 15H3.15332L4.53166 11.3244L6.03166 7.32444L6.15332 7H6.49982H9.49982H9.84632L9.96799 7.32444L11.0002 10.077C11.0001 10.0853 11 10.0935 11 10.1019V10.5858L9.59678 9.18257L9.15332 8H6.84632L5.72132 11H7V12H5.34632L4.22132 15Z" fill="white" fill-opacity="0.5"/>
<path fill-rule="evenodd" clip-rule="evenodd" d="M5.17157 1.17158C4.44717 1.89599 4 2.8953 4 4.00001C4 5.10472 4.44717 6.10403 5.17157 6.82844L4.46447 7.53555C3.56019 6.63127 3 5.38059 3 4.00001C3 2.61944 3.56019 1.36875 4.46447 0.464478L5.17157 1.17158ZM12 4.00001C12 2.8953 11.5528 1.89599 10.8284 1.17158L11.5355 0.464478C12.4398 1.36875 13 2.61944 13 4.00001C13 5.38059 12.4398 6.63127 11.5355 7.53555L10.8284 6.82844C11.5528 6.10403 12 5.10472 12 4.00001ZM6 4.00001C6 3.44759 6.22331 2.94827 6.58579 2.5858L5.87868 1.87869C5.33633 2.42104 5 3.17172 5 4.00001C5 4.8283 5.33633 5.57899 5.87868 6.12133L6.58579 5.41423C6.22331 5.05175 6 4.55243 6 4.00001ZM9.41421 2.5858C9.77669 2.94827 10 3.44759 10 4.00001C10 4.55243 9.77669 5.05175 9.41421 5.41423L10.1213 6.12133C10.6637 5.57899 11 4.8283 11 4.00001C11 3.17172 10.6637 2.42104 10.1213 1.87869L9.41421 2.5858ZM8 5.00001C8.55228 5.00001 9 4.5523 9 4.00001C9 3.44773 8.55228 3.00001 8 3.00001C7.44772 3.00001 7 3.44773 7 4.00001C7 4.5523 7.44772 5.00001 8 5.00001ZM12.8293 15.2744L16 12.5L12.8293 9.72558C12.506 9.4427 12 9.67229 12 10.1019L12 14.8981C12 15.3277 12.506 15.5573 12.8293 15.2744ZM8.85355 15.1464L11 13L11 12L8.85355 9.85355C8.53857 9.53857 8 9.76165 8 10.2071L8 14.7929C8 15.2383 8.53857 15.4614 8.85355 15.1464Z" fill="white"/>
</svg>
