<svg width="16" height="16" viewBox="0 0 16 16" fill="none" xmlns="http://www.w3.org/2000/svg">
<path fill-rule="evenodd" clip-rule="evenodd" d="M4.22132 15H3.15332L4.53166 11.3244L6.03166 7.32444L6.15332 7H6.49982H9.49982H9.84632L9.96799 7.32444L11.468 11.3244L12.8463 15H11.7783L10.6533 12H5.34632L4.22132 15ZM10.2783 11H5.72132L6.84632 8H9.15332L10.2783 11Z" fill="white" fill-opacity="0.5"/>
<path fill-rule="evenodd" clip-rule="evenodd" d="M4 4.00001C4 2.8953 4.44717 1.89599 5.17157 1.17158L4.46447 0.464478C3.56019 1.36875 3 2.61944 3 4.00001C3 5.38059 3.56019 6.63127 4.46447 7.53555L5.17157 6.82844C4.44717 6.10403 4 5.10472 4 4.00001ZM10.8284 1.17158C11.5528 1.89599 12 2.8953 12 4.00001C12 5.10472 11.5528 6.10403 10.8284 6.82844L11.5355 7.53555C12.4398 6.63127 13 5.38059 13 4.00001C13 2.61944 12.4398 1.36875 11.5355 0.464478L10.8284 1.17158ZM6.58579 2.5858C6.22331 2.94827 6 3.44759 6 4.00001C6 4.55243 6.22331 5.05175 6.58579 5.41423L5.87868 6.12133C5.33633 5.57899 5 4.8283 5 4.00001C5 3.17172 5.33633 2.42104 5.87868 1.87869L6.58579 2.5858ZM10 4.00001C10 3.44759 9.77669 2.94827 9.41421 2.5858L10.1213 1.87869C10.6637 2.42104 11 3.17172 11 4.00001C11 4.8283 10.6637 5.57899 10.1213 6.12133L9.41421 5.41423C9.77669 5.05175 10 4.55243 10 4.00001ZM9 4.00001C9 4.5523 8.55228 5.00001 8 5.00001C7.44772 5.00001 7 4.5523 7 4.00001C7 3.44773 7.44772 3.00001 8 3.00001C8.55228 3.00001 9 3.44773 9 4.00001Z" fill="white"/>
</svg>
