<svg width="16" height="16" viewBox="0 0 16 16" fill="none" xmlns="http://www.w3.org/2000/svg">
<path fill-rule="evenodd" clip-rule="evenodd" d="M9.99992 0H10.9999V1L12.9999 3H13.9999V4H12.9999V4.58579C12.9999 4.851 12.8946 5.10536 12.707 5.29289L11.707 6.29289L7.70703 2.29289L8.70703 1.29289C8.89457 1.10536 9.14892 1 9.41414 1H9.99992V0ZM6.70711 2.70714L11.0179 7.01795C10.3123 7.14245 9.77618 7.75862 9.77618 8.5V8.52724L9.75258 8.51362C9.03275 8.09802 8.11231 8.34465 7.69672 9.06448L7.19672 9.93051C6.78112 10.6503 7.02775 11.5708 7.74758 11.9864L7.77117 12L7.74758 12.0136C7.52035 12.1448 7.34028 12.3263 7.2133 12.5359C6.83451 12.7363 6.42488 12.875 6 12.9457V14H5V13H4.41421C4.149 13 3.89464 12.8947 3.70711 12.7071L2.85354 11.8536L5.85355 8.85356L6.20711 8.5L5.5 7.7929L5.14645 8.14645L2.14643 11.1465L1.29289 10.2929C1.10536 10.1054 1 9.85104 1 9.58582V9H0V8H1.05429C1.19034 7.18275 1.57808 6.42196 2.17157 5.82846L3.64645 4.35359L3.14645 3.85359L2.79289 3.50003L3.5 2.79293L3.85355 3.14648L4.35355 3.64648L5.29289 2.70714C5.68342 2.31661 6.31658 2.31661 6.70711 2.70714Z" fill="white" fill-opacity="0.5"/>
<path fill-rule="evenodd" clip-rule="evenodd" d="M12.2812 8C12.5573 8 12.7812 8.22386 12.7812 8.5V9.17071C13.1323 9.29481 13.4534 9.48242 13.7307 9.71974L14.3123 9.38398C14.5514 9.24591 14.8572 9.32784 14.9953 9.56699L15.4953 10.433C15.6334 10.6722 15.5514 10.978 15.3123 11.116L14.7312 11.4515C14.764 11.6294 14.7812 11.8127 14.7812 12C14.7812 12.1873 14.764 12.3706 14.7312 12.5485L15.3123 12.884C15.5514 13.022 15.6334 13.3278 15.4953 13.567L14.9953 14.433C14.8572 14.6722 14.5514 14.7541 14.3123 14.616L13.7307 14.2803C13.4534 14.5176 13.1323 14.7052 12.7812 14.8293V15.5C12.7812 15.7761 12.5573 16 12.2812 16H11.2812C11.005 16 10.7812 15.7761 10.7812 15.5V14.8293C10.4301 14.7052 10.1089 14.5176 9.83164 14.2803L9.25008 14.616C9.01094 14.7541 8.70514 14.6722 8.56707 14.433L8.06707 13.567C7.929 13.3278 8.01094 13.022 8.25008 12.884L8.8312 12.5485C8.79835 12.3706 8.78118 12.1873 8.78118 12C8.78118 11.8127 8.79835 11.6294 8.8312 11.4515L8.25008 11.116C8.01094 10.978 7.929 10.6722 8.06707 10.433L8.56707 9.56698C8.70514 9.32784 9.01094 9.2459 9.25008 9.38397L9.83164 9.71973C10.109 9.48242 10.4301 9.29481 10.7812 9.17071V8.5C10.7812 8.22386 11.005 8 11.2812 8H12.2812ZM13.2812 12C13.2812 12.8284 12.6096 13.5 11.7812 13.5C10.9528 13.5 10.2812 12.8284 10.2812 12C10.2812 11.1716 10.9528 10.5 11.7812 10.5C12.6096 10.5 13.2812 11.1716 13.2812 12Z" fill="white"/>
</svg>
