<svg width="16" height="16" viewBox="0 0 16 16" fill="none" xmlns="http://www.w3.org/2000/svg">
<path fill-rule="evenodd" clip-rule="evenodd" d="M10.9999 1H11.9999V2L13.9999 4H14.9999V5H13.9999V5.58579C13.9999 5.851 13.8946 6.10536 13.707 6.29289L12.707 7.29289L8.70703 3.29289L9.70703 2.29289C9.89457 2.10536 10.1489 2 10.4141 2H10.9999V1ZM7.70711 3.70714L12.2929 8.29293C12.6834 8.68345 12.6834 9.31662 12.2929 9.70714L11.3536 10.6465L11.8536 11.1465L12.2071 11.5L11.5 12.2071L11.1464 11.8536L10.6464 11.3536L9.17157 12.8285C8.57807 13.422 7.81726 13.8097 7 13.9457V15H6V14H5.41421C5.149 14 4.89464 13.8947 4.70711 13.7071L3.85354 12.8536L6.85355 9.85356L7.20711 9.5L6.5 8.7929L6.14645 9.14645L3.14643 12.1465L2.29289 11.2929C2.10536 11.1054 2 10.851 2 10.5858V10H1V9H2.05429C2.19034 8.18275 2.57808 7.42196 3.17157 6.82846L4.64645 5.35359L4.14645 4.85359L3.79289 4.50003L4.5 3.79293L4.85355 4.14648L5.35355 4.64648L6.29289 3.70714C6.68342 3.31661 7.31658 3.31661 7.70711 3.70714Z" fill="white"/>
</svg>
