<svg width="16" height="16" viewBox="0 0 16 16" fill="none" xmlns="http://www.w3.org/2000/svg">
<path fill-rule="evenodd" clip-rule="evenodd" d="M11.1464 1.43934C10.8651 1.15803 10.4836 1 10.0858 1H3.91421C3.51639 1 3.13486 1.15804 2.85355 1.43934L2.14645 2.14645L0.43934 3.85355C0.158035 4.13486 0 4.51639 0 4.91421V6.5V7H1V6.5V4.91421C1 4.78161 1.05268 4.65443 1.14645 4.56066L2 3.70711V8.5V9V13H9.07843C9.02677 12.7987 9 12.5901 9 12.3787V10V9H3V8.5V4H11V7H12V3.70711L12.8536 4.56066C12.9473 4.65443 13 4.78161 13 4.91421V6.5V7H14V6.5V4.91421C14 4.51639 13.842 4.13486 13.5607 3.85355L11.8536 2.14645L11.1464 1.43934ZM4 12C4.55228 12 5 11.5523 5 11C5 10.4477 4.55228 9.99999 4 9.99999C3.44772 9.99999 3 10.4477 3 11C3 11.5523 3.44772 12 4 12ZM5 14.5V14H3V14.5C3 14.7761 3.22386 15 3.5 15H4.5C4.77614 15 5 14.7761 5 14.5Z" fill="white" fill-opacity="0.5"/>
<path fill-rule="evenodd" clip-rule="evenodd" d="M11 8H12V10H14V8H15V10H16V12.3787C16 12.7765 15.842 13.158 15.5607 13.4393L14 15V16H12V15L10.4393 13.4393C10.158 13.158 10 12.7765 10 12.3787V10H11V8Z" fill="white"/>
</svg>
