<svg width="16" height="16" viewBox="0 0 16 16" fill="none" xmlns="http://www.w3.org/2000/svg">
<path fill-rule="evenodd" clip-rule="evenodd" d="M12.1464 1.43935C11.8651 1.15804 11.4836 1.00001 11.0858 1.00001H4.91421C4.51639 1.00001 4.13486 1.15804 3.85355 1.43935L3.14645 2.14645L1.43934 3.85356C1.15804 4.13487 1 4.5164 1 4.91422V6.50001V7.00001H2V6.50001V4.91422C2 4.78161 2.05268 4.65444 2.14645 4.56067L3 3.70711V8.50001V9.00001V13H13V9.00001V8.50001V3.70711L13.8536 4.56067C13.9473 4.65444 14 4.78161 14 4.91422V6.50001V7.00001H15V6.50001V4.91422C15 4.5164 14.842 4.13487 14.5607 3.85356L12.8536 2.14645L12.1464 1.43935ZM12 9.00001H4V8.50001V4.00001H12V8.50001V9.00001ZM5 12C5.55228 12 6 11.5523 6 11C6 10.4477 5.55228 10 5 10C4.44772 10 4 10.4477 4 11C4 11.5523 4.44772 12 5 12ZM12 11C12 11.5523 11.5523 12 11 12C10.4477 12 10 11.5523 10 11C10 10.4477 10.4477 10 11 10C11.5523 10 12 10.4477 12 11ZM6 14V14.5C6 14.7761 5.77614 15 5.5 15H4.5C4.22386 15 4 14.7761 4 14.5V14H6ZM12 14.5V14H10V14.5C10 14.7761 10.2239 15 10.5 15H11.5C11.7761 15 12 14.7761 12 14.5Z" fill="white"/>
</svg>
