<svg width="16" height="16" viewBox="0 0 16 16" fill="none" xmlns="http://www.w3.org/2000/svg">
<path fill-rule="evenodd" clip-rule="evenodd" d="M2.5 4C1.67157 4 1 4.67157 1 5.5V12.5C1 13.3284 1.67157 14 2.5 14H13.5C14.3284 14 15 13.3284 15 12.5V5.5C15 4.67157 14.3284 4 13.5 4H12L10 2H6L4 4H2.5ZM10.8536 7.85355L11.2071 7.5L10.5 6.79289L10.1464 7.14645L7 10.2929L5.85355 9.14645L5.5 8.79289L4.79289 9.5L5.14645 9.85355L6.64645 11.3536L7 11.7071L7.35355 11.3536L10.8536 7.85355Z" fill="white"/>
</svg>
