<svg width="16" height="16" viewBox="0 0 16 16" fill="none" xmlns="http://www.w3.org/2000/svg">
<path fill-rule="evenodd" clip-rule="evenodd" d="M9.64667 2.64645C10.6704 1.62276 12.3301 1.62276 13.3538 2.64645C14.3775 3.67014 14.3775 5.32986 13.3538 6.35355L10.8538 8.85355L10.5002 9.20711L9.79312 8.5L10.1467 8.14645L12.6467 5.64645C13.2798 5.01328 13.2798 3.98672 12.6467 3.35355C12.0135 2.72039 10.9869 2.72039 10.3538 3.35355L7.85378 5.85355L7.50023 6.20711L6.79312 5.5L7.14667 5.14645L9.64667 2.64645ZM6.35378 13.3536C5.33009 14.3772 3.67036 14.3772 2.64667 13.3536C1.62298 12.3299 1.62298 10.6701 2.64667 9.64645L5.14667 7.14645L5.50023 6.79289L6.20733 7.5L5.85378 7.85355L3.35378 10.3536C2.72061 10.9867 2.72061 12.0133 3.35378 12.6464C3.98694 13.2796 5.01351 13.2796 5.64667 12.6464L8.14667 10.1464L8.50023 9.79289L9.20733 10.5L8.85378 10.8536L6.35378 13.3536ZM9.85378 6.85355L10.2073 6.5L9.50023 5.79289L9.14667 6.14645L6.14667 9.14645L5.79312 9.5L6.50023 10.2071L6.85378 9.85355L9.85378 6.85355Z" fill="white"/>
</svg>
