<svg width="16" height="16" viewBox="0 0 16 16" fill="none" xmlns="http://www.w3.org/2000/svg">
<path fill-rule="evenodd" clip-rule="evenodd" d="M5.45589 1.83683C6.47958 0.813133 8.13931 0.81313 9.16301 1.83682C10.1867 2.86051 10.1867 4.52023 9.16302 5.54392L8.35337 6.35358L7.99981 6.70713L7.2927 6.00003L7.64626 5.64647L8.45591 4.83682C9.08906 4.20365 9.08906 3.17709 8.4559 2.54393C7.82273 1.91076 6.79616 1.91076 6.163 2.54393L5.35337 3.35358L4.99981 3.70713L4.2927 3.00003L4.64626 2.64647L5.45589 1.83683ZM5.54373 9.16319C4.52004 10.1869 2.86031 10.1869 1.83661 9.1632C0.812929 8.13952 0.812925 6.4798 1.8366 5.45611L2.64626 4.64645L2.99981 4.29289L3.70692 5L3.35337 5.35355L2.54372 6.16321C1.91056 6.79637 1.91056 7.82293 2.54372 8.4561C3.17689 9.08926 4.20346 9.08926 4.83662 8.45609L5.64626 7.64645L5.99981 7.29289L6.70692 8L6.35337 8.35355L5.54373 9.16319ZM6.85336 4.85355L7.20692 4.5L6.49981 3.79289L6.14626 4.14645L4.14626 6.14645L3.7927 6.5L4.49981 7.20711L4.85336 6.85355L6.85336 4.85355Z" fill="white" fill-opacity="0.5"/>
<path fill-rule="evenodd" clip-rule="evenodd" d="M10.4559 6.83683C11.4796 5.81313 13.1393 5.81313 14.163 6.83682C15.1867 7.86051 15.1867 9.52023 14.163 10.5439L13.3534 11.3536L12.9998 11.7071L12.2927 11L12.6463 10.6465L13.4559 9.83682C14.0891 9.20365 14.0891 8.17709 13.4559 7.54393C12.8227 6.91076 11.7962 6.91076 11.163 7.54393L10.3534 8.35358L9.99981 8.70713L9.2927 8.00003L9.64626 7.64647L10.4559 6.83683ZM10.5437 14.1632C9.52004 15.1869 7.86031 15.1869 6.83661 14.1632C5.81293 13.1395 5.81292 11.4798 6.8366 10.4561L7.64626 9.64645L7.99981 9.29289L8.70692 10L8.35337 10.3536L7.54372 11.1632C6.91056 11.7964 6.91056 12.8229 7.54372 13.4561C8.17689 14.0893 9.20346 14.0893 9.83662 13.4561L10.6463 12.6464L10.9998 12.2929L11.7069 13L11.3534 13.3536L10.5437 14.1632ZM11.8534 9.85355L12.2069 9.5L11.4998 8.79289L11.1463 9.14645L9.14626 11.1464L8.7927 11.5L9.49981 12.2071L9.85336 11.8536L11.8534 9.85355Z" fill="white"/>
</svg>
