<svg width="16" height="16" viewBox="0 0 16 16" fill="none" xmlns="http://www.w3.org/2000/svg">
<path fill-rule="evenodd" clip-rule="evenodd" d="M5.4554 1.83683C6.47909 0.813133 8.13883 0.81313 9.16252 1.83682C10.1862 2.86051 10.1862 4.52023 9.16253 5.54392L8.35288 6.35358L7.99933 6.70713L7.29222 6.00003L7.64577 5.64647L8.45542 4.83682C9.08858 4.20365 9.08857 3.17709 8.45541 2.54393C7.82224 1.91076 6.79568 1.91076 6.16251 2.54393L5.35288 3.35358L4.99933 3.70713L4.29222 3.00003L4.64577 2.64647L5.4554 1.83683ZM5.54324 9.16319C4.51955 10.1869 2.85982 10.1869 1.83613 9.1632C0.812441 8.13952 0.812436 6.4798 1.83612 5.45611L2.64577 4.64645L2.99932 4.29289L3.70643 5L3.35288 5.35355L2.54323 6.16321C1.91007 6.79637 1.91007 7.82293 2.54323 8.4561C3.1764 9.08926 4.20297 9.08926 4.83613 8.45609L5.64577 7.64645L5.99932 7.29289L6.70643 8L6.35288 8.35355L5.54324 9.16319ZM6.85288 4.85355L7.20643 4.5L6.49932 3.79289L6.14577 4.14645L4.14577 6.14645L3.79222 6.5L4.49932 7.20711L4.85288 6.85355L6.85288 4.85355Z" fill="white" fill-opacity="0.5"/>
<path fill-rule="evenodd" clip-rule="evenodd" d="M10.4564 6.83683C11.4801 5.81313 13.1398 5.81313 14.1635 6.83682C15.1872 7.86051 15.1872 9.52023 14.1635 10.5439L13.3539 11.3536L13.0003 11.7071L12.2932 11L12.6467 10.6465L13.4564 9.83682C14.0896 9.20365 14.0896 8.17709 13.4564 7.54393C12.8232 6.91076 11.7967 6.91076 11.1635 7.54393L10.3539 8.35358L10.0003 8.70713L9.29319 8.00003L9.64674 7.64647L10.4564 6.83683ZM10.5442 14.1632C9.52053 15.1869 7.86079 15.1869 6.8371 14.1632C5.81342 13.1395 5.81341 11.4798 6.83709 10.4561L7.64674 9.64645L8.0003 9.29289L8.70741 10L8.35385 10.3536L7.5442 11.1632C6.91104 11.7964 6.91105 12.8229 7.54421 13.4561C8.17738 14.0893 9.20394 14.0893 9.83711 13.4561L10.6467 12.6464L11.0003 12.2929L11.7074 13L11.3539 13.3536L10.5442 14.1632ZM11.8539 9.85355L12.2074 9.5L11.5003 8.79289L11.1467 9.14645L9.14675 11.1464L8.79319 11.5L9.5003 12.2071L9.85385 11.8536L11.8539 9.85355Z" fill="white"/>
</svg>
