<svg width="16" height="16" viewBox="0 0 16 16" fill="none" xmlns="http://www.w3.org/2000/svg">
<path fill-rule="evenodd" clip-rule="evenodd" d="M11 9C8.79086 9 7 7.20914 7 5C7 2.79086 8.79086 1 11 1C13.2091 1 15 2.79086 15 5C15 7.20914 13.2091 9 11 9ZM5 15C2.79086 15 1 13.2091 1 11C1 8.79086 2.79086 7 5 7C7.20914 7 9 8.79086 9 11C9 13.2091 7.20914 15 5 15ZM1.79289 2.5L2.14645 2.85355L3.14645 3.85355L3.5 4.20711L4.20711 3.5L3.85355 3.14645L2.85355 2.14645L2.5 1.79289L1.79289 2.5ZM5 2V2.5V3.5V4H6V3.5V2.5V2H5ZM4 5H3.5H2.5H2V6H2.5H3.5H4V5ZM13.8536 13.1464L14.2071 13.5L13.5 14.2071L13.1464 13.8536L12.1464 12.8536L11.7929 12.5L12.5 11.7929L12.8536 12.1464L13.8536 13.1464ZM11 13.5V14H10V13.5V12.5V12H11V12.5V13.5ZM12.5 11H12V10H12.5H13.5H14V11H13.5H12.5Z" fill="white"/>
</svg>
