<svg width="16" height="16" viewBox="0 0 16 16" fill="none" xmlns="http://www.w3.org/2000/svg">
<path fill-rule="evenodd" clip-rule="evenodd" d="M1 2.5C1 1.67157 1.67157 1 2.5 1H4.5H5V2H4.5H2.5C2.22386 2 2 2.22386 2 2.5V4.5V5H1V4.5V2.5ZM15 13.5C15 14.3284 14.3284 15 13.5 15H11.5H11V14H11.5H13.5C13.7761 14 14 13.7761 14 13.5V11.5V11H15V11.5V13.5ZM15 2.5C15 1.67157 14.3284 1 13.5 1H11.5H11V2H11.5L13.5 2C13.7761 2 14 2.22386 14 2.5V4.5V5H15V4.5V2.5ZM2.5 15C1.67157 15 1 14.3284 1 13.5V11.5V11H2L2 11.5L2 13.5C2 13.7761 2.22386 14 2.5 14H4.5H5V15H4.5H2.5ZM8 11C9.65685 11 11 9.65685 11 8C11 6.34315 9.65685 5 8 5C6.34315 5 5 6.34315 5 8C5 9.65685 6.34315 11 8 11Z" fill="white"/>
</svg>
