<svg width="16" height="16" viewBox="0 0 16 16" fill="none" xmlns="http://www.w3.org/2000/svg">
<path fill-rule="evenodd" clip-rule="evenodd" d="M10.5966 11.9707C10.4004 11.9901 10.2013 12 10 12C6.68629 12 4 9.31372 4 6.00001C4 5.79865 4.00992 5.59962 4.02929 5.40336C2.24776 6.16815 1 7.93836 1 10C1 12.7614 3.23858 15 6 15C8.06163 15 9.83183 13.7522 10.5966 11.9707Z" fill="white" fill-opacity="0.5"/>
<path fill-rule="evenodd" clip-rule="evenodd" d="M14 6C14 8.20914 12.2091 10 10 10C7.79086 10 6 8.20914 6 6C6 3.79086 7.79086 2 10 2C12.2091 2 14 3.79086 14 6ZM15 6C15 8.76142 12.7614 11 10 11C7.23858 11 5 8.76142 5 6C5 3.23858 7.23858 1 10 1C12.7614 1 15 3.23858 15 6ZM10 9C11.6569 9 13 7.65685 13 6C13 4.34315 11.6569 3 10 3C8.34315 3 7 4.34315 7 6C7 7.65685 8.34315 9 10 9Z" fill="white"/>
</svg>
