<svg width="16" height="16" viewBox="0 0 16 16" fill="none" xmlns="http://www.w3.org/2000/svg">
<path fill-rule="evenodd" clip-rule="evenodd" d="M8.47781 12.9775C8.32055 12.9924 8.16116 13 7.99999 13C5.23857 13 2.99999 10.7614 2.99999 8C2.99999 7.83884 3.00762 7.67945 3.02253 7.52219C1.81451 8.21055 1 9.51015 1 11C1 13.2091 2.79086 15 5 15C6.48985 15 7.78945 14.1855 8.47781 12.9775Z" fill="white" fill-opacity="0.5"/>
<path fill-rule="evenodd" clip-rule="evenodd" d="M11.3536 1.85355C11.0386 1.53857 11.2617 1 11.7071 1H15V4.29289C15 4.73835 14.4614 4.96143 14.1464 4.64645L13.1036 3.60355L11.3536 5.35355L11.1599 5.54718C11.6865 6.22452 12 7.07564 12 8C12 10.2091 10.2091 12 8 12C5.79086 12 4 10.2091 4 8C4 5.79086 5.79086 4 8 4C8.92436 4 9.77548 4.31354 10.4528 4.84007L10.6464 4.64645L12.3964 2.89645L11.3536 1.85355Z" fill="white"/>
</svg>
