<svg width="16" height="16" viewBox="0 0 16 16" fill="none" xmlns="http://www.w3.org/2000/svg">
<path fill-rule="evenodd" clip-rule="evenodd" d="M11.0001 10C11.1612 10 11.3206 9.9924 11.4779 9.97749C10.7895 11.1855 9.48992 12 8.00008 12C7.07607 12 6.22524 11.6867 5.54802 11.1605L5.35502 11.3536L3.60502 13.1036L4.64791 14.1464C4.96289 14.4614 4.73981 15 4.29436 15H1.00146V11.7071C1.00146 11.2617 1.54004 11.0386 1.85502 11.3536L2.89791 12.3964L4.64791 10.6464L4.84074 10.4536C4.31385 9.77615 4.00008 8.92473 4.00008 8.00002C4.00008 6.51018 4.81459 5.21057 6.0226 4.52222C6.00769 4.67948 6.00007 4.83886 6.00007 5.00002C6.00007 7.76145 8.23865 10 11.0001 10Z" fill="white" fill-opacity="0.5"/>
<path d="M15 5C15 7.20914 13.2091 9 11 9C8.79086 9 7 7.20914 7 5C7 2.79086 8.79086 1 11 1C13.2091 1 15 2.79086 15 5Z" fill="white"/>
</svg>
