<svg width="16" height="16" viewBox="0 0 16 16" fill="none" xmlns="http://www.w3.org/2000/svg">
<path fill-rule="evenodd" clip-rule="evenodd" d="M5 4.5C5 5.32843 4.32843 6 3.5 6C2.67157 6 2 5.32843 2 4.5C2 3.67157 2.67157 3 3.5 3C4.32843 3 5 3.67157 5 4.5ZM5.94999 5C5.71836 6.14112 4.70948 7 3.5 7C2.11929 7 1 5.88071 1 4.5C1 3.11929 2.11929 2 3.5 2C4.70948 2 5.71836 2.85888 5.94999 4H7.5H10.05C10.2816 2.85888 11.2905 2 12.5 2C13.8807 2 15 3.11929 15 4.5C15 5.88071 13.8807 7 12.5 7C11.2905 7 10.2816 6.14112 10.05 5H8V10.5C8 10.7761 8.22386 11 8.5 11H10.05C10.2816 9.85888 11.2905 9 12.5 9C13.8807 9 15 10.1193 15 11.5C15 12.8807 13.8807 14 12.5 14C11.2905 14 10.2816 13.1411 10.05 12H8.5C7.67157 12 7 11.3284 7 10.5V5H5.94999Z" fill="white"/>
</svg>
