<svg width="16" height="16" viewBox="0 0 16 16" fill="none" xmlns="http://www.w3.org/2000/svg">
<path fill-rule="evenodd" clip-rule="evenodd" d="M11.806 6.76605C10.9405 6.94372 10 6.31247 10 5.29289V4.53513C9.41166 4.19479 8.72858 4 8 4C5.79086 4 4 5.79086 4 8C4 8.4306 4.06804 8.8453 4.19395 9.23395C5.0595 9.05627 6 9.68753 6 10.7071V11.4649C6.58835 11.8052 7.27143 12 8 12C10.2091 12 12 10.2091 12 8C12 7.5694 11.932 7.1547 11.806 6.76605Z" fill="white" fill-opacity="0.5"/>
<path fill-rule="evenodd" clip-rule="evenodd" d="M11 5.29289C11 5.73835 11.5386 5.96143 11.8536 5.64645L12.9266 4.57344C14.5578 6.91301 14.3299 10.1554 12.2426 12.2426L11.8891 12.5962L12.5962 13.3033L12.9498 12.9497C15.4285 10.471 15.6596 6.59589 13.6433 3.8567L14.6464 2.85355C14.9614 2.53857 14.7383 2 14.2929 2H11V5.29289ZM5.00001 10.7071C5.00001 10.2616 4.46143 10.0386 4.14645 10.3535L3.07345 11.4265C1.44217 9.08697 1.67014 5.84456 3.75736 3.75734L4.11091 3.40379L3.40381 2.69668L3.05025 3.05023C0.571543 5.52894 0.340362 9.40409 2.35671 12.1433L1.35356 13.1464C1.03858 13.4614 1.26166 14 1.70711 14H5.00001L5.00001 10.7071Z" fill="white"/>
</svg>
