<svg width="16" height="16" viewBox="0 0 16 16" fill="none" xmlns="http://www.w3.org/2000/svg">
<path fill-rule="evenodd" clip-rule="evenodd" d="M6.5 4C7.32843 4 8 3.32843 8 2.5C8 1.67157 7.32843 1 6.5 1C5.67157 1 5 1.67157 5 2.5C5 3.32843 5.67157 4 6.5 4ZM4.85357 11.8536L6.70712 10H7.00001H10.5H11V9H10.5H7.00001V5.5V5H6.00001V5.5V9V9.29289L4.14646 11.1464L3.79291 11.5L4.50001 12.2071L4.85357 11.8536ZM15 9.5C15 10.3284 14.3284 11 13.5 11C12.6716 11 12 10.3284 12 9.5C12 8.67157 12.6716 8 13.5 8C14.3284 8 15 8.67157 15 9.5ZM2.5 15C3.32843 15 4 14.3284 4 13.5C4 12.6716 3.32843 12 2.5 12C1.67157 12 1 12.6716 1 13.5C1 14.3284 1.67157 15 2.5 15Z" fill="white"/>
</svg>
