<svg width="16" height="16" viewBox="0 0 16 16" fill="none" xmlns="http://www.w3.org/2000/svg">
<path fill-rule="evenodd" clip-rule="evenodd" d="M15 4.5C15 5.88071 13.8807 7 12.5 7C11.2905 7 10.2816 6.14112 10.05 5H8.12132C7.23041 5 6.78425 6.07714 7.41421 6.70711L9.29289 8.58579C10.5528 9.84572 9.66049 12 7.87868 12H5.94999C5.71836 13.1411 4.70948 14 3.5 14C2.11929 14 1 12.8807 1 11.5C1 10.1193 2.11929 9 3.5 9C4.70948 9 5.71836 9.85888 5.94999 11H7.87868C8.76958 11 9.21575 9.92286 8.58579 9.29289L6.70711 7.41421C5.44718 6.15428 6.33951 4 8.12132 4H10.05C10.2816 2.85888 11.2905 2 12.5 2C13.8807 2 15 3.11929 15 4.5ZM3.5 13C4.32843 13 5 12.3284 5 11.5C5 10.6716 4.32843 10 3.5 10C2.67157 10 2 10.6716 2 11.5C2 12.3284 2.67157 13 3.5 13Z" fill="white"/>
</svg>
