<svg width="16" height="16" viewBox="0 0 16 16" fill="none" xmlns="http://www.w3.org/2000/svg">
<path fill-rule="evenodd" clip-rule="evenodd" d="M3.00008 8C3.00008 5.23858 5.23865 3 8.00008 3V2C4.68637 2 2.00008 4.68629 2.00008 8C2.00008 9.47685 2.53365 10.8291 3.41855 11.8744L1.14652 14.1464L0.792969 14.5L1.50008 15.2071L1.85363 14.8536L4.12566 12.5815C5.171 13.4664 6.52322 14 8.00008 14C11.3138 14 14.0001 11.3137 14.0001 8H13.0001C13.0001 10.7614 10.7615 13 8.00008 13C5.23865 13 3.00008 10.7614 3.00008 8Z" fill="white" fill-opacity="0.5"/>
<path fill-rule="evenodd" clip-rule="evenodd" d="M11.7071 0.999985C11.2617 0.999985 11.0386 1.53856 11.3536 1.85354L12.3965 2.89644L10.4528 4.84007C9.77548 4.31354 8.92436 4 8 4C5.79086 4 4 5.79086 4 8C4 10.2091 5.79086 12 8 12C10.2091 12 12 10.2091 12 8C12 7.07564 11.6865 6.22452 11.1599 5.54718L13.1036 3.60355L14.1464 4.64643C14.4614 4.96141 15 4.73833 15 4.29288V0.999985H11.7071Z" fill="white"/>
</svg>
