<svg width="16" height="16" viewBox="0 0 16 16" fill="none" xmlns="http://www.w3.org/2000/svg">
<path fill-rule="evenodd" clip-rule="evenodd" d="M14 8C14 8.28231 13.9805 8.56006 13.9428 8.83199L14.921 8.97413L14.9325 8.97586C14.977 8.65695 15 8.33116 15 8C15 4.13401 11.866 1 8 1C4.13401 1 1 4.13401 1 8C1 11.866 4.13401 15 8 15C8.07658 15 8.15288 14.9988 8.22887 14.9963C8.05895 14.7148 7.97897 14.3712 8.03624 13.9999L8 14C4.68629 14 2 11.3137 2 8C2 4.68629 4.68629 2 8 2C11.3137 2 14 4.68629 14 8ZM10.1549 7.46593C10.4761 6.81512 11.1515 6.54423 11.7676 6.65324C11.2147 5.10667 9.7366 4 8 4C5.79086 4 4 5.79086 4 8C4 10.114 5.63994 11.845 7.71703 11.9901L7.24771 11.5327C6.35743 10.6649 6.8487 9.15291 8.07903 8.97413L9.51342 8.7657L10.1549 7.46593Z" fill="white" fill-opacity="0.5"/>
<path d="M11.0514 7.90848C11.2348 7.53685 11.7647 7.53686 11.9481 7.90848L12.7059 9.44398C12.7788 9.59155 12.9196 9.69383 13.0824 9.7175L14.7769 9.96373C15.187 10.0233 15.3508 10.5273 15.054 10.8166L13.8279 12.0118C13.71 12.1267 13.6563 12.2922 13.6841 12.4544L13.9735 14.142C14.0436 14.5505 13.6149 14.862 13.2481 14.6691L11.7324 13.8723C11.5868 13.7957 11.4128 13.7957 11.2671 13.8723L9.75147 14.6691C9.38465 14.862 8.95594 14.5505 9.02599 14.142L9.31545 12.4544C9.34327 12.2922 9.2895 12.1267 9.17165 12.0118L7.94549 10.8166C7.64873 10.5273 7.81248 10.0233 8.22259 9.96373L9.91712 9.7175C10.08 9.69383 10.2208 9.59155 10.2936 9.44398L11.0514 7.90848Z" fill="white"/>
</svg>
