<svg width="16" height="16" viewBox="0 0 16 16" fill="none" xmlns="http://www.w3.org/2000/svg">
<path fill-rule="evenodd" clip-rule="evenodd" d="M3 8C4.10457 8 5 7.10457 5 6C5 4.89543 4.10457 4 3 4C1.89543 4 1 4.89543 1 6C1 7.10457 1.89543 8 3 8ZM13 8C14.1046 8 15 7.10457 15 6C15 4.89543 14.1046 4 13 4C11.8954 4 11 4.89543 11 6C11 7.10457 11.8954 8 13 8ZM1 9H1.5H8H14.5H15V10H14.5H9L11.1464 12.1464C11.4614 12.4614 11.2383 13 10.7929 13H5.20711C4.76165 13 4.53857 12.4614 4.85355 12.1464L7 10H1.5H1V9Z" fill="white"/>
</svg>
