<svg width="16" height="16" viewBox="0 0 16 16" fill="none" xmlns="http://www.w3.org/2000/svg">
<path fill-rule="evenodd" clip-rule="evenodd" d="M6.1267 7.00263C6.08468 7.00088 6.04244 7 6 7C4.34315 7 3 8.34315 3 10C3 11.6569 4.34315 13 6 13C7.65685 13 9 11.6569 9 10C9 9.95756 8.99912 9.91532 8.99737 9.8733C7.59389 9.51105 6.48895 8.40611 6.1267 7.00263Z" fill="white" fill-opacity="0.5"/>
<path fill-rule="evenodd" clip-rule="evenodd" d="M0.999999 2.5C0.999999 1.67157 1.67157 0.999999 2.5 0.999999L4.5 0.999999L5 0.999999L5 2L4.5 2L2.5 2C2.22386 2 2 2.22386 2 2.5L2 4.5L2 5L1 5L1 4.5L0.999999 2.5ZM10 3C11.6569 3 13 4.34315 13 6C13 7.65685 11.6569 9 10 9C8.34315 9 7 7.65685 7 6C7 4.34315 8.34315 3 10 3ZM13.5 15C14.3284 15 15 14.3284 15 13.5L15 11.5L15 11L14 11L14 11.5L14 13.5C14 13.7761 13.7761 14 13.5 14L11.5 14L11 14L11 15L11.5 15L13.5 15ZM13.5 0.999999C14.3284 0.999999 15 1.67157 15 2.5L15 4.5L15 5L14 5L14 4.5L14 2.5C14 2.22386 13.7761 2 13.5 2L11.5 2L11 2L11 1L11.5 1L13.5 0.999999ZM1 13.5C1 14.3284 1.67157 15 2.5 15L4.5 15L5 15L5 14L4.5 14L2.5 14C2.22386 14 2 13.7761 2 13.5L2 11.5L2 11L1 11L1 11.5L1 13.5Z" fill="white"/>
</svg>
