<svg width="16" height="16" viewBox="0 0 16 16" fill="none" xmlns="http://www.w3.org/2000/svg">
<path fill-rule="evenodd" clip-rule="evenodd" d="M8 15C11.866 15 15 11.866 15 8C15 4.13401 11.866 1 8 1C4.13401 1 1 4.13401 1 8C1 11.866 4.13401 15 8 15ZM5.85355 5.14645L5.5 4.79289L4.79289 5.5L5.14645 5.85355L7.29289 8L5.14645 10.1464L4.79289 10.5L5.5 11.2071L5.85355 10.8536L8 8.70711L10.1464 10.8536L10.5 11.2071L11.2071 10.5L10.8536 10.1464L8.70711 8L10.8536 5.85355L11.2071 5.5L10.5 4.79289L10.1464 5.14645L8 7.29289L5.85355 5.14645Z" fill="white"/>
</svg>
