<svg width="16" height="16" viewBox="0 0 16 16" fill="none" xmlns="http://www.w3.org/2000/svg">
<path fill-rule="evenodd" clip-rule="evenodd" d="M5.76103 2.43172C6.45289 2.15326 7.20859 2 8.0001 2C8.96484 2 9.87639 2.22769 10.684 2.63226L11.1313 1.73764C10.1891 1.26564 9.12562 1 8.0001 1C6.98009 1 6.01103 1.21817 5.13705 1.61038C5.39799 1.83663 5.6116 2.11602 5.76103 2.43172ZM5.00015 3.5C5.00015 4.32843 4.32857 5 3.50015 5C2.67172 5 2.00015 4.32843 2.00015 3.5C2.00015 2.67157 2.67172 2 3.50015 2C4.32857 2 5.00015 2.67157 5.00015 3.5ZM12.8482 5.60287C12.434 6.32031 12.6798 7.2377 13.3972 7.65191C14.1147 8.06612 15.032 7.82031 15.4463 7.10287C15.8605 6.38543 15.6147 5.46805 14.8972 5.05383C14.1798 4.63962 13.2624 4.88543 12.8482 5.60287ZM13.9419 8.84499C13.8372 9.58339 13.592 10.3145 13.1963 10.9999C12.7139 11.8354 12.0609 12.511 11.3068 13.0081L11.8579 13.8428C12.7377 13.2629 13.4995 12.4747 14.0623 11.4999C14.5723 10.6166 14.8679 9.66828 14.9652 8.71528C14.6388 8.82814 14.29 8.87343 13.9419 8.84499ZM7.65208 13.3971C7.23787 12.6797 6.32048 12.4339 5.60304 12.8481C4.88561 13.2623 4.63979 14.1797 5.05401 14.8971C5.46822 15.6146 6.38561 15.8604 7.10304 15.4462C7.82048 15.032 8.0663 14.1146 7.65208 13.3971ZM4.29745 12.7233C3.71036 12.2634 3.19978 11.6855 2.80403 11.0001C2.32166 10.1646 2.06307 9.26129 2.00965 8.35963L1.01123 8.41956C1.07355 9.4715 1.37524 10.5253 1.93801 11.5001C2.44801 12.3834 3.12148 13.1136 3.89814 13.6743C3.9636 13.3352 4.09876 13.0105 4.29745 12.7233ZM8.00015 11C9.657 11 11.0001 9.65685 11.0001 8C11.0001 6.34315 9.657 5 8.00015 5C6.34329 5 5.00015 6.34315 5.00015 8C5.00015 9.65685 6.34329 11 8.00015 11Z" fill="white"/>
</svg>
