<svg width="16" height="16" viewBox="0 0 16 16" fill="none" xmlns="http://www.w3.org/2000/svg">
<path fill-rule="evenodd" clip-rule="evenodd" d="M4.19395 6.76605C5.0595 6.94372 6 6.31247 6 5.29289V4.53513C6.58834 4.19479 7.27142 4 8 4C10.2091 4 12 5.79086 12 8C12 8.4306 11.932 8.8453 11.806 9.23395C10.9405 9.05627 10 9.68753 10 10.7071V11.4649C9.41165 11.8052 8.72857 12 8 12C5.79086 12 4 10.2091 4 8C4 7.5694 4.06804 7.1547 4.19395 6.76605Z" fill="white" fill-opacity="0.5"/>
<path fill-rule="evenodd" clip-rule="evenodd" d="M5.00001 5.29289C5.00001 5.73835 4.46143 5.96143 4.14645 5.64645L3.07345 4.57344C1.44217 6.91301 1.67014 10.1554 3.75736 12.2426L4.11091 12.5962L3.40381 13.3033L3.05025 12.9497C0.571543 10.471 0.340362 6.59589 2.35671 3.8567L1.35356 2.85355C1.03858 2.53857 1.26166 2 1.70711 2H5.00001V5.29289ZM11 10.7071C11 10.2616 11.5386 10.0386 11.8536 10.3535L12.9266 11.4265C14.5578 9.08697 14.3299 5.84456 12.2426 3.75734L11.8891 3.40379L12.5962 2.69668L12.9498 3.05023C15.4285 5.52894 15.6596 9.40409 13.6433 12.1433L14.6464 13.1464C14.9614 13.4614 14.7383 14 14.2929 14H11L11 10.7071Z" fill="white"/>
</svg>
