<svg width="16" height="16" viewBox="0 0 16 16" fill="none" xmlns="http://www.w3.org/2000/svg">
<path fill-rule="evenodd" clip-rule="evenodd" d="M12.9835 6.40891C12.9944 6.27405 13 6.13767 13 6C13 3.23858 10.7614 1 7.99999 1C5.23857 1 2.99999 3.23858 2.99999 6C2.99999 6.13765 3.00556 6.27401 3.01647 6.40885C3.62456 6.14579 4.29522 6 4.99993 6C6.12554 6 7.16427 6.37194 7.99993 6.99963C8.83559 6.37194 9.87433 6 10.9999 6C11.7047 6 12.3754 6.14581 12.9835 6.40891ZM12.9836 6.40874C12.8315 8.28863 11.6395 9.87471 9.98355 10.5911C9.99446 10.726 10 10.8623 10 11C10 12.6358 9.21451 14.0881 8.00011 15.0003C8.83576 15.6279 9.87447 15.9999 11.0001 15.9999C13.7615 15.9999 16.0001 13.7613 16.0001 10.9999C16.0001 8.94317 14.7583 7.17651 12.9836 6.40874ZM0 11C0 8.94334 1.24178 7.17668 3.01648 6.40891C3.16864 8.28873 4.36058 9.87473 6.01648 10.5911C6.00556 10.726 6 10.8623 6 11C6 12.6358 6.78557 14.0882 8.00003 15.0004C7.16437 15.6281 6.12562 16 5 16C2.23858 16 0 13.7615 0 11Z" fill="white" fill-opacity="0.5"/>
<path fill-rule="evenodd" clip-rule="evenodd" d="M11.8496 7.09029C11.4505 8.50221 10.2956 9.59688 8.84953 9.90961C8.94753 10.2563 8.99996 10.622 8.99996 11C8.99996 12.0144 8.62238 12.9406 8.00011 13.6457C7.3778 12.9406 7.0002 12.0144 7.0002 11C7.0002 10.622 7.05263 10.2563 7.15061 9.90964C5.7045 9.59696 4.54953 8.50232 4.15039 7.09042C4.42421 7.03119 4.70847 7 5.00002 7C6.19478 7 7.26719 7.52381 8.00014 8.35431C8.73308 7.52378 9.80552 6.99994 11.0003 6.99994C11.2917 6.99994 11.5759 7.03111 11.8496 7.09029Z" fill="white"/>
</svg>
