<svg width="16" height="16" viewBox="0 0 16 16" fill="none" xmlns="http://www.w3.org/2000/svg">
<path fill-rule="evenodd" clip-rule="evenodd" d="M8 4C8.82843 4 9.5 3.32843 9.5 2.5C9.5 1.67157 8.82843 1 8 1C7.17157 1 6.5 1.67157 6.5 2.5C6.5 3.32843 7.17157 4 8 4ZM12.5 13C13.3284 13 14 12.3284 14 11.5C14 10.6716 13.3284 10 12.5 10C11.6716 10 11 10.6716 11 11.5C11 12.3284 11.6716 13 12.5 13ZM5 11.5C5 12.3284 4.32843 13 3.5 13C2.67157 13 2 12.3284 2 11.5C2 10.6716 2.67157 10 3.5 10C4.32843 10 5 10.6716 5 11.5ZM10.2719 3.54483C10.4126 3.23941 10.4935 2.90079 10.4996 2.54394C12.5654 3.49187 14 5.57843 14 8.00007C14 8.47788 13.9441 8.94265 13.8386 9.3882C13.5569 9.20923 13.2369 9.0851 12.8936 9.03081C12.9633 8.69819 13 8.35341 13 8.00007C13 6.05669 11.8913 4.37226 10.2719 3.54483ZM10.2035 12.4896C10.3392 12.8041 10.5376 13.0851 10.7829 13.317C9.95114 13.7533 9.00439 14.0001 8 14.0001C6.99561 14.0001 6.04886 13.7533 5.21709 13.317C5.46242 13.0851 5.66081 12.8041 5.79649 12.4896C6.46125 12.8165 7.20919 13.0001 8 13.0001C8.79082 13.0001 9.53875 12.8165 10.2035 12.4896ZM3.10636 9.03081C3.03665 8.69819 3 8.35341 3 8.00007C3 6.05669 4.10872 4.37226 5.72813 3.54482C5.58744 3.23941 5.50653 2.90078 5.50038 2.54394C3.43465 3.49187 2 5.57843 2 8.00007C2 8.47788 2.05585 8.94265 2.16138 9.3882C2.44313 9.20923 2.76313 9.0851 3.10636 9.03081Z" fill="white"/>
</svg>
