<svg width="16" height="16" viewBox="0 0 16 16" fill="none" xmlns="http://www.w3.org/2000/svg">
<path fill-rule="evenodd" clip-rule="evenodd" d="M8 15C11.866 15 15 11.866 15 8C15 4.13401 11.866 1 8 1C4.13401 1 1 4.13401 1 8C1 11.866 4.13401 15 8 15ZM9.35313 5.74174L8.44837 3.90849C8.26496 3.53687 7.73504 3.53687 7.55163 3.90849L6.64687 5.74174C6.57404 5.88931 6.43326 5.99159 6.2704 6.01526L4.2473 6.30923C3.83719 6.36882 3.67343 6.87281 3.97019 7.16208L5.43412 8.58906C5.55197 8.70393 5.60574 8.86943 5.57792 9.03162L5.23234 11.0466C5.16228 11.455 5.591 11.7665 5.95781 11.5736L7.76733 10.6223C7.91299 10.5457 8.08701 10.5457 8.23267 10.6223L10.0422 11.5736C10.409 11.7665 10.8377 11.455 10.7677 11.0466L10.4221 9.03162C10.3943 8.86943 10.448 8.70393 10.5659 8.58906L12.0298 7.16208C12.3266 6.87281 12.1628 6.36882 11.7527 6.30923L9.7296 6.01526C9.56674 5.99159 9.42596 5.88931 9.35313 5.74174Z" fill="white"/>
</svg>
