<svg width="16" height="16" viewBox="0 0 16 16" fill="none" xmlns="http://www.w3.org/2000/svg">
<path fill-rule="evenodd" clip-rule="evenodd" d="M3.1267 8.00263C3.08468 8.00088 3.04244 8 3 8C1.34315 8 0 9.34315 0 11C0 12.6569 1.34315 14 3 14C4.65685 14 6 12.6569 6 11C6 10.9576 5.99912 10.9153 5.99737 10.8733C4.59389 10.511 3.48895 9.40611 3.1267 8.00263ZM7.1267 4.00263C7.08468 4.00088 7.04244 4 7 4C5.34315 4 4 5.34315 4 7C4 8.65685 5.34315 10 7 10C7.13247 10 7.26294 9.99141 7.39088 9.97477C7.3988 9.95994 7.407 9.94518 7.41547 9.93051L7.91547 9.06449C8.27391 8.44364 9.00792 8.1748 9.66484 8.37925C9.879 7.96632 10 7.49729 10 7C10 6.95756 9.99912 6.91532 9.99737 6.8733C8.59389 6.51105 7.48895 5.40611 7.1267 4.00263Z" fill="white" fill-opacity="0.5"/>
<path fill-rule="evenodd" clip-rule="evenodd" d="M14 3C14 1.34315 12.6569 -2.03558e-07 11 -1.31134e-07C9.34315 -5.87108e-08 8 1.34315 8 3C8 4.65685 9.34315 6 11 6C12.6569 6 14 4.65685 14 3ZM12.9999 8.5C12.9999 8.22386 12.7761 8 12.4999 8L11.4999 8C11.2238 8 10.9999 8.22386 10.9999 8.5L10.9999 9.17071C10.6488 9.29481 10.3277 9.48242 10.0504 9.71973L9.46883 9.38397C9.22969 9.2459 8.92389 9.32784 8.78582 9.56698L8.28582 10.433C8.14775 10.6722 8.22969 10.978 8.46883 11.116L9.04995 11.4515C9.0171 11.6294 8.99993 11.8127 8.99993 12C8.99993 12.1873 9.0171 12.3706 9.04995 12.5485L8.46883 12.884C8.22969 13.022 8.14775 13.3278 8.28582 13.567L8.78582 14.433C8.92389 14.6722 9.22969 14.7541 9.46883 14.616L10.0504 14.2803C10.3277 14.5176 10.6488 14.7052 10.9999 14.8293L10.9999 15.5C10.9999 15.7761 11.2238 16 11.4999 16L12.4999 16C12.7761 16 12.9999 15.7761 12.9999 15.5L12.9999 14.8293C13.351 14.7052 13.6722 14.5176 13.9495 14.2803L14.531 14.616C14.7702 14.7541 15.076 14.6722 15.214 14.433L15.714 13.567C15.8521 13.3278 15.7702 13.022 15.531 12.884L14.9499 12.5485C14.9828 12.3706 14.9999 12.1873 14.9999 12C14.9999 11.8127 14.9828 11.6294 14.9499 11.4515L15.531 11.116C15.7702 10.978 15.8521 10.6722 15.714 10.433L15.214 9.56699C15.076 9.32784 14.7702 9.24591 14.531 9.38398L13.9495 9.71974C13.6722 9.48242 13.351 9.29481 12.9999 9.17071L12.9999 8.5ZM11.9999 13.5C12.8284 13.5 13.4999 12.8284 13.4999 12C13.4999 11.1716 12.8284 10.5 11.9999 10.5C11.1715 10.5 10.4999 11.1716 10.4999 12C10.4999 12.8284 11.1715 13.5 11.9999 13.5Z" fill="white"/>
</svg>
