<svg width="16" height="16" viewBox="0 0 16 16" fill="none" xmlns="http://www.w3.org/2000/svg">
<path fill-rule="evenodd" clip-rule="evenodd" d="M11 2C11 1.44772 10.5523 1 10 1C9.44772 1 9 1.44772 9 2H11ZM8 2C8 0.895431 8.89543 0 10 0C11.1046 0 12 0.895431 12 2H13.5C14.3284 2 15 2.67157 15 3.5V12.5C15 13.3284 14.3284 14 13.5 14H10V7.5C10 6.11929 8.88071 5 7.5 5H5V3.5C5 2.67157 5.67157 2 6.5 2H8ZM13 3H7V4H13V3Z" fill="white" fill-opacity="0.5"/>
<path d="M7.5 16H2.5C1.67157 16 1 15.3284 1 14.5V7.5C1 6.67157 1.67157 6 2.5 6H7.5C8.32843 6 9 6.67157 9 7.5V14.5C9 15.3284 8.32843 16 7.5 16Z" fill="white"/>
</svg>
