<svg width="16" height="16" viewBox="0 0 16 16" fill="none" xmlns="http://www.w3.org/2000/svg">
<path fill-rule="evenodd" clip-rule="evenodd" d="M11.8535 5.64645C11.5386 5.96143 11 5.73835 11 5.29289V2H14.2929C14.7383 2 14.9614 2.53857 14.6464 2.85355L13.6433 3.8567C15.6596 6.59589 15.4285 10.471 12.9497 12.9497C10.2161 15.6834 5.78392 15.6834 3.05025 12.9497C0.316583 10.2161 0.316583 5.78392 3.05025 3.05025L3.75736 3.75736C1.41421 6.10051 1.41421 9.89949 3.75736 12.2426C6.1005 14.5858 9.8995 14.5858 12.2426 12.2426C14.3299 10.1554 14.5578 6.91301 12.9266 4.57344L11.8535 5.64645ZM8 4C8.72857 4 9.41165 4.19479 10 4.53513V5.29289C10 6.31247 10.9405 6.94373 11.806 6.76605C11.932 7.1547 12 7.5694 12 8C12 10.2091 10.2091 12 8 12C5.79086 12 4 10.2091 4 8C4 5.79086 5.79086 4 8 4ZM7.00007 5.99999V8.28571V8.49281L7.14652 8.63926L8.8608 10.3535L9.56791 9.64644L8.00007 8.0786V5.99999H7.00007Z" fill="white"/>
</svg>
