<svg width="16" height="16" viewBox="0 0 16 16" fill="none" xmlns="http://www.w3.org/2000/svg">
<path fill-rule="evenodd" clip-rule="evenodd" d="M11 10C11.1612 10 11.3205 9.9924 11.4778 9.97749C10.7895 11.1855 9.48985 12 8 12C5.79086 12 4 10.2092 4 8.00003C4 6.51018 4.81452 5.21057 6.02253 4.52222C6.00763 4.67948 6 4.83886 6 5.00003C6 7.76145 8.23858 10 11 10ZM8 13C8.16116 13 8.32055 12.9924 8.47781 12.9775C7.78945 14.1855 6.48985 15 5 15C2.79086 15 1 13.2092 1 11C1 9.51018 1.81452 8.21057 3.02253 7.52222C3.00763 7.67948 3 7.83886 3 8.00003C3 10.7614 5.23858 13 8 13Z" fill="white" fill-opacity="0.5"/>
<path fill-rule="evenodd" clip-rule="evenodd" d="M11 9C13.2091 9 15 7.20914 15 5C15 2.79086 13.2091 1 11 1C8.79086 1 7 2.79086 7 5C7 7.20914 8.79086 9 11 9ZM10 3V5.28571V5.49282L10.1464 5.63927L11.8607 7.35355L12.5678 6.64645L11 5.07861V3H10Z" fill="white"/>
</svg>
