<svg width="16" height="16" viewBox="0 0 16 16" fill="none" xmlns="http://www.w3.org/2000/svg">
<path fill-rule="evenodd" clip-rule="evenodd" d="M3.41421 1C3.149 1 2.89464 1.10536 2.70711 1.29289L1.29289 2.70711C1.10536 2.89464 1 3.149 1 3.41421V4.79289C1 5.23835 1.53857 5.46143 1.85355 5.14645L3 4V7C3 7.55228 3.44772 8 4 8H7C7.55228 8 8 7.55228 8 7V4L9.14645 5.14645C9.46143 5.46143 10 5.23835 10 4.79289V3.41421C10 3.149 9.89464 2.89464 9.70711 2.70711L8.29289 1.29289C8.10536 1.10536 7.851 1 7.58579 1H7.41421C7.149 1 6.89464 1.10536 6.70711 1.29289L6.29289 1.70711C6.10536 1.89464 5.851 2 5.58579 2H5.41421C5.149 2 4.89464 1.89464 4.70711 1.70711L4.29289 1.29289C4.10536 1.10536 3.851 1 3.58579 1H3.41421ZM9.88278 7C9.37846 7 8.95306 7.37554 8.8905 7.87596L8.03513 14.719C8.01647 14.8682 8.13282 15 8.2832 15H9.1802C9.65688 15 10.0673 14.6635 10.1608 14.1961L11 10H12L12.8392 14.1961C12.9327 14.6635 13.3431 15 13.8198 15H14.7168C14.8672 15 14.9835 14.8682 14.9649 14.719L14.1095 7.87597C14.0469 7.37554 13.6215 7 13.1172 7H9.88278Z" fill="white"/>
</svg>
