<svg width="16" height="16" viewBox="0 0 16 16" fill="none" xmlns="http://www.w3.org/2000/svg">
<path fill-rule="evenodd" clip-rule="evenodd" d="M1 6.5C1 8.433 2.567 10 4.5 10H6V6H10V10H12C13.6569 10 15 8.65685 15 7C15 5.61245 14.058 4.44491 12.7786 4.10203C12.1906 2.30115 10.4972 1 8.5 1C6.93595 1 5.55826 1.79793 4.75182 3.00892C4.66865 3.00301 4.58468 3 4.5 3C2.567 3 1 4.567 1 6.5Z" fill="white" fill-opacity="0.5"/>
<path fill-rule="evenodd" clip-rule="evenodd" d="M9.00024 7H7.00024V11L5.20755 11C4.76209 11 4.53901 11.5386 4.85399 11.8536L8.00044 15L11.1469 11.8536C11.4619 11.5386 11.2388 11 10.7933 11H9.00024V7Z" fill="white"/>
</svg>
