<svg width="16" height="16" viewBox="0 0 16 16" fill="none" xmlns="http://www.w3.org/2000/svg">
<path fill-rule="evenodd" clip-rule="evenodd" d="M13 9.82929V8C13 6.89543 12.1046 6 11 6H6C4.89543 6 4 6.89543 4 8V9.96456C2.30385 9.72194 1 8.26324 1 6.5C1 4.567 2.567 3 4.5 3C4.58468 3 4.66865 3.00301 4.75182 3.00892C5.55826 1.79793 6.93595 1 8.5 1C10.4972 1 12.1906 2.30115 12.7786 4.10203C14.058 4.44491 15 5.61245 15 7C15 8.30622 14.1652 9.41746 13 9.82929Z" fill="white" fill-opacity="0.5"/>
<path fill-rule="evenodd" clip-rule="evenodd" d="M12 9L11 9V12V13V14C11 14.5523 10.5523 15 10 15H5C4.44772 15 4 14.5523 4 14V13H10V12H5V9V8C5 7.44772 5.44771 7 6 7H11C11.5523 7 12 7.44771 12 8V9Z" fill="white"/>
</svg>
