<svg width="16" height="16" viewBox="0 0 16 16" fill="none" xmlns="http://www.w3.org/2000/svg">
<path fill-rule="evenodd" clip-rule="evenodd" d="M4.05093 9.97146C2.33003 9.75105 1 8.28085 1 6.5C1 4.567 2.567 3 4.5 3C4.58468 3 4.66865 3.00301 4.75182 3.00892C5.55826 1.79793 6.93595 1 8.5 1C10.4972 1 12.1906 2.30115 12.7786 4.10203C14.058 4.44491 15 5.61245 15 7C15 8.26367 14.2187 9.34485 13.1128 9.78684C12.87 9.33387 12.4004 9 11.7929 9H10.8685L11.3138 8.33205C11.9784 7.33522 11.2638 6 10.0657 6H7.2831C6.7562 6 6.26794 6.27645 5.99686 6.72826L4.05093 9.97146Z" fill="white" fill-opacity="0.5"/>
<path d="M10.0657 7H7.2831C7.10747 7 6.94471 7.09215 6.85435 7.24275L4.45435 11.2428C4.25439 11.576 4.49445 12 4.8831 12H7V14.7929C7 15.2383 7.53857 15.4614 7.85355 15.1464L12.1464 10.8536C12.4614 10.5386 12.2383 10 11.7929 10H9L10.4818 7.77735C10.7033 7.44507 10.4651 7 10.0657 7Z" fill="white"/>
</svg>
