<svg width="16" height="16" viewBox="0 0 16 16" fill="none" xmlns="http://www.w3.org/2000/svg">
<path fill-rule="evenodd" clip-rule="evenodd" d="M4.5 10C2.567 10 1 8.433 1 6.5C1 4.567 2.567 3 4.5 3C4.58468 3 4.66865 3.00301 4.75182 3.00892C5.55826 1.79793 6.93595 1 8.5 1C10.4972 1 12.1906 2.30115 12.7786 4.10203C14.058 4.44491 15 5.61245 15 7C15 8.65685 13.6569 10 12 10L11.4145 10C11.7895 9.62493 12.0002 9.11622 12.0002 8.58579V8C12.0002 6.89543 11.1048 6 10.0002 6H6.00024C4.89568 6 4.00024 6.89543 4.00024 8V8.58579C4.00024 9.11622 4.21096 9.62493 4.58603 10L4.5 10Z" fill="white" fill-opacity="0.5"/>
<path fill-rule="evenodd" clip-rule="evenodd" d="M8.29289 10.2929L8 10.5858L7.70711 10.2929L6 8.58579L6 8H10L10 8.58579L8.29289 10.2929ZM10 7H6C5.44772 7 5 7.44772 5 8V8.58579C5 8.851 5.10536 9.10536 5.29289 9.29289L6.2929 10.2929L7.00001 11L6.2929 11.7071L5.29289 12.7071C5.10536 12.8947 5 13.149 5 13.4142V14C5 14.5523 5.44772 15 6 15H10C10.5523 15 11 14.5523 11 14V13.4142C11 13.149 10.8946 12.8947 10.7071 12.7071L9.7071 11.7071L8.99999 11L9.7071 10.2929L10.7071 9.29289C10.8946 9.10536 11 8.851 11 8.58579V8C11 7.44772 10.5523 7 10 7Z" fill="white"/>
</svg>
