<svg width="16" height="16" viewBox="0 0 16 16" fill="none" xmlns="http://www.w3.org/2000/svg">
<path fill-rule="evenodd" clip-rule="evenodd" d="M3.79874 9.92973C2.2018 9.60496 1 8.19283 1 6.5C1 4.567 2.567 3 4.5 3C4.58468 3 4.66865 3.00301 4.75182 3.00892C5.55826 1.79793 6.93595 1 8.5 1C10.4972 1 12.1906 2.30115 12.7786 4.10203C14.058 4.44491 15 5.61245 15 7C15 8.30622 14.1652 9.41747 13 9.8293V9V8H12H11.7324C11.5568 7.69635 11.3036 7.44316 10.9999 7.26752V7V6H9.99992H8.99992H7.99992V7H7.41421C7.05391 7 6.70364 7.09722 6.39846 7.27714L6.20708 7.08576L5.49997 6.37865L4.79286 7.08576L4.08576 7.79286L3.37865 8.49997L4.08576 9.20708L4.23759 9.35891C4.07661 9.53896 3.93008 9.72984 3.79874 9.92973Z" fill="white" fill-opacity="0.5"/>
<path fill-rule="evenodd" clip-rule="evenodd" d="M8.99992 7H9.99992V8H10C10.5523 8 11 8.44771 11 9L12 9V10H11V11.5858C11 11.851 10.8946 12.1054 10.7071 12.2929L10.3536 12.6464L10.8535 13.1464L11.2071 13.5L10.5 14.2071L10.1464 13.8535L9.64645 13.3536L9.13137 13.8686C8.54994 14.4501 7.80222 14.827 7 14.9531V16H6V14.9133C5.89572 14.8658 5.79973 14.7997 5.71716 14.7172L5.35356 14.3536L7.85355 11.8536L8.20711 11.5L7.5 10.7929L7.14645 11.1465L4.64646 13.6465L4.28284 13.2828C4.20027 13.2003 4.13419 13.1043 4.08674 13H3V12H4.04687C4.173 11.1978 4.54993 10.4501 5.13137 9.86863L5.64645 9.35355L5.14642 8.85352L4.79286 8.49997L5.49997 7.79286L5.85352 8.14642L6.35355 8.64645L6.70711 8.29289C6.89464 8.10536 7.149 8 7.41421 8H8.99992V7Z" fill="white"/>
</svg>
