<svg width="16" height="16" viewBox="0 0 16 16" fill="none" xmlns="http://www.w3.org/2000/svg">
<path fill-rule="evenodd" clip-rule="evenodd" d="M3.68211 9.90392C2.14364 9.53561 1 8.15136 1 6.5C1 4.567 2.567 3 4.5 3C4.58468 3 4.66865 3.00301 4.75182 3.00892C5.55826 1.79793 6.93595 1 8.5 1C10.4972 1 12.1906 2.30115 12.7786 4.10203C14.058 4.44491 15 5.61245 15 7C15 7.72288 14.7443 8.38605 14.3185 8.90401L11.7074 6.29289L11.0002 5.58579L10.2931 6.29289L7.14669 9.43934C6.97702 9.60901 6.85939 9.80031 6.78832 10H6.41446L5.70735 9.29289L5.00024 8.58579L4.29314 9.29289L3.68211 9.90392Z" fill="white" fill-opacity="0.5"/>
<path fill-rule="evenodd" clip-rule="evenodd" d="M12.0002 15L10.0002 15V11L8.20706 11C7.7616 11 7.53852 10.4614 7.8535 10.1464L11 7L14.1464 10.1464C14.4614 10.4614 14.2383 11 13.7928 11L12.0002 11V15ZM6.0002 15L4.0002 15V14L2.20706 14C1.76161 14 1.53852 13.4614 1.8535 13.1464L4.99995 10L5.99995 11H6.0002V11.0002L8.1464 13.1464C8.46138 13.4614 8.2383 14 7.79284 14L6.0002 14V15Z" fill="white"/>
</svg>
