<svg width="16" height="16" viewBox="0 0 16 16" fill="none" xmlns="http://www.w3.org/2000/svg">
<path fill-rule="evenodd" clip-rule="evenodd" d="M3 8V9.66318C1.81753 9.10145 1 7.8962 1 6.5C1 4.567 2.567 3 4.5 3C4.58468 3 4.66865 3.00301 4.75182 3.00892C5.55826 1.79793 6.93595 1 8.5 1C10.4972 1 12.1906 2.30115 12.7786 4.10203C14.058 4.44491 15 5.61245 15 7C15 8.30622 14.1652 9.41746 13 9.82929V8C13 6.89543 12.1046 6 11 6H5C3.89543 6 3 6.89543 3 8Z" fill="white" fill-opacity="0.5"/>
<path fill-rule="evenodd" clip-rule="evenodd" d="M5 7C4.44772 7 4 7.44772 4 8V13C4 14.1046 4.89543 15 6 15H10C11.1046 15 12 14.1046 12 13V8C12 7.44772 11.5523 7 11 7H5ZM7 9H6V11H7V9ZM10 12C10 13.1046 9.10457 14 8 14C6.89543 14 6 13.1046 6 12H10ZM10 9H9V11H10V9Z" fill="white"/>
</svg>
