<svg width="16" height="16" viewBox="0 0 16 16" fill="none" xmlns="http://www.w3.org/2000/svg">
<path fill-rule="evenodd" clip-rule="evenodd" d="M3.81413 9.93283C2.20953 9.61402 1 8.19826 1 6.5C1 4.567 2.567 3 4.5 3C4.58468 3 4.66865 3.00301 4.75182 3.00892C5.55826 1.79793 6.93595 1 8.5 1C10.4972 1 12.1906 2.30115 12.7786 4.10203C14.058 4.44491 15 5.61245 15 7C15 8.5864 13.7687 9.88521 12.2096 9.99279C12.1383 9.79571 12.0214 9.60697 11.8538 9.43934L8.70735 6.29289L8.00024 5.58579L7.29314 6.29289L4.14669 9.43934C3.99614 9.58989 3.88657 9.75747 3.81413 9.93283Z" fill="white" fill-opacity="0.5"/>
<path fill-rule="evenodd" clip-rule="evenodd" d="M7.00024 15L9.00024 15L9.00024 11L10.7929 11C11.2384 11 11.4615 10.4614 11.1465 10.1464L8.00005 7L4.8536 10.1464C4.53862 10.4614 4.7617 11 5.20716 11L7.00024 11L7.00024 15Z" fill="white"/>
</svg>
