<svg width="16" height="16" viewBox="0 0 16 16" fill="none" xmlns="http://www.w3.org/2000/svg">
<path fill-rule="evenodd" clip-rule="evenodd" d="M9.99988 1C9.99988 0.447715 9.55216 0 8.99988 0H6.99988C6.44759 0 5.99988 0.447715 5.99988 1V2.34138C5.29762 2.58958 4.65537 2.96481 4.10072 3.43945L2.93771 2.76799C2.45942 2.49185 1.84783 2.65572 1.57169 3.13402L0.571689 4.86607C0.295547 5.34436 0.459422 5.95595 0.937714 6.23209L2.09984 6.90304C2.03413 7.25869 1.99979 7.62534 1.99979 8C1.99979 8.37465 2.03413 8.74129 2.09983 9.09693L0.937667 9.7679C0.459374 10.044 0.295499 10.6556 0.571642 11.1339L1.57164 12.866C1.84778 13.3443 2.45937 13.5081 2.93767 13.232L4.1007 12.5605C4.65535 13.0352 5.29761 13.4104 5.99987 13.6586V14.9999C5.99987 15.5522 6.44759 15.9999 6.99987 15.9999H8.99987C9.18535 15.9999 9.35904 15.9494 9.50793 15.8614C8.58256 15.0372 7.99976 13.8367 7.99976 12.5C7.99976 11.9699 8.09142 11.4612 8.25976 10.9889C8.17408 10.9962 8.08738 11 7.99979 11C6.34294 11 4.99979 9.65685 4.99979 8C4.99979 6.34315 6.34294 5 7.99979 5C9.65665 5 10.9998 6.34315 10.9998 8C10.9998 8.08759 10.996 8.17431 10.9887 8.25999C11.461 8.09166 11.9697 8 12.4998 8C13.0237 8 13.5268 8.08956 13.9945 8.25421C13.998 8.16991 13.9998 8.08516 13.9998 8C13.9998 7.62534 13.9655 7.25869 13.8997 6.90304L15.062 6.23204C15.5403 5.95589 15.7041 5.3443 15.428 4.86601L14.428 3.13396C14.1519 2.65567 13.5403 2.49179 13.062 2.76793L11.8989 3.43945C11.3443 2.96485 10.7021 2.58964 9.99988 2.34144V1Z" fill="white" fill-opacity="0.5"/>
<path fill-rule="evenodd" clip-rule="evenodd" d="M16 12.5C16 14.433 14.433 16 12.5 16C10.567 16 9 14.433 9 12.5C9 10.567 10.567 9 12.5 9C14.433 9 16 10.567 16 12.5ZM13 10V10.5V12.5V13H12V12.5V10.5V10H13ZM13 15V14H12V15H13Z" fill="white"/>
</svg>
