<svg width="16" height="16" viewBox="0 0 16 16" fill="none" xmlns="http://www.w3.org/2000/svg">
<path fill-rule="evenodd" clip-rule="evenodd" d="M9.99988 1C9.99988 0.447715 9.55216 0 8.99988 0H6.99988C6.44759 0 5.99988 0.447715 5.99988 1V2.34138C5.29762 2.58958 4.65537 2.96481 4.10072 3.43945L2.93771 2.76799C2.45942 2.49185 1.84783 2.65572 1.57169 3.13402L0.571689 4.86607C0.295547 5.34436 0.459422 5.95595 0.937714 6.23209L2.09984 6.90304C2.03413 7.25869 1.99979 7.62534 1.99979 8C1.99979 8.37465 2.03413 8.74129 2.09983 9.09693L0.937667 9.7679C0.459374 10.044 0.295499 10.6556 0.571642 11.1339L1.57164 12.866C1.84778 13.3443 2.45937 13.5081 2.93767 13.232L4.1007 12.5605C4.65535 13.0352 5.29761 13.4104 5.99987 13.6586V14.9999C5.99987 15.5522 6.44759 15.9999 6.99987 15.9999H7.99976V11C6.34292 11 4.99979 9.65684 4.99979 8C4.99979 6.34315 6.34294 5 7.99979 5C9.30601 5 10.4173 5.83481 10.8291 7H13.9168C13.9114 6.96759 13.9057 6.93527 13.8997 6.90304L15.062 6.23204C15.5403 5.95589 15.7041 5.3443 15.428 4.86601L14.428 3.13396C14.1519 2.65567 13.5403 2.49179 13.062 2.76793L11.8989 3.43945C11.3443 2.96485 10.7021 2.58964 9.99988 2.34144V1Z" fill="white" fill-opacity="0.5"/>
<path fill-rule="evenodd" clip-rule="evenodd" d="M10 8H11V10H13V8H14V10H15V12.3787C15 12.7765 14.842 13.158 14.5607 13.4393L13 15V16H11V15L9.43934 13.4393C9.15803 13.158 9 12.7765 9 12.3787V10H10V8Z" fill="white"/>
</svg>
