<svg width="16" height="16" viewBox="0 0 16 16" fill="none" xmlns="http://www.w3.org/2000/svg">
<path fill-rule="evenodd" clip-rule="evenodd" d="M9.99994 0.5C9.99994 0.223858 10.2238 0 10.4999 0H11.4999C11.7761 0 11.9999 0.223857 11.9999 0.5V1.12602C12.3669 1.22048 12.7136 1.36572 13.0319 1.5538L13.4748 1.11088C13.67 0.915616 13.9866 0.915615 14.1819 1.11088L14.889 1.81798C15.0843 2.01325 15.0843 2.32983 14.889 2.52509L14.4461 2.96799C14.6342 3.28628 14.7794 3.63289 14.8739 3.99988H15.4999C15.7761 3.99988 15.9999 4.22374 15.9999 4.49988V5.49988C15.9999 5.77602 15.7761 5.99988 15.4999 5.99988H14.874C14.7795 6.36694 14.6342 6.71361 14.4461 7.03195L14.889 7.47482C15.0843 7.67008 15.0843 7.98666 14.889 8.18192L14.1819 8.88903C13.9866 9.08429 13.67 9.08429 13.4748 8.88903L13.0319 8.44617C12.7136 8.63427 12.367 8.77952 11.9999 8.87398V9.49988C11.9999 9.77602 11.7761 9.99988 11.4999 9.99988H10.4999C10.2238 9.99988 9.99994 9.77602 9.99994 9.49988V8.87398C9.6329 8.77951 9.28624 8.63425 8.96791 8.44615L8.52506 8.889C8.3298 9.08426 8.01322 9.08426 7.81796 8.889L7.11085 8.18189C6.91559 7.98663 6.91559 7.67005 7.11085 7.47479L7.55372 7.03191C7.36563 6.71358 7.22038 6.36692 7.12593 5.99988H6.5C6.22386 5.99988 6 5.77602 6 5.49988V4.49988C6 4.22374 6.22386 3.99988 6.5 3.99988H7.12599C7.22045 3.6329 7.36569 3.28631 7.55376 2.96803L7.11091 2.52518C6.91565 2.32992 6.91565 2.01334 7.11091 1.81808L7.81801 1.11097C8.01328 0.915708 8.32986 0.915708 8.52512 1.11097L8.96797 1.55382C9.28628 1.36573 9.63292 1.22048 9.99994 1.12602V0.5ZM12.425 6.4033L12.4032 6.42505C12.0471 6.77577 11.5601 6.99401 11.0222 6.99988H10.9777C10.4397 6.99401 9.95276 6.77576 9.59664 6.42504L9.5749 6.4033C9.22275 6.04573 9.00416 5.55625 9 5.01573V4.98427C9.00416 4.44468 9.22199 3.95596 9.57307 3.59855L9.59849 3.57314C9.95936 3.21865 10.4541 3 10.9999 3C12.1045 3 12.9999 3.89543 12.9999 5C12.9999 5.54675 12.7805 6.04226 12.425 6.4033ZM4.99993 8.5C4.99993 8.22386 4.77607 8 4.49993 8H3.49993C3.22379 8 2.99993 8.22386 2.99993 8.5V9.17071C2.64882 9.29481 2.3277 9.48242 2.05039 9.71973L1.46883 9.38397C1.22969 9.2459 0.923892 9.32784 0.785821 9.56699L0.285821 10.433C0.14775 10.6722 0.229687 10.978 0.468833 11.116L1.04995 11.4515C1.0171 11.6294 0.999932 11.8127 0.999932 12C0.999932 12.1873 1.0171 12.3706 1.04995 12.5485L0.468834 12.884C0.229688 13.022 0.14775 13.3278 0.285821 13.567L0.785821 14.433C0.923892 14.6722 1.22969 14.7541 1.46883 14.616L2.05039 14.2803C2.3277 14.5176 2.64882 14.7052 2.99993 14.8293V15.5C2.99993 15.7761 3.22379 16 3.49993 16H4.49993C4.77607 16 4.99993 15.7761 4.99993 15.5V14.8293C5.35105 14.7052 5.67216 14.5176 5.94948 14.2803L6.53103 14.616C6.77018 14.7541 7.07597 14.6722 7.21404 14.433L7.71404 13.567C7.85212 13.3278 7.77018 13.022 7.53103 12.884L6.94991 12.5485C6.98276 12.3706 6.99993 12.1873 6.99993 12C6.99993 11.8127 6.98276 11.6294 6.94991 11.4515L7.53103 11.116C7.77018 10.978 7.85211 10.6722 7.71404 10.433L7.21404 9.56699C7.07597 9.32784 6.77018 9.24591 6.53103 9.38398L5.94948 9.71974C5.67217 9.48242 5.35105 9.29481 4.99993 9.17071V8.5ZM3.99993 13.5C4.82836 13.5 5.49993 12.8284 5.49993 12C5.49993 11.1716 4.82836 10.5 3.99993 10.5C3.17151 10.5 2.49993 11.1716 2.49993 12C2.49993 12.8284 3.17151 13.5 3.99993 13.5Z" fill="white"/>
</svg>
