<svg width="16" height="16" viewBox="0 0 16 16" fill="none" xmlns="http://www.w3.org/2000/svg">
<path fill-rule="evenodd" clip-rule="evenodd" d="M10 1C9.44772 1 9 1.44772 9 2C9 2.55228 9.44772 3 10 3C10.5523 3 11 2.55228 11 2C11 1.44772 10.5523 1 10 1ZM13 3C13 2.44772 13.4477 2 14 2C14.5523 2 15 2.44772 15 3C15 3.55228 14.5523 4 14 4C13.4477 4 13 3.55228 13 3ZM12 6C12 5.44772 12.4477 5 13 5C13.5523 5 14 5.44772 14 6C14 6.55228 13.5523 7 13 7C12.4477 7 12 6.55228 12 6Z" fill="white" fill-opacity="0.5"/>
<path fill-rule="evenodd" clip-rule="evenodd" d="M7 3.5V1.07089C3.60771 1.55612 1 4.47353 1 8C1 11.866 4.13401 15 8 15C11.5265 15 14.4439 12.3923 14.9291 9H12.5C11.6716 9 11 8.32843 11 7.5V5H8.5C7.67157 5 7 4.32843 7 3.5ZM4 7.00003C4.55228 7.00003 5 6.55231 5 6.00003C5 5.44774 4.55228 5.00003 4 5.00003C3.44772 5.00003 3 5.44774 3 6.00003C3 6.55231 3.44772 7.00003 4 7.00003ZM6 11C6 11.5523 5.55228 12 5 12C4.44772 12 4 11.5523 4 11C4 10.4477 4.44772 10 5 10C5.55228 10 6 10.4477 6 11ZM9 10C9.55229 10 10 9.55231 10 9.00003C10 8.44774 9.55229 8.00003 9 8.00003C8.44772 8.00003 8 8.44774 8 9.00003C8 9.55231 8.44772 10 9 10Z" fill="white"/>
</svg>
