<svg width="16" height="16" viewBox="0 0 16 16" fill="none" xmlns="http://www.w3.org/2000/svg">
<path fill-rule="evenodd" clip-rule="evenodd" d="M13.5 13H13.5001C13.044 13.6072 12.3179 13.9999 11.5 13.9999C10.1193 13.9999 9 12.8807 9 11.4999C9 10.682 9.39278 9.95586 10 9.49976V9.50003C10 11.433 11.567 13 13.5 13ZM11.5 15H11.5001C11.044 15.6072 10.3179 15.9999 9.5 15.9999C8.11929 15.9999 7 14.8807 7 13.4999C7 12.682 7.39278 11.9559 8 11.4998V11.5C8 13.433 9.567 15 11.5 15Z" fill="white" fill-opacity="0.5"/>
<path fill-rule="evenodd" clip-rule="evenodd" d="M5 0H6V2.03544C7.53285 2.2547 8.7453 3.46715 8.96456 5H11V6H8.96456C8.7453 7.53285 7.53285 8.7453 6 8.96456V11H5V8.96456C3.46715 8.7453 2.2547 7.53285 2.03544 6H0V5H2.03544C2.2547 3.46715 3.46715 2.2547 5 2.03544V0ZM8 5.5C8 6.88071 6.88071 8 5.5 8C4.11929 8 3 6.88071 3 5.5C3 4.11929 4.11929 3 5.5 3C6.88071 3 8 4.11929 8 5.5ZM13.5 12C14.8807 12 16 10.8807 16 9.5C16 8.11929 14.8807 7 13.5 7C12.1193 7 11 8.11929 11 9.5C11 10.8807 12.1193 12 13.5 12Z" fill="white"/>
</svg>
