<svg width="16" height="16" viewBox="0 0 16 16" fill="none" xmlns="http://www.w3.org/2000/svg">
<path fill-rule="evenodd" clip-rule="evenodd" d="M3 3.41421C3 3.149 3.10536 2.89464 3.29289 2.70711L4.70711 1.29289C4.89464 1.10536 5.149 1 5.41421 1H9C9.55229 1 10 1.44772 10 2V6H14C14.5523 6 15 6.44772 15 7V10.5858C15 10.851 14.8946 11.1054 14.7071 11.2929L13.2929 12.7071C13.1054 12.8946 12.851 13 12.5858 13H8L6.29289 14.7071C6.10536 14.8946 5.851 15 5.58579 15H2C1.44772 15 1 14.5523 1 14V10.4142C1 10.149 1.10536 9.89464 1.29289 9.70711L3 8V3.41421ZM8.85355 2.85351L9.20711 2.49995L8.5 1.79285L8.14645 2.1464L7.29289 2.99995H4.5H4V3.99995H4.5H7V6.49995V6.99995H8V6.49995V3.70706L8.85355 2.85351ZM6.85355 9.85351L7.20711 9.49995L6.5 8.79285L6.14645 9.1464L5.29289 9.99995H2.5H2V11H2.5H5V13.5V14H6V13.5V10.7071L6.85355 9.85351ZM14.2071 7.49995L13.8536 7.85351L13 8.70706V11.5V12H12V11.5V8.99995H9.5H9V7.99995H9.5H12.2929L13.1464 7.1464L13.5 6.79285L14.2071 7.49995Z" fill="white"/>
</svg>
