<svg width="16" height="16" viewBox="0 0 16 16" fill="none" xmlns="http://www.w3.org/2000/svg">
<path fill-rule="evenodd" clip-rule="evenodd" d="M8 14H5V11H8V14ZM13.8536 2.14645C13.7631 2.05596 13.6381 2 13.5 2H11L10 3H7L8 2H5.62132C5.48871 2 5.36154 2.05268 5.26777 2.14645L4.41421 3H7L6 4H3.41421L2.41421 5H5V8H2V11H5V8H8V11H11V8H8V5H11L12 4H9L10 3H13L13.8536 2.14645ZM9 4H6L5 5H8L9 4ZM1 5.62132C1 5.2235 1.15804 4.84196 1.43934 4.56066L4.56066 1.43934C4.84197 1.15803 5.2235 1 5.62132 1H13.5C14.3284 1 15 1.67157 15 2.5V10.3787C15 10.7765 14.842 11.158 14.5607 11.4393L11.4393 14.5607C11.158 14.842 10.7765 15 10.3787 15H2.5C1.67157 15 1 14.3284 1 13.5V5.62132Z" fill="white"/>
</svg>
