<svg width="16" height="16" viewBox="0 0 16 16" fill="none" xmlns="http://www.w3.org/2000/svg">
<path fill-rule="evenodd" clip-rule="evenodd" d="M3.58579 2.41421L2.41421 3.58579C2.65873 3.83031 2.84023 4.13785 2.93226 4.48196L4.48196 2.93226C4.13785 2.84023 3.83031 2.65873 3.58579 2.41421ZM6.73244 2H11.1748L7.85296 3.02211L2.945 4.53225C2.98096 4.6823 3 4.83893 3 5C3 5.36429 2.90261 5.70583 2.73244 6H9.26756C9.09739 5.70583 9 5.36429 9 5H4.82518L8.14704 3.97789L9.66488 3.51086C10.0189 3.19322 10.4869 3 11 3C11.0907 3 11.18 3.00604 11.2675 3.01774L12.723 2.56991L12.016 3.27691C12.3072 3.44899 12.551 3.6928 12.7231 3.98402L13.4301 3.27701L12.9823 4.73247C12.994 4.81998 13 4.90929 13 5C13 5.5131 12.8068 5.98107 12.4891 6.33512L11 11.1748V7C10.6357 7 10.2942 6.90261 10 6.73244V13.2676C10.2942 13.0974 10.6357 13 11 13C11.1611 13 11.3177 13.019 11.4677 13.055L14 4.82518V9.26756C14.2942 9.09739 14.6357 9 15 9V3C13.8954 3 13 2.10457 13 1H7C7 1.36429 6.90261 1.70583 6.73244 2ZM13.5858 12.4142C13.3413 12.1697 13.1598 11.8622 13.0677 11.518L11.518 13.0677C11.8622 13.1598 12.1697 13.3413 12.4142 13.5858L13.5858 12.4142ZM9 15C9 14.6357 9.09739 14.2942 9.26756 14H2.73244C2.90261 14.2942 3 14.6357 3 15H9ZM1 13C1.36429 13 1.70583 13.0974 2 13.2676V6.73244C1.70583 6.90261 1.36429 7 1 7V13ZM2.01598 13.2769C2.3072 13.449 2.55101 13.6928 2.72309 13.984L9.98402 6.72309C9.6928 6.55101 9.44899 6.3072 9.27691 6.01598L2.01598 13.2769Z" fill="white" fill-opacity="0.5"/>
<path fill-rule="evenodd" clip-rule="evenodd" d="M4 1C4 0.447715 4.44772 0 5 0C5.55228 0 6 0.447715 6 1C6 1.55228 5.55228 2 5 2C4.44772 2 4 1.55228 4 1ZM0 5C0 4.44772 0.447715 4 1 4C1.55228 4 2 4.44772 2 5C2 5.55228 1.55228 6 1 6C0.447715 6 0 5.55228 0 5ZM15 0C14.4477 0 14 0.447715 14 1C14 1.55228 14.4477 2 15 2C15.5523 2 16 1.55228 16 1C16 0.447715 15.5523 0 15 0ZM14 11C14 10.4477 14.4477 10 15 10C15.5523 10 16 10.4477 16 11C16 11.5523 15.5523 12 15 12C14.4477 12 14 11.5523 14 11ZM11 14C10.4477 14 10 14.4477 10 15C10 15.5523 10.4477 16 11 16C11.5523 16 12 15.5523 12 15C12 14.4477 11.5523 14 11 14ZM0 15C0 14.4477 0.447715 14 1 14C1.55228 14 2 14.4477 2 15C2 15.5523 1.55228 16 1 16C0.447715 16 0 15.5523 0 15ZM11 4C10.4477 4 10 4.44772 10 5C10 5.55228 10.4477 6 11 6C11.5523 6 12 5.55228 12 5C12 4.44772 11.5523 4 11 4Z" fill="white"/>
</svg>
