<svg width="16" height="16" viewBox="0 0 16 16" fill="none" xmlns="http://www.w3.org/2000/svg">
<path fill-rule="evenodd" clip-rule="evenodd" d="M8.25606 14H2.5C2.22386 14 2 13.7761 2 13.5V5.62132C2 5.48871 2.05268 5.36154 2.14645 5.26777L5.26777 2.14645C5.36154 2.05268 5.48871 2 5.62132 2H13.5C13.7761 2 14 2.22386 14 2.5V8.25606C14.356 8.3819 14.6915 8.55127 15 8.75777V2.5C15 1.67157 14.3284 1 13.5 1H5.62132C5.2235 1 4.84197 1.15803 4.56066 1.43934L1.43934 4.56066C1.15804 4.84196 1 5.2235 1 5.62132V13.5C1 14.3284 1.67157 15 2.5 15H8.75777C8.55127 14.6915 8.3819 14.356 8.25606 14Z" fill="white" fill-opacity="0.5"/>
<path fill-rule="evenodd" clip-rule="evenodd" d="M4.29289 5.70711C4.10536 5.89464 4 6.149 4 6.41421V11C4 11.5523 4.44772 12 5 12H8.02746C8.12439 11.1232 8.47323 10.3223 9 9.67133V7H5.5H5V6H5.5H9.29289L10.1464 5.14645L10.5 4.79289L11.2071 5.5L10.8536 5.85355L10 6.70711V8.75777C10.5844 8.36658 11.2656 8.10865 12 8.02746V5C12 4.44772 11.5523 4 11 4H6.41421C6.149 4 5.89464 4.10536 5.70711 4.29289L4.29289 5.70711ZM12.5 16C14.433 16 16 14.433 16 12.5C16 10.567 14.433 9 12.5 9C10.567 9 9 10.567 9 12.5C9 14.433 10.567 16 12.5 16ZM11.3536 10.6464L11 10.2929L10.2929 11L10.6464 11.3536L11.7929 12.5L10.6464 13.6464L10.2929 14L11 14.7071L11.3536 14.3536L12.5 13.2071L13.6464 14.3536L14 14.7071L14.7071 14L14.3536 13.6464L13.2071 12.5L14.3536 11.3536L14.7071 11L14 10.2929L13.6464 10.6464L12.5 11.7929L11.3536 10.6464Z" fill="white"/>
</svg>
