<svg width="16" height="16" viewBox="0 0 16 16" fill="none" xmlns="http://www.w3.org/2000/svg">
<path fill-rule="evenodd" clip-rule="evenodd" d="M1.43934 4.56066C1.15804 4.84196 1 5.2235 1 5.62132V13.5C1 14.3284 1.67157 15 2.5 15H8.23086C8.0553 14.7111 7.97465 14.3562 8.04039 13.973L8.28541 12.5444L7.24747 11.5327C6.3572 10.6649 6.84847 9.15289 8.07879 8.97412L9.51318 8.76569L10 7.77929V6H2.5H2V5H2.5H10.2929L13.1464 2.14645L13.5 1.79289L14.2071 2.5L13.8536 2.85355L11 5.70711V6.71353C11.6701 6.48125 12.4827 6.73204 12.8449 7.46591L13.4863 8.76569L14.9207 8.97412C14.9475 8.97801 14.9739 8.98253 15 8.98766V2.5C15 1.67157 14.3284 1 13.5 1H5.62132C5.2235 1 4.84197 1.15803 4.56066 1.43934L1.43934 4.56066Z" fill="white" fill-opacity="0.5"/>
<path d="M11.0514 7.90848C11.2348 7.53685 11.7647 7.53686 11.9481 7.90848L12.7059 9.44398C12.7788 9.59155 12.9196 9.69383 13.0824 9.7175L14.7769 9.96373C15.187 10.0233 15.3508 10.5273 15.054 10.8166L13.8279 12.0118C13.71 12.1267 13.6563 12.2922 13.6841 12.4544L13.9735 14.142C14.0436 14.5505 13.6149 14.862 13.2481 14.6691L11.7324 13.8723C11.5868 13.7957 11.4128 13.7957 11.2671 13.8723L9.75147 14.6691C9.38465 14.862 8.95594 14.5505 9.02599 14.142L9.31545 12.4544C9.34327 12.2922 9.2895 12.1267 9.17165 12.0118L7.94549 10.8166C7.64873 10.5273 7.81248 10.0233 8.22259 9.96373L9.91712 9.7175C10.08 9.69383 10.2208 9.59155 10.2936 9.44398L11.0514 7.90848Z" fill="white"/>
</svg>
