<svg width="16" height="16" viewBox="0 0 16 16" fill="none" xmlns="http://www.w3.org/2000/svg">
<path fill-rule="evenodd" clip-rule="evenodd" d="M1 5.62132C1 5.2235 1.15804 4.84196 1.43934 4.56066L4.56066 1.43934C4.84197 1.15803 5.2235 1 5.62132 1H13.5C14.3284 1 15 1.67157 15 2.5V7.25716C14.0491 6.47182 12.8296 6 11.5 6C11.3315 6 11.1647 6.00758 11 6.02242V5.70711L13.8536 2.85355L14.2071 2.5L13.5 1.79289L13.1464 2.14645L10.2929 5H2.5H2V6H2.5H10V6.20703C7.69149 6.85996 6 8.98245 6 11.5C6 12.8296 6.47182 14.0491 7.25716 15H2.5C1.67157 15 1 14.3284 1 13.5V5.62132Z" fill="white" fill-opacity="0.5"/>
<path fill-rule="evenodd" clip-rule="evenodd" d="M15.624 13.3036C15.8658 12.7515 16 12.1414 16 11.5C16 10.8586 15.8658 10.2486 15.624 9.69638L15.2141 9.93302L12.5 11.5L15.2141 13.067L15.624 13.3036ZM15.4398 13.676L15.3586 13.8167C15.3865 13.7704 15.4136 13.7235 15.4398 13.676ZM15.1232 14.1692L14.7141 13.933L12 12.366V15.5V15.9725C13.2793 15.8311 14.397 15.1534 15.1232 14.1692ZM11 15.9725V15.5V12.366L8.28592 13.933L7.87677 14.1692C8.60303 15.1534 9.72071 15.8311 11 15.9725ZM7.64236 13.8183L7.55925 13.6744C7.58609 13.7229 7.6138 13.7709 7.64236 13.8183ZM7.37603 13.3036C7.13419 12.7515 7 12.1414 7 11.5C7 10.8586 7.13419 10.2485 7.37603 9.69637L7.78592 9.93301L10.5 11.5L7.78592 13.067L7.37603 13.3036ZM7.55925 9.32561L7.64236 9.18167C7.6138 9.22909 7.58609 9.27707 7.55925 9.32561ZM7.87677 8.83077L8.28592 9.06699L11 10.634V7.5V7.02747C9.72071 7.16888 8.60303 7.84658 7.87677 8.83077ZM12 7.02747V7.5V10.634L14.7141 9.06699L15.1232 8.83078C14.397 7.84659 13.2793 7.16889 12 7.02747ZM15.3586 9.18327L15.4398 9.32398C15.4136 9.27655 15.3865 9.22964 15.3586 9.18327Z" fill="white"/>
</svg>
