<svg width="16" height="16" viewBox="0 0 16 16" fill="none" xmlns="http://www.w3.org/2000/svg">
<path fill-rule="evenodd" clip-rule="evenodd" d="M7.00008 5H10.0001C10.5524 5 11.0001 5.44772 11.0001 6V9V9.58579C11.0001 9.73008 10.9689 9.87115 10.9103 10C10.8611 10.108 10.7927 10.2074 10.7072 10.2929L9.29297 11.7071C9.10543 11.8946 8.85108 12 8.58586 12H5.00008C4.9105 12 4.82367 11.9882 4.74105 11.9661C4.39695 11.8741 4.12597 11.6031 4.03395 11.259C4.01185 11.1764 4.00008 11.0896 4.00008 11V7.41421C4.00008 7.149 4.10543 6.89464 4.29297 6.70711L5.70718 5.29289C5.79269 5.20739 5.89209 5.13896 6.00008 5.08982C6.12892 5.03118 6.27 5 6.41429 5H7.00008ZM12.0001 9.58579C12.0001 9.72607 11.9853 9.86483 11.9567 10H14.5001H15.0001V9H14.5001H12.0001V9.58579ZM6.00008 1.5V4.04336C6.13525 4.01474 6.27401 4 6.41429 4H7.00008V1.5V1H6.00008V1.5ZM3.98409 12.7231C3.69287 12.551 3.44907 12.3072 3.27698 12.016L1.64652 13.6464L1.29297 14L2.00008 14.7071L2.35363 14.3536L3.98409 12.7231ZM10.2072 6.5L9.85363 6.85355L9.00008 7.70711V10.5V11H8.00008V10.5V8H5.50008H5.00008V7H5.50008H8.29297L9.14652 6.14645L9.50008 5.79289L10.2072 6.5Z" fill="white"/>
</svg>
