<svg width="16" height="16" viewBox="0 0 16 16" fill="none" xmlns="http://www.w3.org/2000/svg">
<path fill-rule="evenodd" clip-rule="evenodd" d="M3.29289 2.70711C3.10536 2.89464 3 3.149 3 3.41421V8L1.29289 9.70711C1.10536 9.89464 1 10.149 1 10.4142V14C1 14.5523 1.44772 15 2 15H5.58579C5.73008 15 5.87115 14.9688 6 14.9102V13H7V9C7 7.89543 7.89543 7 9 7H14C14.3643 7 14.7058 7.09739 15 7.26756V7C15 6.44772 14.5523 6 14 6H10V2C10 1.44772 9.55229 1 9 1H5.41421C5.149 1 4.89464 1.10536 4.70711 1.29289L3.29289 2.70711Z" fill="white" fill-opacity="0.5"/>
<path fill-rule="evenodd" clip-rule="evenodd" d="M15 10L14 10V13V14V15C14 15.5523 13.5523 16 13 16H8C7.44772 16 7 15.5523 7 15V14H13V13H8V10V9C8 8.44772 8.44771 8 9 8H14C14.5523 8 15 8.44771 15 9V10Z" fill="white"/>
</svg>
