<svg width="16" height="16" viewBox="0 0 16 16" fill="none" xmlns="http://www.w3.org/2000/svg">
<path fill-rule="evenodd" clip-rule="evenodd" d="M1.79297 13.5L2.14652 13.1464L5.00008 10.2929L5.00007 7.5L5.00007 7L6.00007 7L6.00007 7.5L6.00008 10H8.50007H9.00007L9.00007 11H8.50007H5.70719L2.85363 13.8536L2.50007 14.2071L1.79297 13.5ZM14.0001 11H13.5001L12.5001 11H12.0001V10H12.5001H13.5001H14.0001V11ZM5.00007 4L5.00007 3.5V2.5V2L6.00007 2V2.5V3.5V4H5.00007Z" fill="white" fill-opacity="0.5"/>
<path fill-rule="evenodd" clip-rule="evenodd" d="M1 5.62132C1 5.2235 1.15804 4.84196 1.43934 4.56066L4.56066 1.43934C4.84197 1.15803 5.2235 1 5.62132 1H13.5C14.3284 1 15 1.67157 15 2.5V10.3787C15 10.7765 14.842 11.158 14.5607 11.4393L11.4393 14.5607C11.158 14.842 10.7765 15 10.3787 15H2.5C1.67157 15 1 14.3284 1 13.5V5.62132ZM14.2071 2.5L13.8536 2.85355L11 5.70711V13.5V14H10V13.5V6H2.5H2V5H2.5H10.2929L13.1464 2.14645L13.5 1.79289L14.2071 2.5ZM2.14645 13.1464L1.79289 13.5L2.5 14.2071L2.85355 13.8536L5.70711 11H9L9 10H6L6 7L5 7L5 10.2929L2.14645 13.1464ZM13.5 11H14L14 10H13.5L12 10V11L13.5 11ZM6 4L6 2.5L6 2H5V2.5L5 4H6Z" fill="white"/>
</svg>
