<svg width="16" height="16" viewBox="0 0 16 16" fill="none" xmlns="http://www.w3.org/2000/svg">
<path fill-rule="evenodd" clip-rule="evenodd" d="M2.5 14H10.3787C10.5113 14 10.6385 13.9473 10.7322 13.8536L13.8536 10.7322C13.9473 10.6385 14 10.5113 14 10.3787V2.5C14 2.22386 13.7761 2 13.5 2H5.62132C5.48871 2 5.36154 2.05268 5.26777 2.14645L2.14645 5.26777C2.05268 5.36154 2 5.48871 2 5.62132V13.5C2 13.7761 2.22386 14 2.5 14ZM1.43934 4.56066C1.15804 4.84196 1 5.2235 1 5.62132V13.5C1 14.3284 1.67157 15 2.5 15H10.3787C10.7765 15 11.158 14.842 11.4393 14.5607L14.5607 11.4393C14.842 11.158 15 10.7765 15 10.3787V2.5C15 1.67157 14.3284 1 13.5 1H5.62132C5.2235 1 4.84197 1.15803 4.56066 1.43934L1.43934 4.56066ZM10 8C10 9.10457 9.10457 10 8 10C7.6291 10 7.28177 9.89903 6.98402 9.72309L4.85355 11.8536L4.5 12.2071L3.79289 11.5L4.14645 11.1464L6.27691 9.01598C6.10096 8.71823 6 8.3709 6 8C6 6.89543 6.89543 6 8 6C8.3709 6 8.71823 6.10096 9.01598 6.27691L11.1464 4.14645L11.5 3.79289L12.2071 4.5L11.8536 4.85355L9.72309 6.98402C9.89903 7.28177 10 7.6291 10 8Z" fill="white"/>
</svg>
