<svg width="16" height="16" viewBox="0 0 16 16" fill="none" xmlns="http://www.w3.org/2000/svg">
<path fill-rule="evenodd" clip-rule="evenodd" d="M2.5 14H8.25606C8.3819 14.356 8.55127 14.6915 8.75777 15H2.5C1.67157 15 1 14.3284 1 13.5V5.62132C1 5.2235 1.15804 4.84196 1.43934 4.56066L4.56066 1.43934C4.84197 1.15803 5.2235 1 5.62132 1H13.5C14.3284 1 15 1.67157 15 2.5V8.75777C14.6915 8.55127 14.356 8.3819 14 8.25606V2.5C14 2.22386 13.7761 2 13.5 2H5.62132C5.48871 2 5.36154 2.05268 5.26777 2.14645L2.14645 5.26777C2.05268 5.36154 2 5.48871 2 5.62132V13.5C2 13.7761 2.22386 14 2.5 14ZM6.14645 12.6464L5.10355 11.6036L3.85355 12.8536L3.5 13.2071L2.79289 12.5L3.14645 12.1464L4.39645 10.8964L3.35355 9.85355C3.03857 9.53857 3.26165 9 3.70711 9H7V12.2929C7 12.7383 6.46143 12.9614 6.14645 12.6464ZM10.8964 4.39645L9.85355 3.35355C9.53857 3.03857 9 3.26165 9 3.70711V7L12.2929 7C12.7383 7 12.9614 6.46143 12.6464 6.14645L11.6036 5.10355L12.8536 3.85355L13.2071 3.5L12.5 2.79289L12.1464 3.14645L10.8964 4.39645ZM12.5 16C14.433 16 16 14.433 16 12.5C16 10.567 14.433 9 12.5 9C10.567 9 9 10.567 9 12.5C9 14.433 10.567 16 12.5 16ZM11.3536 10.6464L11 10.2929L10.2929 11L10.6464 11.3536L11.7929 12.5L10.6464 13.6464L10.2929 14L11 14.7071L11.3536 14.3536L12.5 13.2071L13.6464 14.3536L14 14.7071L14.7071 14L14.3536 13.6464L13.2071 12.5L14.3536 11.3536L14.7071 11L14 10.2929L13.6464 10.6464L12.5 11.7929L11.3536 10.6464Z" fill="white"/>
</svg>
