<svg width="16" height="16" viewBox="0 0 16 16" fill="none" xmlns="http://www.w3.org/2000/svg">
<path fill-rule="evenodd" clip-rule="evenodd" d="M10 10H2V6H2.5H10V10ZM14 7L11 10V5.70711L13.8536 2.85355L14 2.70711V7ZM15 6V10.3787C15 10.7765 14.842 11.158 14.5607 11.4393L11.4393 14.5607C11.158 14.842 10.7765 15 10.3787 15H2.5C1.67157 15 1 14.3284 1 13.5V10V5.62132C1 5.2235 1.15804 4.84196 1.43934 4.56066L4.56066 1.43934C4.84197 1.15803 5.2235 1 5.62132 1H13.5C14.3284 1 15 1.67157 15 2.5V6ZM5.62132 2H13.2929L13.1464 2.14645L10.2929 5H2.5H2.41421L5.26777 2.14645C5.36154 2.05268 5.48871 2 5.62132 2Z" fill="white"/>
</svg>
