<svg width="16" height="16" viewBox="0 0 16 16" fill="none" xmlns="http://www.w3.org/2000/svg">
<path fill-rule="evenodd" clip-rule="evenodd" d="M3.58579 2.41421L2.41421 3.58579C2.65873 3.83031 2.84023 4.13785 2.93226 4.48196L4.48196 2.93226C4.13785 2.84023 3.83031 2.65873 3.58579 2.41421ZM6.73244 2H13.2676C13.0974 1.70583 13 1.36429 13 1H7C7 1.36429 6.90261 1.70583 6.73244 2ZM15 3C14.6357 3 14.2942 2.90261 14 2.73244V9.26756C14.2942 9.09739 14.6357 9 15 9V3ZM13.5858 12.4142C13.3413 12.1697 13.1598 11.8622 13.0677 11.518L11.518 13.0677C11.8622 13.1598 12.1697 13.3413 12.4142 13.5858L13.5858 12.4142ZM9 15C9 14.6357 9.09739 14.2942 9.26756 14H2.73244C2.90261 14.2942 3 14.6357 3 15H9ZM1 13C1.36429 13 1.70583 13.0974 2 13.2676V6.73244C1.70583 6.90261 1.36429 7 1 7V13ZM2.73244 6H9.26756C9.09739 5.70583 9 5.36429 9 5H3C3 5.36429 2.90261 5.70583 2.73244 6ZM12.016 3.27691C12.3072 3.44899 12.551 3.6928 12.7231 3.98402L13.8536 2.85355L13.984 2.72309C13.6928 2.55101 13.449 2.3072 13.2769 2.01598L13.1464 2.14645L12.016 3.27691ZM11 7C10.6357 7 10.2942 6.90261 10 6.73244V13.2676C10.2942 13.0974 10.6357 13 11 13V7Z" fill="white" fill-opacity="0.5"/>
<path fill-rule="evenodd" clip-rule="evenodd" d="M4 1C4 0.447715 4.44772 0 5 0C5.55228 0 6 0.447715 6 1C6 1.55228 5.55228 2 5 2C4.44772 2 4 1.55228 4 1ZM0 5C0 4.44772 0.447715 4 1 4C1.55228 4 2 4.44772 2 5C2 5.55228 1.55228 6 1 6C0.447715 6 0 5.55228 0 5ZM15 0C14.4477 0 14 0.447715 14 1C14 1.55228 14.4477 2 15 2C15.5523 2 16 1.55228 16 1C16 0.447715 15.5523 0 15 0ZM14 11C14 10.4477 14.4477 10 15 10C15.5523 10 16 10.4477 16 11C16 11.5523 15.5523 12 15 12C14.4477 12 14 11.5523 14 11ZM11 14C10.4477 14 10 14.4477 10 15C10 15.5523 10.4477 16 11 16C11.5523 16 12 15.5523 12 15C12 14.4477 11.5523 14 11 14ZM0 15C0 14.4477 0.447715 14 1 14C1.55228 14 2 14.4477 2 15C2 15.5523 1.55228 16 1 16C0.447715 16 0 15.5523 0 15ZM11 4C10.4477 4 10 4.44772 10 5C10 5.55228 10.4477 6 11 6C11.5523 6 12 5.55228 12 5C12 4.44772 11.5523 4 11 4Z" fill="white"/>
</svg>
