<svg width="16" height="16" viewBox="0 0 16 16" fill="none" xmlns="http://www.w3.org/2000/svg">
<path fill-rule="evenodd" clip-rule="evenodd" d="M10.3787 14H2.5C2.22386 14 2 13.7761 2 13.5V5.62132C2 5.48871 2.05268 5.36154 2.14645 5.26777L5.26777 2.14645C5.36154 2.05268 5.48871 2 5.62132 2H13.5C13.7761 2 14 2.22386 14 2.5V10.3787C14 10.5113 13.9473 10.6385 13.8536 10.7322L10.7322 13.8536C10.6385 13.9473 10.5113 14 10.3787 14ZM1 5.62132C1 5.2235 1.15804 4.84196 1.43934 4.56066L4.56066 1.43934C4.84197 1.15803 5.2235 1 5.62132 1H13.5C14.3284 1 15 1.67157 15 2.5V10.3787C15 10.7765 14.842 11.158 14.5607 11.4393L11.4393 14.5607C11.158 14.842 10.7765 15 10.3787 15H2.5C1.67157 15 1 14.3284 1 13.5V5.62132ZM8 10C9.10457 10 10 9.10457 10 8C10 6.89543 9.10457 6 8 6C6.89543 6 6 6.89543 6 8C6 9.10457 6.89543 10 8 10Z" fill="white"/>
</svg>
