<svg width="16" height="16" viewBox="0 0 16 16" fill="none" xmlns="http://www.w3.org/2000/svg">
<path fill-rule="evenodd" clip-rule="evenodd" d="M2.14645 13.8536L10 6H8L2 12V13.5C2 13.6381 2.05596 13.7631 2.14645 13.8536ZM10 5H11L13.8536 2.14645C13.7631 2.05596 13.6381 2 13.5 2H5.62132C5.48871 2 5.36154 2.05268 5.26777 2.14645L2.41421 5H3H5H7H9H10ZM10 8L4 14H6L10 10V8ZM10 12L8 14H10V12ZM2 10L6 6H4L2 8V10ZM1.43934 4.56066C1.15804 4.84196 1 5.2235 1 5.62132V13.5C1 14.3284 1.67157 15 2.5 15H10.3787C10.7765 15 11.158 14.842 11.4393 14.5607L14.5607 11.4393C14.842 11.158 15 10.7765 15 10.3787V2.5C15 1.67157 14.3284 1 13.5 1H5.62132C5.2235 1 4.84197 1.15803 4.56066 1.43934L1.43934 4.56066Z" fill="white"/>
</svg>
