<svg width="16" height="16" viewBox="0 0 16 16" fill="none" xmlns="http://www.w3.org/2000/svg">
<path fill-rule="evenodd" clip-rule="evenodd" d="M2 13.2929L9.29289 6H2.5H2V13.2929ZM2.70711 14H10V13.5V6.70711L2.70711 14ZM11.4397 13.1461L13.8536 10.7322C13.9473 10.6385 14 10.5113 14 10.3787V4.82518L11.4397 13.1461ZM11.1748 2H5.62132C5.48871 2 5.36154 2.05268 5.26777 2.14645L2.85395 4.56027L7.85296 3.02211L11.1748 2ZM1 5.62132C1 5.2235 1.15804 4.84196 1.43934 4.56066L4.56066 1.43934C4.84197 1.15803 5.2235 1 5.62132 1H13.5C14.3284 1 15 1.67157 15 2.5V10.3787C15 10.7765 14.842 11.158 14.5607 11.4393L11.4393 14.5607C11.158 14.842 10.7765 15 10.3787 15H2.5C1.67157 15 1 14.3284 1 13.5V5.62132ZM10.2929 5H4.82518L8.14704 3.97789L12.723 2.56991L10.2929 5ZM11 5.70711L13.4301 3.27701L11 11.1748V5.70711Z" fill="white"/>
</svg>
