<svg width="16" height="16" viewBox="0 0 16 16" fill="none" xmlns="http://www.w3.org/2000/svg">
<path fill-rule="evenodd" clip-rule="evenodd" d="M4 8.41421V10H2.41421L2 10.4142L2 12H4V14H5.58579L6 13.5858V12H7.58579H8V10H10V12H12V10H14V8H12V7H10V8H8V6H9V4H8V2H6V4H4V6H6V8H4V8.41421ZM6 10H4V12H6V10ZM6 10V8H8V10H6ZM6 6H8V4H6V6ZM10 8H12V10H10V8ZM3.29289 2.70711L4.70711 1.29289C4.89464 1.10536 5.149 1 5.41421 1H9C9.55229 1 10 1.44772 10 2V5V6H11H14C14.5523 6 15 6.44772 15 7V10.5858C15 10.851 14.8946 11.1054 14.7071 11.2929L13.2929 12.7071C13.1054 12.8946 12.851 13 12.5858 13H8L6.29289 14.7071C6.10536 14.8946 5.851 15 5.58579 15H2C1.44772 15 1 14.5523 1 14V10.4142C1 10.149 1.10536 9.89464 1.29289 9.70711L3 8V3.41421C3 3.149 3.10536 2.89464 3.29289 2.70711Z" fill="white"/>
</svg>
