<svg width="16" height="16" viewBox="0 0 16 16" fill="none" xmlns="http://www.w3.org/2000/svg">
<path fill-rule="evenodd" clip-rule="evenodd" d="M2.5 14H10.3787C10.5113 14 10.6385 13.9473 10.7322 13.8536L13.8536 10.7322C13.9473 10.6385 14 10.5113 14 10.3787V2.5C14 2.22386 13.7761 2 13.5 2H5.62132C5.48871 2 5.36154 2.05268 5.26777 2.14645L2.14645 5.26777C2.05268 5.36154 2 5.48871 2 5.62132V13.5C2 13.7761 2.22386 14 2.5 14ZM1.43934 4.56066C1.15804 4.84196 1 5.2235 1 5.62132V13.5C1 14.3284 1.67157 15 2.5 15H10.3787C10.7765 15 11.158 14.842 11.4393 14.5607L14.5607 11.4393C14.842 11.158 15 10.7765 15 10.3787V2.5C15 1.67157 14.3284 1 13.5 1H5.62132C5.2235 1 4.84197 1.15803 4.56066 1.43934L1.43934 4.56066Z" fill="white"/>
<path fill-rule="evenodd" clip-rule="evenodd" d="M13 10.1716L10.1716 13H3V5.82843L5.82843 3H13V10.1716Z" fill="white" fill-opacity="0.5"/>
</svg>
