<svg width="16" height="16" viewBox="0 0 16 16" fill="none" xmlns="http://www.w3.org/2000/svg">
<path fill-rule="evenodd" clip-rule="evenodd" d="M2.5 14H10.3787C10.5113 14 10.6385 13.9473 10.7322 13.8536L13.8536 10.7322C13.9473 10.6385 14 10.5113 14 10.3787V2.5C14 2.22386 13.7761 2 13.5 2H5.62132C5.48871 2 5.36154 2.05268 5.26777 2.14645L2.14645 5.26777C2.05268 5.36154 2 5.48871 2 5.62132V13.5C2 13.7761 2.22386 14 2.5 14ZM1.43934 4.56066C1.15804 4.84196 1 5.2235 1 5.62132V13.5C1 14.3284 1.67157 15 2.5 15H10.3787C10.7765 15 11.158 14.842 11.4393 14.5607L14.5607 11.4393C14.842 11.158 15 10.7765 15 10.3787V2.5C15 1.67157 14.3284 1 13.5 1H5.62132C5.2235 1 4.84197 1.15803 4.56066 1.43934L1.43934 4.56066Z" fill="white" fill-opacity="0.5"/>
<path fill-rule="evenodd" clip-rule="evenodd" d="M4.29289 5.70711C4.10536 5.89464 4 6.149 4 6.41421V11C4 11.5523 4.44772 12 5 12H9.58579C9.851 12 10.1054 11.8946 10.2929 11.7071L11.7071 10.2929C11.8946 10.1054 12 9.851 12 9.58579V5C12 4.44772 11.5523 4 11 4H6.41421C6.149 4 5.89464 4.10536 5.70711 4.29289L4.29289 5.70711ZM10.8536 5.85355L11.2071 5.5L10.5 4.79289L10.1464 5.14645L9.29289 6H5.5H5V7H5.5H9V10.5V11H10V10.5V6.70711L10.8536 5.85355Z" fill="white"/>
</svg>
