<svg width="16" height="16" viewBox="0 0 16 16" fill="none" xmlns="http://www.w3.org/2000/svg">
<path fill-rule="evenodd" clip-rule="evenodd" d="M13.0002 6C10.7911 6 9.00023 7.79086 9.00023 10V12C9.00023 12.0895 9.012 12.1763 9.03407 12.2589L7.14652 14.1465L6.79297 14.5L7.50008 15.2071L7.85363 14.8536L9.7411 12.9661C9.82374 12.9882 9.91061 13 10.0002 13H13V11H16.0002V6.5C16.0002 6.22386 15.7764 6 15.5002 6H13.0002ZM13 7V7.5V9H14.5H15V10H14.5H12.7071L10.8536 11.8535L10.5 12.2071L9.79289 11.5L10.1464 11.1464L12 9.29289V7.5V7H13Z" fill="white"/>
<path fill-rule="evenodd" clip-rule="evenodd" d="M1.43934 4.56066C1.15804 4.84196 1 5.2235 1 5.62132V13.5C1 14.3284 1.67157 15 2.5 15H5.87874L5.37876 14.5L6.08586 13.7929L6.43942 13.4394L8.00023 11.8785V10C8.00023 8.3644 8.78557 6.91223 9.99974 6H2.5H2V5H2.5H10.2929L13.1464 2.14645L13.5 1.79289L14.2071 2.5L13.8536 2.85355L11.4679 5.23916C11.9508 5.08387 12.4657 5 13.0002 5H15V2.5C15 1.67157 14.3284 1 13.5 1H5.62132C5.2235 1 4.84197 1.15803 4.56066 1.43934L1.43934 4.56066ZM12 14H11H10.1214L9.12141 15H10.3787C10.7765 15 11.158 14.842 11.4393 14.5607L12 14Z" fill="white" fill-opacity="0.5"/>
</svg>
