<svg width="16" height="16" viewBox="0 0 16 16" fill="none" xmlns="http://www.w3.org/2000/svg">
<path fill-rule="evenodd" clip-rule="evenodd" d="M2.5 14H10.3787C10.5113 14 10.6385 13.9473 10.7322 13.8536L13.8536 10.7322C13.9473 10.6385 14 10.5113 14 10.3787V2.5C14 2.22386 13.7761 2 13.5 2H5.62132C5.48871 2 5.36154 2.05268 5.26777 2.14645L2.14645 5.26777C2.05268 5.36154 2 5.48871 2 5.62132V13.5C2 13.7761 2.22386 14 2.5 14ZM1.43934 4.56066C1.15804 4.84196 1 5.2235 1 5.62132V13.5C1 14.3284 1.67157 15 2.5 15H10.3787C10.7765 15 11.158 14.842 11.4393 14.5607L14.5607 11.4393C14.842 11.158 15 10.7765 15 10.3787V2.5C15 1.67157 14.3284 1 13.5 1H5.62132C5.2235 1 4.84197 1.15803 4.56066 1.43934L1.43934 4.56066ZM6.14645 12.6464L5.10355 11.6036L3.85355 12.8536L3.5 13.2071L2.79289 12.5L3.14645 12.1464L4.39645 10.8964L3.35355 9.85355C3.03857 9.53857 3.26165 9 3.70711 9H7V12.2929C7 12.7383 6.46143 12.9614 6.14645 12.6464ZM10.8964 4.39645L9.85355 3.35355C9.53857 3.03857 9 3.26165 9 3.70711V7L12.2929 7C12.7383 7 12.9614 6.46143 12.6464 6.14645L11.6036 5.10355L12.8536 3.85355L13.2071 3.5L12.5 2.79289L12.1464 3.14645L10.8964 4.39645Z" fill="white"/>
</svg>
