<svg width="16" height="16" viewBox="0 0 16 16" fill="none" xmlns="http://www.w3.org/2000/svg">
<path fill-rule="evenodd" clip-rule="evenodd" d="M8 1L5.85355 3.14645C5.53857 3.46143 5.76165 4 6.20711 4H9.79289C10.2383 4 10.4614 3.46143 10.1464 3.14645L8 1ZM1 9.62132C1 9.2235 1.15804 8.84196 1.43934 8.56066L4.56066 5.43934C4.84197 5.15803 5.2235 5 5.62132 5H13.5C14.3284 5 15 5.67157 15 6.5V10.3787C15 10.7765 14.842 11.158 14.5607 11.4393L11.4393 14.5607C11.158 14.842 10.7765 15 10.3787 15H2.5C1.67157 15 1 14.3284 1 13.5V9.62132ZM14.2071 6.5L13.8536 6.85355L11 9.70711V13.5V14H10V13.5V10H2.5H2V9H2.5H10.2929L13.1464 6.14645L13.5 5.79289L14.2071 6.5Z" fill="white"/>
</svg>
