<svg width="16" height="16" viewBox="0 0 16 16" fill="none" xmlns="http://www.w3.org/2000/svg">
<path fill-rule="evenodd" clip-rule="evenodd" d="M2.49988 4C2.30598 4 2.11724 4.02207 1.93604 4.06384L4.56054 1.43934C4.84185 1.15803 5.22338 1 5.6212 1H13.4999C14.3283 1 14.9999 1.67157 14.9999 2.5V10.3787C14.9999 10.7765 14.8418 11.158 14.5605 11.4393L11.936 14.0638C11.9778 13.8826 11.9999 13.6939 11.9999 13.5V6.5C11.9999 5.11929 10.8806 4 9.49988 4H2.49988Z" fill="white" fill-opacity="0.5"/>
<path fill-rule="evenodd" clip-rule="evenodd" d="M9.5 6H2.5C2.22386 6 2 6.22386 2 6.5V13.5C2 13.7761 2.22386 14 2.5 14H9.5C9.77614 14 10 13.7761 10 13.5V6.5C10 6.22386 9.77614 6 9.5 6ZM2.5 5C1.67157 5 1 5.67157 1 6.5V13.5C1 14.3284 1.67157 15 2.5 15H9.5C10.3284 15 11 14.3284 11 13.5V6.5C11 5.67157 10.3284 5 9.5 5H2.5Z" fill="white"/>
</svg>
