<svg width="16" height="16" viewBox="0 0 16 16" fill="none" xmlns="http://www.w3.org/2000/svg">
<path fill-rule="evenodd" clip-rule="evenodd" d="M2 5H6V6H2V5ZM0 7H6V8H0V7ZM6 9H1V10H6V9Z" fill="white" fill-opacity="0.5"/>
<path fill-rule="evenodd" clip-rule="evenodd" d="M11.2071 2.20708L14.7071 5.70708C14.8946 5.89461 15 6.14897 15 6.41419V9.58576C15 9.85097 14.8946 10.1053 14.7071 10.2929L12.2071 12.7929C11.8166 13.1834 11.1834 13.1834 10.7929 12.7929L7.29289 9.29286C7.10536 9.10533 7 8.85097 7 8.58576V5.41419C7 5.14897 7.10536 4.89461 7.29289 4.70708L9.79289 2.20708C10.1834 1.81655 10.8166 1.81655 11.2071 2.20708ZM8.85355 5.14642L8.5 4.79286L7.79289 5.49997L8.14645 5.85352L11 8.70708V11.5V12H12V11.5V8.70708L13.8536 6.85352L14.2071 6.49997L13.5 5.79286L13.1464 6.14642L11.5 7.79286L8.85355 5.14642Z" fill="white"/>
</svg>
