<svg width="16" height="16" viewBox="0 0 16 16" fill="none" xmlns="http://www.w3.org/2000/svg">
<path fill-rule="evenodd" clip-rule="evenodd" d="M14.8537 1.85355L15.2072 1.5L14.5001 0.792892L14.1466 1.14645L12.2591 3.03389C12.1765 3.01179 12.0897 3.00001 12.0001 3.00001H7.41429C7.14907 3.00001 6.89472 3.10537 6.70718 3.29291L3.29297 6.70712C3.10543 6.89466 3.00008 7.14901 3.00008 7.41423V10.8787L4.00008 9.87869V8.00001H8.00008V12H6.1214L5.1214 13H8.58586C8.85108 13 9.10543 12.8947 9.29297 12.7071L12.7072 9.29291C12.8947 9.10537 13.0001 8.85102 13.0001 8.5858V4.00001C13.0001 3.91044 12.9883 3.82362 12.9662 3.74102L14.8537 1.85355ZM1.14652 14.1465L5.64652 9.64646L6.35363 10.3536L1.85363 14.8536L1.50008 15.2071L0.792969 14.5L1.14652 14.1465Z" fill="white"/>
</svg>
