<svg width="16" height="16" viewBox="0 0 16 16" fill="none" xmlns="http://www.w3.org/2000/svg">
<path fill-rule="evenodd" clip-rule="evenodd" d="M2 5H6V6H2V5ZM0 7H6V8H0V7ZM6 9H1V10H6V9Z" fill="white" fill-opacity="0.5"/>
<path fill-rule="evenodd" clip-rule="evenodd" d="M14.7071 5.70708L11.2071 2.20708C10.8166 1.81655 10.1834 1.81655 9.79289 2.20708L7.29289 4.70708C7.10536 4.89461 7 5.14897 7 5.41419V8.58576C7 8.85097 7.10536 9.10533 7.29289 9.29286L10.7929 12.7929C11.1834 13.1834 11.8166 13.1834 12.2071 12.7929L14.7071 10.2929C14.8946 10.1053 15 9.85097 15 9.58576V6.41419C15 6.14897 14.8946 5.89461 14.7071 5.70708ZM8.5 4.79286L8.85355 5.14642L11.5 7.79286L13.1464 6.14642L13.5 5.79286L14.2071 6.49997L13.8536 6.85352L12 8.70708V11.5V12H11V11.5V8.70708L8.14645 5.85352L7.79289 5.49997L8.5 4.79286ZM1 12C0.447715 12 0 12.4477 0 13V14C0 14.5523 0.447715 15 1 15H8C8.55229 15 9 14.5523 9 14V13C9 12.4477 8.55229 12 8 12H1ZM4 13H3V14H4V13ZM1 13H2V14H1V13Z" fill="white"/>
</svg>
