<svg width="16" height="16" viewBox="0 0 16 16" fill="none" xmlns="http://www.w3.org/2000/svg">
<path fill-rule="evenodd" clip-rule="evenodd" d="M15.2072 1.5L14.8536 1.85355L12.4454 4.26173C12.7947 4.75214 13.0001 5.35208 13.0001 6C13.0001 6.82843 12.6643 7.57843 12.1214 8.12132L8.1214 12.1213C7.5785 12.6642 6.8285 13 6.00008 13C5.73134 13 5.47087 12.9647 5.22303 12.8984L6.12528 11.9961C7.17152 11.9315 8.00008 11.0625 8.00008 10C8.00008 8.89543 7.10464 8 6.00008 8C4.93754 8 4.06852 8.82858 4.00393 9.87486L3.1017 10.7771C3.03541 10.5292 3.00008 10.2687 3.00008 10C3.00008 9.17157 3.33586 8.42157 3.87876 7.87868L7.87875 3.87868C8.42165 3.33579 9.17165 3 10.0001 3C10.648 3 11.2479 3.2054 11.7383 3.55463L14.1465 1.14645L14.5001 0.792892L15.2072 1.5ZM1.14652 14.1464L5.64652 9.64645L6.35363 10.3536L1.85363 14.8536L1.50008 15.2071L0.792969 14.5L1.14652 14.1464Z" fill="white"/>
</svg>
