<svg width="16" height="16" viewBox="0 0 16 16" fill="none" xmlns="http://www.w3.org/2000/svg">
<path fill-rule="evenodd" clip-rule="evenodd" d="M5 5C7.76142 5 10 4.10457 10 3C10 1.89543 7.76142 1 5 1C2.23858 1 0 1.89543 0 3C0 4.10457 2.23858 5 5 5ZM6.61793 5.9015C6.10051 5.9662 5.55692 6.00002 5 6.00002C3.52464 6.00002 2.1429 5.76264 1.09308 5.34271C0.698394 5.18484 0.322274 4.98991 0 4.75079V8.00002C0 9.10459 2.23858 10 5 10C5 10 5 10 5 10C5 8.41527 5.61438 6.97404 6.61793 5.9015ZM5.08292 10.9998C5.33929 12.5283 6.17356 13.8608 7.35337 14.7651C6.65201 14.915 5.85082 15 5 15C2.23858 15 0 14.1046 0 13V9.75079C0.322274 9.98991 0.698394 10.1848 1.09308 10.3427C2.1429 10.7626 3.52464 11 5 11C5.02767 11 5.05532 10.9999 5.08292 10.9998Z" fill="white" fill-opacity="0.5"/>
<path fill-rule="evenodd" clip-rule="evenodd" d="M14 12.6458C13.2671 13.4762 12.1947 14 11 14C10.6547 14 10.3196 13.9562 10 13.874V13L9 12V11L7.10135 9.10133C7.50916 7.32492 9.09985 6 11 6C11.3453 6 11.6804 6.04375 12 6.12602V6.58576C12 6.85098 11.8946 7.10533 11.7071 7.29287L10.2929 8.70708C10.1054 8.89462 9.851 8.99997 9.58579 8.99997H9V9.99997H11H11.5858C11.851 9.99997 12.1054 10.1053 12.2929 10.2929L13.7071 11.7071C13.8946 11.8946 14 12.149 14 12.4142V12.6458ZM15.1483 12.7923C14.25 14.1241 12.7273 15 11 15C8.23858 15 6 12.7614 6 10C6 10 6 9.99999 6 9.99999C6 9.51356 6.06946 9.04335 6.19901 8.59875C6.19901 8.59875 6.19901 8.59875 6.19901 8.59875C6.80489 6.51937 8.72501 5 11 5C11.3425 5 11.6769 5.03443 12 5.10002V5.10001C13.3052 5.36496 14.4258 6.13835 15.1461 7.20445C15.6852 8.00246 16 8.96447 16 10C16 11.0341 15.686 11.995 15.1483 12.7923Z" fill="white"/>
</svg>
