<svg width="16" height="16" viewBox="0 0 16 16" fill="none" xmlns="http://www.w3.org/2000/svg">
<path fill-rule="evenodd" clip-rule="evenodd" d="M7 5C9.76142 5 12 4.10457 12 3C12 1.89543 9.76142 1 7 1C4.23858 1 2 1.89543 2 3C2 4.10457 4.23858 5 7 5ZM10.9069 5.34271C9.8571 5.76264 8.47536 6.00002 7 6.00002C5.52464 6.00002 4.1429 5.76264 3.09308 5.34271C2.69839 5.18484 2.32227 4.98991 2 4.75079V8.00002C2 9.10459 4.23858 10 7 10C7.45312 10 7.89215 9.97591 8.30953 9.93073C8.66411 9.37134 9.28869 9 10 9C10 7.89543 10.8954 7 12 7V4.75079C11.6777 4.98991 11.3016 5.18484 10.9069 5.34271ZM8.00034 10.963C8.00011 10.9753 8 10.9876 8 11V14C8 14.3392 8.08447 14.6588 8.23352 14.9387C7.83896 14.9787 7.42569 15 7 15C4.23858 15 2 14.1046 2 13V9.75079C2.32227 9.98991 2.69839 10.1848 3.09308 10.3427C4.1429 10.7626 5.52464 11 7 11C7.33937 11 7.67378 10.9875 8.00034 10.963Z" fill="white" fill-opacity="0.5"/>
<path fill-rule="evenodd" clip-rule="evenodd" d="M15 12C15 12.5523 14.5523 13 14 13V11C14 9.89543 13.1046 9 12 9H11C11 8.44772 11.4477 8 12 8H14C14.5523 8 15 8.44772 15 9V12ZM9 14C9 14.5523 9.44772 15 10 15H12C12.5523 15 13 14.5523 13 14V11C13 10.4477 12.5523 10 12 10H10C9.44772 10 9 10.4477 9 11V14Z" fill="white"/>
</svg>
