<svg width="16" height="16" viewBox="0 0 16 16" fill="none" xmlns="http://www.w3.org/2000/svg">
<path fill-rule="evenodd" clip-rule="evenodd" d="M4.42857 4.39971C4.66477 4.15867 4.84045 3.85811 4.93103 3.52261C5.68758 3.80655 6.76662 4 8 4C9.23338 4 10.3124 3.80655 11.069 3.52261C11.1595 3.85811 11.3352 4.15867 11.5714 4.39971C10.6639 4.77015 9.39906 5 8 5C6.60094 5 5.33608 4.77015 4.42857 4.39971ZM12 4.73244V11.2676C12.2942 11.0974 12.6357 11 13 11V5C12.6357 5 12.2942 4.90261 12 4.73244ZM11.5714 1.60029C10.6639 1.22985 9.39906 1 8 1C6.60094 1 5.33608 1.22985 4.42857 1.60029C4.66477 1.84133 4.84045 2.14189 4.93103 2.47739C5.68758 2.19345 6.76662 2 8 2C9.23338 2 10.3124 2.19345 11.069 2.47739C11.1595 2.14189 11.3352 1.84133 11.5714 1.60029ZM3 5C3.36429 5 3.70583 4.90261 4 4.73244V11.2676C3.70583 11.0974 3.36429 11 3 11V5ZM4.93103 13.5226C4.84045 13.8581 4.66477 14.1587 4.42857 14.3997C5.33608 14.7702 6.60094 15 8 15C9.39906 15 10.6639 14.7702 11.5714 14.3997C11.3352 14.1587 11.1595 13.8581 11.069 13.5226C10.3124 13.8065 9.23338 14 8 14C6.76662 14 5.68758 13.8065 4.93103 13.5226Z" fill="white" fill-opacity="0.5"/>
<path fill-rule="evenodd" clip-rule="evenodd" d="M3 4C3.55228 4 4 3.55228 4 3C4 2.44772 3.55228 2 3 2C2.44772 2 2 2.44772 2 3C2 3.55228 2.44772 4 3 4ZM13 4C13.5523 4 14 3.55228 14 3C14 2.44772 13.5523 2 13 2C12.4477 2 12 2.44772 12 3C12 3.55228 12.4477 4 13 4ZM4 13C4 13.5523 3.55228 14 3 14C2.44772 14 2 13.5523 2 13C2 12.4477 2.44772 12 3 12C3.55228 12 4 12.4477 4 13ZM13 14C13.5523 14 14 13.5523 14 13C14 12.4477 13.5523 12 13 12C12.4477 12 12 12.4477 12 13C12 13.5523 12.4477 14 13 14Z" fill="white"/>
</svg>
