<svg width="16" height="16" viewBox="0 0 16 16" fill="none" xmlns="http://www.w3.org/2000/svg">
<path fill-rule="evenodd" clip-rule="evenodd" d="M12 3C12 4.10457 9.76142 5 7 5C4.23858 5 2 4.10457 2 3C2 1.89543 4.23858 1 7 1C9.76142 1 12 1.89543 12 3ZM7 6.00002C8.47536 6.00002 9.8571 5.76264 10.9069 5.34271C11.3016 5.18484 11.6777 4.98991 12 4.75079V6.08007C11.8435 6.02497 11.6752 5.995 11.4999 5.995H10.4999C9.66875 5.995 8.99493 6.66881 8.99493 7.5V7.52724L8.97133 7.51362C8.2515 7.09802 7.33106 7.34465 6.91547 8.06448L6.41547 8.93051C6.22527 9.25994 6.17377 9.63139 6.24286 9.97724C3.84072 9.83128 2 9.00164 2 8.00002V4.75079C2.32227 4.98991 2.69839 5.18484 3.09308 5.34271C4.1429 5.76264 5.52464 6.00002 7 6.00002ZM6.96633 11.0136L6.98989 11C5.51832 10.9989 4.1405 10.7617 3.09308 10.3427C2.69839 10.1848 2.32227 9.98991 2 9.75079V13C2 14.1046 4.23858 15 7 15C7.72305 15 8.41026 14.9386 9.03082 14.8281C9.00733 14.7225 8.99493 14.6127 8.99493 14.5V14.4728L8.97133 14.4864C8.2515 14.902 7.33106 14.6553 6.91547 13.9355L6.41547 13.0695C5.99987 12.3497 6.2465 11.4292 6.96633 11.0136Z" fill="white" fill-opacity="0.5"/>
<path fill-rule="evenodd" clip-rule="evenodd" d="M11.4999 7C11.7761 7 11.9999 7.22386 11.9999 7.5V8.17071C12.351 8.29481 12.6722 8.48242 12.9495 8.71974L13.531 8.38398C13.7702 8.24591 14.076 8.32784 14.214 8.56699L14.714 9.43302C14.8521 9.67216 14.7702 9.97796 14.531 10.116L13.9499 10.4515C13.9828 10.6294 13.9999 10.8127 13.9999 11C13.9999 11.1873 13.9828 11.3706 13.9499 11.5485L14.531 11.884C14.7702 12.022 14.8521 12.3278 14.714 12.567L14.214 13.433C14.076 13.6722 13.7702 13.7541 13.531 13.616L12.9495 13.2803C12.6722 13.5176 12.351 13.7052 11.9999 13.8293V14.5C11.9999 14.7761 11.7761 15 11.4999 15H10.4999C10.2238 15 9.99993 14.7761 9.99993 14.5V13.8293C9.64882 13.7052 9.3277 13.5176 9.05039 13.2803L8.46883 13.616C8.22969 13.7541 7.92389 13.6722 7.78582 13.433L7.28582 12.567C7.14775 12.3278 7.22969 12.022 7.46883 11.884L8.04995 11.5485C8.0171 11.3706 7.99993 11.1873 7.99993 11C7.99993 10.8127 8.0171 10.6294 8.04995 10.4515L7.46883 10.116C7.22969 9.97795 7.14775 9.67216 7.28582 9.43301L7.78582 8.56698C7.92389 8.32784 8.22969 8.2459 8.46883 8.38397L9.05039 8.71973C9.3277 8.48242 9.64882 8.29481 9.99993 8.17071V7.5C9.99993 7.22386 10.2238 7 10.4999 7H11.4999ZM12.4999 11C12.4999 11.8284 11.8284 12.5 10.9999 12.5C10.1715 12.5 9.49993 11.8284 9.49993 11C9.49993 10.1716 10.1715 9.5 10.9999 9.5C11.8284 9.5 12.4999 10.1716 12.4999 11Z" fill="white"/>
</svg>
