<svg width="16" height="16" viewBox="0 0 16 16" fill="none" xmlns="http://www.w3.org/2000/svg">
<path fill-rule="evenodd" clip-rule="evenodd" d="M7 5C9.76142 5 12 4.10457 12 3C12 1.89543 9.76142 1 7 1C4.23858 1 2 1.89543 2 3C2 4.10457 4.23858 5 7 5ZM10.9069 5.34271C9.8571 5.76264 8.47536 6.00002 7 6.00002C5.52464 6.00002 4.1429 5.76264 3.09308 5.34271C2.69839 5.18484 2.32227 4.98991 2 4.75079V8.00002C2 9.10459 4.23858 10 7 10C7.08618 10 7.17186 9.99915 7.25697 9.99743C7.87546 8.25098 9.54163 7 11.5 7C11.669 7 11.8358 7.00932 12 7.02746V4.75079C11.6777 4.98991 11.3016 5.18484 10.9069 5.34271ZM7.02747 11C7.00932 11.1642 7 11.331 7 11.5C7 12.8585 7.60201 14.0764 8.5538 14.9015C8.06471 14.9654 7.54244 15 7 15C4.23858 15 2 14.1046 2 13V9.75079C2.32227 9.98991 2.69839 10.1848 3.09308 10.3427C4.1429 10.7626 5.52464 11 7 11C7.00916 11 7.01832 11 7.02747 11Z" fill="white" fill-opacity="0.5"/>
<path fill-rule="evenodd" clip-rule="evenodd" d="M11.5 15C13.433 15 15 13.433 15 11.5C15 9.567 13.433 8 11.5 8C9.567 8 8 9.567 8 11.5C8 13.433 9.567 15 11.5 15ZM11.0001 8.99999V11.2857V11.4928L11.1465 11.6393L12.8608 13.3535L13.5679 12.6464L12.0001 11.0786V8.99999H11.0001Z" fill="white"/>
</svg>
