<svg width="16" height="16" viewBox="0 0 16 16" fill="none" xmlns="http://www.w3.org/2000/svg">
<path fill-rule="evenodd" clip-rule="evenodd" d="M13 3C13 4.10457 10.7614 5 8 5C5.23858 5 3 4.10457 3 3C3 1.89543 5.23858 1 8 1C10.7614 1 13 1.89543 13 3ZM8 6.00002C9.47536 6.00002 10.8571 5.76264 11.9069 5.34271C12.3016 5.18484 12.6777 4.98991 13 4.75079V8.00002C13 9.10459 10.7614 10 8 10C5.23858 10 3 9.10459 3 8.00002V4.75079C3.32227 4.98991 3.69839 5.18484 4.09308 5.34271C5.1429 5.76264 6.52464 6.00002 8 6.00002ZM11.9069 10.3427C10.8571 10.7626 9.47536 11 8 11C6.52464 11 5.1429 10.7626 4.09308 10.3427C3.69839 10.1848 3.32227 9.98991 3 9.75079V13C3 14.1046 5.23858 15 8 15C10.7614 15 13 14.1046 13 13V9.75079C12.6777 9.98991 12.3016 10.1848 11.9069 10.3427Z" fill="white"/>
</svg>
