<svg width="16" height="16" viewBox="0 0 16 16" fill="none" xmlns="http://www.w3.org/2000/svg">
<path fill-rule="evenodd" clip-rule="evenodd" d="M2 7H6V8H2V7ZM0 9H6V10H0V9ZM6 11H1V12H6V11Z" fill="white" fill-opacity="0.5"/>
<path fill-rule="evenodd" clip-rule="evenodd" d="M9 5C11.7614 5 14 4.10457 14 3C14 1.89543 11.7614 1 9 1C6.23858 1 4 1.89543 4 3C4 4.10457 6.23858 5 9 5ZM12.9069 5.34271C11.8571 5.76264 10.4754 6.00002 9 6.00002C7.52464 6.00002 6.1429 5.76264 5.09308 5.34271C4.69839 5.18484 4.32227 4.98991 4 4.75079V6H7V9.83361C7.61246 9.94064 8.2889 10 9 10C11.7614 10 14 9.10459 14 8.00002V4.75079C13.6777 4.98991 13.3016 5.18484 12.9069 5.34271ZM4 13C4 14.1046 6.23858 15 9 15C11.7614 15 14 14.1046 14 13V9.75079C13.6777 9.98991 13.3016 10.1848 12.9069 10.3427C11.8571 10.7626 10.4754 11 9 11C8.30418 11 7.62918 10.9472 7 10.8474V13H4Z" fill="white"/>
</svg>
