<svg width="16" height="16" viewBox="0 0 16 16" fill="none" xmlns="http://www.w3.org/2000/svg">
<path fill-rule="evenodd" clip-rule="evenodd" d="M8 5C10.7614 5 13 4.10457 13 3C13 1.89543 10.7614 1 8 1C5.23858 1 3 1.89543 3 3C3 4.10457 5.23858 5 8 5ZM11.9069 5.34269C10.8571 5.76262 9.47536 6 8 6C6.52464 6 5.1429 5.76262 4.09308 5.34269C3.69839 5.18482 3.32227 4.98989 3 4.75077V13C3 14.1046 5.23858 15 8 15C10.7614 15 13 14.1046 13 13V4.75077C12.6777 4.98989 12.3016 5.18482 11.9069 5.34269Z" fill="white"/>
</svg>
