<svg width="16" height="16" viewBox="0 0 16 16" fill="none" xmlns="http://www.w3.org/2000/svg">
<path fill-rule="evenodd" clip-rule="evenodd" d="M10.4682 1.17556L10.5341 1H9.46606L8.71606 3H7.5H7V4H7.5H8.34106L7.59106 6H6.5H6V7H6.5H7.21606L6.5319 8.82444L6.46606 9H7.53407L8.28407 7H11.2161L10.5319 8.82444L10.4661 9H11.5341L12.2841 7H13.5H14V6H13.5H12.6591L13.4091 4H14.5H15V3H14.5H13.7841L14.4682 1.17556L14.5341 1H13.4661L12.7161 3H9.78407L10.4682 1.17556ZM11.5911 6L12.3411 4H9.40907L8.65907 6H11.5911ZM2 12.5C2 12.2239 2.22386 12 2.5 12H10.5C10.7761 12 11 12.2239 11 12.5V14.5C11 14.7761 10.7761 15 10.5 15H2.5C2.22386 15 2 14.7761 2 14.5V12.5ZM1 12.5C1 11.6716 1.67157 11 2.5 11H10.5C11.3284 11 12 11.6716 12 12.5V14.5C12 15.3284 11.3284 16 10.5 16H2.5C1.67157 16 1 15.3284 1 14.5V12.5ZM6 13H3V14H6V13ZM7 13H10V14H7V13Z" fill="white"/>
</svg>
