<svg width="16" height="16" viewBox="0 0 16 16" fill="none" xmlns="http://www.w3.org/2000/svg">
<path fill-rule="evenodd" clip-rule="evenodd" d="M8.05272 7.27639L7.19092 9H8.30895L8.94715 7.72361L9.30895 7H12.6909L13.0527 7.72361L13.6909 9H14.809L13.9471 7.27639L13.4471 6.27639L11.4471 2.27639L11.309 2H10.6909L10.5527 2.27639L8.55272 6.27639L8.05272 7.27639ZM12.1909 6L10.9999 3.61803L9.80895 6H12.1909ZM2.5 12H10.5C10.7761 12 11 12.2239 11 12.5V14.5C11 14.7761 10.7761 15 10.5 15H2.5C2.22386 15 2 14.7761 2 14.5V12.5C2 12.2239 2.22386 12 2.5 12ZM1 12.5C1 11.6716 1.67157 11 2.5 11H10.5C11.3284 11 12 11.6716 12 12.5V14.5C12 15.3284 11.3284 16 10.5 16H2.5C1.67157 16 1 15.3284 1 14.5V12.5ZM6 13H3V14H6V13ZM7 13H10V14H7V13Z" fill="white"/>
</svg>
