<svg width="16" height="16" viewBox="0 0 16 16" fill="none" xmlns="http://www.w3.org/2000/svg">
<path fill-rule="evenodd" clip-rule="evenodd" d="M7 2C7 1.44772 7.44772 1 8 1H14C14.5523 1 15 1.44772 15 2V8C15 8.55228 14.5523 9 14 9H8C7.44772 9 7 8.55228 7 8V2ZM14.2071 3.5L13.8536 3.85355L10.3536 7.35355L10 7.70711L9.64645 7.35355L8.14645 5.85355L7.79289 5.5L8.5 4.79289L8.85355 5.14645L10 6.29289L13.1464 3.14645L13.5 2.79289L14.2071 3.5ZM2.5 12H10.5C10.7761 12 11 12.2239 11 12.5V14.5C11 14.7761 10.7761 15 10.5 15H2.5C2.22386 15 2 14.7761 2 14.5V12.5C2 12.2239 2.22386 12 2.5 12ZM1 12.5C1 11.6716 1.67157 11 2.5 11H10.5C11.3284 11 12 11.6716 12 12.5V14.5C12 15.3284 11.3284 16 10.5 16H2.5C1.67157 16 1 15.3284 1 14.5V12.5ZM6 13H3V14H6V13ZM7 14V13H10V14H7Z" fill="white"/>
</svg>
