<svg width="16" height="16" viewBox="0 0 16 16" fill="none" xmlns="http://www.w3.org/2000/svg">
<path fill-rule="evenodd" clip-rule="evenodd" d="M10.793 5.5V5.12132L10.2323 4.56066L9.67165 4H5.29297C4.46454 4 3.79297 4.67157 3.79297 5.5C3.79297 6.32843 4.46454 7 5.29297 7H9.67165L10.2323 6.43934L10.793 5.87868V5.5Z" fill="white" fill-opacity="0.5"/>
<path fill-rule="evenodd" clip-rule="evenodd" d="M12.793 1.5V1H13.793V1.5V3.05001C13.6314 3.01722 13.4642 3 13.293 3C13.1217 3 12.9545 3.01722 12.793 3.05001V1.5ZM11.9143 3.4142C11.6338 3.59997 11.3929 3.84081 11.2072 4.1213L9.93942 2.85355L9.58586 2.5L10.293 1.79289L10.6465 2.14644L11.9143 3.4142ZM11.2072 6.8787C11.3929 7.15919 11.6338 7.40003 11.9143 7.5858L10.6465 8.85355L10.293 9.20711L9.58586 8.5L9.93941 8.14645L11.2072 6.8787ZM12.793 7.94999C12.9545 7.98278 13.1217 8 13.293 8C13.4642 8 13.6314 7.98278 13.793 7.94999V9.5V10H12.793V9.5V7.94999ZM11.793 5.5C11.793 6.32843 12.4645 7 13.293 7C14.1214 7 14.793 6.32843 14.793 5.5C14.793 4.67157 14.1214 4 13.293 4C12.4645 4 11.793 4.67157 11.793 5.5ZM2.5 12H10.5C10.7761 12 11 12.2239 11 12.5V14.5C11 14.7761 10.7761 15 10.5 15H2.5C2.22386 15 2 14.7761 2 14.5V12.5C2 12.2239 2.22386 12 2.5 12ZM1 12.5C1 11.6716 1.67157 11 2.5 11H10.5C11.3284 11 12 11.6716 12 12.5V14.5C12 15.3284 11.3284 16 10.5 16H2.5C1.67157 16 1 15.3284 1 14.5V12.5ZM6 13H3V14H6V13ZM7 13H10V14H7V13Z" fill="white"/>
</svg>
