<svg width="16" height="16" viewBox="0 0 16 16" fill="none" xmlns="http://www.w3.org/2000/svg">
<path fill-rule="evenodd" clip-rule="evenodd" d="M9.93328 0.858977C9.41781 0.660718 8.83922 0.917872 8.64096 1.43334L6.85892 6.06665C6.66066 6.58212 6.91781 7.16072 7.43328 7.35898L12.0666 9.14102C12.5821 9.33928 13.1607 9.08212 13.3589 8.56665L15.141 3.93334C15.3392 3.41787 15.0821 2.83928 14.5666 2.64102L9.93328 0.858977ZM2.5 12H10.5C10.7761 12 11 12.2239 11 12.5V14.5C11 14.7761 10.7761 15 10.5 15H2.5C2.22386 15 2 14.7761 2 14.5V12.5C2 12.2239 2.22386 12 2.5 12ZM1 12.5C1 11.6716 1.67157 11 2.5 11H10.5C11.3284 11 12 11.6716 12 12.5V14.5C12 15.3284 11.3284 16 10.5 16H2.5C1.67157 16 1 15.3284 1 14.5V12.5ZM6 13H3V14H6V13ZM7 13H10V14H7V13Z" fill="white"/>
</svg>
