<svg width="16" height="16" viewBox="0 0 16 16" fill="none" xmlns="http://www.w3.org/2000/svg">
<path fill-rule="evenodd" clip-rule="evenodd" d="M12.9999 1H11.9999V2H10.4142C10.149 2 9.89464 2.10536 9.70711 2.29289L9.35355 2.64645L8.85352 2.14642L8.49997 1.79286L7.79286 2.49997L8.14642 2.85352L8.64645 3.35355L8.13137 3.86863C7.54993 4.45007 7.173 5.19778 7.04687 6H6V7H7.08674C7.13419 7.10428 7.20027 7.20027 7.28284 7.28284L7.64646 7.64646L10.1464 5.14646L10.5 4.79291L11.2071 5.50002L10.8536 5.85357L8.35356 8.35356L8.71716 8.71716C8.79973 8.79973 8.89572 8.86581 9 8.91326V10H10V8.95313C10.8022 8.827 11.5499 8.45006 12.1314 7.86863L12.6464 7.35355L13.1464 7.85352L13.5 8.20708L14.2071 7.49997L13.8535 7.14642L13.3536 6.64645L13.7071 6.29289C13.8946 6.10536 14 5.851 14 5.58579V4H15V3L14 3C14 2.44771 13.5523 2 13 2H12.9999V1ZM2.5 12H10.5C10.7761 12 11 12.2239 11 12.5V14.5C11 14.7761 10.7761 15 10.5 15H2.5C2.22386 15 2 14.7761 2 14.5V12.5C2 12.2239 2.22386 12 2.5 12ZM1 12.5C1 11.6716 1.67157 11 2.5 11H10.5C11.3284 11 12 11.6716 12 12.5V14.5C12 15.3284 11.3284 16 10.5 16H2.5C1.67157 16 1 15.3284 1 14.5V12.5ZM6 13H3V14H6V13ZM7 13H10V14H7V13Z" fill="white"/>
</svg>
