<svg width="16" height="16" viewBox="0 0 16 16" fill="none" xmlns="http://www.w3.org/2000/svg">
<path fill-rule="evenodd" clip-rule="evenodd" d="M8.48373 1.29738C7.02644 1.89479 6 3.32753 6 5C6 5.10048 6.03733 5.201 6.17633 5.31844C6.32864 5.44713 6.5832 5.57516 6.9577 5.68412C7.26138 5.77248 7.61852 5.84123 8.018 5.8917C8.00573 5.601 8 5.30274 8 5C8 3.74166 8.09896 2.56075 8.35569 1.67834C8.39372 1.54765 8.43615 1.42009 8.48373 1.29738ZM8.09267 6.90733C7.57085 6.85027 7.09182 6.76461 6.67834 6.64431C6.54765 6.60628 6.42009 6.56385 6.29738 6.51627C6.7031 7.50594 7.49406 8.2969 8.48373 8.70261C8.43615 8.57991 8.39372 8.45235 8.35569 8.32166C8.23539 7.90818 8.14973 7.42915 8.09267 6.90733ZM10 9C11.6725 9 13.1052 7.97356 13.7026 6.51627C13.5799 6.56385 13.4523 6.60628 13.3217 6.64431C12.4393 6.90104 11.2583 7 10 7C9.69726 7 9.399 6.99427 9.1083 6.982C9.15877 7.38148 9.22752 7.73862 9.31588 8.0423C9.42484 8.4168 9.55287 8.67136 9.68156 8.82367C9.799 8.96267 9.89952 9 10 9ZM10 10C7.23858 10 5 7.76142 5 5C5 2.23858 7.23858 0 10 0V1C9.89952 1 9.79901 1.03733 9.68156 1.17633C9.55287 1.32864 9.42484 1.5832 9.31588 1.9577C9.09876 2.70397 9 3.77306 9 5C9 5.33886 9.00753 5.66568 9.02301 5.97699C9.33432 5.99247 9.66114 6 10 6C11.2269 6 12.296 5.90124 13.0423 5.68412C13.4168 5.57516 13.6714 5.44713 13.8237 5.31844C13.9627 5.201 14 5.10048 14 5C14 4.41288 13.8737 3.85554 13.6466 3.35341L12.8536 4.14645C12.5386 4.46143 12 4.23835 12 3.79289V1H14.7929C15.2383 1 15.4614 1.53857 15.1464 1.85355L14.3918 2.60822C14.7795 3.31869 15 4.13378 15 5C15 7.76142 12.7614 10 10 10ZM2.5 12H10.5C10.7761 12 11 12.2239 11 12.5V14.5C11 14.7761 10.7761 15 10.5 15H2.5C2.22386 15 2 14.7761 2 14.5V12.5C2 12.2239 2.22386 12 2.5 12ZM1 12.5C1 11.6716 1.67157 11 2.5 11H10.5C11.3284 11 12 11.6716 12 12.5V14.5C12 15.3284 11.3284 16 10.5 16H2.5C1.67157 16 1 15.3284 1 14.5V12.5ZM6 13H3V14H6V13ZM7 13H10V14H7V13Z" fill="white"/>
</svg>
