<svg width="16" height="16" viewBox="0 0 16 16" fill="none" xmlns="http://www.w3.org/2000/svg">
<path fill-rule="evenodd" clip-rule="evenodd" d="M14.5 1C14.7761 1 15 1.22386 15 1.5V2.5C15 2.77614 14.7761 3 14.5 3H11.5C11.2239 3 11 2.77614 11 2.5V1.5C11 1.22386 11.2239 1 11.5 1H14.5ZM9.5 1C9.77614 1 10 1.22386 10 1.5V2.5C10 2.77614 9.77614 3 9.5 3H6.5C6.22386 3 6 2.77614 6 2.5V1.5C6 1.22386 6.22386 1 6.5 1H9.5ZM13 4.5C13 4.22386 12.7761 4 12.5 4H9.5C9.22386 4 9 4.22386 9 4.5V5.5C9 5.77614 9.22386 6 9.5 6H12.5C12.7761 6 13 5.77614 13 5.5V4.5ZM14.5 4H15V6H14.5C14.2239 6 14 5.77614 14 5.5V4.5C14 4.22386 14.2239 4 14.5 4ZM8 4.5C8 4.22386 7.77614 4 7.5 4H4.5C4.22386 4 4 4.22386 4 4.5V5.5C4 5.77614 4.22386 6 4.5 6H7.5C7.77614 6 8 5.77614 8 5.5V4.5ZM14.5 7C14.7761 7 15 7.22386 15 7.5V8.5C15 8.77614 14.7761 9 14.5 9H11.5C11.2239 9 11 8.77614 11 8.5V7.5C11 7.22386 11.2239 7 11.5 7H14.5ZM10 7.5C10 7.22386 9.77614 7 9.5 7H6.5C6.22386 7 6 7.22386 6 7.5V8.5C6 8.77614 6.22386 9 6.5 9H9.5C9.77614 9 10 8.77614 10 8.5V7.5ZM2 12.5C2 12.2239 2.22386 12 2.5 12H10.5C10.7761 12 11 12.2239 11 12.5V14.5C11 14.7761 10.7761 15 10.5 15H2.5C2.22386 15 2 14.7761 2 14.5V12.5ZM1 12.5C1 11.6716 1.67157 11 2.5 11H10.5C11.3284 11 12 11.6716 12 12.5V14.5C12 15.3284 11.3284 16 10.5 16H2.5C1.67157 16 1 15.3284 1 14.5V12.5ZM6 14V13H3V14H6ZM7 13H10V14H7V13Z" fill="white"/>
</svg>
