<svg width="16" height="16" viewBox="0 0 16 16" fill="none" xmlns="http://www.w3.org/2000/svg">
<path fill-rule="evenodd" clip-rule="evenodd" d="M7 3.41421C7 3.149 7.10536 2.89464 7.29289 2.70711L8.70711 1.29289C8.89464 1.10536 9.149 1 9.41421 1H14C14.5523 1 15 1.44772 15 2V6.58579C15 6.851 14.8946 7.10536 14.7071 7.29289L13.2929 8.70711C13.1054 8.89464 12.851 9 12.5858 9H8C7.44772 9 7 8.55228 7 8V3.41421ZM14.2071 2.5L13.8536 2.85355L13 3.70711V7.5V8H12V7.5V4H8.5H8V3H8.5H12.2929L13.1464 2.14645L13.5 1.79289L14.2071 2.5ZM2.5 12H10.5C10.7761 12 11 12.2239 11 12.5V14.5C11 14.7761 10.7761 15 10.5 15H2.5C2.22386 15 2 14.7761 2 14.5V12.5C2 12.2239 2.22386 12 2.5 12ZM1 12.5C1 11.6716 1.67157 11 2.5 11H10.5C11.3284 11 12 11.6716 12 12.5V14.5C12 15.3284 11.3284 16 10.5 16H2.5C1.67157 16 1 15.3284 1 14.5V12.5ZM6 13H3V14H6V13ZM7 14V13H10V14H7Z" fill="white"/>
</svg>
