<svg width="16" height="16" viewBox="0 0 16 16" fill="none" xmlns="http://www.w3.org/2000/svg">
<path fill-rule="evenodd" clip-rule="evenodd" d="M15 5.5C15 6.1414 14.8658 6.75145 14.624 7.30362L14.2141 7.06699L11.5 5.5L14.2141 3.93302L14.624 3.69638C14.8658 4.24855 15 4.85861 15 5.5ZM14.4398 7.67602L14.3586 7.81675C14.3865 7.77037 14.4136 7.72346 14.4398 7.67602ZM13.7141 7.93301L14.1232 8.16922C13.397 9.15341 12.2793 9.83111 11 9.97254V9.5V6.36602L13.7141 7.93301ZM10 9.5V9.97254C8.72071 9.83112 7.60303 9.15343 6.87677 8.16924L7.28592 7.93301L10 6.36603V9.5ZM6.64236 7.81834L6.55925 7.67439C6.58609 7.72293 6.6138 7.77092 6.64236 7.81834ZM6 5.5C6 6.1414 6.13419 6.75146 6.37603 7.30364L6.78592 7.06699L9.50002 5.5L6.78592 3.93301L6.37603 3.69637C6.13419 4.24854 6 4.8586 6 5.5ZM6.55925 3.32561L6.64236 3.18167C6.6138 3.22909 6.58609 3.27707 6.55925 3.32561ZM7.28592 3.06699L6.87677 2.83077C7.60303 1.84658 8.72071 1.16888 10 1.02747V1.5V4.63397L7.28592 3.06699ZM11 1.5V1.02747C12.2793 1.16889 13.397 1.84659 14.1232 2.83078L13.7141 3.06699L11 4.63398V1.5ZM14.3586 3.18327L14.4398 3.32398C14.4136 3.27655 14.3865 3.22964 14.3586 3.18327ZM2.5 12H10.5C10.7761 12 11 12.2239 11 12.5V14.5C11 14.7761 10.7761 15 10.5 15H2.5C2.22386 15 2 14.7761 2 14.5V12.5C2 12.2239 2.22386 12 2.5 12ZM1 12.5C1 11.6716 1.67157 11 2.5 11H10.5C11.3284 11 12 11.6716 12 12.5V14.5C12 15.3284 11.3284 16 10.5 16H2.5C1.67157 16 1 15.3284 1 14.5V12.5ZM6 13H3V14H6V13ZM7 13H10V14H7V13Z" fill="white"/>
</svg>
