<svg width="16" height="16" viewBox="0 0 16 16" fill="none" xmlns="http://www.w3.org/2000/svg">
<path fill-rule="evenodd" clip-rule="evenodd" d="M9.41421 2H12V7L10.2071 8.79289C9.81658 9.18342 9.18342 9.18342 8.79289 8.79289L7 7L5.75 8.25C5.33579 8.66421 4.66421 8.66421 4.25 8.25C3.83579 7.83579 3.83579 7.16421 4.25 6.75L8.70711 2.29289C8.89464 2.10536 9.149 2 9.41421 2ZM10.5 12H2.5C2.22386 12 2 12.2239 2 12.5V14.5C2 14.7761 2.22386 15 2.5 15H10.5C10.7761 15 11 14.7761 11 14.5V12.5C11 12.2239 10.7761 12 10.5 12ZM2.5 11C1.67157 11 1 11.6716 1 12.5V14.5C1 15.3284 1.67157 16 2.5 16H10.5C11.3284 16 12 15.3284 12 14.5V12.5C12 11.6716 11.3284 11 10.5 11H2.5ZM3 13H6V14H3V13ZM10 13H7V14H10V13ZM15 2H13V7.5C13 7.77614 13.2239 8 13.5 8H15V2Z" fill="white"/>
</svg>
