<svg width="16" height="16" viewBox="0 0 16 16" fill="none" xmlns="http://www.w3.org/2000/svg">
<path fill-rule="evenodd" clip-rule="evenodd" d="M1 2.5C1 1.67157 1.67157 1 2.5 1H13.5C14.3284 1 15 1.67157 15 2.5V9.5C15 10.3284 14.3284 11 13.5 11H2.5C1.67157 11 1 10.3284 1 9.5V2.5ZM2 2.5C2 2.22386 2.22386 2 2.5 2H13.5C13.7761 2 14 2.22386 14 2.5V8.5C14 8.77614 13.7761 9 13.5 9H2.5C2.22386 9 2 8.77614 2 8.5V2.5ZM6 13C6 13.5523 5.55228 14 5 14V15H11V14C10.4477 14 10 13.5523 10 13V12H6V13Z" fill="white"/>
</svg>
