<svg width="16" height="16" viewBox="0 0 16 16" fill="none" xmlns="http://www.w3.org/2000/svg">
<path fill-rule="evenodd" clip-rule="evenodd" d="M2.5 1C1.67157 1 1 1.67157 1 2.5V9.5C1 10.3284 1.67157 11 2.5 11H7.02746C7.10865 10.2656 7.36658 9.58441 7.75777 9H2.5C2.22386 9 2 8.77614 2 8.5V2.5C2 2.22386 2.22386 2 2.5 2H13.5C13.7761 2 14 2.22386 14 2.5V7.75777C14.3776 8.01056 14.7149 8.31899 15 8.67133V2.5C15 1.67157 14.3284 1 13.5 1H2.5ZM7.02746 12C7.16111 13.209 7.77372 14.2737 8.67133 15H5V14C5.55228 14 6 13.5523 6 13V12H7.02746Z" fill="white" fill-opacity="0.5"/>
<path fill-rule="evenodd" clip-rule="evenodd" d="M11.5 15C13.433 15 15 13.433 15 11.5C15 9.567 13.433 8 11.5 8C9.567 8 8 9.567 8 11.5C8 13.433 9.567 15 11.5 15ZM11 10V9H12V10H11ZM11 14V11H12V14H11Z" fill="white"/>
</svg>
