<svg width="16" height="16" viewBox="0 0 16 16" fill="none" xmlns="http://www.w3.org/2000/svg">
<path fill-rule="evenodd" clip-rule="evenodd" d="M3.29225 8.20677L1.20647 10.2926C0.815943 10.6831 0.815943 11.3162 1.20647 11.7068L3.29225 13.7926C3.68278 14.1831 4.31594 14.1831 4.70647 13.7926L5.29222 13.2068L4.49927 12.4138C3.71822 11.6328 3.71822 10.3665 4.49927 9.58542L5.29219 8.79249L4.70647 8.20677C4.31594 7.81624 3.68278 7.81624 3.29225 8.20677ZM7.29225 8.20677L5.20647 10.2926C4.81594 10.6831 4.81594 11.3162 5.20647 11.7068L7.29225 13.7926C7.68278 14.1831 8.31594 14.1831 8.70647 13.7926L9.29222 13.2068L8.49927 12.4138C7.71822 11.6328 7.71822 10.3665 8.49927 9.58542L9.29219 8.79249L8.70647 8.20677C8.31594 7.81624 7.68278 7.81624 7.29225 8.20677Z" fill="white" fill-opacity="0.5"/>
<path fill-rule="evenodd" clip-rule="evenodd" d="M3 3L3.5 3L10 3L10 1.70711C10 1.26165 10.5386 1.03857 10.8536 1.35355L13 3.5L10.8536 5.64645C10.5386 5.96143 10 5.73834 10 5.29289L10 4L3.5 4L3 4L3 3ZM9.2072 10.2926L11.293 8.20677C11.6835 7.81624 12.3167 7.81624 12.7072 8.20677L14.793 10.2926C15.1835 10.6831 15.1835 11.3162 14.793 11.7068L12.7072 13.7926C12.3167 14.1831 11.6835 14.1831 11.293 13.7926L9.2072 11.7068C8.81668 11.3162 8.81668 10.6831 9.2072 10.2926Z" fill="white"/>
</svg>
