<svg width="16" height="16" viewBox="0 0 16 16" fill="none" xmlns="http://www.w3.org/2000/svg">
<path fill-rule="evenodd" clip-rule="evenodd" d="M7.29274 1.20711L1.20696 7.29289C0.816432 7.68342 0.816431 8.31658 1.20696 8.70711L5.41416 12.9143V12C5.41416 11.4882 5.60942 10.9763 5.99994 10.5858L9.99994 6.58579C10.375 6.21071 10.8837 6 11.4142 6H13.4998L8.70696 1.20711C8.31643 0.816582 7.68327 0.816582 7.29274 1.20711Z" fill="white" fill-opacity="0.5"/>
<path fill-rule="evenodd" clip-rule="evenodd" d="M14.9998 7H11.4141C11.1488 7 10.8945 7.10536 10.707 7.29289L6.70696 11.2929C6.31643 11.6834 6.31643 12.3166 6.70696 12.7071L9.29274 15.2929C9.68327 15.6834 10.3164 15.6834 10.707 15.2929L14.707 11.2929C14.8945 11.1054 14.9998 10.851 14.9998 10.5858V7ZM12.9998 8C12.4475 8 11.9998 8.44772 11.9998 9C11.9998 9.55228 12.4475 10 12.9998 10C13.552 10 13.9998 9.55228 13.9998 9C13.9998 8.44772 13.552 8 12.9998 8Z" fill="white"/>
</svg>
