<svg width="16" height="16" viewBox="0 0 16 16" fill="none" xmlns="http://www.w3.org/2000/svg">
<path fill-rule="evenodd" clip-rule="evenodd" d="M3.8963 4.60355L1.20696 7.29289C0.816432 7.68342 0.816431 8.31658 1.20696 8.70711L3.8963 11.3964L7.29274 8L3.8963 4.60355ZM4.6034 3.89645L7.99985 7.29289L11.3963 3.89645L8.70696 1.20711C8.31643 0.816582 7.68327 0.816582 7.29274 1.20711L4.6034 3.89645ZM12.1034 4.60355L8.70696 8L12.1034 11.3964L14.7927 8.70711C15.1833 8.31658 15.1833 7.68342 14.7927 7.29289L12.1034 4.60355ZM11.3963 12.1036L7.99985 8.70711L4.6034 12.1036L7.29274 14.7929C7.68327 15.1834 8.31643 15.1834 8.70696 14.7929L11.3963 12.1036Z" fill="white"/>
</svg>
