<svg width="16" height="16" viewBox="0 0 16 16" fill="none" xmlns="http://www.w3.org/2000/svg">
<path fill-rule="evenodd" clip-rule="evenodd" d="M5.99992 13C5.99992 13.5523 6.44763 14 6.99992 14V10.0001L5.99992 11.0001V13ZM5.99992 5.99992L6.99992 6.99992V4.5086C6.99992 3.16916 7.88785 1.992 9.17576 1.62403L11.3599 1H7.49992C6.67149 1 5.99992 1.67157 5.99992 2.5V5.99992Z" fill="white" fill-opacity="0.5"/>
<path fill-rule="evenodd" clip-rule="evenodd" d="M15 1L9.45056 2.58555C8.59196 2.83087 8 3.61564 8 4.5086V15.0057C8 15.504 8.47693 15.8637 8.95604 15.7268L15 14V1ZM10 10C9.44772 10 9 9.55229 9 9C9 8.44772 9.44772 8 10 8C10.5523 8 11 8.44772 11 9C11 9.55229 10.5523 10 10 10ZM1 8V9H4V10.2929C4 10.7383 4.53857 10.9614 4.85355 10.6464L7 8.5L4.85355 6.35355C4.53857 6.03857 4 6.26166 4 6.70711V8H1Z" fill="white"/>
</svg>
