<svg width="16" height="16" viewBox="0 0 16 16" fill="none" xmlns="http://www.w3.org/2000/svg">
<path fill-rule="evenodd" clip-rule="evenodd" d="M6.54944 2.58555L1 1V14L7.04396 15.7268C7.52307 15.8637 8 15.504 8 15.0057V4.5086C8 3.61564 7.40804 2.83087 6.54944 2.58555ZM7 9C7 9.55229 6.55228 10 6 10C5.44772 10 5 9.55229 5 9C5 8.44772 5.44772 8 6 8C6.55228 8 7 8.44772 7 9ZM9.97133 7.51362C9.66575 7.33719 9.32401 7.2801 9.00008 7.32791V4.5086C9.00008 3.16916 8.11215 1.992 6.82424 1.62403L4.64014 1H8.50008C9.32851 1 10.0001 1.67157 10.0001 2.5V7.3746C9.99667 7.41595 9.99493 7.45777 9.99493 7.5V7.52724L9.97133 7.51362Z" fill="white" fill-opacity="0.5"/>
<path fill-rule="evenodd" clip-rule="evenodd" d="M9 13.6326C9.14423 13.7027 9.31952 13.7022 9.46883 13.616L10.0504 13.2803C10.3277 13.5176 10.6488 13.7052 10.9999 13.8293V14.5C10.9999 14.7761 11.2238 15 11.4999 15H12.4999C12.7761 15 12.9999 14.7761 12.9999 14.5V13.8293C13.351 13.7052 13.6722 13.5176 13.9495 13.2803L14.531 13.616C14.7702 13.7541 15.076 13.6722 15.214 13.433L15.714 12.567C15.8521 12.3278 15.7702 12.022 15.531 11.884L14.9499 11.5485C14.9828 11.3706 14.9999 11.1873 14.9999 11C14.9999 10.8127 14.9828 10.6294 14.9499 10.4515L15.531 10.116C15.7702 9.97796 15.8521 9.67216 15.714 9.43302L15.214 8.56699C15.076 8.32784 14.7702 8.24591 14.531 8.38398L13.9495 8.71974C13.6722 8.48242 13.351 8.29481 12.9999 8.17071V7.5C12.9999 7.22386 12.7761 7 12.4999 7H11.4999C11.2238 7 10.9999 7.22386 10.9999 7.5V8.17071C10.6488 8.29481 10.3277 8.48242 10.0504 8.71973L9.46883 8.38397C9.31952 8.29777 9.14423 8.29733 9 8.36736V10.4227L9.04995 10.4515C9.01829 10.6229 9.0012 10.7994 9 10.9796V11.0204C9.0012 11.2006 9.01829 11.3771 9.04995 11.5485L9 11.5773V13.6326ZM11.9999 12.5C12.8284 12.5 13.4999 11.8284 13.4999 11C13.4999 10.1716 12.8284 9.5 11.9999 9.5C11.1715 9.5 10.4999 10.1716 10.4999 11C10.4999 11.8284 11.1715 12.5 11.9999 12.5Z" fill="white"/>
</svg>
