<svg width="16" height="16" viewBox="0 0 16 16" fill="none" xmlns="http://www.w3.org/2000/svg">
<path fill-rule="evenodd" clip-rule="evenodd" d="M6.54944 2.58555L1 1V14L7.04396 15.7268C7.52307 15.8637 8 15.504 8 15.0057V4.5086C8 3.61564 7.40804 2.83087 6.54944 2.58555ZM7 9C7 9.55229 6.55228 10 6 10C5.44772 10 5 9.55229 5 9C5 8.44772 5.44772 8 6 8C6.55228 8 7 8.44772 7 9ZM10.0001 7.75772C9.62245 8.01049 9.2852 8.3189 9.00008 8.67123V4.5086C9.00008 3.16916 8.11215 1.992 6.82424 1.62403L4.64014 1H8.50008C9.32851 1 10.0001 1.67157 10.0001 2.5V7.75772Z" fill="white" fill-opacity="0.5"/>
<path fill-rule="evenodd" clip-rule="evenodd" d="M12.5 15C14.433 15 16 13.433 16 11.5C16 9.567 14.433 8 12.5 8C10.567 8 9 9.567 9 11.5C9 13.433 10.567 15 12.5 15ZM14.8536 10.8536L15.2072 10.5L14.5001 9.79289L14.1465 10.1464L12.0001 12.2929L10.8536 11.1464L10.5001 10.7929L9.79296 11.5L10.1465 11.8536L11.6465 13.3536L12.0001 13.7071L12.3536 13.3536L14.8536 10.8536Z" fill="white"/>
</svg>
