<svg width="16" height="16" viewBox="0 0 16 16" fill="none" xmlns="http://www.w3.org/2000/svg">
<path fill-rule="evenodd" clip-rule="evenodd" d="M4.5 1C3.67157 1 3 1.67157 3 2.5V10H3.5H5.64645C5.74021 10 5.83014 9.96275 5.89645 9.89645C5.96275 9.83014 6 9.74022 6 9.64645V9.5V9L7 6H6.00773C5.9055 6 5.81357 6.06224 5.77561 6.15715L5.16419 7.6857L4.97849 8.14993L4.05002 7.77854L4.23571 7.3143L4.84713 5.78576C5.03696 5.31119 5.4966 5 6.00773 5H8.84857C9.04599 5 9.23899 5.05843 9.40326 5.16794L10.5884 5.95801C10.6295 5.98539 10.6777 6 10.7271 6H11.5H12V7H11.5H10.7271C10.4803 7 10.239 6.92696 10.0337 6.79007L8.97247 6.0826L8 9L7.96731 9.09806C8.2771 9.21599 8.54424 9.43525 8.72005 9.72826L9.92875 11.7428L10.186 12.1715L9.3285 12.686L9.07125 12.2572L7.86256 10.2428C7.77219 10.0921 7.60944 10 7.43381 10H6.95301C6.89177 10.2263 6.77222 10.4349 6.60355 10.6036C6.34971 10.8574 6.00543 11 5.64645 11H3.5H3V13L1 15H7.29289L9.14645 13.1464L9.5 12.7929L10.2071 13.5L9.85355 13.8536L8.70711 15H11L13 13V2.6C13 1.71634 12.2837 1 11.4 1H4.5ZM10 3C10 3.55228 9.55228 4 9 4C8.44772 4 8 3.55228 8 3C8 2.44772 8.44772 2 9 2C9.55228 2 10 2.44772 10 3Z" fill="white"/>
</svg>
