<svg width="16" height="16" viewBox="0 0 16 16" fill="none" xmlns="http://www.w3.org/2000/svg">
<path fill-rule="evenodd" clip-rule="evenodd" d="M10.0001 13C10.0001 13.5523 9.55237 14 9.00008 14V10H10.0001V13ZM10.0001 7H9.00008V4.5086C9.00008 3.16916 8.11215 1.992 6.82424 1.62403L4.64014 1H8.50008C9.32851 1 10.0001 1.67157 10.0001 2.5V7Z" fill="white" fill-opacity="0.5"/>
<path fill-rule="evenodd" clip-rule="evenodd" d="M1 1L6.54944 2.58555C7.40804 2.83087 8 3.61564 8 4.5086V15.0057C8 15.504 7.52307 15.8637 7.04396 15.7268L1 14V1ZM6 10C6.55228 10 7 9.55229 7 9C7 8.44772 6.55228 8 6 8C5.44772 8 5 8.44772 5 9C5 9.55229 5.44772 10 6 10ZM9 8V9H12V10.2929C12 10.7383 12.5386 10.9614 12.8536 10.6464L15 8.5L12.8536 6.35355C12.5386 6.03857 12 6.26166 12 6.70711V8H9Z" fill="white"/>
</svg>
