<svg width="16" height="16" viewBox="0 0 16 16" fill="none" xmlns="http://www.w3.org/2000/svg">
<path fill-rule="evenodd" clip-rule="evenodd" d="M3.68659 7.18909L7.14255 1.42915C7.53095 0.781816 8.46913 0.781817 8.85754 1.42916L12.3135 7.18909C13.3386 8.89765 13.2587 11.0503 12.1096 12.6781C10.1055 15.5173 5.8946 15.5173 3.89044 12.6781C2.7414 11.0503 2.66145 8.89765 3.68659 7.18909ZM7.00004 8C7.00004 8.55228 6.55233 9 6.00004 9C5.44776 9 5.00004 8.55228 5.00004 8C5.00004 7.44771 5.44776 7 6.00004 7C6.55233 7 7.00004 7.44771 7.00004 8ZM7.99998 13C9.65684 13 11 11.6568 11 9.99998H12C12 12.2091 10.2091 14 7.99998 14V13Z" fill="white"/>
</svg>
