<svg width="16" height="16" viewBox="0 0 16 16" fill="none" xmlns="http://www.w3.org/2000/svg">
<path fill-rule="evenodd" clip-rule="evenodd" d="M2.5 2C1.67157 2 1 2.67157 1 3.5V12.5C1 13.3284 1.67157 14 2.5 14H13.5C14.3284 14 15 13.3284 15 12.5V3.5C15 2.67157 14.3284 2 13.5 2H2.5ZM8 7C7.44772 7 7 7.44772 7 8C7 8.55228 7.44772 9 8 9C8.55228 9 9 8.55228 9 8C9 7.44772 8.55228 7 8 7ZM10 8C10 7.44772 10.4477 7 11 7C11.5523 7 12 7.44772 12 8C12 8.55228 11.5523 9 11 9C10.4477 9 10 8.55228 10 8ZM5 7C4.44772 7 4 7.44772 4 8C4 8.55228 4.44772 9 5 9C5.55228 9 6 8.55228 6 8C6 7.44772 5.55228 7 5 7Z" fill="white"/>
</svg>
