<svg width="16" height="16" viewBox="0 0 16 16" fill="none" xmlns="http://www.w3.org/2000/svg">
<path fill-rule="evenodd" clip-rule="evenodd" d="M1 13V5.41421L5 9.41421C5.37507 9.78929 5.88378 10 6.41421 10H7.38332C7.02121 10.7066 7.27354 11.5806 7.96883 11.982L7.99992 12L7.96883 12.0179C7.27354 12.4194 7.02121 13.2934 7.38332 14H2C1.44772 14 1 13.5523 1 13ZM15 8.333C14.6769 8.2851 14.3359 8.34194 14.031 8.51795L14.0004 8.53561L13.9999 8.53532V8.5C13.9999 7.93525 13.6878 7.4434 13.2267 7.18751L15 5.41421V8.333ZM12 7L15 4V3C15 2.44772 14.5523 2 14 2H2C1.96548 2 1.93137 2.00175 1.89776 2.00516C1.42712 2.05296 1.05296 2.42712 1.00516 2.89776C1.00175 2.93137 1 2.96548 1 3V4L5.70711 8.70711C5.89464 8.89464 6.149 9 6.41421 9H7.9608C8.39213 8.33458 9.2742 8.1169 9.96883 8.51795L9.99943 8.53561L9.99993 8.53532V8.5L10.3655 8.63454L10.3736 8.62641L9.99993 8.5C9.99993 7.67157 10.6715 7 11.4999 7H12Z" fill="white" fill-opacity="0.5"/>
<path fill-rule="evenodd" clip-rule="evenodd" d="M12.4999 8C12.7761 8 12.9999 8.22386 12.9999 8.5V9.17071C13.351 9.29481 13.6722 9.48242 13.9495 9.71974L14.531 9.38398C14.7702 9.24591 15.076 9.32784 15.214 9.56699L15.714 10.433C15.8521 10.6722 15.7702 10.978 15.531 11.116L14.9499 11.4515C14.9828 11.6294 14.9999 11.8127 14.9999 12C14.9999 12.1873 14.9828 12.3706 14.9499 12.5485L15.531 12.884C15.7702 13.022 15.8521 13.3278 15.714 13.567L15.214 14.433C15.076 14.6722 14.7702 14.7541 14.531 14.616L13.9495 14.2803C13.6722 14.5176 13.351 14.7052 12.9999 14.8293V15.5C12.9999 15.7761 12.7761 16 12.4999 16H11.4999C11.2238 16 10.9999 15.7761 10.9999 15.5V14.8293C10.6488 14.7052 10.3277 14.5176 10.0504 14.2803L9.46883 14.616C9.22969 14.7541 8.92389 14.6722 8.78582 14.433L8.28582 13.567C8.14775 13.3278 8.22969 13.022 8.46883 12.884L9.04995 12.5485C9.0171 12.3706 8.99993 12.1873 8.99993 12C8.99993 11.8127 9.0171 11.6294 9.04995 11.4515L8.46883 11.116C8.22969 10.978 8.14775 10.6722 8.28582 10.433L8.78582 9.56698C8.92389 9.32784 9.22969 9.2459 9.46883 9.38397L10.0504 9.71973C10.3277 9.48242 10.6488 9.29481 10.9999 9.17071V8.5C10.9999 8.22386 11.2238 8 11.4999 8H12.4999ZM13.4999 12C13.4999 12.8284 12.8284 13.5 11.9999 13.5C11.1715 13.5 10.4999 12.8284 10.4999 12C10.4999 11.1716 11.1715 10.5 11.9999 10.5C12.8284 10.5 13.4999 11.1716 13.4999 12Z" fill="white"/>
</svg>
