<svg width="16" height="16" viewBox="0 0 16 16" fill="none" xmlns="http://www.w3.org/2000/svg">
<path fill-rule="evenodd" clip-rule="evenodd" d="M4 4C5.65685 4 7 3.32843 7 2.5C7 1.67157 5.65685 1 4 1C2.34315 1 1 1.67157 1 2.5C1 3.32843 2.34315 4 4 4ZM1 13.5V4.20001C1.14386 4.29991 1.29079 4.38475 1.43147 4.45509C2.14048 4.80959 3.04999 5 4 5H14C14.5523 5 15 5.44772 15 6V14C15 14.5523 14.5523 15 14 15H4C2.34315 15 1 14.3284 1 13.5ZM3 6H4V7H3V6ZM5 6H6V7H5V6ZM6 13H5V14H6V13ZM3 13H4V14H3V13ZM8 6H7V7H8V6ZM7 13H8V14H7V13ZM10 6H9V7H10V6ZM9 13H10V14H9V13ZM12 6H11V7H12V6ZM11 13H12V14H11V13ZM14 6H13V7H14V6ZM13 13H14V14H13V13ZM14 8H9V12H14V8ZM3 8H8V12H3V8Z" fill="white"/>
</svg>
