<svg width="16" height="16" viewBox="0 0 16 16" fill="none" xmlns="http://www.w3.org/2000/svg">
<path fill-rule="evenodd" clip-rule="evenodd" d="M2.5 1C1.67157 1 1 1.67157 1 2.5V11.5C1 12.3284 1.67157 13 2.5 13H5.68159C5.2395 12.2351 5.34564 11.2402 6 10.5858L10 6.58579C10.3751 6.21071 10.8838 6 11.4142 6H14V2.5C14 1.67157 13.3284 1 12.5 1H2.5ZM5 2H4V3H5V2ZM6 2H7V3H6V2ZM9 2H8V3H9V2ZM10 2H11V3H10V2ZM3 2H2V3H3V2ZM4 11H5V12H4V11ZM13 2H12V3H13V2ZM2 11H3V12H2V11Z" fill="white" fill-opacity="0.5"/>
<path fill-rule="evenodd" clip-rule="evenodd" d="M14.9998 7H11.4141C11.1488 7 10.8945 7.10536 10.707 7.29289L6.70696 11.2929C6.31643 11.6834 6.31643 12.3166 6.70696 12.7071L9.29274 15.2929C9.68327 15.6834 10.3164 15.6834 10.707 15.2929L14.707 11.2929C14.8945 11.1054 14.9998 10.851 14.9998 10.5858V7ZM12.9998 8C12.4475 8 11.9998 8.44772 11.9998 9C11.9998 9.55228 12.4475 10 12.9998 10C13.552 10 13.9998 9.55228 13.9998 9C13.9998 8.44772 13.552 8 12.9998 8Z" fill="white"/>
</svg>
