<svg width="16" height="16" viewBox="0 0 16 16" fill="none" xmlns="http://www.w3.org/2000/svg">
<path fill-rule="evenodd" clip-rule="evenodd" d="M4.99995 1H5.99995V11H4.99995V1ZM2.99995 12H13L15.1464 14.1464C15.4614 14.4614 15.2383 15 14.7928 15H1.20706C0.761605 15 0.538521 14.4614 0.853504 14.1464L2.99995 12ZM8.58574 1H6.99995V6H8.58574C8.85095 6 9.10531 6.10536 9.29284 6.29289L9.70706 6.70711C9.89459 6.89464 10.1489 7 10.4142 7H12V2H10.4142C10.1489 2 9.89459 1.89464 9.70706 1.70711L9.29284 1.29289C9.10531 1.10536 8.85095 1 8.58574 1Z" fill="white"/>
</svg>
