<svg width="16" height="16" viewBox="0 0 16 16" fill="none" xmlns="http://www.w3.org/2000/svg">
<path fill-rule="evenodd" clip-rule="evenodd" d="M4 5H2C1.44772 5 1 5.44772 1 6V14L2 15H10C10.5523 15 11 14.5523 11 14V12H6H5.58579L5.29289 11.7071L4.29289 10.7071L4 10.4142V10V5Z" fill="white" fill-opacity="0.5"/>
<path fill-rule="evenodd" clip-rule="evenodd" d="M14 1H6C5.44772 1 5 1.44772 5 2V10L6 11H7V8H13V11H14C14.5523 11 15 10.5523 15 10V2C15 1.44772 14.5523 1 14 1ZM7 2H13V6H7V2Z" fill="white"/>
</svg>
