<svg width="16" height="16" viewBox="0 0 16 16" fill="none" xmlns="http://www.w3.org/2000/svg">
<path fill-rule="evenodd" clip-rule="evenodd" d="M9 1H2C1.44772 1 1 1.44772 1 2V9L2 10H3V7H8V10H9C9.55229 10 10 9.55229 10 9V2C10 1.44772 9.55229 1 9 1ZM3 2H8V5H3V2ZM6 13.5L8.14645 11.3536C8.46143 11.0386 9 11.2617 9 11.7071V13H11.5H12V14H11.5H9V15.2929C9 15.7384 8.46143 15.9614 8.14645 15.6465L6 13.5ZM13.8536 13.6464L16 11.5L13.8536 9.35354C13.5386 9.03856 13 9.26164 13 9.7071V11H10.5L10 11V12L10.5 12H13V13.2929C13 13.7383 13.5386 13.9614 13.8536 13.6464Z" fill="white"/>
</svg>
