<svg width="16" height="16" viewBox="0 0 16 16" fill="none" xmlns="http://www.w3.org/2000/svg">
<path fill-rule="evenodd" clip-rule="evenodd" d="M3 4C3 3.44772 3.44772 3 4 3V10V10.4142L4.29289 10.7071L5.29289 11.7071L5.58579 12H6H13C13 12.5523 12.5523 13 12 13H4L3 12V4ZM1 6C1 5.44772 1.44772 5 2 5V12V12.4142L2.29289 12.7071L3.29289 13.7071L3.58579 14H4H11C11 14.5523 10.5523 15 10 15H2L1 14V6Z" fill="white" fill-opacity="0.5"/>
<path fill-rule="evenodd" clip-rule="evenodd" d="M14 1H6C5.44772 1 5 1.44772 5 2V10L6 11H7V8H13V11H14C14.5523 11 15 10.5523 15 10V2C15 1.44772 14.5523 1 14 1ZM7 2H13V6H7V2Z" fill="white"/>
</svg>
