<svg width="16" height="16" viewBox="0 0 16 16" fill="none" xmlns="http://www.w3.org/2000/svg">
<path fill-rule="evenodd" clip-rule="evenodd" d="M2 1V2V4H6V5H1V6C1 6.55228 1.44772 7 2 7H6C6.55228 7 7 6.55228 7 6V5V4V2L8 2V1C8 0.447715 7.55228 0 7 0H3C2.44772 0 2 0.447716 2 1ZM2 8C1.44772 8 1 8.44772 1 9V14C1 14.5523 1.44772 15 2 15H14C14.5523 15 15 14.5523 15 14V7C15 6.44772 14.5523 6 14 6H9.91421C9.649 6 9.39464 6.10536 9.20711 6.29289L7.79289 7.70711C7.60536 7.89464 7.351 8 7.08579 8H2Z" fill="white"/>
</svg>
