<svg width="16" height="16" viewBox="0 0 16 16" fill="none" xmlns="http://www.w3.org/2000/svg">
<path fill-rule="evenodd" clip-rule="evenodd" d="M5.49993 0C5.77607 0 5.99993 0.223858 5.99993 0.5V1.17071C6.35105 1.29481 6.67217 1.48242 6.94948 1.71974L7.53103 1.38398C7.77018 1.24591 8.07597 1.32784 8.21404 1.56699L8.71404 2.43302C8.85211 2.67216 8.77018 2.97796 8.53103 3.11603L7.94991 3.45154C7.98276 3.62936 7.99993 3.81267 7.99993 4C7.99993 4.18733 7.98276 4.37065 7.94991 4.54847L8.53103 4.88398C8.70236 4.98289 8.793 5.16789 8.77986 5.3528C8.68037 5.42131 8.58662 5.49917 8.5 5.58579L7.49219 6.5936L6.94948 6.28027C6.67216 6.51758 6.35105 6.70519 5.99993 6.82929V7H3.99993V6.82929C3.64882 6.70519 3.3277 6.51758 3.05039 6.28026L2.46883 6.61602C2.22969 6.75409 1.92389 6.67216 1.78582 6.43301L1.28582 5.56698C1.14775 5.32784 1.22969 5.02204 1.46883 4.88397L2.04995 4.54846C2.0171 4.37064 1.99993 4.18733 1.99993 4C1.99993 3.81267 2.0171 3.62935 2.04995 3.45153L1.46883 3.11602C1.22969 2.97795 1.14775 2.67216 1.28582 2.43301L1.78582 1.56698C1.92389 1.32784 2.22969 1.2459 2.46883 1.38397L3.05039 1.71973C3.3277 1.48242 3.64882 1.29481 3.99993 1.17071V0.5C3.99993 0.223858 4.22379 0 4.49993 0H5.49993ZM6.49993 4C6.49993 4.82843 5.82836 5.5 4.99993 5.5C4.17151 5.5 3.49993 4.82843 3.49993 4C3.49993 3.17157 4.17151 2.5 4.99993 2.5C5.82836 2.5 6.49993 3.17157 6.49993 4ZM2 8C1.44772 8 1 8.44772 1 9V14C1 14.5523 1.44772 15 2 15H14C14.5523 15 15 14.5523 15 14V7C15 6.44772 14.5523 6 14 6H9.91421C9.649 6 9.39464 6.10536 9.20711 6.29289L7.79289 7.70711C7.60536 7.89464 7.351 8 7.08579 8H2Z" fill="white"/>
</svg>
