<svg width="16" height="16" viewBox="0 0 16 16" fill="none" xmlns="http://www.w3.org/2000/svg">
<path fill-rule="evenodd" clip-rule="evenodd" d="M3 0H2V2H1V4.37868C1 4.7765 1.15803 5.15803 1.43934 5.43934L3 7H5L6.56066 5.43934C6.84196 5.15804 7 4.7765 7 4.37868V2H6V0H5V2H3V0ZM2 8C1.44772 8 1 8.44772 1 9V14C1 14.5523 1.44772 15 2 15H14C14.5523 15 15 14.5523 15 14V7C15 6.44772 14.5523 6 14 6H9.91421C9.649 6 9.39464 6.10536 9.20711 6.29289L7.79289 7.70711C7.60536 7.89464 7.351 8 7.08579 8H2Z" fill="white"/>
</svg>
