<svg width="16" height="16" viewBox="0 0 16 16" fill="none" xmlns="http://www.w3.org/2000/svg">
<path fill-rule="evenodd" clip-rule="evenodd" d="M1.76389 0H3V2L4 3L5 2V0H6.23611C6.71115 0.530756 7 1.23165 7 2C7 3.30622 6.16519 4.41746 5 4.82929V7H3V4.82929C1.83481 4.41746 1 3.30622 1 2C1 1.23165 1.28885 0.530756 1.76389 0ZM1 9C1 8.44772 1.44772 8 2 8H7.08579C7.351 8 7.60536 7.89464 7.79289 7.70711L9.20711 6.29289C9.39464 6.10536 9.649 6 9.91421 6H14C14.5523 6 15 6.44772 15 7V14C15 14.5523 14.5523 15 14 15H2C1.44772 15 1 14.5523 1 14V9Z" fill="white"/>
</svg>
