<svg width="16" height="16" viewBox="0 0 16 16" fill="none" xmlns="http://www.w3.org/2000/svg">
<path fill-rule="evenodd" clip-rule="evenodd" d="M5.49993 1C5.77607 1 5.99993 1.22386 5.99993 1.5V2.17071C6.35105 2.29481 6.67217 2.48242 6.94948 2.71974L7.53103 2.38398C7.77018 2.24591 8.07597 2.32784 8.21404 2.56699L8.71404 3.43302C8.85211 3.67216 8.77018 3.97796 8.53103 4.11603L7.94991 4.45154C7.98276 4.62936 7.99993 4.81267 7.99993 5C7.99993 5.18733 7.98276 5.37065 7.94991 5.54847L8.32231 5.76347L7.08579 7H2C1.85004 7 1.70394 7.0165 1.56342 7.04779L1.28582 6.56698C1.14775 6.32784 1.22969 6.02204 1.46883 5.88397L2.04995 5.54846C2.0171 5.37064 1.99993 5.18733 1.99993 5C1.99993 4.81267 2.0171 4.62935 2.04995 4.45153L1.46883 4.11602C1.22969 3.97795 1.14775 3.67216 1.28582 3.43301L1.78582 2.56698C1.92389 2.32784 2.22969 2.2459 2.46883 2.38397L3.05039 2.71973C3.3277 2.48242 3.64882 2.29481 3.99993 2.17071V1.5C3.99993 1.22386 4.22379 1 4.49993 1H5.49993ZM7.81833 7.68167L8.41493 7.08507L9.20711 6.29289C9.39464 6.10536 9.649 6 9.91421 6H14C14.5523 6 15 6.44772 15 7V14C15 14.5523 14.5523 15 14 15H2C1.44772 15 1 14.5523 1 14V9C1 8.44772 1.44772 8 2 8H3.99993H5.99993H7.08579C7.351 8 7.60536 7.89464 7.79289 7.70711L7.81833 7.68167ZM6.49993 5C6.49993 5.82843 5.82836 6.5 4.99993 6.5C4.17151 6.5 3.49993 5.82843 3.49993 5C3.49993 4.17157 4.17151 3.5 4.99993 3.5C5.82836 3.5 6.49993 4.17157 6.49993 5Z" fill="white"/>
</svg>
