<svg width="16" height="16" viewBox="0 0 16 16" fill="none" xmlns="http://www.w3.org/2000/svg">
<path fill-rule="evenodd" clip-rule="evenodd" d="M3 2C3 1.44772 3.44772 1 4 1H5C5.55228 1 6 1.44772 6 2V3C6 3.55228 5.55228 4 5 4H4C3.44772 4 3 3.55228 3 3V2ZM1 9C1 8.44772 1.44772 8 2 8H7.08579C7.351 8 7.60536 7.89464 7.79289 7.70711L8 7.5L9.20711 6.29289C9.39464 6.10536 9.649 6 9.91421 6H14C14.5523 6 15 6.44772 15 7V14C15 14.5523 14.5523 15 14 15H2C1.44772 15 1 14.5523 1 14V10V9ZM6.5 5C7.20125 5 7.7901 5.4812 7.95438 6.13141L7.08579 7H2C1.63571 7 1.29417 7.09739 1 7.26756V6.5C1 5.67157 1.67157 5 2.5 5H6.5Z" fill="white"/>
</svg>
