<svg width="16" height="16" viewBox="0 0 16 16" fill="none" xmlns="http://www.w3.org/2000/svg">
<path fill-rule="evenodd" clip-rule="evenodd" d="M2 0H3V7H2V0ZM1 9C1 8.44772 1.44772 8 2 8H7.08579C7.351 8 7.60536 7.89464 7.79289 7.70711L9.20711 6.29289C9.39464 6.10536 9.649 6 9.91421 6H14C14.5523 6 15 6.44772 15 7V14C15 14.5523 14.5523 15 14 15H2C1.44772 15 1 14.5523 1 14V9ZM5.08579 0H4V4H5.08579C5.351 4 5.60536 4.10536 5.79289 4.29289L6.20711 4.70711C6.39464 4.89464 6.649 5 6.91421 5H8V1H6.91421C6.649 1 6.39464 0.894643 6.20711 0.707107L5.79289 0.292893C5.60536 0.105357 5.351 0 5.08579 0Z" fill="white"/>
</svg>
