<svg width="16" height="16" viewBox="0 0 16 16" fill="none" xmlns="http://www.w3.org/2000/svg">
<path fill-rule="evenodd" clip-rule="evenodd" d="M1.76389 1H3V3L4 4L5 3V1H6.23611C6.71115 1.53076 7 2.23165 7 3C7 4.30622 6.16519 5.41746 5 5.82929V7H3V5.82929C1.83481 5.41746 1 4.30622 1 3C1 2.23165 1.28885 1.53076 1.76389 1ZM1 9C1 8.44772 1.44772 8 2 8H7.08579C7.351 8 7.60536 7.89464 7.79289 7.70711L9.20711 6.29289C9.39464 6.10536 9.649 6 9.91421 6H14C14.5523 6 15 6.44772 15 7V14C15 14.5523 14.5523 15 14 15H2C1.44772 15 1 14.5523 1 14V9Z" fill="white"/>
</svg>
