<svg width="16" height="16" viewBox="0 0 16 16" fill="none" xmlns="http://www.w3.org/2000/svg">
<path fill-rule="evenodd" clip-rule="evenodd" d="M1 1.5C1 0.671573 1.67157 0 2.5 0H6.5C7.32843 0 8 0.671573 8 1.5V5.5C8 6.32843 7.32843 7 6.5 7H2.5C1.67157 7 1 6.32843 1 5.5V1.5ZM2 2.5C2 2.22386 2.22386 2 2.5 2H6.5C6.77614 2 7 2.22386 7 2.5V5.5C7 5.77614 6.77614 6 6.5 6H2.5C2.22386 6 2 5.77614 2 5.5V2.5ZM2 8C1.44772 8 1 8.44771 1 9V14C1 14.5523 1.44772 15 2 15H14C14.5523 15 15 14.5523 15 14V7C15 6.44772 14.5523 6 14 6H9.91421C9.649 6 9.39464 6.10536 9.20711 6.29289L7.79289 7.70711C7.60536 7.89464 7.351 8 7.08579 8H2Z" fill="white"/>
</svg>
