<svg width="16" height="16" viewBox="0 0 16 16" fill="none" xmlns="http://www.w3.org/2000/svg">
<path fill-rule="evenodd" clip-rule="evenodd" d="M1 3.5C1 2.67157 1.67157 2 2.5 2H13.5C14.3284 2 15 2.67157 15 3.5V12.5C15 13.3284 14.3284 14 13.5 14H2.5C1.67157 14 1 13.3284 1 12.5V3.5ZM2 3.5C2 3.22386 2.22386 3 2.5 3H13.5C13.7761 3 14 3.22386 14 3.5V10.5C14 10.7761 13.7761 11 13.5 11H2.5C2.22386 11 2 10.7761 2 10.5V3.5ZM10.1464 7.85355L8 10L5.85355 7.85355C5.53857 7.53857 5.76165 7 6.20711 7L7 7V4H9V7H9.79289C10.2383 7 10.4614 7.53857 10.1464 7.85355ZM10 13V12H6V13H10Z" fill="white"/>
</svg>
