<svg width="16" height="16" viewBox="0 0 16 16" fill="none" xmlns="http://www.w3.org/2000/svg">
<path fill-rule="evenodd" clip-rule="evenodd" d="M3.24933 7.10293C3.22589 7.1054 3.20244 7.10871 3.179 7.11288L2.08006 7.30822C1.43715 7.4225 0.942038 7.93957 0.855738 8.58683L0.257909 13.0706C0.121681 14.0923 0.916528 15.0002 1.94729 15.0002C2.59285 15.0002 3.183 14.6354 3.47169 14.058L4.00063 13.0001H8.00063L8.52957 14.058C8.81827 14.6354 9.40842 15.0002 10.054 15.0002C11.0847 15.0002 11.8796 14.0923 11.7434 13.0706L11.1455 8.58683C11.1171 8.37392 11.0445 8.17509 10.937 8.00006H8.61828L8.36573 8.50518C7.90765 9.42138 6.97123 10.0001 5.94689 10.0001C4.36691 10.0001 3.13625 8.65579 3.24933 7.10293ZM5.94072 8.0001H5.95299C5.95096 8.00011 5.94893 8.00012 5.94689 8.00012C5.94483 8.00012 5.94277 8.00011 5.94072 8.0001Z" fill="white" fill-opacity="0.5"/>
<path fill-rule="evenodd" clip-rule="evenodd" d="M7.47118 8.05791L8.00014 7.00004L12.0001 6.99998L12.5291 8.0579C12.8178 8.63527 13.4079 8.99999 14.0534 9.00002C15.0842 9.00006 15.8791 8.09219 15.7429 7.07045L15.145 2.58677C15.0587 1.93951 14.5636 1.42244 13.9207 1.30816L12.8218 1.11282C12.4356 1.04418 12.0449 1.20763 11.8227 1.53083L11.5001 2.00004H8.50014L8.17754 1.53083C7.95532 1.20763 7.56467 1.04418 7.1785 1.11282L6.07956 1.30816C5.43665 1.42244 4.94154 1.93951 4.85524 2.58677L4.25742 7.07045C4.12119 8.09219 4.91608 9.00006 5.94687 9.00002C6.59238 8.99999 7.18249 8.63528 7.47118 8.05791ZM10.0001 5.00006C10.5524 5.00006 11.0001 4.55235 11.0001 4.00006C11.0001 3.44778 10.5524 3.00006 10.0001 3.00006C9.44785 3.00006 9.00014 3.44778 9.00014 4.00006C9.00014 4.55235 9.44785 5.00006 10.0001 5.00006Z" fill="white"/>
</svg>
