<svg width="16" height="16" viewBox="0 0 16 16" fill="none" xmlns="http://www.w3.org/2000/svg">
<path fill-rule="evenodd" clip-rule="evenodd" d="M4.49953 11.502L5.00018 10H11.0002L11.5008 11.502C11.799 12.3966 12.6363 13 13.5793 13C14.8755 13 15.8883 11.8809 15.7593 10.5912L15.1052 4.05006C15.0422 3.42018 14.5906 2.89763 13.9764 2.7441L11.5495 2.13736C11.2087 2.05217 10.8482 2.15202 10.5998 2.4004L10.0002 3.00004H6.00018L5.40053 2.4004C5.15215 2.15202 4.79167 2.05217 4.45089 2.13736L2.02393 2.7441C1.4098 2.89763 0.958165 3.42018 0.895176 4.05006L0.241067 10.5912C0.112093 11.8809 1.1249 13 2.42108 13C3.3641 13 4.20132 12.3966 4.49953 11.502ZM8.00015 7.00006C8.55244 7.00006 9.00015 6.55235 9.00015 6.00006C9.00015 5.44778 8.55244 5.00006 8.00015 5.00006C7.44787 5.00006 7.00015 5.44778 7.00015 6.00006C7.00015 6.55235 7.44787 7.00006 8.00015 7.00006Z" fill="white"/>
</svg>
