<svg width="16" height="16" viewBox="0 0 16 16" fill="none" xmlns="http://www.w3.org/2000/svg">
<path fill-rule="evenodd" clip-rule="evenodd" d="M6.35355 1.93934C6.15829 2.1346 5.84171 2.1346 5.64645 1.93934L5.06066 1.35355C4.47487 0.767767 3.52513 0.767767 2.93934 1.35355L2.64645 1.64645L2.29289 2L3 2.70711L3.35355 2.35355L3.64645 2.06066C3.84171 1.8654 4.15829 1.8654 4.35355 2.06066L4.93934 2.64645C5.52513 3.23223 6.47487 3.23223 7.06066 2.64645L7.64645 2.06066C7.84171 1.8654 8.15829 1.8654 8.35355 2.06066L8.93934 2.64645C9.52513 3.23223 10.4749 3.23223 11.0607 2.64645L11.6464 2.06066C11.8417 1.8654 12.1583 1.8654 12.3536 2.06066L12.6464 2.35355L13 2.70711L13.7071 2L13.3536 1.64645L13.0607 1.35355C12.4749 0.767768 11.5251 0.767766 10.9393 1.35355L10.3536 1.93934C10.1583 2.1346 9.84171 2.1346 9.64645 1.93934L9.06066 1.35355C8.47487 0.767767 7.52513 0.767766 6.93934 1.35355L6.35355 1.93934ZM5.47118 11.058L6.00014 10.0001L10.0001 10L10.5291 11.058C10.8178 11.6353 11.4079 12.0001 12.0534 12.0001C13.0842 12.0001 13.8791 11.0923 13.7429 10.0705L13.145 5.58683C13.0587 4.93957 12.5636 4.4225 11.9207 4.30822L10.8218 4.11288C10.4356 4.04424 10.0449 4.20769 9.82273 4.53089L9.50014 5.0001H6.50014L6.17754 4.53089C5.95532 4.20769 5.56467 4.04424 5.1785 4.11288L4.07956 4.30822C3.43665 4.4225 2.94154 4.93957 2.85524 5.58683L2.25742 10.0705C2.12119 11.0922 2.91608 12.0001 3.94687 12.0001C4.59238 12.0001 5.18249 11.6353 5.47118 11.058ZM8.00016 8.00007C8.55245 8.00007 9.00016 7.55236 9.00016 7.00007C9.00016 6.44779 8.55245 6.00007 8.00016 6.00007C7.44788 6.00007 7.00016 6.44779 7.00016 7.00007C7.00016 7.55236 7.44788 8.00007 8.00016 8.00007ZM10.3536 14.0607C10.1583 13.8654 9.84171 13.8654 9.64645 14.0607L9.06066 14.6464C8.47487 15.2322 7.52513 15.2322 6.93934 14.6464L6.35355 14.0607C6.15829 13.8654 5.84171 13.8654 5.64645 14.0607L5.06066 14.6464C4.47487 15.2322 3.52513 15.2322 2.93934 14.6464L2.64645 14.3536L2.29289 14L3 13.2929L3.35355 13.6464L3.64645 13.9393C3.84171 14.1346 4.15829 14.1346 4.35355 13.9393L4.93934 13.3536C5.52513 12.7678 6.47487 12.7678 7.06066 13.3536L7.64645 13.9393C7.84171 14.1346 8.15829 14.1346 8.35355 13.9393L8.93934 13.3536C9.52513 12.7678 10.4749 12.7678 11.0607 13.3536L11.6464 13.9393C11.8417 14.1346 12.1583 14.1346 12.3536 13.9393L12.6464 13.6464L13 13.2929L13.7071 14L13.3536 14.3536L13.0607 14.6464C12.4749 15.2322 11.5251 15.2322 10.9393 14.6464L10.3536 14.0607Z" fill="white"/>
</svg>
