<svg width="16" height="16" viewBox="0 0 16 16" fill="none" xmlns="http://www.w3.org/2000/svg">
<path fill-rule="evenodd" clip-rule="evenodd" d="M4.49904 10.502L4.99969 9.00004H7.37744C7.38936 8.97667 7.40195 8.95349 7.41522 8.93051L7.91522 8.06448C8.33082 7.34465 9.25126 7.09802 9.97109 7.51362L9.99469 7.52724V7.5C9.99469 6.66881 10.6685 5.995 11.4997 5.995H12.4997C13.3309 5.995 14.0047 6.66881 14.0047 7.5V7.52725L14.0283 7.51362C14.5174 7.23124 15.0991 7.25459 15.5521 7.52436L15.1047 3.05006C15.0417 2.42018 14.5901 1.89763 13.9759 1.7441L11.549 1.13736C11.2082 1.05217 10.8477 1.15202 10.5993 1.4004L9.99969 2.00004H5.99969L5.40005 1.4004C5.15167 1.15202 4.79118 1.05217 4.4504 1.13736L2.02344 1.7441C1.40931 1.89763 0.957676 2.42018 0.894688 3.05006L0.240579 9.59115C0.111604 10.8809 1.12441 12 2.42059 12C3.36361 12 4.20083 11.3966 4.49904 10.502ZM7.99966 6.00006C8.55195 6.00006 8.99966 5.55235 8.99966 5.00006C8.99966 4.44778 8.55195 4.00006 7.99966 4.00006C7.44738 4.00006 6.99966 4.44778 6.99966 5.00006C6.99966 5.55235 7.44738 6.00006 7.99966 6.00006Z" fill="white" fill-opacity="0.5"/>
<path fill-rule="evenodd" clip-rule="evenodd" d="M12.4999 7C12.7761 7 12.9999 7.22386 12.9999 7.5V8.17071C13.351 8.29481 13.6722 8.48242 13.9495 8.71974L14.531 8.38398C14.7702 8.24591 15.076 8.32784 15.214 8.56699L15.714 9.43302C15.8521 9.67216 15.7702 9.97796 15.531 10.116L14.9499 10.4515C14.9828 10.6294 14.9999 10.8127 14.9999 11C14.9999 11.1873 14.9828 11.3706 14.9499 11.5485L15.531 11.884C15.7702 12.022 15.8521 12.3278 15.714 12.567L15.214 13.433C15.076 13.6722 14.7702 13.7541 14.531 13.616L13.9495 13.2803C13.6722 13.5176 13.351 13.7052 12.9999 13.8293V14.5C12.9999 14.7761 12.7761 15 12.4999 15H11.4999C11.2238 15 10.9999 14.7761 10.9999 14.5V13.8293C10.6488 13.7052 10.3277 13.5176 10.0504 13.2803L9.46883 13.616C9.22969 13.7541 8.92389 13.6722 8.78582 13.433L8.28582 12.567C8.14775 12.3278 8.22969 12.022 8.46883 11.884L9.04995 11.5485C9.0171 11.3706 8.99993 11.1873 8.99993 11C8.99993 10.8127 9.0171 10.6294 9.04995 10.4515L8.46883 10.116C8.22969 9.97795 8.14775 9.67216 8.28582 9.43301L8.78582 8.56698C8.92389 8.32784 9.22969 8.2459 9.46883 8.38397L10.0504 8.71973C10.3277 8.48242 10.6488 8.29481 10.9999 8.17071V7.5C10.9999 7.22386 11.2238 7 11.4999 7H12.4999ZM13.4999 11C13.4999 11.8284 12.8284 12.5 11.9999 12.5C11.1715 12.5 10.4999 11.8284 10.4999 11C10.4999 10.1716 11.1715 9.5 11.9999 9.5C12.8284 9.5 13.4999 10.1716 13.4999 11Z" fill="white"/>
</svg>
