<svg width="16" height="16" viewBox="0 0 16 16" fill="none" xmlns="http://www.w3.org/2000/svg">
<path fill-rule="evenodd" clip-rule="evenodd" d="M12.7928 3.29289L10.7071 1.20711C10.3165 0.816582 9.68337 0.816582 9.29284 1.20711L5.20706 5.29289C4.81653 5.68342 4.81653 6.31658 5.20706 6.70711L7.29284 8.79289C7.68337 9.18342 8.31653 9.18342 8.70706 8.79289L10.3964 7.10355L14.1464 10.8536L14.5 11.2071L15.2071 10.5L14.8535 10.1464L11.1035 6.39645L12.7928 4.70711C13.1834 4.31658 13.1834 3.68342 12.7928 3.29289ZM8.99995 12H2.99995L0.853504 14.1464C0.538521 14.4614 0.761604 15 1.20706 15H10.7928C11.2383 15 11.4614 14.4614 11.1464 14.1464L8.99995 12Z" fill="white"/>
</svg>
