<svg width="16" height="16" viewBox="0 0 16 16" fill="none" xmlns="http://www.w3.org/2000/svg">
<path fill-rule="evenodd" clip-rule="evenodd" d="M11.2927 2.20677L9.20695 4.29256C8.81643 4.68308 8.81643 5.31624 9.20696 5.70677L11.2927 7.79256C11.6833 8.18308 12.3164 8.18308 12.707 7.79256L14.7927 5.70677C15.1833 5.31624 15.1833 4.68308 14.7927 4.29256L12.707 2.20677C12.3164 1.81624 11.6833 1.81624 11.2927 2.20677ZM1 10H3V14.5C3 14.7761 2.77614 15 2.5 15H1V10ZM10.3002 14.8799L14.6251 13.15C14.8515 13.0594 15 12.8401 15 12.5962C15 12.1838 14.5914 11.8959 14.2031 12.0346L11.5 13H9V12H11.5C11.7761 12 12 11.7761 12 11.5C12 11.2239 11.7761 11 11.5 11H4V14H6L9.6863 14.9216C9.89024 14.9726 10.1051 14.958 10.3002 14.8799Z" fill="white"/>
<path fill-rule="evenodd" clip-rule="evenodd" d="M5.20647 4.29256L7.29225 2.20677C7.68278 1.81624 8.31594 1.81624 8.70647 2.20677L9.29219 2.79249L8.49927 3.58542C7.71822 4.36647 7.71822 5.6328 8.49927 6.41385L9.29222 7.2068L8.70647 7.79256C8.31594 8.18308 7.68278 8.18308 7.29225 7.79256L5.20647 5.70677C4.81594 5.31624 4.81594 4.68308 5.20647 4.29256Z" fill="white" fill-opacity="0.5"/>
</svg>
