<svg width="16" height="16" viewBox="0 0 16 16" fill="none" xmlns="http://www.w3.org/2000/svg">
<path fill-rule="evenodd" clip-rule="evenodd" d="M12.8743 1.72539C13.2655 2.64308 13.5001 3.8358 13.5001 4.99998C13.5001 5.19914 13.4932 5.39915 13.4799 5.59847C13.6511 5.53594 13.811 5.46741 13.9582 5.39381C14.5653 5.09026 14.8666 4.7532 14.9637 4.4618C14.7805 3.09961 13.9117 1.95473 12.7159 1.38586C12.7719 1.49552 12.8247 1.60904 12.8743 1.72539ZM12.5001 4.99998C12.5001 5.29199 12.4835 5.58496 12.4522 5.87257C12.0038 5.95436 11.5148 6.00003 10.9999 6.00003C10.485 6.00003 9.99608 5.95437 9.54775 5.87261C9.5165 5.58499 9.49985 5.29201 9.49985 4.99998C9.49985 3.9549 9.71304 2.89763 10.0457 2.11763C10.2124 1.72662 10.3988 1.42976 10.5822 1.23869C10.7639 1.04948 10.9039 1.00131 10.9962 1L10.9996 1L11.0039 1C11.0962 1.00129 11.2363 1.04944 11.4179 1.23867C11.6013 1.42974 11.7877 1.72659 11.9544 2.1176C12.287 2.8976 12.5001 3.95488 12.5001 4.99998ZM10.9999 7.00003C10.5627 7.00003 10.1366 6.97043 9.72948 6.91416C9.81523 7.2652 9.92222 7.59286 10.0457 7.88232C10.2124 8.27333 10.3988 8.57019 10.5822 8.76127C10.7664 8.95314 10.9078 8.99998 11.0001 8.99998C11.0924 8.99998 11.2337 8.95314 11.4179 8.76128C11.6013 8.57021 11.7877 8.27336 11.9544 7.88235C12.0778 7.59286 12.1848 7.26519 12.2705 6.91412C11.8633 6.97042 11.4371 7.00003 10.9999 7.00003ZM8.04148 5.39381C8.18876 5.46745 8.34877 5.53601 8.52007 5.59856C8.50672 5.39921 8.49985 5.19918 8.49985 4.99998C8.49985 3.83578 8.73447 2.64305 9.12581 1.72537C9.17551 1.60882 9.2284 1.49513 9.28452 1.38531C8.08842 1.95385 7.2192 3.09858 7.03564 4.46076C7.13238 4.7524 7.43366 5.0899 8.04148 5.39381ZM9.12581 8.27459C8.92587 7.80572 8.76683 7.26506 8.6591 6.69309C8.27153 6.58394 7.91346 6.44783 7.59426 6.28823C7.43387 6.20804 7.27828 6.11902 7.1312 6.02142C7.43336 7.16886 8.23252 8.11466 9.28456 8.6147C9.22843 8.50487 9.17552 8.39115 9.12581 8.27459ZM12.8743 8.27456C12.8247 8.39094 12.7718 8.50448 12.7158 8.61415C13.7672 8.11402 14.5658 7.16865 14.8679 6.02181C14.721 6.11926 14.5656 6.20814 14.4054 6.28823C14.0863 6.44779 13.7284 6.58387 13.3409 6.69301C13.2332 7.265 13.0742 7.80568 12.8743 8.27456ZM1 10H3V14.5C3 14.7761 2.77614 15 2.5 15H1V10ZM10.3002 14.8799L14.6251 13.15C14.8515 13.0594 15 12.8401 15 12.5962C15 12.1838 14.5914 11.8959 14.2031 12.0346L11.5 13H9V12H11.5C11.7761 12 12 11.7761 12 11.5C12 11.2239 11.7761 11 11.5 11H4V14H6L9.6863 14.9216C9.89024 14.9726 10.1051 14.958 10.3002 14.8799Z" fill="white"/>
</svg>
