<svg width="16" height="16" viewBox="0 0 16 16" fill="none" xmlns="http://www.w3.org/2000/svg">
<path fill-rule="evenodd" clip-rule="evenodd" d="M7 3.41421C7 3.149 7.10536 2.89464 7.29289 2.70711L8.70711 1.29289C8.89464 1.10536 9.149 1 9.41421 1H14C14.5523 1 15 1.44772 15 2V6.58579C15 6.851 14.8946 7.10536 14.7071 7.29289L13.2929 8.70711C13.1054 8.89464 12.851 9 12.5858 9H8C7.44772 9 7 8.55228 7 8V3.41421ZM9 3L10 2H12L11 3V6L10 5L9 6V3ZM1 10H3V14.5C3 14.7761 2.77614 15 2.5 15H1V10ZM10.3002 14.8799L14.6251 13.15C14.8515 13.0594 15 12.8401 15 12.5962C15 12.1838 14.5914 11.8959 14.2031 12.0346L11.5 13H9V12H11.5C11.7761 12 12 11.7761 12 11.5C12 11.2239 11.7761 11 11.5 11H4V14H6L9.6863 14.9216C9.89024 14.9726 10.1051 14.958 10.3002 14.8799Z" fill="white"/>
</svg>
