<svg width="16" height="16" viewBox="0 0 16 16" fill="none" xmlns="http://www.w3.org/2000/svg">
<path fill-rule="evenodd" clip-rule="evenodd" d="M11.9581 6.95829C10.459 6.72528 9.27468 5.54092 9.04169 4.04185C7.87986 4.25711 7 5.27577 7 6.49994C7 7.88065 8.11929 8.99994 9.5 8.99994C10.7242 8.99994 11.7428 8.1201 11.9581 6.95829Z" fill="white" fill-opacity="0.5"/>
<path fill-rule="evenodd" clip-rule="evenodd" d="M12.5 6C13.8807 6 15 4.88071 15 3.5C15 2.11929 13.8807 1 12.5 1C11.1193 1 10 2.11929 10 3.5C10 4.88071 11.1193 6 12.5 6ZM1 10H3V14.5C3 14.7761 2.77614 15 2.5 15H1V10ZM10.3002 14.8799L14.6251 13.15C14.8515 13.0594 15 12.8401 15 12.5962C15 12.1838 14.5914 11.8959 14.2031 12.0346L11.5 13H9V12H11.5C11.7761 12 12 11.7761 12 11.5C12 11.2239 11.7761 11 11.5 11H4V14H6L9.6863 14.9216C9.89024 14.9726 10.1051 14.958 10.3002 14.8799Z" fill="white"/>
</svg>
