<svg width="16" height="16" viewBox="0 0 16 16" fill="none" xmlns="http://www.w3.org/2000/svg">
<path fill-rule="evenodd" clip-rule="evenodd" d="M11.9999 1.5C11.9999 1.22386 11.7761 1 11.4999 1H10.4999C10.2238 1 9.99993 1.22386 9.99993 1.5V2.17071C9.64882 2.29481 9.3277 2.48242 9.05039 2.71973L8.46883 2.38397C8.22969 2.2459 7.92389 2.32784 7.78582 2.56698L7.28582 3.43301C7.14775 3.67216 7.22969 3.97795 7.46883 4.11602L8.04995 4.45153C8.0171 4.62935 7.99993 4.81267 7.99993 5C7.99993 5.18733 8.0171 5.37064 8.04995 5.54846L7.46883 5.88397C7.22969 6.02204 7.14775 6.32784 7.28582 6.56698L7.78582 7.43301C7.92389 7.67216 8.22969 7.75409 8.46883 7.61602L9.05039 7.28026C9.3277 7.51758 9.64882 7.70519 9.99993 7.82929V8.5C9.99993 8.77614 10.2238 9 10.4999 9H11.4999C11.7761 9 11.9999 8.77614 11.9999 8.5V7.82929C12.351 7.70519 12.6722 7.51758 12.9495 7.28027L13.531 7.61603C13.7702 7.7541 14.076 7.67216 14.214 7.43302L14.714 6.56699C14.8521 6.32784 14.7702 6.02205 14.531 5.88398L13.9499 5.54847C13.9828 5.37065 13.9999 5.18733 13.9999 5C13.9999 4.81267 13.9828 4.62936 13.9499 4.45154L14.531 4.11603C14.7702 3.97796 14.8521 3.67216 14.714 3.43302L14.214 2.56699C14.076 2.32784 13.7702 2.24591 13.531 2.38398L12.9495 2.71974C12.6722 2.48242 12.351 2.29481 11.9999 2.17071V1.5ZM10.9999 6.5C11.8284 6.5 12.4999 5.82843 12.4999 5C12.4999 4.17157 11.8284 3.5 10.9999 3.5C10.1715 3.5 9.49993 4.17157 9.49993 5C9.49993 5.82843 10.1715 6.5 10.9999 6.5ZM1 10H3V14.5C3 14.7761 2.77614 15 2.5 15H1V10ZM10.3002 14.8799L14.6251 13.15C14.8515 13.0594 15 12.8401 15 12.5962C15 12.1838 14.5914 11.8959 14.2031 12.0346L11.5 13H9V12H11.5C11.7761 12 12 11.7761 12 11.5C12 11.2239 11.7761 11 11.5 11H4V14H6L9.6863 14.9216C9.89024 14.9726 10.1051 14.958 10.3002 14.8799Z" fill="white"/>
</svg>
