<svg width="16" height="16" viewBox="0 0 16 16" fill="none" xmlns="http://www.w3.org/2000/svg">
<path fill-rule="evenodd" clip-rule="evenodd" d="M10 1C9.44772 1 9 1.44772 9 2V3H8C7.44772 3 7 3.44772 7 4V8C7 8.55228 7.44772 9 8 9H12C12.5523 9 13 8.55228 13 8V7H14C14.5523 7 15 6.55228 15 6V2C15 1.44772 14.5523 1 14 1H10ZM13 7H10C9.44771 7 9 6.55228 9 6V3H12C12.5523 3 13 3.44772 13 4V7ZM1 10H3V14.5C3 14.7761 2.77614 15 2.5 15H1V10ZM10.3002 14.8799L14.6251 13.15C14.8515 13.0594 15 12.8401 15 12.5962C15 12.1838 14.5914 11.8959 14.2031 12.0346L11.5 13H9V12H11.5C11.7761 12 12 11.7761 12 11.5C12 11.2239 11.7761 11 11.5 11H4V14H6L9.6863 14.9216C9.89024 14.9726 10.1051 14.958 10.3002 14.8799Z" fill="white"/>
</svg>
