<svg width="16" height="16" viewBox="0 0 16 16" fill="none" xmlns="http://www.w3.org/2000/svg">
<path fill-rule="evenodd" clip-rule="evenodd" d="M7 2.5C7 1.67157 7.67157 1 8.5 1H13.5C14.3284 1 15 1.67157 15 2.5V7.5C15 8.32843 14.3284 9 13.5 9H8.5C7.67157 9 7 8.32843 7 7.5V2.5ZM8 2.5C8 2.22386 8.22386 2 8.5 2H10V4H8V2.5ZM12 4H10V6H8V7.5C8 7.77614 8.22386 8 8.5 8H10V6H12V8H13.5C13.7761 8 14 7.77614 14 7.5V6H12V4ZM12 4V2H13.5C13.7761 2 14 2.22386 14 2.5V4H12ZM1 10H3V14.5C3 14.7761 2.77614 15 2.5 15H1V10ZM10.3002 14.8799L14.6251 13.15C14.8515 13.0594 15 12.8401 15 12.5962C15 12.1838 14.5914 11.8959 14.2031 12.0346L11.5 13H9V12H11.5C11.7761 12 12 11.7761 12 11.5C12 11.2239 11.7761 11 11.5 11H4V14H6L9.6863 14.9216C9.89024 14.9726 10.1051 14.958 10.3002 14.8799Z" fill="white"/>
</svg>
