<svg width="16" height="16" viewBox="0 0 16 16" fill="none" xmlns="http://www.w3.org/2000/svg">
<path fill-rule="evenodd" clip-rule="evenodd" d="M7 10H1V10.5858C1 10.851 1.10536 11.1054 1.29289 11.2929L1.70711 11.7071C1.89464 11.8946 2 12.149 2 12.4142V13C2 13.5523 2.44772 14 3 14H4.76393C4.91918 14 5.07229 13.9639 5.21115 13.8944L6.44721 13.2764C6.786 13.107 7 12.7607 7 12.382V12H9V12.382C9 12.7607 9.214 13.107 9.55279 13.2764L10.7889 13.8944C10.9277 13.9639 11.0808 14 11.2361 14H13C13.5523 14 14 13.5523 14 13V12.4142C14 12.149 14.1054 11.8946 14.2929 11.7071L14.7071 11.2929C14.8946 11.1054 15 10.851 15 10.5858V10H9H7Z" fill="white" fill-opacity="0.5"/>
<path d="M0 7V8H16V7L14 6L11.9915 2.38475C11.721 1.89785 11.1048 1.72581 10.6212 2.00215L8 3.5L5.37877 2.00215C4.89516 1.72581 4.27897 1.89785 4.00847 2.38475L2 6L0 7Z" fill="white"/>
</svg>
