<svg width="16" height="16" viewBox="0 0 16 16" fill="none" xmlns="http://www.w3.org/2000/svg">
<path fill-rule="evenodd" clip-rule="evenodd" d="M1 2.5C1 1.67157 1.67157 1 2.5 1H4.5H5V2H4.5H2.5C2.22386 2 2 2.22386 2 2.5V4.5V5H1V4.5V2.5ZM15 13.5C15 14.3284 14.3284 15 13.5 15H11.5H11V14H11.5H13.5C13.7761 14 14 13.7761 14 13.5V11.5V11H15V11.5V13.5ZM15 2.5C15 1.67157 14.3284 1 13.5 1H11.5H11V2H11.5L13.5 2C13.7761 2 14 2.22386 14 2.5V4.5V5H15V4.5V2.5ZM2.5 15C1.67157 15 1 14.3284 1 13.5V11.5V11H2L2 11.5L2 13.5C2 13.7761 2.22386 14 2.5 14H4.5H5V15H4.5H2.5ZM8 12C9.19469 12 10.2671 11.4762 11 10.6458V10.4142C11 10.149 10.8946 9.89462 10.7071 9.70708L9.29289 8.29287C9.10536 8.10533 8.851 7.99997 8.58579 7.99997H8H6V6.99997H6.58579C6.851 6.99997 7.10536 6.89462 7.29289 6.70708L8.70711 5.29287C8.89464 5.10533 9 4.85098 9 4.58576V4.12602C8.68038 4.04375 8.3453 4 8 4C6.09985 4 4.50916 5.32492 4.10135 7.10133L6 8.99997V9.99997L7 11V11.874C7.31962 11.9562 7.6547 12 8 12ZM8 13C9.72728 13 11.25 12.1241 12.1483 10.7923C12.686 9.99495 13 9.03414 13 8C13 6.96447 12.6852 6.00246 12.1461 5.20445C11.4258 4.13835 10.3052 3.36496 9 3.10001V3.10002C8.67689 3.03443 8.34247 3 8 3C5.72501 3 3.80489 4.51937 3.19901 6.59875L3.19901 6.59875C3.06946 7.04335 3 7.51356 3 7.99999V8C3 10.7614 5.23858 13 8 13Z" fill="white"/>
</svg>
