<svg width="16" height="16" viewBox="0 0 16 16" fill="none" xmlns="http://www.w3.org/2000/svg">
<path fill-rule="evenodd" clip-rule="evenodd" d="M5.97819 13.0919C5.79546 12.7003 5.63284 12.2597 5.49517 11.7788C5.7763 11.8236 6.06416 11.861 6.35767 11.8906C6.16926 12.3335 6.07311 12.8063 6.06921 13.2797C6.03857 13.2188 6.00822 13.1562 5.97819 13.0919ZM14.8153 6.39575C14.2652 4.04985 12.5352 2.1584 10.2856 1.38163C10.527 1.71222 10.7417 2.08617 10.9279 2.48526C11.4202 3.54016 11.7674 4.87153 11.9173 6.34642C12.8443 5.9608 13.8991 5.97724 14.8153 6.39575ZM10.9636 6.93156C10.855 5.35233 10.5102 3.95483 10.0218 2.90814C9.40674 1.59025 8.65682 1 7.99997 1C7.34313 1 6.59321 1.59025 5.97819 2.90814C5.38212 4.18543 4.99997 5.98515 4.99997 8C4.99997 8.96758 5.0881 9.88554 5.24573 10.7199C5.78317 10.8229 6.35571 10.8971 6.95417 10.9373C7.01005 10.873 7.06857 10.8102 7.12974 10.749L7.93939 9.93937L9.00004 8.8787L9.00006 8.87872L9.93943 7.93935L10.7491 7.1297C10.8185 7.06024 10.8901 6.99419 10.9636 6.93156ZM5.07201 13.5147C4.80302 12.9384 4.57736 12.2794 4.40354 11.5597C3.69809 11.3871 3.05179 11.1645 2.48523 10.9001C2.08102 10.7115 1.70259 10.4937 1.3689 10.2484C2.06206 12.2934 3.67461 13.9141 5.71439 14.6184C5.47294 14.2878 5.25825 13.9138 5.07201 13.5147ZM5.07201 2.48526C5.25825 2.08617 5.47294 1.71222 5.71439 1.38163C2.97666 2.32691 1.00855 4.92302 1 7.98C1.00467 8.63497 1.59546 9.38138 2.90811 9.99395C3.29049 10.1724 3.71968 10.3317 4.18744 10.4672C4.06536 9.6884 3.99997 8.85861 3.99997 8C3.99997 5.87272 4.40132 3.92243 5.07201 2.48526Z" fill="white" fill-opacity="0.5"/>
<path fill-rule="evenodd" clip-rule="evenodd" d="M11.4564 7.83681C12.4801 6.81311 14.1398 6.81311 15.1635 7.8368C16.1872 8.86048 16.1872 10.5202 15.1635 11.5439L14.3539 12.3536L14.0003 12.7071L13.2932 12L13.6468 11.6464L14.4564 10.8368C15.0896 10.2036 15.0896 9.17707 14.4564 8.5439C13.8233 7.91074 12.7967 7.91074 12.1635 8.54391L11.3539 9.35355L11.0003 9.70711L10.2932 9L10.6468 8.64645L11.4564 7.83681ZM11.5442 15.1632C10.5205 16.1869 8.86079 16.1869 7.8371 15.1632C6.81342 14.1395 6.81341 12.4798 7.83709 11.4561L8.64674 10.6465L9.0003 10.2929L9.70741 11L9.35385 11.3536L8.5442 12.1632C7.91104 12.7964 7.91105 13.823 8.54421 14.4561C9.17738 15.0893 10.2039 15.0893 10.8371 14.4561L11.6467 13.6465L12.0003 13.2929L12.7074 14L12.3539 14.3536L11.5442 15.1632ZM12.8539 10.8536L13.2075 10.5L12.5003 9.79289L12.1468 10.1464L10.1468 12.1464L9.79324 12.5L10.5003 13.2071L10.8539 12.8536L12.8539 10.8536Z" fill="white"/>
</svg>
