<svg width="16" height="16" viewBox="0 0 16 16" fill="none" xmlns="http://www.w3.org/2000/svg">
<path fill-rule="evenodd" clip-rule="evenodd" d="M5.49517 11.7788C5.63284 12.2597 5.79546 12.7003 5.97819 13.0919C6.29356 13.7676 6.6444 14.2521 6.99997 14.5638V14V13H7.99997V11.9722C7.12754 11.9722 6.28487 11.9047 5.49517 11.7788ZM10.9681 7H9.99997C8.8954 7 7.99997 7.89543 7.99997 9V10V10.9722C7.01908 10.9722 6.08918 10.8816 5.24573 10.7199C5.0881 9.88554 4.99997 8.96758 4.99997 8C4.99997 5.98515 5.38212 4.18543 5.97819 2.90814C6.59321 1.59025 7.34313 1 7.99997 1C8.65682 1 9.40674 1.59025 10.0218 2.90814C10.5173 3.96993 10.8649 5.39272 10.9681 7ZM14.9291 7H11.9701C11.8655 5.26546 11.492 3.69391 10.9279 2.48526C10.7417 2.08617 10.527 1.71222 10.2856 1.38163C12.7254 2.22406 14.554 4.37759 14.9291 7ZM4.40354 11.5597C4.57736 12.2794 4.80302 12.9384 5.07201 13.5147C5.25825 13.9138 5.47294 14.2878 5.71439 14.6184C3.67461 13.9141 2.06206 12.2934 1.3689 10.2484C1.70259 10.4937 2.08102 10.7115 2.48523 10.9001C3.05179 11.1645 3.69809 11.3871 4.40354 11.5597ZM5.71439 1.38163C5.47294 1.71222 5.25825 2.08617 5.07201 2.48526C4.40132 3.92243 3.99997 5.87272 3.99997 8C3.99997 8.85861 4.06536 9.6884 4.18744 10.4672C3.71968 10.3317 3.29049 10.1724 2.90811 9.99395C1.59546 9.38138 1.00467 8.63497 1 7.98C1.00855 4.92302 2.97666 2.32691 5.71439 1.38163Z" fill="white" fill-opacity="0.5"/>
<path fill-rule="evenodd" clip-rule="evenodd" d="M16 10L15 10V13V14V15C15 15.5523 14.5523 16 14 16H9C8.44772 16 8 15.5523 8 15V14H14V13H9V10V9C9 8.44772 9.44771 8 10 8H15C15.5523 8 16 8.44771 16 9V10Z" fill="white"/>
</svg>
