<svg width="16" height="16" viewBox="0 0 16 16" fill="none" xmlns="http://www.w3.org/2000/svg">
<path fill-rule="evenodd" clip-rule="evenodd" d="M7.50765 1.10665C7.5758 1.16584 7.64236 1.22784 7.70717 1.29265C9.20226 2.78774 9.20226 5.21177 7.70716 6.70686L5.70717 8.70686L5.05882 9.3552C5.10058 9.82952 5.16376 10.286 5.24573 10.7199C6.08918 10.8816 7.01908 10.9722 7.99997 10.9722C8.98086 10.9722 9.91076 10.8816 10.7542 10.7199C10.9118 9.88554 11 8.96758 11 8C11 5.98515 10.6178 4.18543 10.0218 2.90814C9.40674 1.59025 8.65682 1 7.99997 1C7.84027 1 7.67508 1.03489 7.50765 1.10665ZM1.46776 5.47876C1.1679 6.25515 1.00247 7.09841 1 7.98C1.00467 8.63497 1.59546 9.38138 2.90811 9.99395C3.29049 10.1724 3.71968 10.3317 4.18744 10.4672C4.08533 9.81584 4.02289 9.12882 4.00519 8.41909L2.29295 6.70686C1.92957 6.34348 1.65451 5.92522 1.46776 5.47876ZM5.97819 13.0919C5.79546 12.7003 5.63284 12.2597 5.49517 11.7788C6.28487 11.9047 7.12754 11.9722 7.99997 11.9722C8.8724 11.9722 9.71507 11.9047 10.5048 11.7788C10.3671 12.2597 10.2045 12.7003 10.0218 13.0919C9.40674 14.4097 8.65682 15 7.99997 15C7.34312 15 6.5932 14.4097 5.97819 13.0919ZM5.07201 13.5147C4.80302 12.9384 4.57736 12.2794 4.40354 11.5597C3.69809 11.3871 3.05179 11.1645 2.48523 10.9001C2.08102 10.7115 1.70259 10.4937 1.3689 10.2484C2.06206 12.2934 3.67461 13.9141 5.71439 14.6184C5.47294 14.2878 5.25825 13.9138 5.07201 13.5147ZM11.5964 11.5597C11.4226 12.2794 11.1969 12.9384 10.9279 13.5147C10.7417 13.9138 10.527 14.2878 10.2856 14.6184C12.3253 13.9141 13.9379 12.2934 14.631 10.2484C14.2974 10.4937 13.9189 10.7115 13.5147 10.9001C12.9482 11.1645 12.3019 11.3871 11.5964 11.5597ZM11.8125 10.4672C11.9346 9.6884 12 8.85861 12 8C12 5.87272 11.5986 3.92243 10.9279 2.48526C10.7417 2.08617 10.527 1.71222 10.2856 1.38163C13.0233 2.32691 14.9914 4.92302 14.9999 7.98C14.9953 8.63497 14.4045 9.38138 13.0918 9.99395C12.7095 10.1724 12.2803 10.3317 11.8125 10.4672Z" fill="white" fill-opacity="0.5"/>
<path fill-rule="evenodd" clip-rule="evenodd" d="M4.99981 7.99975L2.99981 5.99975C1.89524 4.89518 1.89524 3.10432 2.99981 1.99975C4.10438 0.895183 5.89524 0.895183 6.99981 1.99975C8.10438 3.10432 8.10438 4.89518 6.99981 5.99975L4.99981 7.99975ZM4.99981 4.99988C5.5521 4.99988 5.99981 4.55216 5.99981 3.99988C5.99981 3.44759 5.5521 2.99987 4.99981 2.99987C4.44753 2.99987 3.99981 3.44759 3.99981 3.99988C3.99981 4.55216 4.44753 4.99988 4.99981 4.99988Z" fill="white"/>
</svg>
