<svg width="16" height="16" viewBox="0 0 16 16" fill="none" xmlns="http://www.w3.org/2000/svg">
<path fill-rule="evenodd" clip-rule="evenodd" d="M9.97133 8.51362C9.76353 8.39364 9.53901 8.32885 9.31474 8.31471L9.29289 8.29287C9.10536 8.10533 8.851 7.99997 8.58579 7.99997H7H6H5V5.99997H6.58579C6.851 5.99997 7.10536 5.89462 7.29289 5.70708L8.70711 4.29287C8.89464 4.10533 9 3.85098 9 3.58576V2.08296C8.67479 2.0284 8.34071 2 8 2C5.29247 2 3.00381 3.79337 2.25708 6.25705L6 9.99997V11L7 12V13.917C7.1192 13.937 7.23959 13.9535 7.36107 13.9664C7.37774 14.0011 7.39587 14.0355 7.41547 14.0695L7.91547 14.9355C7.9281 14.9574 7.94121 14.9788 7.95476 14.9999C4.10959 14.9755 1 11.8509 1 8V7.99997C1 7.10814 1.16678 6.25526 1.47085 5.47083L1.47086 5.47083C2.48491 2.85483 5.02585 1 8 1C8.33952 1 8.6734 1.02417 9 1.07089V1.07086C11.9274 1.4896 14.2706 3.71962 14.8578 6.58926C14.951 7.04494 15 7.51673 15 7.99997C15 8.10954 14.9975 8.21852 14.9925 8.32686C14.6707 8.28097 14.3318 8.33851 14.0285 8.51362L14.0049 8.52725V8.5C14.0049 7.66881 13.3311 6.995 12.4999 6.995H11.4999C10.6687 6.995 9.99493 7.66881 9.99493 8.5V8.52724L9.97133 8.51362Z" fill="white" fill-opacity="0.5"/>
<path fill-rule="evenodd" clip-rule="evenodd" d="M12.4999 8C12.7761 8 12.9999 8.22386 12.9999 8.5V9.17071C13.351 9.29481 13.6722 9.48242 13.9495 9.71974L14.531 9.38398C14.7702 9.24591 15.076 9.32784 15.214 9.56699L15.714 10.433C15.8521 10.6722 15.7702 10.978 15.531 11.116L14.9499 11.4515C14.9828 11.6294 14.9999 11.8127 14.9999 12C14.9999 12.1873 14.9828 12.3706 14.9499 12.5485L15.531 12.884C15.7702 13.022 15.8521 13.3278 15.714 13.567L15.214 14.433C15.076 14.6722 14.7702 14.7541 14.531 14.616L13.9495 14.2803C13.6722 14.5176 13.351 14.7052 12.9999 14.8293V15.5C12.9999 15.7761 12.7761 16 12.4999 16H11.4999C11.2238 16 10.9999 15.7761 10.9999 15.5V14.8293C10.6488 14.7052 10.3277 14.5176 10.0504 14.2803L9.46883 14.616C9.22969 14.7541 8.92389 14.6722 8.78582 14.433L8.28582 13.567C8.14775 13.3278 8.22969 13.022 8.46883 12.884L9.04995 12.5485C9.0171 12.3706 8.99993 12.1873 8.99993 12C8.99993 11.8127 9.0171 11.6294 9.04995 11.4515L8.46883 11.116C8.22969 10.978 8.14775 10.6722 8.28582 10.433L8.78582 9.56698C8.92389 9.32784 9.22969 9.2459 9.46883 9.38397L10.0504 9.71973C10.3277 9.48242 10.6488 9.29481 10.9999 9.17071V8.5C10.9999 8.22386 11.2238 8 11.4999 8H12.4999ZM13.4999 12C13.4999 12.8284 12.8284 13.5 11.9999 13.5C11.1715 13.5 10.4999 12.8284 10.4999 12C10.4999 11.1716 11.1715 10.5 11.9999 10.5C12.8284 10.5 13.4999 11.1716 13.4999 12Z" fill="white"/>
</svg>
