<svg width="16" height="16" viewBox="0 0 16 16" fill="none" xmlns="http://www.w3.org/2000/svg">
<path fill-rule="evenodd" clip-rule="evenodd" d="M7 14.9291V14V13.917V13V12L6 11V9.99997L2.25708 6.25705C3.00381 3.79337 5.29247 2 8 2C8.34071 2 8.67479 2.0284 9 2.08296V3.58576C9 3.85098 8.89464 4.10533 8.70711 4.29287L7.29289 5.70708C7.10536 5.89462 6.851 5.99997 6.58579 5.99997H5V7.99997H6H7H8.26758C8.61339 7.40219 9.25973 7 10 7H14.9291C14.9093 6.86174 14.8855 6.72479 14.8578 6.58926C14.2706 3.71962 11.9274 1.4896 9 1.07086V1.07089C8.6734 1.02417 8.33952 1 8 1C5.02585 1 2.48491 2.85483 1.47086 5.47083L1.47085 5.47083C1.16678 6.25526 1 7.10814 1 7.99997V8C1 11.5265 3.60771 14.4439 7 14.9291Z" fill="white" fill-opacity="0.5"/>
<path fill-rule="evenodd" clip-rule="evenodd" d="M16 10L15 10V13V14V15C15 15.5523 14.5523 16 14 16H9C8.44772 16 8 15.5523 8 15V14H14V13H9V10V9C9 8.44772 9.44771 8 10 8H15C15.5523 8 16 8.44771 16 9V10Z" fill="white"/>
</svg>
