<svg width="16" height="16" viewBox="0 0 16 16" fill="none" xmlns="http://www.w3.org/2000/svg">
<path fill-rule="evenodd" clip-rule="evenodd" d="M5.49517 11.7788C5.63284 12.2597 5.79546 12.7003 5.97819 13.0919C6.5932 14.4097 7.34312 15 7.99997 15C8.65682 15 9.40674 14.4097 10.0218 13.0919C10.2045 12.7003 10.3671 12.2597 10.5048 11.7788C9.71507 11.9047 8.8724 11.9722 7.99997 11.9722C7.12754 11.9722 6.28487 11.9047 5.49517 11.7788ZM4.40354 11.5597C4.57736 12.2794 4.80302 12.9384 5.07201 13.5147C5.25825 13.9138 5.47294 14.2878 5.71439 14.6184C3.67461 13.9141 2.06206 12.2934 1.3689 10.2484C1.70259 10.4937 2.08102 10.7115 2.48523 10.9001C3.05179 11.1645 3.69809 11.3871 4.40354 11.5597ZM5.24573 10.7199C6.08918 10.8816 7.01908 10.9722 7.99997 10.9722C8.98086 10.9722 9.91076 10.8816 10.7542 10.7199C10.9118 9.88554 11 8.96758 11 8C11 5.98515 10.6178 4.18543 10.0218 2.90814C9.40674 1.59025 8.65682 1 7.99997 1C7.34313 1 6.59321 1.59025 5.97819 2.90814C5.38212 4.18543 4.99997 5.98515 4.99997 8C4.99997 8.96758 5.0881 9.88554 5.24573 10.7199ZM5.71439 1.38163C5.47294 1.71222 5.25825 2.08617 5.07201 2.48526C4.40132 3.92243 3.99997 5.87272 3.99997 8C3.99997 8.85861 4.06536 9.6884 4.18744 10.4672C3.71968 10.3317 3.29049 10.1724 2.90811 9.99395C1.59546 9.38138 1.00467 8.63497 1 7.98C1.00855 4.92302 2.97666 2.32691 5.71439 1.38163ZM10.9279 13.5147C11.1969 12.9384 11.4226 12.2794 11.5964 11.5597C12.3019 11.3871 12.9482 11.1645 13.5147 10.9001C13.9189 10.7115 14.2974 10.4937 14.631 10.2484C13.9379 12.2934 12.3253 13.9141 10.2856 14.6184C10.527 14.2878 10.7417 13.9138 10.9279 13.5147ZM12 8C12 8.85861 11.9346 9.6884 11.8125 10.4672C12.2803 10.3317 12.7095 10.1724 13.0918 9.99395C14.4045 9.38138 14.9953 8.63497 14.9999 7.98C14.9914 4.92302 13.0233 2.32691 10.2856 1.38163C10.527 1.71222 10.7417 2.08617 10.9279 2.48526C11.5986 3.92243 12 5.87272 12 8Z" fill="white"/>
</svg>
