<svg width="16" height="16" viewBox="0 0 16 16" fill="none" xmlns="http://www.w3.org/2000/svg">
<path fill-rule="evenodd" clip-rule="evenodd" d="M11 10.6458C10.2671 11.4762 9.19469 12 8 12C7.6547 12 7.31962 11.9562 7 11.874V11L6 9.99997V8.99997L4.10135 7.10133C4.50916 5.32492 6.09985 4 8 4C8.3453 4 8.68038 4.04375 9 4.12602V4.58576C9 4.85098 8.89464 5.10533 8.70711 5.29287L7.29289 6.70708C7.10536 6.89462 6.851 6.99997 6.58579 6.99997H6V7.99997H8H8.58579C8.851 7.99997 9.10536 8.10533 9.29289 8.29287L10.7071 9.70708C10.8946 9.89462 11 10.149 11 10.4142V10.6458ZM12.1483 10.7923C11.25 12.1241 9.72728 13 8 13C5.23858 13 3 10.7614 3 8C3 8 3 7.99999 3 7.99999C3 7.51356 3.06946 7.04335 3.19901 6.59875C3.19901 6.59875 3.19901 6.59875 3.19901 6.59875C3.80489 4.51937 5.72501 3 8 3C8.34247 3 8.67689 3.03443 9 3.10002V3.10001C10.3052 3.36496 11.4258 4.13835 12.1461 5.20445C12.6852 6.00246 13 6.96447 13 8C13 9.03414 12.686 9.99495 12.1483 10.7923Z" fill="white" fill-opacity="0.5"/>
<path fill-rule="evenodd" clip-rule="evenodd" d="M8 14C11.3137 14 14 11.3137 14 8C14 4.68629 11.3137 2 8 2C4.68629 2 2 4.68629 2 8C2 11.3137 4.68629 14 8 14ZM8 15C11.866 15 15 11.866 15 8C15 4.13401 11.866 1 8 1C4.13401 1 1 4.13401 1 8C1 11.866 4.13401 15 8 15Z" fill="white"/>
</svg>
