<svg width="16" height="16" viewBox="0 0 16 16" fill="none" xmlns="http://www.w3.org/2000/svg">
<path fill-rule="evenodd" clip-rule="evenodd" d="M5.67311 6.23414C5.32293 6.66577 4.74312 6.87893 4.19358 6.76597C4.12113 6.98959 4.06784 7.22183 4.03564 7.46076C4.13238 7.7524 4.43366 8.0899 5.04148 8.39381C5.18876 8.46745 5.34877 8.53601 5.52007 8.59856C5.50672 8.39921 5.49985 8.19918 5.49985 7.99998C5.49985 7.40532 5.56106 6.80322 5.67311 6.23414ZM10.5001 7.99998C10.5001 6.8358 10.2655 5.64308 9.87427 4.72539C9.82466 4.60904 9.77186 4.49552 9.71585 4.38586C10.9117 4.95473 11.7805 6.09961 11.9637 7.4618C11.8666 7.7532 11.5653 8.09026 10.9582 8.39381C10.8433 8.45126 10.7207 8.50562 10.5909 8.55645C10.5534 8.56706 10.5165 8.57909 10.4803 8.59248C10.4934 8.39514 10.5001 8.19715 10.5001 7.99998ZM9.45222 8.87257C9.48346 8.58496 9.5001 8.29199 9.5001 7.99998C9.5001 6.95488 9.28696 5.8976 8.9544 5.1176C8.78768 4.72659 8.60131 4.42974 8.4179 4.23867C8.23627 4.04944 8.09624 4.00129 8.00392 4L7.99961 4L7.99622 4C7.9039 4.00131 7.76387 4.04948 7.58223 4.23869C7.3988 4.42976 7.21241 4.72662 7.04566 5.11763C6.71304 5.89763 6.49985 6.9549 6.49985 7.99998C6.49985 8.29201 6.5165 8.58499 6.54775 8.87261C6.99608 8.95437 7.48501 9.00003 7.99985 9.00003C8.5148 9.00003 9.00381 8.95436 9.45222 8.87257ZM6.72948 9.91416C7.13659 9.97043 7.56267 10 7.99985 10C8.43715 10 8.86333 9.97042 9.27054 9.91412C9.1848 10.2652 9.07782 10.5929 8.9544 10.8823C8.78768 11.2734 8.60131 11.5702 8.4179 11.7613C8.23374 11.9531 8.09235 12 8.0001 12C7.90784 12 7.76643 11.9531 7.58223 11.7613C7.3988 11.5702 7.21241 11.2733 7.04566 10.8823C6.92222 10.5929 6.81523 10.2652 6.72948 9.91416ZM5.6591 9.69309C5.76683 10.2651 5.92587 10.8057 6.12581 11.2746C6.17552 11.3911 6.22843 11.5049 6.28456 11.6147C5.23252 11.1147 4.43336 10.1689 4.1312 9.02142C4.27828 9.11902 4.43387 9.20804 4.59426 9.28823C4.91346 9.44783 5.27153 9.58394 5.6591 9.69309Z" fill="white" fill-opacity="0.5"/>
<path fill-rule="evenodd" clip-rule="evenodd" d="M5.00001 5.29289C5.00001 5.73835 4.46143 5.96143 4.14645 5.64645L3.07345 4.57344C1.44217 6.91301 1.67014 10.1554 3.75736 12.2426L4.11091 12.5962L3.40381 13.3033L3.05025 12.9497C0.571543 10.471 0.340362 6.59589 2.35671 3.8567L1.35356 2.85355C1.03858 2.53857 1.26166 2 1.70711 2H5.00001V5.29289ZM11 10.7071C11 10.2616 11.5386 10.0386 11.8536 10.3535L12.9266 11.4265C14.5578 9.08697 14.3299 5.84456 12.2426 3.75734L11.8891 3.40379L12.5962 2.69668L12.9498 3.05023C15.4285 5.52894 15.6596 9.40409 13.6433 12.1433L14.6464 13.1464C14.9614 13.4614 14.7383 14 14.2929 14H11L11 10.7071Z" fill="white"/>
</svg>
