<svg width="16" height="16" viewBox="0 0 16 16" fill="none" xmlns="http://www.w3.org/2000/svg">
<path fill-rule="evenodd" clip-rule="evenodd" d="M8.99997 6H10.8699C10.7102 4.80313 10.4117 3.74382 10.0218 2.90814C9.40674 1.59025 8.65682 1 7.99997 1C7.34313 1 6.59321 1.59025 5.97819 2.90814C5.38212 4.18543 4.99997 5.98515 4.99997 8C4.99997 8.96758 5.0881 9.88554 5.24573 10.7199C5.79686 10.8255 6.38491 10.9008 6.99997 10.9403V9V8C6.99997 6.89543 7.8954 6 8.99997 6ZM14 6C14.2659 6 14.5197 6.05191 14.7519 6.14614C14.141 3.91615 12.4549 2.13065 10.2856 1.38163C10.527 1.71222 10.7417 2.08617 10.9279 2.48526C11.3814 3.45692 11.7117 4.66312 11.8781 6H14ZM5.07201 13.5147C4.80302 12.9384 4.57736 12.2794 4.40354 11.5597C3.69809 11.3871 3.05179 11.1645 2.48523 10.9001C2.08102 10.7115 1.70259 10.4937 1.3689 10.2484C2.06206 12.2934 3.67461 13.9141 5.71439 14.6184C5.47294 14.2878 5.25825 13.9138 5.07201 13.5147ZM5.07201 2.48526C5.25825 2.08617 5.47294 1.71222 5.71439 1.38163C2.97666 2.32691 1.00855 4.92302 1 7.98C1.00467 8.63497 1.59546 9.38138 2.90811 9.99395C3.29049 10.1724 3.71968 10.3317 4.18744 10.4672C4.06536 9.6884 3.99997 8.85861 3.99997 8C3.99997 5.87272 4.40132 3.92243 5.07201 2.48526Z" fill="white" fill-opacity="0.5"/>
<path fill-rule="evenodd" clip-rule="evenodd" d="M15 9L14 9V12V13V14C14 14.5523 13.5523 15 13 15H8C7.44772 15 7 14.5523 7 14V13H13V12H8V9V8C8 7.44772 8.44771 7 9 7H14C14.5523 7 15 7.44771 15 8V9Z" fill="white"/>
</svg>
