<svg width="16" height="16" viewBox="0 0 16 16" fill="none" xmlns="http://www.w3.org/2000/svg">
<path fill-rule="evenodd" clip-rule="evenodd" d="M5.49517 11.7788C5.63284 12.2597 5.79546 12.7003 5.97819 13.0919C6.26046 13.6967 6.57116 14.1483 6.88822 14.4599L7.388 11.961C6.73303 11.9371 6.09864 11.875 5.49517 11.7788ZM10.9841 7.2917L9.02532 6.2035C7.87035 5.56185 6.49355 6.56684 6.75267 7.86242L7.37212 10.9597C6.62157 10.9297 5.90708 10.8467 5.24573 10.7199C5.0881 9.88554 4.99997 8.96758 4.99997 8C4.99997 5.98515 5.38212 4.18543 5.97819 2.90814C6.59321 1.59025 7.34313 1 7.99997 1C8.65682 1 9.40674 1.59025 10.0218 2.90814C10.547 4.03373 10.9062 5.56501 10.9841 7.2917ZM14.3692 9.17232L11.9994 7.85575C11.9817 5.78464 11.5834 3.88988 10.9279 2.48526C10.7417 2.08617 10.527 1.71222 10.2856 1.38163C13.0233 2.32691 14.9914 4.92302 14.9999 7.98C14.9972 8.36127 14.7959 8.77352 14.3692 9.17232ZM4.40354 11.5597C4.57736 12.2794 4.80302 12.9384 5.07201 13.5147C5.25825 13.9138 5.47294 14.2878 5.71439 14.6184C3.67461 13.9141 2.06206 12.2934 1.3689 10.2484C1.70259 10.4937 2.08102 10.7115 2.48523 10.9001C3.05179 11.1645 3.69809 11.3871 4.40354 11.5597ZM5.71439 1.38163C5.47294 1.71222 5.25825 2.08617 5.07201 2.48526C4.40132 3.92243 3.99997 5.87272 3.99997 8C3.99997 8.85861 4.06536 9.6884 4.18744 10.4672C3.71968 10.3317 3.29049 10.1724 2.90811 9.99395C1.59546 9.38138 1.00467 8.63497 1 7.98C1.00855 4.92302 2.97666 2.32691 5.71439 1.38163Z" fill="white" fill-opacity="0.5"/>
<path fill-rule="evenodd" clip-rule="evenodd" d="M8.40019 11H12.0001V12H8.40019L7.73344 15.3338C7.6415 15.7935 8.13004 16.1501 8.53987 15.9224L15.7135 11.9371C16.0564 11.7466 16.0564 11.2535 15.7135 11.063L8.53987 7.07764C8.13004 6.84996 7.6415 7.20657 7.73344 7.66629L8.40019 11Z" fill="white"/>
</svg>
