<svg width="16" height="16" viewBox="0 0 16 16" fill="none" xmlns="http://www.w3.org/2000/svg">
<path fill-rule="evenodd" clip-rule="evenodd" d="M8 1L5.85355 3.14645C5.53857 3.46143 5.76165 4 6.20711 4H9.79289C10.2383 4 10.4614 3.46143 10.1464 3.14645L8 1ZM11.7481 7.06588L8.24807 5.06588C8.09435 4.97804 7.90565 4.97804 7.75193 5.06588L4.25193 7.06588L0.751931 9.06588C0.596143 9.1549 0.5 9.32057 0.5 9.5C0.5 9.67943 0.596143 9.8451 0.751931 9.93412L4.25193 11.9341L7.75193 13.9341C7.90565 14.022 8.09435 14.022 8.24807 13.9341L11.7481 11.9341L15.2481 9.93412C15.4039 9.8451 15.5 9.67943 15.5 9.5C15.5 9.32057 15.4039 9.1549 15.2481 9.06588L11.7481 7.06588ZM8 8.92412L5.50778 7.5L8 6.07588L10.4922 7.5L8 8.92412ZM9.00778 9.5L11.5 8.07588L13.9922 9.5L11.5 10.9241L9.00778 9.5ZM8 10.0759L10.4922 11.5L8 12.9241L5.50778 11.5L8 10.0759ZM6.99222 9.5L4.5 10.9241L2.00778 9.5L4.5 8.07588L6.99222 9.5Z" fill="white"/>
</svg>
