<svg width="16" height="16" viewBox="0 0 16 16" fill="none" xmlns="http://www.w3.org/2000/svg">
<path fill-rule="evenodd" clip-rule="evenodd" d="M3 13C2.44772 13 2 13.4477 2 14L2 15L1 15L1 16L15 16L15 15L14 15L14 14C14 13.4477 13.5523 13 13 13L3 13ZM3 11L3 5L3 4L3 1C3 0.447716 3.44771 -1.06993e-07 4 -1.31134e-07L13 -5.24537e-07C13.5523 -5.48678e-07 14 0.447713 14 0.999999L14 2.26756C13.7058 2.09739 13.3643 2 13 2C12.1276 2 11.3857 2.55857 11.1123 3.33759C10.7943 3.12437 10.4117 3 10 3C9.1276 3 8.38566 3.55857 8.11231 4.33759C7.79427 4.12437 7.41166 4 7 4C5.89543 4 5 4.89543 5 6L5 8L5 11C5 11.5523 4.55228 12 4 12C3.44772 12 3 11.5523 3 11ZM8 6C8 5.82985 7.95751 5.66963 7.88255 5.52936C7.71421 5.21434 7.38214 5 7 5C6.45025 5 6.00412 5.44361 6.00003 5.99239L6 6L6 8C6 8.55228 6.44771 9 7 9C7.55228 9 8 8.55228 8 8L8 6ZM11 5C11 4.91634 10.9897 4.83508 10.9704 4.75741C10.862 4.32235 10.4686 4 10 4C9.44772 4 9 4.44771 9 5L9 5.25L9 7C9 7.55228 9.44772 8 10 8C10.5523 8 11 7.55228 11 7L11 5ZM14 4C14 3.8614 13.9718 3.72938 13.9208 3.60938C13.7687 3.2512 13.4137 3 13 3C12.4477 3 12 3.44772 12 4L12 4.5L12 6C12 6.55228 12.4477 7 13 7C13.5523 7 14 6.55228 14 6L14 4Z" fill="white"/>
</svg>
