<svg width="16" height="16" viewBox="0 0 16 16" fill="none" xmlns="http://www.w3.org/2000/svg">
<path fill-rule="evenodd" clip-rule="evenodd" d="M1 0L7 0L8 0L11 0C11.5523 0 12 0.447715 12 1L12 7H11H10V8V9H9.73244C9.49508 8.58968 9.11613 8.27152 8.66241 8.11231C8.87563 7.79427 9 7.41166 9 7C9 6.1276 8.44143 5.38566 7.66241 5.11231C7.87563 4.79427 8 4.41166 8 4C8 2.89543 7.10457 2 6 2L4 2L1 2C0.447715 2 0 1.55228 0 1C0 0.447715 0.447715 0 1 0ZM8 9C8.55228 9 9 9.44772 9 10C9 10.4137 8.7488 10.7687 8.39062 10.9208C8.27062 10.9718 8.1386 11 8 11H6C5.44772 11 5 10.5523 5 10C5 9.44771 5.44772 9 6 9H7.5H8ZM6.00761 3.00003C6.00508 3.00001 6.00254 3 6 3L4 3C3.44772 3 3 3.44772 3 4C3 4.55228 3.44772 5 4 5H6C6.17015 5 6.33037 4.95751 6.47064 4.88255C6.78566 4.71421 7 4.38214 7 4C7 3.45025 6.55639 3.00412 6.00761 3.00003ZM6.75 6H5C4.44772 6 4 6.44771 4 7C4 7.55228 4.44772 8 5 8L7 8C7.08366 8 7.16492 7.98973 7.24259 7.97037C7.67765 7.86196 8 7.46862 8 7C8 6.44772 7.55228 6 7 6H6.75Z" fill="white" fill-opacity="0.5"/>
<path fill-rule="evenodd" clip-rule="evenodd" d="M11 8H12V10H14V8H15V10H16V12.3787C16 12.7765 15.842 13.158 15.5607 13.4393L14 15V16H12V15L10.4393 13.4393C10.158 13.158 10 12.7765 10 12.3787V10H11V8Z" fill="white"/>
</svg>
