<svg width="16" height="16" viewBox="0 0 16 16" fill="none" xmlns="http://www.w3.org/2000/svg">
<path fill-rule="evenodd" clip-rule="evenodd" d="M5 4H6V7C6 8.65685 7.34315 10 9 10H12C12 11.1046 11.1046 12 10 12H6C4.89543 12 4 11.1046 4 10V5C4 4.44772 4.44772 4 5 4ZM2 7H3V10C3 11.6569 4.34315 13 6 13H9C9 14.1046 8.10457 15 7 15H3C1.89543 15 1 14.1046 1 13V8C1 7.44772 1.44772 7 2 7Z" fill="white" fill-opacity="0.5"/>
<path fill-rule="evenodd" clip-rule="evenodd" d="M8 1C7.44772 1 7 1.44772 7 2V7C7 8.10457 7.89543 9 9 9H13C14.1046 9 15 8.10457 15 7V2C15 1.44772 14.5523 1 14 1H8ZM10 3H9V5H10V3ZM13 6C13 7.10457 12.1046 8 11 8C9.89543 8 9 7.10457 9 6H13ZM13 3H12V5H13V3Z" fill="white"/>
</svg>
