<svg width="16" height="16" viewBox="0 0 16 16" fill="none" xmlns="http://www.w3.org/2000/svg">
<path fill-rule="evenodd" clip-rule="evenodd" d="M11.4999 1C11.7761 1 11.9999 1.22386 11.9999 1.5V2.17071C12.351 2.29481 12.6722 2.48242 12.9495 2.71974L13.531 2.38398C13.7702 2.24591 14.076 2.32784 14.214 2.56699L14.714 3.43302C14.8521 3.67216 14.7702 3.97796 14.531 4.11603L13.9499 4.45154C13.9828 4.62936 13.9999 4.81267 13.9999 5C13.9999 5.18733 13.9828 5.37065 13.9499 5.54847L14.531 5.88398C14.7702 6.02205 14.8521 6.32784 14.714 6.56699L14.214 7.43302C14.076 7.67216 13.7702 7.7541 13.531 7.61603L12.9495 7.28027C12.6722 7.51758 12.351 7.70519 11.9999 7.82929V8.5C11.9999 8.77614 11.7761 9 11.4999 9H10.4999C10.2266 9 10.0044 8.78061 10 8.5083V8L9.99993 7.9834V7.82929L9.99259 7.82669C9.90475 6.80327 9.04618 6 8 6H7.33198C7.36916 5.95461 7.41502 5.91504 7.46883 5.88397L8.04995 5.54846C8.0171 5.37064 7.99993 5.18733 7.99993 5C7.99993 4.81267 8.0171 4.62935 8.04995 4.45153L7.46883 4.11602C7.22969 3.97795 7.14775 3.67216 7.28582 3.43301L7.78582 2.56698C7.92389 2.32784 8.22969 2.2459 8.46883 2.38397L9.05039 2.71973C9.3277 2.48242 9.64882 2.29481 9.99993 2.17071V1.5C9.99993 1.22386 10.2238 1 10.4999 1H11.4999ZM12.4999 5C12.4999 5.82843 11.8284 6.5 10.9999 6.5C10.1715 6.5 9.49993 5.82843 9.49993 5C9.49993 4.17157 10.1715 3.5 10.9999 3.5C11.8284 3.5 12.4999 4.17157 12.4999 5Z" fill="white" fill-opacity="0.5"/>
<path fill-rule="evenodd" clip-rule="evenodd" d="M2 7C1.44772 7 1 7.44772 1 8V13C1 14.1046 1.89543 15 3 15H7C8.10457 15 9 14.1046 9 13V8C9 7.44772 8.55228 7 8 7H2ZM4 9H3V11H4V9ZM7 12C7 13.1046 6.10457 14 5 14C3.89543 14 3 13.1046 3 12H7ZM7 9H6V11H7V9Z" fill="white"/>
</svg>
