<svg width="16" height="16" viewBox="0 0 16 16" fill="none" xmlns="http://www.w3.org/2000/svg">
<path fill-rule="evenodd" clip-rule="evenodd" d="M1 9.5C2.44942 9.5 3.24511 9.00975 4.1328 8.41795L4.26453 8.32984C5.16267 7.72817 6.24963 7 8 7C9.75037 7 10.8373 7.72817 11.7355 8.32984L11.8672 8.41795C12.7549 9.00975 13.5506 9.5 15 9.5V7.5C15 6.94772 14.5392 6.51875 14.0166 6.33995C12.7878 5.91949 11.9836 4.7369 11.2044 3.59119C10.3067 2.27111 9.44222 1 8 1C6.55778 1 5.69334 2.27111 4.79559 3.59119C4.01643 4.7369 3.21219 5.91949 1.98336 6.33995C1.46082 6.51875 1 6.94772 1 7.5V9.5Z" fill="white" fill-opacity="0.5"/>
<path d="M1 10.5V13.5C1 14.3284 1.67157 15 2.5 15H13.5C14.3284 15 15 14.3284 15 13.5V10.5C11.5 10.5 11 8 8 8C5 8 4.5 10.5 1 10.5Z" fill="white"/>
</svg>
