<svg width="16" height="16" viewBox="0 0 16 16" fill="none" xmlns="http://www.w3.org/2000/svg">
<path fill-rule="evenodd" clip-rule="evenodd" d="M1 9.5C2.44942 9.5 3.24511 9.00975 4.1328 8.41795L4.26453 8.32984C5.16267 7.72817 6.24963 7 8 7C9.75037 7 10.8373 7.72817 11.7355 8.32984L11.8672 8.41795C12.7549 9.00975 13.5506 9.5 15 9.5V7.5C15 6.94772 14.5392 6.51875 14.0166 6.33995C12.7878 5.91949 11.9836 4.7369 11.2044 3.59119C10.3067 2.27111 9.44222 1 8 1C6.55778 1 5.69334 2.27111 4.79559 3.59119C4.01643 4.7369 3.21219 5.91949 1.98336 6.33995C1.46082 6.51875 1 6.94772 1 7.5V9.5Z" fill="white" fill-opacity="0.5"/>
<path fill-rule="evenodd" clip-rule="evenodd" d="M2 12V11.4351C2.79592 11.3279 3.44365 11.098 4 10.8233V12H2ZM4 14V12H6V14H4ZM8 14H10V12H12V14H13.5C13.7761 14 14 13.7761 14 13.5V12H12V10.8233C11.5327 10.5925 11.1298 10.3301 10.7578 10.0821L10.6913 10.0377C10.6723 10.025 10.6535 10.0125 10.6348 10H10V9.59109C9.39749 9.22897 8.83144 9 8 9V10H6V9.59109C6.03662 9.56908 6.07312 9.54756 6.10954 9.52655C5.87068 9.66431 5.62895 9.82415 5.36521 10H6V12H8V14ZM8 12V10H10V12H8ZM15 11.5V10.5C13.1826 10.5 12.1741 9.82592 11.2044 9.17781C10.3067 8.57778 9.44222 8 8 8C6.55778 8 5.69334 8.57778 4.79559 9.17781C3.82592 9.82592 2.81741 10.5 1 10.5V11.5V13.5C1 14.3284 1.67157 15 2.5 15H13.5C14.3284 15 15 14.3284 15 13.5V11.5Z" fill="white"/>
</svg>
