<svg width="16" height="16" viewBox="0 0 16 16" fill="none" xmlns="http://www.w3.org/2000/svg">
<path fill-rule="evenodd" clip-rule="evenodd" d="M3 10C3.91474 10 4.40872 9.66682 5.03564 9.19872L5.13864 9.12146C5.77396 8.64385 6.6304 8 8 8C9.3696 8 10.226 8.64385 10.8614 9.12146L10.9644 9.19872C11.5913 9.66682 12.0853 10 13 10V7.75C13 7.33579 12.6531 7.01458 12.2643 6.8717C11.4053 6.55599 10.8383 5.70717 10.2889 4.8845C9.64762 3.92445 9.03016 3 8 3C6.96984 3 6.35238 3.92445 5.71114 4.8845C5.16166 5.70717 4.59471 6.55599 3.73566 6.8717C3.34687 7.01458 3 7.33579 3 7.75V10Z" fill="white" fill-opacity="0.5"/>
<path fill-rule="evenodd" clip-rule="evenodd" d="M1 2.5C1 1.67157 1.67157 1 2.5 1H4.5H5V2H4.5H2.5C2.22386 2 2 2.22386 2 2.5V4.5V5H1V4.5V2.5ZM3 11V13H13V11C11.7019 11 10.9815 10.4607 10.2889 9.94225C9.64762 9.46222 9.03016 9 8 9C6.96984 9 6.35238 9.46222 5.71114 9.94225C5.01852 10.4607 4.29815 11 3 11ZM13.5 15C14.3284 15 15 14.3284 15 13.5V11.5V11H14V11.5V13.5C14 13.7761 13.7761 14 13.5 14H11.5H11V15H11.5H13.5ZM13.5 1C14.3284 1 15 1.67157 15 2.5V4.5V5H14V4.5V2.5C14 2.22386 13.7761 2 13.5 2L11.5 2L11 2V1H11.5H13.5ZM1 13.5C1 14.3284 1.67157 15 2.5 15H4.5H5V14H4.5H2.5C2.22386 14 2 13.7761 2 13.5L2 11.5L2 11H1V11.5V13.5Z" fill="white"/>
</svg>
