<svg width="16" height="16" viewBox="0 0 16 16" fill="none" xmlns="http://www.w3.org/2000/svg">
<path fill-rule="evenodd" clip-rule="evenodd" d="M8 15C9.10457 15 10 14.1046 10 13V9.23611C9.46924 9.71115 8.76835 10 8 10C6.34315 10 5 8.65685 5 7V3H2.5C1.67157 3 1 3.67157 1 4.5V11.5C1 12.3284 1.67157 13 2.5 13H5L6 13C6 14.1046 6.89543 15 8 15Z" fill="white" fill-opacity="0.5"/>
<path fill-rule="evenodd" clip-rule="evenodd" d="M13.5 13C14.3284 13 15 12.3284 15 11.5V4.5C15 3.67157 14.3284 3 13.5 3H11H10C10 1.89543 9.10457 1 8 1C6.89543 1 6 1.89543 6 3V7C6 8.10457 6.89543 9 8 9C9.10457 9 10 8.10457 10 7H11V13H13.5ZM8 2C7.44772 2 7 2.44771 7 3C7 3.55229 7.44772 4 8 4C8.55228 4 9 3.55229 9 3C9 2.44771 8.55228 2 8 2Z" fill="white"/>
</svg>
