<svg width="16" height="16" viewBox="0 0 16 16" fill="none" xmlns="http://www.w3.org/2000/svg">
<path fill-rule="evenodd" clip-rule="evenodd" d="M6.29289 3.70711C6.10536 3.89464 6 4.149 6 4.41421V7L1 12V15H4V13H6V11H8C8 9.89543 8.89543 9 10 9C10 7.89543 10.8954 7 12 7H14C14.2886 7 14.563 7.06114 14.8108 7.17116C14.933 7.00186 15 6.79728 15 6.58579V4.41421C15 4.149 14.8946 3.89464 14.7071 3.70711L12.2929 1.29289C12.1054 1.10536 11.851 1 11.5858 1H9.41421C9.149 1 8.89464 1.10536 8.70711 1.29289L6.29289 3.70711ZM12 5C12.5523 5 13 4.55228 13 4C13 3.44772 12.5523 3 12 3C11.4477 3 11 3.44772 11 4C11 4.55228 11.4477 5 12 5Z" fill="white" fill-opacity="0.5"/>
<path fill-rule="evenodd" clip-rule="evenodd" d="M15 12C15 12.5523 14.5523 13 14 13V11C14 9.89543 13.1046 9 12 9H11C11 8.44772 11.4477 8 12 8H14C14.5523 8 15 8.44772 15 9V12ZM9 14C9 14.5523 9.44772 15 10 15H12C12.5523 15 13 14.5523 13 14V11C13 10.4477 12.5523 10 12 10H10C9.44772 10 9 10.4477 9 11V14Z" fill="white"/>
</svg>
