<svg width="16" height="16" viewBox="0 0 16 16" fill="none" xmlns="http://www.w3.org/2000/svg">
<path fill-rule="evenodd" clip-rule="evenodd" d="M6.29289 3.70711C6.10536 3.89464 6 4.149 6 4.41421V7L1 12V15H4V13H6V11H7.02746C7.27619 8.75003 9.18372 7 11.5 7C12.4875 7 13.4006 7.31806 14.1427 7.85732L14.7071 7.29289C14.8946 7.10536 15 6.851 15 6.58579V4.41421C15 4.149 14.8946 3.89464 14.7071 3.70711L12.2929 1.29289C12.1054 1.10536 11.851 1 11.5858 1H9.41421C9.149 1 8.89464 1.10536 8.70711 1.29289L6.29289 3.70711ZM12 5C12.5523 5 13 4.55228 13 4C13 3.44772 12.5523 3 12 3C11.4477 3 11 3.44772 11 4C11 4.55228 11.4477 5 12 5Z" fill="white" fill-opacity="0.5"/>
<path fill-rule="evenodd" clip-rule="evenodd" d="M11.5 15C13.433 15 15 13.433 15 11.5C15 9.567 13.433 8 11.5 8C9.567 8 8 9.567 8 11.5C8 13.433 9.567 15 11.5 15ZM11 10V9H12V10H11ZM11 14V11H12V14H11Z" fill="white"/>
</svg>
