<svg width="16" height="16" viewBox="0 0 16 16" fill="none" xmlns="http://www.w3.org/2000/svg">
<path fill-rule="evenodd" clip-rule="evenodd" d="M6 4.41421C6 4.149 6.10536 3.89464 6.29289 3.70711L8.70711 1.29289C8.89464 1.10536 9.149 1 9.41421 1H11.5858C11.851 1 12.1054 1.10536 12.2929 1.29289L14.7071 3.70711C14.8946 3.89464 15 4.149 15 4.41421V6.58579C15 6.851 14.8946 7.10536 14.7071 7.29289L12.2929 9.70711C12.1054 9.89464 11.851 10 11.5858 10H9L8 11H6V13H4V15H1V12L6 7V4.41421ZM13 4C13 4.55228 12.5523 5 12 5C11.4477 5 11 4.55228 11 4C11 3.44772 11.4477 3 12 3C12.5523 3 13 3.44772 13 4Z" fill="white"/>
</svg>
