<svg width="16" height="16" viewBox="0 0 16 16" fill="none" xmlns="http://www.w3.org/2000/svg">
<path fill-rule="evenodd" clip-rule="evenodd" d="M9 7.5V7.12132L8.43934 6.56066L7.87868 6H1.5C0.671573 6 0 6.67157 0 7.5C0 8.32843 0.671573 9 1.5 9H7.87868L8.43934 8.43934L9 7.87868V7.5Z" fill="white" fill-opacity="0.5"/>
<path fill-rule="evenodd" clip-rule="evenodd" d="M12.0001 0V0.5V5.05C11.8385 5.01721 11.6713 5 11.5001 5C11.3289 5 11.1616 5.01722 11.0001 5.05002V0.5V0H12.0001ZM13.5859 6.12128C13.4001 5.84079 13.1593 5.59995 12.8788 5.41418L14.1465 4.14644L14.5001 3.79289L15.2072 4.5L14.8536 4.85355L13.5859 6.12128ZM12.8788 9.58582C13.1593 9.40005 13.4001 9.15921 13.5859 8.87872L14.8536 10.1464L15.2072 10.5L14.5001 11.2071L14.1465 10.8536L12.8788 9.58582ZM11.5001 10C11.6713 10 11.8385 9.98279 12.0001 9.95V14.5V15H11.0001V14.5V9.94998C11.1616 9.98278 11.3289 10 11.5001 10ZM9.4143 8.87867C9.60007 9.15916 9.84091 9.40001 10.1214 9.58578L8.85363 10.8536L8.50008 11.2071L7.79297 10.5L8.14652 10.1464L9.4143 8.87867ZM10.1214 5.41422C9.84091 5.6 9.60007 5.84084 9.4143 6.12133L8.14652 4.85355L7.79297 4.5L8.50008 3.79289L8.85363 4.14645L10.1214 5.41422ZM11.5001 9C12.3285 9 13.0001 8.32843 13.0001 7.5C13.0001 6.67157 12.3285 6 11.5001 6C10.6717 6 10.0001 6.67157 10.0001 7.5C10.0001 8.32843 10.6717 9 11.5001 9Z" fill="white"/>
</svg>
