<svg width="16" height="16" viewBox="0 0 16 16" fill="none" xmlns="http://www.w3.org/2000/svg">
<path fill-rule="evenodd" clip-rule="evenodd" d="M7 7.5V7.12132L7.56066 6.56066L8.12132 6H14.5C15.3284 6 16 6.67157 16 7.5C16 8.32843 15.3284 9 14.5 9H8.12132L7.56066 8.43934L7 7.87868V7.5Z" fill="white" fill-opacity="0.5"/>
<path fill-rule="evenodd" clip-rule="evenodd" d="M5.00008 0V0.5V5.05C4.83854 5.01721 4.67134 5 4.50012 5C4.32887 5 4.16165 5.01722 4.00008 5.05002V0.5V0H5.00008ZM6.58591 6.12128C6.40013 5.84079 6.15928 5.59995 5.87879 5.41418L7.14652 4.14644L7.50008 3.79289L8.20718 4.5L7.85363 4.85355L6.58591 6.12128ZM5.87879 9.58582C6.15928 9.40005 6.40013 9.15921 6.58591 8.87872L7.85363 10.1464L8.20718 10.5L7.50008 11.2071L7.14652 10.8536L5.87879 9.58582ZM4.50012 10C4.67134 10 4.83854 9.98279 5.00008 9.95V14.5V15H4.00008V14.5V9.94998C4.16165 9.98278 4.32887 10 4.50012 10ZM2.4143 8.87867C2.60007 9.15916 2.84091 9.40001 3.1214 9.58578L1.85363 10.8536L1.50008 11.2071L0.792971 10.5L1.14652 10.1464L2.4143 8.87867ZM3.1214 5.41422C2.84091 5.6 2.60007 5.84084 2.4143 6.12133L1.14652 4.85355L0.792969 4.5L1.50008 3.79289L1.85363 4.14645L3.1214 5.41422ZM4.50012 9C5.32855 9 6.00012 8.32843 6.00012 7.5C6.00012 6.67157 5.32855 6 4.50012 6C3.67169 6 3.00012 6.67157 3.00012 7.5C3.00012 8.32843 3.67169 9 4.50012 9Z" fill="white"/>
</svg>
