<svg width="16" height="16" viewBox="0 0 16 16" fill="none" xmlns="http://www.w3.org/2000/svg">
<path fill-rule="evenodd" clip-rule="evenodd" d="M10.4998 9C12.4328 9 13.9998 7.433 13.9998 5.5C13.9998 3.567 12.4328 2 10.4998 2C8.56685 2 6.99985 3.567 6.99985 5.5C6.99985 6.04009 7.12218 6.5516 7.34064 7.00835C7.39296 7.00283 7.44607 7 7.49985 7C8.32828 7 8.99985 7.67157 8.99985 8.5C8.99985 8.55378 8.99701 8.60689 8.99149 8.6592C9.44824 8.87767 9.95976 9 10.4998 9ZM8.55972 9.56144C9.14718 9.84257 9.80513 10 10.4998 10C12.9851 10 14.9998 7.98528 14.9998 5.5C14.9998 3.01472 12.9851 1 10.4998 1C8.01457 1 5.99985 3.01472 5.99985 5.5C5.99985 6.19472 6.15728 6.85267 6.43841 7.44012C6.16742 7.71151 5.99985 8.08618 5.99985 8.5C5.99985 8.73157 6.05232 8.95089 6.14603 9.14671L5.8534 9.43934C5.65814 9.6346 5.34156 9.6346 5.1463 9.43934L3.56051 7.85355C2.97472 7.26777 2.02498 7.26777 1.43919 7.85355L1.3534 7.93934C0.767616 8.52513 0.767615 9.47487 1.3534 10.0607L3.8534 12.5607C3.94717 12.6544 3.99985 12.7816 3.99985 12.9142V14.5V15H4.99985V14.5V12.9142C4.99985 12.5164 4.84181 12.1349 4.56051 11.8536L2.06051 9.35355C1.86525 9.15829 1.86525 8.84171 2.06051 8.64645L2.1463 8.56066C2.34156 8.3654 2.65814 8.3654 2.8534 8.56066L4.43919 10.1464C5.02497 10.7322 5.97472 10.7322 6.56051 10.1464L6.85314 9.85381C7.04896 9.94752 7.26828 10 7.49985 10C7.91367 10 8.28834 9.83243 8.55972 9.56144Z" fill="white"/>
</svg>
