<svg width="16" height="16" viewBox="0 0 16 16" fill="none" xmlns="http://www.w3.org/2000/svg">
<path fill-rule="evenodd" clip-rule="evenodd" d="M6.83558 3.13705C5.15132 3.64965 4.00023 5.20321 4.00023 6.96375V11C4.00023 11.0895 4.012 11.1763 4.03407 11.2589L1.14652 14.1464L0.792969 14.5L1.50008 15.2071L1.85363 14.8536L4.7411 11.9661C4.82374 11.9882 4.91061 12 5.00023 12H9V9.99997H12.6089L15.2273 1.39687C15.3437 1.0142 14.986 0.656484 14.6033 0.772948L6.83558 3.13705ZM9 3.99998V4.49998V6.99998H11.5H12V7.99998H11.5H8.70711L5.85355 10.8535L5.5 11.2071L4.79289 10.5L5.14645 10.1464L8 7.29287V4.49998V3.99998H9Z" fill="white"/>
</svg>
