<svg width="16" height="16" viewBox="0 0 16 16" fill="none" xmlns="http://www.w3.org/2000/svg">
<path fill-rule="evenodd" clip-rule="evenodd" d="M2.77766 7.00001H9.37856C10.0416 7.00001 10.6775 6.73661 11.1463 6.26777L13.6206 3.79345L14.8808 9.46412C14.955 9.79788 14.8535 10.1464 14.6117 10.3882L10.2928 14.7071C10.1052 14.8946 9.85089 15 9.58567 15H2.2465C1.60675 15 1.13153 14.4076 1.27031 13.7831L2.77766 7.00001ZM2.99988 6.00001H9.37856L7.99988 6H2.99988L2.99988 6.00001Z" fill="white" fill-opacity="0.5"/>
<path d="M2 5.29289C2 5.10536 2.0745 4.9255 2.20711 4.79289L5.56066 1.43934C5.84197 1.15803 6.2235 1 6.62132 1H13.2929C13.6834 1 14 1.31658 14 1.70711C14 1.89464 13.9255 2.0745 13.7929 2.20711L10.4393 5.56066C10.158 5.84197 9.7765 6 9.37868 6H2.70711C2.31658 6 2 5.68342 2 5.29289Z" fill="white"/>
</svg>
