<svg width="16" height="16" viewBox="0 0 16 16" fill="none" xmlns="http://www.w3.org/2000/svg">
<path fill-rule="evenodd" clip-rule="evenodd" d="M9.11689 2H5.29015C5.11072 2 4.94505 2.09614 4.85603 2.25193L1.42746 8.25193C1.23698 8.58526 1.47767 9 1.86158 9H4.99999V12.7929C4.99999 13.2383 5.53856 13.4614 5.85354 13.1464L8 11V10V9H9V8V7H6.99999L9.54564 2.75725C9.7456 2.42399 9.50554 2 9.11689 2Z" fill="white" fill-opacity="0.5"/>
<path fill-rule="evenodd" clip-rule="evenodd" d="M10 8H11V10H13V8H14V10H15V12.3787C15 12.7765 14.842 13.158 14.5607 13.4393L13 15V16H11V15L9.43934 13.4393C9.15803 13.158 9 12.7765 9 12.3787V10H10V8Z" fill="white"/>
</svg>
