<svg width="16" height="16" viewBox="0 0 16 16" fill="none" xmlns="http://www.w3.org/2000/svg">
<path d="M8.11689 2H4.29015C4.11072 2 3.94505 2.09614 3.85603 2.25193L0.427457 8.25193C0.236984 8.58526 0.477667 9 0.861579 9H3.99999V12.7929C3.99999 13.2383 4.53856 13.4614 4.85354 13.1464L10.1464 7.85355C10.4614 7.53857 10.2383 7 9.79288 7H5.99999L8.54564 2.75725C8.7456 2.42399 8.50554 2 8.11689 2Z" fill="white" fill-opacity="0.5"/>
<path fill-rule="evenodd" clip-rule="evenodd" d="M7 13C7 12.4477 7.44772 12 8 12H15C15.5523 12 16 12.4477 16 13V14C16 14.5523 15.5523 15 15 15H8C7.44772 15 7 14.5523 7 14V13ZM10 13H11V14H10V13ZM9 13H8V14H9V13Z" fill="white"/>
</svg>
