<svg width="16" height="16" viewBox="0 0 16 16" fill="none" xmlns="http://www.w3.org/2000/svg">
<path fill-rule="evenodd" clip-rule="evenodd" d="M14.6647 0.661136L9.00036 3.60977C7.18649 4.55401 4.98138 4.30519 3.42353 2.98049C3.12922 2.73021 2.73045 3.12898 2.98072 3.4233C4.30542 4.98114 4.55425 7.18625 3.61001 9.00012L0.661369 14.6644C0.435657 15.098 0.90216 15.5645 1.33575 15.3388L7.00007 12.3902C8.81393 11.4459 11.019 11.6948 12.5769 13.0195C12.8712 13.2697 13.27 12.871 13.0197 12.5766C11.695 11.0188 11.4462 8.81369 12.3904 6.99983L15.339 1.33552C15.5648 0.901929 15.0983 0.435425 14.6647 0.661136ZM8.00024 11C9.6571 11 11.0002 9.65687 11.0002 8.00001C11.0002 6.34316 9.6571 5.00001 8.00024 5.00001C6.34339 5.00001 5.00024 6.34316 5.00024 8.00001C5.00024 9.65687 6.34339 11 8.00024 11Z" fill="white" fill-opacity="0.5"/>
<path d="M10 8C10 9.10457 9.10457 10 8 10C6.89543 10 6 9.10457 6 8C6 6.89543 6.89543 6 8 6C9.10457 6 10 6.89543 10 8Z" fill="white"/>
</svg>
