<svg width="16" height="16" viewBox="0 0 16 16" fill="none" xmlns="http://www.w3.org/2000/svg">
<path fill-rule="evenodd" clip-rule="evenodd" d="M6 5.23442V5H2V6H5.56252L6 5.23442ZM4.9911 7H0V8H4.44636C4.47598 7.91754 4.51345 7.83588 4.55921 7.75579L4.9911 7ZM4.44685 9H1V10H5.86158C5.17949 10 4.6481 9.56361 4.44685 9Z" fill="white" fill-opacity="0.5"/>
<path d="M13.1169 2H9.29015C9.11072 2 8.94505 2.09614 8.85603 2.25193L5.42746 8.25193C5.23698 8.58526 5.47767 9 5.86158 9H8.99999V12.7929C8.99999 13.2383 9.53856 13.4614 9.85354 13.1464L15.1464 7.85355C15.4614 7.53857 15.2383 7 14.7929 7H11L13.5456 2.75725C13.7456 2.42399 13.5055 2 13.1169 2Z" fill="white"/>
</svg>
