<svg width="16" height="16" viewBox="0 0 16 16" fill="none" xmlns="http://www.w3.org/2000/svg">
<path fill-rule="evenodd" clip-rule="evenodd" d="M8 2C6.34315 2 5 3.34315 5 5V6H9.87868L3.87868 12H2V7.5C2 6.67157 2.67157 6 3.5 6H4V5C4 2.79086 5.79086 1 8 1C9.86518 1 11.4322 2.27661 11.8749 4.00374L11.4393 4.43934L10.9977 4.881C10.9352 3.27931 9.617 2 8 2ZM13.6196 6.50173L13.5607 6.56066L8.12132 12H14V7.5C14 7.11665 13.8562 6.7669 13.6196 6.50173ZM2.87868 13H2V13.5C2 13.6169 2.01338 13.7307 2.03869 13.84L2.43934 13.4393L2.87868 13ZM5.12132 15L7.12132 13H14V13.5C14 14.3284 13.3284 15 12.5 15H5.12132Z" fill="white" fill-opacity="0.5"/>
<path fill-rule="evenodd" clip-rule="evenodd" d="M12.5001 4.79289L12.1465 5.14645L3.14652 14.1464L2.79297 14.5L3.50008 15.2071L3.85363 14.8536L12.8536 5.85355L13.2072 5.5L12.5001 4.79289Z" fill="white"/>
</svg>
