<svg width="16" height="16" viewBox="0 0 16 16" fill="none" xmlns="http://www.w3.org/2000/svg">
<path fill-rule="evenodd" clip-rule="evenodd" d="M14.9998 5.5C14.9998 7.98528 12.9851 10 10.4998 10C9.57478 10 8.7149 9.72086 7.99985 9.24223V10.0858C7.99985 10.351 7.89449 10.6054 7.70696 10.7929L4.20696 14.2929C3.81643 14.6834 3.18327 14.6834 2.79274 14.2929L1.70696 13.2071C1.31643 12.8166 1.31643 12.1834 1.70696 11.7929L5.20696 8.29289C5.39449 8.10536 5.64885 8 5.91406 8H6.75762C6.27899 7.28495 5.99985 6.42507 5.99985 5.5C5.99985 3.01472 8.01457 1 10.4998 1C12.9851 1 14.9998 3.01472 14.9998 5.5ZM10.4998 9C12.4328 9 13.9998 7.433 13.9998 5.5C13.9998 3.567 12.4328 2 10.4998 2C8.56685 2 6.99985 3.567 6.99985 5.5C6.99985 7.433 8.56685 9 10.4998 9Z" fill="white"/>
</svg>
