<svg width="16" height="16" viewBox="0 0 16 16" fill="none" xmlns="http://www.w3.org/2000/svg">
<path fill-rule="evenodd" clip-rule="evenodd" d="M10.4998 10C12.9851 10 14.9998 7.98528 14.9998 5.5C14.9998 3.01472 12.9851 1 10.4998 1C8.01457 1 5.99985 3.01472 5.99985 5.5C5.99985 6.42507 6.27899 7.28495 6.75762 8H5.91406C5.64885 8 5.39449 8.10536 5.20696 8.29289L1.70696 11.7929C1.31643 12.1834 1.31643 12.8166 1.70696 13.2071L2.79274 14.2929C3.18327 14.6834 3.81643 14.6834 4.20696 14.2929L7.70696 10.7929C7.89449 10.6054 7.99985 10.351 7.99985 10.0858V9.24223C8.7149 9.72086 9.57478 10 10.4998 10ZM13.9998 5.5C13.9998 7.433 12.4328 9 10.4998 9C8.56685 9 6.99985 7.433 6.99985 5.5C6.99985 3.567 8.56685 2 10.4998 2C12.4328 2 13.9998 3.567 13.9998 5.5ZM11 3.5V3H10V3.5V5H8.5H8V6H8.5H10V7.5V8H11V7.5V6H12.5H13V5H12.5H11V3.5Z" fill="white"/>
</svg>
