<svg width="16" height="16" viewBox="0 0 16 16" fill="none" xmlns="http://www.w3.org/2000/svg">
<path fill-rule="evenodd" clip-rule="evenodd" d="M2 2.5C2 2.22386 2.22386 2 2.5 2H4.5H5V1H4.5H2.5C1.67157 1 1 1.67157 1 2.5V4.5V5H2V4.5V2.5ZM11.5 1H11V2H11.5H13.5C13.7761 2 14 2.22386 14 2.5V4.5V5H15V4.5V2.5C15 1.67157 14.3284 1 13.5 1H11.5ZM2 11.5V11H1V11.5V13.5C1 14.3284 1.67157 15 2.5 15H4.5H5V14H4.5H2.5C2.22386 14 2 13.7761 2 13.5V11.5ZM15 11.5V11H14V11.5V13.5C14 13.7761 13.7761 14 13.5 14H11.5H11V15H11.5H13.5C14.3284 15 15 14.3284 15 13.5V11.5ZM7 12V7H12V11.5C12 11.7761 11.7761 12 11.5 12H7ZM4.5 4C4.22386 4 4 4.22386 4 4.5V6L12 6V4.5C12 4.22386 11.7761 4 11.5 4L4.5 4ZM4 11.5L4 7H6V12H4.5C4.22386 12 4 11.7761 4 11.5Z" fill="white"/>
</svg>
