<svg width="16" height="16" viewBox="0 0 16 16" fill="none" xmlns="http://www.w3.org/2000/svg">
<path fill-rule="evenodd" clip-rule="evenodd" d="M13.3686 11.6843C13.8623 11.9312 14.4703 11.7326 14.6444 11.2088C14.8751 10.5144 15 9.77181 15 9C15 5.13401 11.866 2 8 2C4.13401 2 1 5.13401 1 9C1 9.77181 1.12491 10.5144 1.35562 11.2088C1.52967 11.7326 2.13766 11.9312 2.63137 11.6843L6.21075 9.89462C6.0759 9.62544 6 9.32159 6 9.00001C6 7.93748 6.82856 7.06848 7.87482 7.00386L10.4393 4.43934L11.5 3.37868L13.6213 5.5L12.5607 6.56066L9.99615 9.12517C9.97915 9.40043 9.90648 9.66062 9.78925 9.89462L13.3686 11.6843ZM13 13C13 13.5523 12.5523 14 12 14C11.4477 14 11 13.5523 11 13C11 12.4477 11.4477 12 12 12C12.5523 12 13 12.4477 13 13ZM4 14C4.55228 14 5 13.5523 5 13C5 12.4477 4.55228 12 4 12C3.44772 12 3 12.4477 3 13C3 13.5523 3.44772 14 4 14Z" fill="white" fill-opacity="0.5"/>
<path fill-rule="evenodd" clip-rule="evenodd" d="M11.8536 5.85357L12.2071 5.50001L11.5 4.79291L11.1464 5.14646L8.25902 8.03389C8.17641 8.01179 8.08958 8.00001 8 8.00001C7.44772 8.00001 7 8.44773 7 9.00001C7 9.5523 7.44772 10 8 10C8.55228 10 9 9.5523 9 9.00001C9 8.91043 8.98822 8.82361 8.96613 8.74099L11.8536 5.85357Z" fill="white"/>
</svg>
