<svg width="16" height="16" viewBox="0 0 16 16" fill="none" xmlns="http://www.w3.org/2000/svg">
<path fill-rule="evenodd" clip-rule="evenodd" d="M3 7.5V7H4V7.5C4 9.433 5.567 11 7.5 11C9.433 11 11 9.433 11 7.5V7H12V7.5C12 9.81628 10.25 11.7238 8 11.9725V14H11V15H7.5H4V14H7V11.9725C4.75002 11.7238 3 9.81628 3 7.5Z" fill="white" fill-opacity="0.5"/>
<path fill-rule="evenodd" clip-rule="evenodd" d="M7 1C5.89543 1 5 1.89543 5 3V7H10V3C10 1.89543 9.10457 1 8 1H7ZM10 8H5C5 9.10457 5.89543 10 7 10H8C9.10457 10 10 9.10457 10 8Z" fill="white"/>
</svg>
