<svg width="16" height="16" viewBox="0 0 16 16" fill="none" xmlns="http://www.w3.org/2000/svg">
<path fill-rule="evenodd" clip-rule="evenodd" d="M1 3.98101C1 3.38506 1.35279 2.84564 1.89877 2.60677L7.59918 0.112841C8.25987 -0.17621 9 0.307846 9 1.029V8.53513C7.8044 9.22675 7 10.5194 7 12C7 12.611 7.13698 13.1899 7.38191 13.7079L2.40082 15.8871C1.74013 16.1762 1 15.6921 1 14.971V13C3.20914 13 5 11.2091 5 9C5 6.79086 3.20914 5 1 5V3.98101Z" fill="white" fill-opacity="0.5"/>
<path fill-rule="evenodd" clip-rule="evenodd" d="M4 9C4 7.34315 2.65685 6 1 6V12C2.65685 12 4 10.6569 4 9ZM11 15C12.6569 15 14 13.6569 14 12C14 10.3431 12.6569 9 11 9C9.34315 9 8 10.3431 8 12C8 13.6569 9.34315 15 11 15Z" fill="white"/>
</svg>
