<svg width="16" height="16" viewBox="0 0 16 16" fill="none" xmlns="http://www.w3.org/2000/svg">
<path fill-rule="evenodd" clip-rule="evenodd" d="M1 3.98101C1 3.38506 1.35279 2.84564 1.89877 2.60677L7.59918 0.112841C8.25987 -0.17621 9 0.307846 9 1.029V6.5859L5.54301 10.0429C4.73827 10.8476 4.73827 12.1524 5.54301 12.9571L6.62496 14.0391L2.40082 15.8871C1.74013 16.1762 1 15.6921 1 14.971V11.3344C1.77461 11.7312 2.7479 11.6054 3.39645 10.9568C4.20119 10.1521 4.20118 8.84733 3.39645 8.04259L1.70711 6.35325L1 5.64615V3.98101Z" fill="white" fill-opacity="0.5"/>
<path fill-rule="evenodd" clip-rule="evenodd" d="M11.4143 6H14.0001V11L12.2072 12.7929C11.8167 13.1834 11.1835 13.1834 10.793 12.7929L9.00011 11L7.75011 12.25C7.3359 12.6642 6.66433 12.6642 6.25011 12.25C5.8359 11.8358 5.8359 11.1642 6.25011 10.75L10.7072 6.29289C10.8948 6.10536 11.1491 6 11.4143 6ZM15.0001 6H16.0001V12H15.5001C15.224 12 15.0001 11.7761 15.0001 11.5V6ZM1 7.06034V10.0603L1.18934 10.2497C1.60355 10.6639 2.27513 10.6639 2.68934 10.2497C3.10355 9.83547 3.10355 9.1639 2.68934 8.74968L1 7.06034Z" fill="white"/>
</svg>
