<svg width="16" height="16" viewBox="0 0 16 16" fill="none" xmlns="http://www.w3.org/2000/svg">
<path fill-rule="evenodd" clip-rule="evenodd" d="M1.91421 4.50037C1.65194 4.2381 1.33496 4.0639 1 3.97776C1.00128 3.3831 1.35378 2.8452 1.89877 2.60677L7.59918 0.112841C8.25987 -0.17621 9 0.307846 9 1.029V3.58579L6.58579 6C6.21071 6.37507 6 6.88378 6 7.41421V10.5858C6 11.1162 6.21071 11.6249 6.58579 12L8.01619 13.4304L2.40082 15.8871C1.74013 16.1762 1 15.6921 1 14.971V13.4146L3.41421 11.0004C3.78929 10.6253 4 10.1166 4 9.58615V7.41458C4 6.88415 3.78929 6.37544 3.41421 6.00037L1.91421 4.50037Z" fill="white" fill-opacity="0.5"/>
<path fill-rule="evenodd" clip-rule="evenodd" d="M14.7071 7.70705L11.2071 4.20705C10.8166 3.81653 10.1834 3.81653 9.79289 4.20705L7.29289 6.70705C7.10536 6.89459 7 7.14894 7 7.41416V10.5857C7 10.8509 7.10536 11.1053 7.29289 11.2928L10.7929 14.7928C11.1834 15.1834 11.8166 15.1834 12.2071 14.7928L14.7071 12.2928C14.8946 12.1053 15 11.8509 15 11.5857V8.41416C15 8.14894 14.8946 7.89459 14.7071 7.70705ZM8.5 6.79284L8.85355 7.14639L11.5 9.79284L13.1464 8.14639L13.5 7.79284L14.2071 8.49994L13.8536 8.8535L12 10.7071V13.4999V13.9999H11V13.4999V10.7071L8.14645 7.8535L7.79289 7.49994L8.5 6.79284ZM1 5.04825V12.0004L2.70711 10.2932C2.89464 10.1057 3 9.85135 3 9.58614V7.41456C3 7.14935 2.89464 6.89499 2.70711 6.70746L1.20711 5.20746C1.14376 5.14411 1.07404 5.09105 1 5.04825Z" fill="white"/>
</svg>
