<svg width="16" height="16" viewBox="0 0 16 16" fill="none" xmlns="http://www.w3.org/2000/svg">
<path fill-rule="evenodd" clip-rule="evenodd" d="M1 3.98101C1 3.38506 1.35279 2.84564 1.89877 2.60677L7.59918 0.112841C8.25987 -0.17621 9 0.307846 9 1.029V5.72304L8.99686 5.72826L6.59686 9.72826C5.99698 10.728 6.71715 12 7.8831 12H9V12.019C9 12.6149 8.64721 13.1543 8.10123 13.3932L2.40082 15.8871C1.74013 16.1762 1 15.6921 1 14.971V10.9999H3.1169C4.28285 10.9999 5.00302 9.72794 4.40314 8.72815L2.00314 4.72815C1.89071 4.54076 1.74066 4.3833 1.56612 4.26343C1.39638 4.14686 1.19858 4.08777 1 4.08775V3.98101Z" fill="white" fill-opacity="0.5"/>
<path fill-rule="evenodd" clip-rule="evenodd" d="M1.14565 5.24263C1.10815 5.18013 1.05818 5.1277 1 5.08774V9.99988H3.1169C3.50555 9.99988 3.74561 9.57589 3.54565 9.24263L1.14565 5.24263ZM10.2831 6H13.0657C13.4651 6 13.7033 6.44507 13.4818 6.77735L12 9H14.7929C15.2383 9 15.4614 9.53857 15.1464 9.85355L10.8536 14.1464C10.5386 14.4614 10 14.2383 10 13.7929V11H7.8831C7.49445 11 7.25439 10.576 7.45435 10.2428L9.85435 6.24275C9.94471 6.09215 10.1075 6 10.2831 6Z" fill="white"/>
</svg>
