<svg width="16" height="16" viewBox="0 0 16 16" fill="none" xmlns="http://www.w3.org/2000/svg">
<path fill-rule="evenodd" clip-rule="evenodd" d="M1 3.98101C1 3.38506 1.35279 2.84564 1.89877 2.60677L7.59918 0.112841C8.25987 -0.17621 9 0.307846 9 1.029V7H8C6.89543 7 6 7.89543 6 9V12C6 12.8 6.46966 13.4902 7.14829 13.8101L2.40082 15.8871C1.74013 16.1762 1 15.6921 1 14.971V12H2C3.10457 12 4 11.1046 4 10V7C4 5.89543 3.10457 5 2 5H1V3.98101Z" fill="white" fill-opacity="0.5"/>
<path fill-rule="evenodd" clip-rule="evenodd" d="M2 6H1V11H2C2.55228 11 3 10.5523 3 10V7C3 6.44772 2.55228 6 2 6ZM7 9C7 8.44772 7.44772 8 8 8H14C14.5523 8 15 8.44772 15 9V12C15 12.5523 14.5523 13 14 13H8C7.44772 13 7 12.5523 7 12V9ZM9 10H13V11H9V10Z" fill="white"/>
</svg>
