<svg width="16" height="16" viewBox="0 0 16 16" fill="none" xmlns="http://www.w3.org/2000/svg">
<path fill-rule="evenodd" clip-rule="evenodd" d="M6.70715 9.29285L10 6L15 11V13.5C15 14.3284 14.3284 15 13.5 15H12.4143L11.7071 14.2928L6.70715 9.29285ZM10.9999 14.9999L6 10L6.00004 9.99996L10 13.9999L11 14.9999H10.9999Z" fill="white" fill-opacity="0.5"/>
<path fill-rule="evenodd" clip-rule="evenodd" d="M2.37586 5H4H5.91724C6.51523 5 7 4.51523 7 3.91724C7 3.38794 6.61734 2.93622 6.09524 2.84921L5.99306 2.83218C5.90782 1.80614 5.04805 1 4 1C3.15368 1 2.43014 1.52567 2.13807 2.26831C1.5015 2.37965 1 2.93506 1 3.62414C1 4.38401 1.61599 5 2.37586 5ZM4 8L1 11V13.5C1 14.3284 1.67157 15 2.5 15H11L4 8Z" fill="white"/>
</svg>
