<svg width="16" height="16" viewBox="0 0 16 16" fill="none" xmlns="http://www.w3.org/2000/svg">
<path fill-rule="evenodd" clip-rule="evenodd" d="M5 0V0.5C5 0.776142 5.22386 1 5.5 1H12.5C13.3284 1 14 1.67157 14 2.5C14 3.32843 13.3284 4 12.5 4H8H7C7 3.44772 7.44772 3 8 3H12.5C12.7761 3 13 2.77614 13 2.5C13 2.22386 12.7761 2 12.5 2H5.5C4.67157 2 4 1.32843 4 0.5V0H5Z" fill="white" fill-opacity="0.5"/>
<path fill-rule="evenodd" clip-rule="evenodd" d="M7 5H5C4.44772 5 4 5.44772 4 6V9H7V5ZM4 10V11.5C4 13.433 5.567 15 7.5 15C9.433 15 11 13.433 11 11.5V10H7.5H4ZM11 9V6C11 5.44772 10.5523 5 10 5H8V9H11Z" fill="white"/>
</svg>
