<svg width="16" height="16" viewBox="0 0 16 16" fill="none" xmlns="http://www.w3.org/2000/svg">
<path fill-rule="evenodd" clip-rule="evenodd" d="M2 0V0.5C2 0.776142 2.22386 1 2.5 1H9.5C10.3284 1 11 1.67157 11 2.5C11 3.32843 10.3284 4 9.5 4H5H4C4 3.44772 4.44772 3 5 3H9.5C9.77614 3 10 2.77614 10 2.5C10 2.22386 9.77614 2 9.5 2H2.5C1.67157 2 1 1.32843 1 0.5V0H2Z" fill="white" fill-opacity="0.5"/>
<path fill-rule="evenodd" clip-rule="evenodd" d="M2 5H4V9H1V6C1 5.44772 1.44772 5 2 5ZM1 11.5V10H4.5H8V11.5C8 13.433 6.433 15 4.5 15C2.567 15 1 13.433 1 11.5ZM8 6V9H5V5H7C7.55228 5 8 5.44772 8 6ZM12 8H11V10H10V12.3787C10 12.7765 10.158 13.158 10.4393 13.4393L12 15V16H14V15L15.5607 13.4393C15.842 13.158 16 12.7765 16 12.3787V10H15V8H14V10H12V8Z" fill="white"/>
</svg>
