<svg width="16" height="16" viewBox="0 0 16 16" fill="none" xmlns="http://www.w3.org/2000/svg">
<path fill-rule="evenodd" clip-rule="evenodd" d="M11.3536 3.14645L13.5 1L15.6464 3.14645C15.9614 3.46143 15.7383 4 15.2929 4H14V11.5C14 12.5 13 14 11 14C10 14 9.00002 13.5 9 12.5C8.99999 11.5 10 10 12 10C12.3473 10 12.6946 10.0603 13 10.1809V4H11.7071C11.2617 4 11.0386 3.46143 11.3536 3.14645ZM6 5.77778V12.5C6.00001 13.5 5 15 3 15C2 15 1.00001 14.5 1 13.5C0.999985 12.5 2 11 4 11C4.3473 11 4.69459 11.0603 5 11.1809V6V5V3.80217C5 3.33347 5.32553 2.92766 5.78307 2.82599L11.5389 1.54692L10.6464 2.43934C9.94899 3.13679 10.1309 4.19967 10.8114 4.70858L6 5.77778Z" fill="white"/>
</svg>
