<svg width="16" height="16" viewBox="0 0 16 16" fill="none" xmlns="http://www.w3.org/2000/svg">
<path fill-rule="evenodd" clip-rule="evenodd" d="M5.78307 2.82598L12.7831 1.27043C13.4076 1.13165 14 1.60687 14 2.24662V3.5V4V11.5C14 12.5 13 14 11 14C10 14 9.00002 13.5 9 12.5C8.99999 11.5 10 10 12 10C12.3473 10 12.6946 10.0603 13 10.1809V4.22222L6 5.77778V12.5C6.00001 13.5 5 15 3 15C2 15 1.00001 14.5 1 13.5C0.999985 12.5 2 11 4 11C4.3473 11 4.69459 11.0603 5 11.1809V6V5V3.80217C5 3.33347 5.32553 2.92766 5.78307 2.82598Z" fill="white"/>
</svg>
