<svg width="16" height="16" viewBox="0 0 16 16" fill="none" xmlns="http://www.w3.org/2000/svg">
<path fill-rule="evenodd" clip-rule="evenodd" d="M9 3.85714V4.85714L12 4V5.5L9 6.35714V7.35714L12 6.5V7.2457C12 7.69218 11.704 8.08457 11.2747 8.20722L9 8.85714V12.5C9.00001 13.5 8 15 6 15C5 15 4.00001 14.5 4 13.5C3.99999 12.5 5 11 7 11C7.3473 11 7.69459 11.0603 8 11.1809V9.14286L5 10V8.5L8 7.64286V6.64286L5 7.5V6L8 5.14286V4.14286L5 5V4.2543C5 3.80782 5.29598 3.41544 5.72528 3.29278L8 2.64286V1H9V2.35714L12 1.5V3L9 3.85714Z" fill="white"/>
</svg>
