<svg width="16" height="16" viewBox="0 0 16 16" fill="none" xmlns="http://www.w3.org/2000/svg">
<path fill-rule="evenodd" clip-rule="evenodd" d="M6 8L4.35355 6.35354C4.15829 6.15828 3.84171 6.15828 3.64645 6.35354L1.29289 8.70709C1.10536 8.89463 1 9.14898 1 9.4142V14C1 14.5523 1.44772 15 2 15H6.58579C6.851 15 7.10536 14.8946 7.29289 14.7071L9.64645 12.3535C9.84171 12.1583 9.84171 11.8417 9.64645 11.6464L8 10C6.89543 10 6 9.10457 6 8ZM2.50001 8.79282L2.85356 9.14637L6.85356 13.1464L7.20711 13.5L6.49999 14.2071L6.14644 13.8535L2.14644 9.85348L1.79289 9.49992L2.50001 8.79282Z" fill="white" fill-opacity="0.5"/>
<path fill-rule="evenodd" clip-rule="evenodd" d="M7.29289 2.70711C7.10536 2.89464 7 3.149 7 3.41421V8C7 8.55228 7.44772 9 8 9H12.5858C12.851 9 13.1054 8.89464 13.2929 8.70711L14.7071 7.29289C14.8946 7.10536 15 6.851 15 6.58579V2C15 1.44772 14.5523 1 14 1H9.41421C9.149 1 8.89464 1.10536 8.70711 1.29289L7.29289 2.70711ZM13.8536 2.85355L14.2071 2.5L13.5 1.79289L13.1464 2.14645L12.2929 3H8.5H8V4H8.5H12V7.5V8H13V7.5V3.70711L13.8536 2.85355Z" fill="white"/>
</svg>
