<svg width="16" height="16" viewBox="0 0 16 16" fill="none" xmlns="http://www.w3.org/2000/svg">
<path fill-rule="evenodd" clip-rule="evenodd" d="M1.43934 4.56066C1.15804 4.84196 1 5.2235 1 5.62132V13.5C1 14.3284 1.67157 15 2.5 15H10.3787C10.7765 15 11.158 14.842 11.4393 14.5607L14.5607 11.4393C14.842 11.158 15 10.7765 15 10.3787V6.5C15 5.67157 14.3284 5 13.5 5H11V2.5C11 1.67157 10.3284 1 9.5 1H5.62132C5.2235 1 4.84197 1.15803 4.56066 1.43934L1.43934 4.56066ZM9.85355 2.85355L7 5.70711V9H10.2929L13.1464 6.14645L13.8536 6.85355L11 9.70711V13.5V14H10V13.5V10H6.5H6V9.5V6H2.5H2V5H2.5H6.29289L9.14645 2.14645L9.85355 2.85355Z" fill="white"/>
</svg>
