<svg width="16" height="16" viewBox="0 0 16 16" fill="none" xmlns="http://www.w3.org/2000/svg">
<path fill-rule="evenodd" clip-rule="evenodd" d="M1.43934 4.56066C1.15804 4.84196 1 5.2235 1 5.62132V13.5C1 14.3284 1.67157 15 2.5 15H10.3787C10.7765 15 11.158 14.842 11.4393 14.5607L14.5607 11.4393C14.842 11.158 15 10.7765 15 10.3787V6.5C15 5.67157 14.3284 5 13.5 5H11V2.5C11 1.67157 10.3284 1 9.5 1H5.62132C5.2235 1 4.84197 1.15803 4.56066 1.43934L1.43934 4.56066ZM4.5 3L5.5 2H8L7 3L4.5 3ZM6 4L7 3L9.5 3L8.5 4L6 4ZM5 5H2.5L3.5 4L6 4L5 5ZM4 6L5 5H7.5L6.5 6H4ZM4 8H2V6H4V8ZM6 10V8H4V10H2V12H4V14H6V12H8V14H10V12H8V10H10.5L11.5 9H9L10 8H12.5L13.5 7H11L12 6H10L9 7H11L10 8H8L7 9H9L8 10H6ZM6 10H4V12H6V10Z" fill="white"/>
</svg>
