<svg width="16" height="16" viewBox="0 0 16 16" fill="none" xmlns="http://www.w3.org/2000/svg">
<path fill-rule="evenodd" clip-rule="evenodd" d="M6.5 1C6.22386 1 6 1.22386 6 1.5V11.5C6 11.7761 6.22386 12 6.5 12H9.5C9.77614 12 10 11.7761 10 11.5V1.5C10 1.22386 9.77614 1 9.5 1H6.5ZM15 13H1V15H15V13ZM11 4L14.6382 11.2764C14.8044 11.6088 14.5627 12 14.191 12H11.5C11.2239 12 11 11.7761 11 11.5V4ZM3 12C4.10457 12 5 11.1046 5 10C5 8.89543 4.10457 8 3 8C1.89543 8 1 8.89543 1 10C1 11.1046 1.89543 12 3 12Z" fill="white"/>
</svg>
