<svg width="16" height="16" viewBox="0 0 16 16" fill="none" xmlns="http://www.w3.org/2000/svg">
<path fill-rule="evenodd" clip-rule="evenodd" d="M15 9.12853V13.5C15 14.3284 14.3284 15 13.5 15H2.5C1.67157 15 1 14.3284 1 13.5V9.12854C1.8026 8.69929 2.82312 8.82312 3.5 9.5C4.32843 10.3284 5.67157 10.3284 6.5 9.5C7.32843 8.67157 8.67157 8.67157 9.5 9.5C10.3284 10.3284 11.6716 10.3284 12.5 9.5C13.1769 8.82312 14.1974 8.69929 15 9.12853Z" fill="white"/>
<path fill-rule="evenodd" clip-rule="evenodd" d="M15 8.04276V2.12853C14.1974 1.69929 13.1769 1.82312 12.5 2.5C11.6716 3.32843 10.3284 3.32843 9.5 2.5C8.67157 1.67157 7.32843 1.67157 6.5 2.5C5.67157 3.32843 4.32843 3.32843 3.5 2.5C2.82312 1.82312 1.8026 1.69929 1 2.12854V8.04276C2.08783 7.6758 3.33877 7.92455 4.20711 8.79289C4.64501 9.2308 5.35499 9.2308 5.79289 8.79289C7.01185 7.57394 8.98815 7.57394 10.2071 8.79289C10.645 9.2308 11.355 9.2308 11.7929 8.79289C12.6612 7.92455 13.9122 7.6758 15 8.04276Z" fill="white" fill-opacity="0.5"/>
</svg>
