<svg width="16" height="16" viewBox="0 0 16 16" fill="none" xmlns="http://www.w3.org/2000/svg">
<path fill-rule="evenodd" clip-rule="evenodd" d="M3.29289 2.70711C3.10536 2.89464 3 3.149 3 3.41421V8L1.29289 9.70711C1.10536 9.89464 1 10.149 1 10.4142V14C1 14.5523 1.44772 15 2 15H5.58579C5.851 15 6.10536 14.8946 6.29289 14.7071L8 13H12.5858C12.851 13 13.1054 12.8946 13.2929 12.7071L14.7071 11.2929C14.8946 11.1054 15 10.851 15 10.5858V7C15 6.44772 14.5523 6 14 6H10V2C10 1.44772 9.55229 1 9 1H5.41421C5.149 1 4.89464 1.10536 4.70711 1.29289L3.29289 2.70711ZM6 2L5 3V6L6 5L7 6V3L8 2H6ZM4 9L3 10V13L4 12L5 13V10L6 9H4ZM10 8L11 7H13L12 8V11L11 10L10 11V8Z" fill="white"/>
</svg>
