<svg width="16" height="16" viewBox="0 0 16 16" fill="none" xmlns="http://www.w3.org/2000/svg">
<path fill-rule="evenodd" clip-rule="evenodd" d="M1 5.62132C1 5.2235 1.15804 4.84196 1.43934 4.56066L4.56066 1.43934C4.84197 1.15803 5.2235 1 5.62132 1H13.5C14.3284 1 15 1.67157 15 2.5V6.48661C13.6325 5.76454 11.8998 5.97891 10.7491 7.1297L9.93943 7.93935L9.00006 8.87872L9.00004 8.8787L7.93939 9.93937L7.12974 10.749C5.97895 11.8998 5.76461 13.6325 6.48671 15H2.5C1.67157 15 1 14.3284 1 13.5V5.62132ZM5 5L8 2H11L8 5V8L7 9L6 8L5 9V5Z" fill="white" fill-opacity="0.5"/>
<path fill-rule="evenodd" clip-rule="evenodd" d="M11.4564 7.83681C12.4801 6.81311 14.1398 6.81311 15.1635 7.8368C16.1872 8.86048 16.1872 10.5202 15.1635 11.5439L14.3539 12.3536L14.0003 12.7071L13.2932 12L13.6468 11.6464L14.4564 10.8368C15.0896 10.2036 15.0896 9.17707 14.4564 8.5439C13.8233 7.91074 12.7967 7.91074 12.1635 8.54391L11.3539 9.35355L11.0003 9.70711L10.2932 9L10.6468 8.64645L11.4564 7.83681ZM11.5442 15.1632C10.5205 16.1869 8.86079 16.1869 7.8371 15.1632C6.81342 14.1395 6.81341 12.4798 7.83709 11.4561L8.64674 10.6465L9.0003 10.2929L9.70741 11L9.35385 11.3536L8.5442 12.1632C7.91104 12.7964 7.91105 13.823 8.54421 14.4561C9.17738 15.0893 10.2039 15.0893 10.8371 14.4561L11.6467 13.6465L12.0003 13.2929L12.7074 14L12.3539 14.3536L11.5442 15.1632ZM12.8539 10.8536L13.2075 10.5L12.5003 9.79289L12.1468 10.1464L10.1468 12.1464L9.79324 12.5L10.5003 13.2071L10.8539 12.8536L12.8539 10.8536Z" fill="white"/>
</svg>
