<svg width="16" height="16" viewBox="0 0 16 16" fill="none" xmlns="http://www.w3.org/2000/svg">
<path fill-rule="evenodd" clip-rule="evenodd" d="M7.00002 6H2.3334L0.901928 1.70559C0.758325 1.27478 1.21703 0.891075 1.61569 1.10853L10.6953 6.06105C11.0428 6.25056 11.0428 6.74944 10.6953 6.93895L1.6157 11.8915C1.21703 12.1089 0.758325 11.7252 0.901928 11.2944L2.3334 7H7.00002V6ZM12.9999 8.5C12.9999 8.22386 12.7761 8 12.4999 8H11.4999C11.2238 8 10.9999 8.22386 10.9999 8.5V9.1707C10.6488 9.29481 10.3277 9.48242 10.0504 9.71973L9.46885 9.38397C9.2297 9.2459 8.92391 9.32784 8.78584 9.56698L8.28584 10.433C8.14777 10.6722 8.2297 10.978 8.46885 11.116L9.04997 11.4515C9.01712 11.6294 8.99995 11.8127 8.99995 12C8.99995 12.1873 9.01712 12.3706 9.04997 12.5485L8.46885 12.884C8.2297 13.022 8.14777 13.3278 8.28584 13.567L8.78584 14.433C8.92391 14.6722 9.2297 14.7541 9.46885 14.616L10.0504 14.2803C10.3277 14.5176 10.6488 14.7052 10.9999 14.8293V15.5C10.9999 15.7761 11.2238 16 11.4999 16H12.4999C12.7761 16 12.9999 15.7761 12.9999 15.5V14.8293C13.3511 14.7052 13.6722 14.5176 13.9495 14.2803L14.531 14.616C14.7702 14.7541 15.076 14.6722 15.2141 14.433L15.7141 13.567C15.8521 13.3278 15.7702 13.022 15.531 12.884L14.9499 12.5485C14.9828 12.3706 14.9999 12.1873 14.9999 12C14.9999 11.8127 14.9828 11.6294 14.9499 11.4515L15.531 11.116C15.7702 10.978 15.8521 10.6722 15.7141 10.433L15.2141 9.56699C15.076 9.32784 14.7702 9.2459 14.531 9.38398L13.9495 9.71974C13.6722 9.48242 13.3511 9.29481 12.9999 9.1707V8.5ZM11.9999 13.5C12.8284 13.5 13.4999 12.8284 13.4999 12C13.4999 11.1716 12.8284 10.5 11.9999 10.5C11.1715 10.5 10.4999 11.1716 10.4999 12C10.4999 12.8284 11.1715 13.5 11.9999 13.5Z" fill="white"/>
</svg>
