<svg width="16" height="16" viewBox="0 0 16 16" fill="none" xmlns="http://www.w3.org/2000/svg">
<path fill-rule="evenodd" clip-rule="evenodd" d="M4 15C3.44771 15 3 14.5523 3 14V10.2071L4.64645 11.8536L5 12.2071L5.35355 11.8536L8 9.20711L10.6464 11.8536L11 12.2071L11.3536 11.8536L13 10.2071V14C13 14.5523 12.5523 15 12 15H4ZM13 8.79289L11 10.7929L8.35355 8.14645L8 7.79289L7.64645 8.14645L5 10.7929L3 8.79289V2C3 1.44772 3.44771 1 4 1H8V4C8 5.10457 8.89543 6 10 6H13V8.79289ZM9 4V1L13 5H10C9.44772 5 9 4.55228 9 4Z" fill="white"/>
</svg>
