<svg width="16" height="16" viewBox="0 0 16 16" fill="none" xmlns="http://www.w3.org/2000/svg">
<path fill-rule="evenodd" clip-rule="evenodd" d="M2 2C2 1.44772 2.44772 1 3 1H5C5.55228 1 6 1.44772 6 2V14C6 14.5523 5.55228 15 5 15H3C2.44772 15 2 14.5523 2 14V2ZM10 2C10 1.44772 10.4477 1 11 1H13C13.5523 1 14 1.44772 14 2V7.75777C13.285 7.27914 12.4251 7 11.5 7C10.974 7 10.4692 7.09023 10 7.25606V2Z" fill="white" fill-opacity="0.5"/>
<path fill-rule="evenodd" clip-rule="evenodd" d="M15 11.5C15 13.433 13.433 15 11.5 15C9.567 15 8 13.433 8 11.5C8 9.567 9.567 8 11.5 8C13.433 8 15 9.567 15 11.5ZM10 9.29289L10.3536 9.64645L11.5 10.7929L12.6464 9.64645L13 9.29289L13.7071 10L13.3536 10.3536L12.2071 11.5L13.3536 12.6464L13.7071 13L13 13.7071L12.6464 13.3536L11.5 12.2071L10.3536 13.3536L10 13.7071L9.29289 13L9.64645 12.6464L10.7929 11.5L9.64645 10.3536L9.29289 10L10 9.29289Z" fill="white"/>
</svg>
