<svg width="16" height="16" viewBox="0 0 16 16" fill="none" xmlns="http://www.w3.org/2000/svg">
<path fill-rule="evenodd" clip-rule="evenodd" d="M2 2C2 1.44772 2.44772 1 3 1H5C5.55228 1 6 1.44772 6 2V7.68221C5.36815 8.63251 5 9.77326 5 11C5 12.2037 5.35448 13.3247 5.96474 14.2641C5.84889 14.6883 5.46085 15 5 15H3C2.44772 15 2 14.5523 2 14V2ZM14 5.80269V2C14 1.44772 13.5523 1 13 1H11C10.4477 1 10 1.44772 10 2V5.08296C10.3252 5.0284 10.6593 5 11 5C12.0929 5 13.1175 5.29218 14 5.80269Z" fill="white" fill-opacity="0.5"/>
<path fill-rule="evenodd" clip-rule="evenodd" d="M15 11C15 13.2091 13.2091 15 11 15C8.79086 15 7 13.2091 7 11C7 8.79086 8.79086 7 11 7C13.2091 7 15 8.79086 15 11ZM16 11C16 13.7614 13.7614 16 11 16C8.23858 16 6 13.7614 6 11C6 8.23858 8.23858 6 11 6C13.7614 6 16 8.23858 16 11ZM11 14C12.6569 14 14 12.6569 14 11C14 9.34315 12.6569 8 11 8C9.34315 8 8 9.34315 8 11C8 12.6569 9.34315 14 11 14Z" fill="white"/>
</svg>
