<svg width="16" height="16" viewBox="0 0 16 16" fill="none" xmlns="http://www.w3.org/2000/svg">
<path fill-rule="evenodd" clip-rule="evenodd" d="M5 7C4.44772 7 4 7.44772 4 8C4 8.55228 4.44772 9 5 9C5.55228 9 6 8.55228 6 8C6 7.44772 5.55228 7 5 7ZM1 9C1 8.44772 1.44772 8 2 8C2.55228 8 3 8.44772 3 9C3 9.55228 2.55228 10 2 10C1.44772 10 1 9.55228 1 9ZM6.29289 10.2929C6.10536 10.1054 5.851 10 5.58579 10H4.41421C4.149 10 3.89464 10.1054 3.70711 10.2929L2.29289 11.7071C2.10536 11.8946 2 12.149 2 12.4142V13.3431C2 14.2582 2.7418 15 3.65685 15C3.87657 15 4.08728 14.9127 4.24264 14.7574L5 14L5.75736 14.7574C5.91272 14.9127 6.12343 15 6.34315 15C7.2582 15 8 14.2582 8 13.3431V12.4142C8 12.149 7.89464 11.8946 7.70711 11.7071L6.29289 10.2929Z" fill="white" fill-opacity="0.5"/>
<path fill-rule="evenodd" clip-rule="evenodd" d="M10 1C9.44772 1 9 1.44772 9 2C9 2.55228 9.44772 3 10 3C10.5523 3 11 2.55228 11 2C11 1.44772 10.5523 1 10 1ZM6 3C6 2.44772 6.44772 2 7 2C7.55228 2 8 2.44772 8 3C8 3.55228 7.55228 4 7 4C6.44772 4 6 3.55228 6 3ZM13 2C12.4477 2 12 2.44772 12 3C12 3.55228 12.4477 4 13 4C13.5523 4 14 3.55228 14 3C14 2.44772 13.5523 2 13 2ZM8.70711 4.29289C8.89464 4.10536 9.149 4 9.41421 4H10.5858C10.851 4 11.1054 4.10536 11.2929 4.29289L12.7071 5.70711C12.8946 5.89464 13 6.149 13 6.41421V7.34315C13 8.2582 12.2582 9 11.3431 9C11.1234 9 10.9127 8.91272 10.7574 8.75736L10 8L9.24264 8.75736C9.08728 8.91272 8.87657 9 8.65685 9C7.7418 9 7 8.2582 7 7.34315V6.41421C7 6.149 7.10536 5.89464 7.29289 5.70711L8.70711 4.29289Z" fill="white"/>
</svg>
