<svg width="16" height="16" viewBox="0 0 16 16" fill="none" xmlns="http://www.w3.org/2000/svg">
<path fill-rule="evenodd" clip-rule="evenodd" d="M7 8.12134V14H4.5H4V15H4.5H7.5H10.5H11V14H10.5H8V7.12134L7 8.12134Z" fill="white" fill-opacity="0.5"/>
<path fill-rule="evenodd" clip-rule="evenodd" d="M10.5 4C11.3284 4 12 3.32843 12 2.5C12 1.67157 11.3284 1 10.5 1C9.67157 1 9 1.67157 9 2.5C9 2.73157 9.05248 2.95089 9.14619 3.14671L4.14671 8.14619C3.95089 8.05248 3.73157 8 3.5 8C2.67157 8 2 8.67157 2 9.5C2 10.3284 2.67157 11 3.5 11C4.32843 11 5 10.3284 5 9.5C5 9.26843 4.94752 9.04911 4.85381 8.85329L9.85329 3.85381C10.0491 3.94752 10.2684 4 10.5 4Z" fill="white"/>
</svg>
