<svg width="16" height="16" viewBox="0 0 16 16" fill="none" xmlns="http://www.w3.org/2000/svg">
<path fill-rule="evenodd" clip-rule="evenodd" d="M8 12V12.5V14H10.5H11V15H10.5H7.5H4.5H4V14H4.5H7V12.5V12H8Z" fill="white" fill-opacity="0.5"/>
<path fill-rule="evenodd" clip-rule="evenodd" d="M3.29289 4.70711C3.10536 4.89464 3 5.149 3 5.41421V10C3 10.5523 3.44772 11 4 11H8.58579C8.851 11 9.10536 10.8946 9.29289 10.7071L11.7071 8.29289C11.8946 8.10536 12 7.851 12 7.58579V3C12 2.44772 11.5523 2 11 2H6.41421C6.149 2 5.89464 2.10536 5.70711 2.29289L3.29289 4.70711ZM10.8536 3.85355L11.2071 3.5L10.5 2.79289L10.1464 3.14645L8.29289 5H4.5H4V6H4.5H8V9.5V10H9V9.5V5.70711L10.8536 3.85355Z" fill="white"/>
</svg>
