<svg width="16" height="16" viewBox="0 0 16 16" fill="none" xmlns="http://www.w3.org/2000/svg">
<path fill-rule="evenodd" clip-rule="evenodd" d="M8 12V12.5V14H10.5H11V15H10.5H7.5H4.5H4V14H4.5H7V12.5V12H8Z" fill="white" fill-opacity="0.5"/>
<path fill-rule="evenodd" clip-rule="evenodd" d="M11.9858 6.14298C11.9144 6.51341 11.5642 6.94428 10.8116 7.32055C9.98988 7.73143 8.81964 8 7.49972 8C6.1798 8 5.00955 7.73143 4.18779 7.32055C3.43525 6.94428 3.08501 6.51341 3.01367 6.14298C3.19564 3.8246 5.1346 2 7.49972 2C9.86483 2 11.8038 3.8246 11.9858 6.14298ZM11.7713 7.91949C11.6091 8.0273 11.437 8.1259 11.2589 8.21498C10.271 8.70892 8.94122 9 7.49972 9C6.05821 9 4.72846 8.70892 3.74058 8.21498C3.56242 8.1259 3.39032 8.0273 3.22818 7.91949C3.82263 9.70921 5.51043 11 7.49972 11C9.489 11 11.1768 9.70921 11.7713 7.91949Z" fill="white"/>
</svg>
