<svg width="16" height="16" viewBox="0 0 16 16" fill="none" xmlns="http://www.w3.org/2000/svg">
<path fill-rule="evenodd" clip-rule="evenodd" d="M8 12V12.5V14H10.5H11V15H10.5H7.5H4.5H4V14H4.5H7V12.5V12H8Z" fill="white" fill-opacity="0.5"/>
<path fill-rule="evenodd" clip-rule="evenodd" d="M7.50913 3.99999C9.43793 3.99789 11 3.32712 11 2.5C11 1.67157 9.433 1 7.5 1C5.567 1 4 1.67157 4 2.5C4 3.32843 5.567 4 7.5 4C7.50304 4 7.50609 4 7.50913 3.99999ZM10.3688 4.47981C9.58364 4.8163 8.56868 5 7.5 5C6.43132 5 5.41636 4.8163 4.63121 4.47981C4.4133 4.38642 4.19871 4.27512 4 4.14275V9.5C4 10.3284 5.567 11 7.5 11C9.433 11 11 10.3284 11 9.5V4.14275C10.8013 4.27512 10.5867 4.38642 10.3688 4.47981Z" fill="white"/>
</svg>
