<svg width="16" height="16" viewBox="0 0 16 16" fill="none" xmlns="http://www.w3.org/2000/svg">
<path fill-rule="evenodd" clip-rule="evenodd" d="M8 12V12.5V14H10.5H11V15H10.5H7.5H4.5H4V14H4.5H7V12.5V12H8Z" fill="white" fill-opacity="0.5"/>
<path fill-rule="evenodd" clip-rule="evenodd" d="M2 2.5C2 1.67157 2.67157 1 3.5 1H11.5C12.3284 1 13 1.67157 13 2.5V9.5C13 10.3284 12.3284 11 11.5 11H3.5C2.67157 11 2 10.3284 2 9.5V2.5ZM5.29289 4.70711L3 7V9.5C3 9.77614 3.22386 10 3.5 10H11.5C11.7761 10 12 9.77614 12 9.5V8H10L6.70711 4.70711C6.31658 4.31658 5.68342 4.31658 5.29289 4.70711ZM9 4C9 4.55228 9.44772 5 10 5C10.5523 5 11 4.55228 11 4C11 3.44772 10.5523 3 10 3C9.44772 3 9 3.44772 9 4Z" fill="white"/>
</svg>
