<svg width="16" height="16" viewBox="0 0 16 16" fill="none" xmlns="http://www.w3.org/2000/svg">
<path fill-rule="evenodd" clip-rule="evenodd" d="M8 12V12.5V14H10.5H11V15H10.5H7.5H4.5H4V14H4.5H7V12.5V12H8Z" fill="white" fill-opacity="0.5"/>
<path fill-rule="evenodd" clip-rule="evenodd" d="M11.986 6.14298C11.9147 6.51341 11.5644 6.94428 10.8119 7.32055C9.99013 7.73143 8.81988 8 7.49996 8C6.18004 8 5.0098 7.73143 4.18803 7.32055C3.4355 6.94428 3.08525 6.51341 3.01392 6.14298C3.19589 3.8246 5.13484 2 7.49996 2C9.86508 2 11.804 3.8246 11.986 6.14298ZM11.7715 7.91949C11.6094 8.0273 11.4373 8.1259 11.2591 8.21498C10.2712 8.70892 8.94146 9 7.49996 9C6.05846 9 4.7287 8.70892 3.74082 8.21498C3.56266 8.1259 3.39056 8.0273 3.22842 7.91949C3.82288 9.70921 5.51068 11 7.49996 11C9.48924 11 11.177 9.70921 11.7715 7.91949Z" fill="white"/>
</svg>
