<svg width="16" height="16" viewBox="0 0 16 16" fill="none" xmlns="http://www.w3.org/2000/svg">
<path fill-rule="evenodd" clip-rule="evenodd" d="M6 12V11V7.5C6 6.9372 6.18597 6.41783 6.49982 6H2.5C1.67157 6 1 6.67157 1 7.5V11H3V14C3 14.5523 3.44772 15 4 15H6C6.55228 15 7 14.5523 7 14V12H6ZM4.5 1C3.67157 1 3 1.67157 3 2.5V3.5C3 4.32843 3.67157 5 4.5 5H5.5C6.32843 5 7 4.32843 7 3.5V2.5C7 1.67157 6.32843 1 5.5 1H4.5Z" fill="white" fill-opacity="0.5"/>
<path fill-rule="evenodd" clip-rule="evenodd" d="M10.5 1C9.67157 1 9 1.67157 9 2.5V3.5C9 4.32843 9.67157 5 10.5 5H11.5C12.3284 5 13 4.32843 13 3.5V2.5C13 1.67157 12.3284 1 11.5 1H10.5ZM8.5 6C7.67157 6 7 6.67157 7 7.5V11H9V14C9 14.5523 9.44772 15 10 15H12C12.5523 15 13 14.5523 13 14V11H15V7.5C15 6.67157 14.3284 6 13.5 6H8.5Z" fill="white"/>
</svg>
