<svg width="16" height="16" viewBox="0 0 16 16" fill="none" xmlns="http://www.w3.org/2000/svg">
<path fill-rule="evenodd" clip-rule="evenodd" d="M6 2.5C6 1.67157 6.67157 1 7.5 1H8.5C9.32843 1 10 1.67157 10 2.5V3.05C9.02042 3.24884 8.24882 4.02043 8.04998 5H7.94996C7.75112 4.02044 6.97955 3.24887 6 3.05001V2.5Z" fill="white" fill-opacity="0.5"/>
<path fill-rule="evenodd" clip-rule="evenodd" d="M3 5.5C3 4.67157 3.67157 4 4.5 4H5.5C6.32843 4 7 4.67157 7 5.5V6.5C7 7.32843 6.32843 8 5.5 8H4.5C3.67157 8 3 7.32843 3 6.5V5.5ZM9 5.5C9 4.67157 9.67157 4 10.5 4H11.5C12.3284 4 13 4.67157 13 5.5V6.5C13 7.32843 12.3284 8 11.5 8H10.5C9.67157 8 9 7.32843 9 6.5V5.5ZM2.5 9C1.67157 9 1 9.67157 1 10.5V14H15V10.5C15 9.67157 14.3284 9 13.5 9H2.5Z" fill="white"/>
</svg>
