<svg width="16" height="16" viewBox="0 0 16 16" fill="none" xmlns="http://www.w3.org/2000/svg">
<path fill-rule="evenodd" clip-rule="evenodd" d="M6 12V11V7.5C6 6.9372 6.18597 6.41783 6.49982 6H2.5C1.67157 6 1 6.67157 1 7.5V11H3V14C3 14.5523 3.44772 15 4 15H6C6.55228 15 7 14.5523 7 14V12H6ZM4.5 1C3.67157 1 3 1.67157 3 2.5V3.5C3 4.32843 3.67157 5 4.5 5H5.5C6.32843 5 7 4.32843 7 3.5V2.5C7 1.67157 6.32843 1 5.5 1H4.5Z" fill="white" fill-opacity="0.5"/>
<path fill-rule="evenodd" clip-rule="evenodd" d="M9 2.5C9 1.67157 9.67157 1 10.5 1H11.5C12.3284 1 13 1.67157 13 2.5V3.5C13 4.32843 12.3284 5 11.5 5H10.5C9.67157 5 9 4.32843 9 3.5V2.5ZM7 7.5C7 6.67157 7.67157 6 8.5 6H13C13.5523 6 14 5.55228 14 5V3H16V5C16 6.65685 14.6569 8 13 8V14C13 14.5523 12.5523 15 12 15H10C9.44772 15 9 14.5523 9 14V11H7V7.5Z" fill="white"/>
</svg>
