<svg width="16" height="16" viewBox="0 0 16 16" fill="none" xmlns="http://www.w3.org/2000/svg">
<path fill-rule="evenodd" clip-rule="evenodd" d="M5.5 1C6.32843 1 7 1.67157 7 2.5V3.5C7 4.32843 6.32843 5 5.5 5H4.5C3.67157 5 3 4.32843 3 3.5V2.5C3 1.67157 3.67157 1 4.5 1H5.5ZM2.5 6H7C7 7.10457 7.89543 8 9 8V8.29289V11H7V14C7 14.5523 6.55228 15 6 15H4C3.44772 15 3 14.5523 3 14V11H1V7.5C1 6.67157 1.67157 6 2.5 6Z" fill="white" fill-opacity="0.5"/>
<path fill-rule="evenodd" clip-rule="evenodd" d="M9 1C8.44772 1 8 1.44772 8 2V6C8 6.55228 8.44772 7 9 7H10V8.29289C10 8.73835 10.5386 8.96143 10.8536 8.64645L12.5 7H15C15.5523 7 16 6.55228 16 6V2C16 1.44772 15.5523 1 15 1H9Z" fill="white"/>
</svg>
