<svg width="16" height="16" viewBox="0 0 16 16" fill="none" xmlns="http://www.w3.org/2000/svg">
<path fill-rule="evenodd" clip-rule="evenodd" d="M10.5 1C9.67157 1 9 1.67157 9 2.5V3.5C9 4.32843 9.67157 5 10.5 5H11.5C12.3284 5 13 4.32843 13 3.5V2.5C13 1.67157 12.3284 1 11.5 1H10.5ZM1 9V8L5 8L5 6.70711C5 6.26166 5.53857 6.03857 5.85355 6.35355L7 7.5V7.49989L7.29289 7.79278L8 8.49989L7.99994 8.49994L8 8.5L5.85355 10.6464C5.53857 10.9614 5 10.7383 5 10.2929L5 9L1 9ZM9.41421 8.49989L8.70711 9.20699L7 10.9141V11H9V14C9 14.5523 9.44772 15 10 15H12C12.5523 15 13 14.5523 13 14V11H15V7.5C15 6.67157 14.3284 6 13.5 6H8.5C8.06399 6 7.67143 6.18603 7.39736 6.48304L8.70711 7.79278L9.41421 8.49989Z" fill="white"/>
</svg>
