<svg width="16" height="16" viewBox="0 0 16 16" fill="none" xmlns="http://www.w3.org/2000/svg">
<path fill-rule="evenodd" clip-rule="evenodd" d="M5.5 0C4.67157 0 4 0.671573 4 1.5V2.5C4 3.32843 4.67157 4 5.5 4H6.5C7.32843 4 8 3.32843 8 2.5V1.5C8 0.671573 7.32843 0 6.5 0H5.5ZM4 5H8H11C11.5523 5 12 5.44772 12 6V7H8V9L9 11H6.28571H5.71429H5V12.25L4 14H2.30902C1.93733 14 1.69558 13.6088 1.8618 13.2764L4 9V7H0V6C0 5.44772 0.447715 5 1 5H4Z" fill="white" fill-opacity="0.5"/>
<path fill-rule="evenodd" clip-rule="evenodd" d="M13 10C13.5523 10 14 10.4477 14 11V14L12 16L10 14V11C10 10.4477 10.4477 10 11 10H13ZM16 13H15V12H16V13ZM8.5 12H9V13H8.5H6.5H6V12H6.5H8.5Z" fill="white"/>
</svg>
