<svg width="16" height="16" viewBox="0 0 16 16" fill="none" xmlns="http://www.w3.org/2000/svg">
<path fill-rule="evenodd" clip-rule="evenodd" d="M5 1V2H11V1H10.4142C10.149 1 9.89464 0.894643 9.70711 0.707107L9.29289 0.292893C9.10536 0.105356 8.851 0 8.58579 0H7.41421C7.149 0 6.89464 0.105357 6.70711 0.292893L6.29289 0.707107C6.10536 0.894643 5.851 1 5.58579 1H5ZM6 3H10V3.5C10 4.32843 9.32843 5 8.5 5H7.5C6.67157 5 6 4.32843 6 3.5V3ZM10 6H6H3C2.44772 6 2 6.44772 2 7V8H6V10L3.8618 14.2764C3.69558 14.6088 3.93733 15 4.30902 15H6L8 11.5V10H10V8H14V7C14 6.44772 13.5523 6 13 6H10ZM9 15H9.5C9.77614 15 10 14.7761 10 14.5V13L10.7071 12.2929C10.8946 12.1054 11 11.851 11 11.5858V11H9V15Z" fill="white"/>
</svg>
