<svg width="16" height="16" viewBox="0 0 16 16" fill="none" xmlns="http://www.w3.org/2000/svg">
<path fill-rule="evenodd" clip-rule="evenodd" d="M4.5 1C3.67157 1 3 1.67157 3 2.5V3.5C3 4.32843 3.67157 5 4.5 5H5.5C6.32843 5 7 4.32843 7 3.5V2.5C7 1.67157 6.32843 1 5.5 1H4.5ZM2.5 6C1.67157 6 1 6.67157 1 7.5V11H3V14C3 14.5523 3.44772 15 4 15H6V13H7V11V9C7 7.92382 7.85 7.04616 8.91527 7.00176C8.70985 6.41825 8.15377 6 7.5 6H2.5Z" fill="white" fill-opacity="0.5"/>
<path fill-rule="evenodd" clip-rule="evenodd" d="M15 10L14 10V13V14V15C14 15.5523 13.5523 16 13 16H8C7.44772 16 7 15.5523 7 15V14H13V13H8V10V9C8 8.44772 8.44771 8 9 8H14C14.5523 8 15 8.44771 15 9V10Z" fill="white"/>
</svg>
