<svg width="16" height="16" viewBox="0 0 16 16" fill="none" xmlns="http://www.w3.org/2000/svg">
<path fill-rule="evenodd" clip-rule="evenodd" d="M4.5 1C3.67157 1 3 1.67157 3 2.5V3.5C3 4.32843 3.67157 5 4.5 5H5.5C6.32843 5 7 4.32843 7 3.5V2.5C7 1.67157 6.32843 1 5.5 1H4.5ZM9 7.5V9.58579L6.58579 12C6.21071 12.3751 6 12.8838 6 13.4142V15H4C3.44772 15 3 14.5523 3 14V11H1V7.5C1 6.67157 1.67157 6 2.5 6H7.5C8.32843 6 9 6.67157 9 7.5Z" fill="white" fill-opacity="0.5"/>
<path fill-rule="evenodd" clip-rule="evenodd" d="M7 15V13.4142C7 13.149 7.10536 12.8946 7.29289 12.7071L11.6464 8.35355L13.6464 10.3536L9.29289 14.7071C9.10536 14.8946 8.851 15 8.58579 15H7ZM14.3536 9.64645L15 9L13 7L12.3536 7.64645L14.3536 9.64645Z" fill="white"/>
</svg>
