<svg width="16" height="16" viewBox="0 0 16 16" fill="none" xmlns="http://www.w3.org/2000/svg">
<path fill-rule="evenodd" clip-rule="evenodd" d="M4 2.5C4 1.67157 4.67157 1 5.5 1H6.5C7.32843 1 8 1.67157 8 2.5V3.5C8 4.32843 7.32843 5 6.5 5H5.5C4.67157 5 4 4.32843 4 3.5V2.5ZM2 7.5C2 6.67157 2.67157 6 3.5 6H8C8.55228 6 9 5.55228 9 5V3H11V5C11 6.65685 9.65685 8 8 8V14C8 14.5523 7.55228 15 7 15H5C4.44772 15 4 14.5523 4 14V11H2V7.5Z" fill="white" fill-opacity="0.5"/>
<path fill-rule="evenodd" clip-rule="evenodd" d="M15 12C15 12.5523 14.5523 13 14 13V11C14 9.89543 13.1046 9 12 9H11C11 8.44772 11.4477 8 12 8H14C14.5523 8 15 8.44772 15 9V12ZM9 14C9 14.5523 9.44772 15 10 15H12C12.5523 15 13 14.5523 13 14V11C13 10.4477 12.5523 10 12 10H10C9.44772 10 9 10.4477 9 11V14Z" fill="white"/>
</svg>
