<svg width="16" height="16" viewBox="0 0 16 16" fill="none" xmlns="http://www.w3.org/2000/svg">
<path fill-rule="evenodd" clip-rule="evenodd" d="M3 2.5C3 1.67157 3.67157 1 4.5 1H5.5C6.32843 1 7 1.67157 7 2.5V3.5C7 4.32843 6.32843 5 5.5 5H4.5C3.67157 5 3 4.32843 3 3.5V2.5ZM1 7.5C1 6.67157 1.67157 6 2.5 6H6.06831L6 6.02928V7.01837V10.5462C6 11.7002 6.36113 12.7993 7 13.7085V14C7 14.5523 6.55228 15 6 15H4C3.44772 15 3 14.5523 3 14V11H1V7.5Z" fill="white" fill-opacity="0.5"/>
<path fill-rule="evenodd" clip-rule="evenodd" d="M11.197 5.0588L11 4.97439L10.803 5.0588L7.30304 6.5588L7 6.68868V7.01837V10.5462C7 12.2507 7.96301 13.8089 9.48754 14.5712L10.2764 14.9656L10.382 15.0184H10.5H11.5H11.618L11.7236 14.9656L12.5125 14.5712C14.037 13.8089 15 12.2507 15 10.5462V7.01837V6.68868L14.697 6.5588L11.197 5.0588ZM8 10.5462V7.34807L11 6.06236L14 7.34807V10.5462C14 11.8719 13.251 13.0839 12.0652 13.6767L11.382 14.0184H10.618L9.93475 13.6767C8.74901 13.0839 8 11.8719 8 10.5462ZM11 13.0184V7.15035L13 8.00749V10.5463C13 11.4932 12.465 12.3588 11.618 12.7823L11.1459 13.0184H11Z" fill="white"/>
</svg>
