<svg width="16" height="16" viewBox="0 0 16 16" fill="none" xmlns="http://www.w3.org/2000/svg">
<path fill-rule="evenodd" clip-rule="evenodd" d="M6 2.5C6 1.67157 6.67157 1 7.5 1H8.5C9.32843 1 10 1.67157 10 2.5V3.5C10 4.32843 9.32843 5 8.5 5H7.5C6.67157 5 6 4.32843 6 3.5V2.5ZM10 6H6V8V10C6 10.5523 6.44772 11 7 11H9C9.55228 11 10 10.5523 10 10V8V6ZM11 6V8H14V7C14 6.44772 13.5523 6 13 6H11ZM10.6001 11.2001C10.2352 11.6858 9.65427 12 9 12H8.28571L10 15H11.691C12.0627 15 12.3044 14.6088 12.1382 14.2764L10.6001 11.2001ZM7.71429 12H7C6.34573 12 5.76483 11.6858 5.39994 11.2001L3.8618 14.2764C3.69558 14.6088 3.93733 15 4.30902 15H6L7.71429 12ZM5 8V6H3C2.44772 6 2 6.44772 2 7V8H5Z" fill="white"/>
</svg>
