<svg width="16" height="16" viewBox="0 0 16 16" fill="none" xmlns="http://www.w3.org/2000/svg">
<path fill-rule="evenodd" clip-rule="evenodd" d="M2.5 1C1.67157 1 1 1.67157 1 2.5V4.5V5H2V4.5V2.5C2 2.22386 2.22386 2 2.5 2H4.5H5V1H4.5H2.5ZM7 4C7 3.44772 7.44772 3 8 3C8.55228 3 9 3.44772 9 4C9 4.55228 8.55228 5 8 5C7.44772 5 7 4.55228 7 4ZM7.63014 9.5L6.02299 12H4.83418L7 8.63095V7H4V6H7H9H12V7H9V8.6309L11.1659 12H9.97704L8.3699 9.5H7.63014ZM15 13.5C15 14.3284 14.3284 15 13.5 15H11.5H11V14H11.5H13.5C13.7761 14 14 13.7761 14 13.5V11.5V11H15V11.5V13.5ZM15 2.5C15 1.67157 14.3284 1 13.5 1H11.5H11V2L11.5 2L13.5 2C13.7761 2 14 2.22386 14 2.5V4.5V5H15V4.5V2.5ZM2.5 15C1.67157 15 1 14.3284 1 13.5V11.5V11H2L2 11.5L2 13.5C2 13.7761 2.22386 14 2.5 14H4.5H5V15H4.5H2.5Z" fill="white"/>
</svg>
