<svg width="16" height="16" viewBox="0 0 16 16" fill="none" xmlns="http://www.w3.org/2000/svg">
<path fill-rule="evenodd" clip-rule="evenodd" d="M3 2.5C3 1.67157 3.67157 1 4.5 1H5.5C6.32843 1 7 1.67157 7 2.5V3.5C7 4.32843 6.32843 5 5.5 5H4.5C3.67157 5 3 4.32843 3 3.5V2.5ZM1 7.5C1 6.67157 1.67157 6 2.5 6H5.59971C5.21628 6.75007 5 7.59978 5 8.5C5 10.2079 5.7785 11.734 7 12.7428V14C7 14.5523 6.55228 15 6 15H4C3.44772 15 3 14.5523 3 14V11H1V7.5Z" fill="white" fill-opacity="0.5"/>
<path fill-rule="evenodd" clip-rule="evenodd" d="M14.624 10.3036C14.8658 9.75145 15 9.1414 15 8.5C15 7.85861 14.8658 7.24855 14.624 6.69638L14.2141 6.93301L11.5 8.5L14.2141 10.067L14.624 10.3036ZM14.4398 10.676L14.3586 10.8167C14.3865 10.7704 14.4136 10.7235 14.4398 10.676ZM14.1232 11.1692L13.7141 10.933L11 9.36602V12.5V12.9725C12.2793 12.8311 13.397 12.1534 14.1232 11.1692ZM10 12.9725V12.5V9.36603L7.28592 10.933L6.87677 11.1692C7.60303 12.1534 8.72071 12.8311 10 12.9725ZM6.64236 10.8183L6.55925 10.6744C6.58609 10.7229 6.6138 10.7709 6.64236 10.8183ZM6.37603 10.3036C6.13419 9.75146 6 9.1414 6 8.5C6 7.8586 6.13419 7.24854 6.37603 6.69636L6.78592 6.93301L9.50002 8.5L6.78592 10.067L6.37603 10.3036ZM6.55925 6.32561L6.64236 6.18167C6.6138 6.22908 6.58609 6.27707 6.55925 6.32561ZM6.87677 5.83076L7.28592 6.06699L10 7.63397V4.5V4.02746C8.72071 4.16888 7.60303 4.84658 6.87677 5.83076ZM11 4.02747V4.5V7.63398L13.7141 6.06699L14.1232 5.83078C13.397 4.84659 12.2793 4.16889 11 4.02747ZM14.3586 6.18327L14.4398 6.32398C14.4136 6.27654 14.3865 6.22964 14.3586 6.18327Z" fill="white"/>
</svg>
