<svg width="16" height="16" viewBox="0 0 16 16" fill="none" xmlns="http://www.w3.org/2000/svg">
<path fill-rule="evenodd" clip-rule="evenodd" d="M3.5 1C2.67157 1 2 1.67157 2 2.5V3.5C2 4.32843 2.67157 5 3.5 5H4.5C5.32843 5 6 4.32843 6 3.5V2.5C6 1.67157 5.32843 1 4.5 1H3.5ZM1.5 6C0.671573 6 0 6.67157 0 7.5V11H2V14C2 14.5523 2.44772 15 3 15H3.33442C3.24407 14.6653 3.21697 14.3064 3.26606 13.9383L3.86388 9.45463C4.00771 8.37587 4.8329 7.51409 5.90441 7.32362L7.00335 7.12828C7.33248 7.06977 7.66324 7.09556 7.96886 7.19446C7.82774 6.51255 7.22373 6 6.5 6H1.5Z" fill="white" fill-opacity="0.5"/>
<path fill-rule="evenodd" clip-rule="evenodd" d="M7.47094 15.0579L7.99989 14L11.9999 14L12.5289 15.0579C12.8175 15.6353 13.4076 16 14.0532 16C15.084 16.0001 15.8788 15.0922 15.7426 14.0705L15.1448 9.58677C15.0585 8.93951 14.5634 8.42244 13.9205 8.30816L12.8215 8.11282C12.4354 8.04418 12.0447 8.20763 11.8225 8.53083L11.4999 9.00004H8.49989L8.17729 8.53083C7.95508 8.20763 7.56443 8.04418 7.17826 8.11282L6.07932 8.30816C5.43641 8.42244 4.9413 8.93951 4.85499 9.58677L4.25718 14.0704C4.12094 15.0922 4.91584 16.0001 5.94662 16C6.59214 16 7.18225 15.6353 7.47094 15.0579ZM9.99989 12.0001C10.5522 12.0001 10.9999 11.5523 10.9999 11.0001C10.9999 10.4478 10.5522 10.0001 9.99989 10.0001C9.44761 10.0001 8.99989 10.4478 8.99989 11.0001C8.99989 11.5523 9.44761 12.0001 9.99989 12.0001Z" fill="white"/>
</svg>
