<svg width="16" height="16" viewBox="0 0 16 16" fill="none" xmlns="http://www.w3.org/2000/svg">
<path fill-rule="evenodd" clip-rule="evenodd" d="M3 2.5C3 1.67157 3.67157 1 4.5 1H5.5C6.32843 1 7 1.67157 7 2.5V3.5C7 4.32843 6.32843 5 5.5 5H4.5C3.67157 5 3 4.32843 3 3.5V2.5ZM1 7.5C1 6.67157 1.67157 6 2.5 6H8V7V8H9V8.66667L6.4 12.1333C6.14036 12.4795 6 12.9006 6 13.3333V14C6 14.3514 6.09062 14.6816 6.24976 14.9686C6.16992 14.9891 6.08624 15 6 15H4C3.44772 15 3 14.5523 3 14V11H1V7.5Z" fill="white" fill-opacity="0.5"/>
<path fill-rule="evenodd" clip-rule="evenodd" d="M11 9.33333L11.2 9.6L13 12H9L10.8 9.6L11 9.33333ZM11 6H12H13V7H12V8V9L14.8 12.7333C14.9298 12.9064 15 13.117 15 13.3333V14C15 14.5523 14.5523 15 14 15H8C7.44772 15 7 14.5523 7 14V13.3333C7 13.117 7.07018 12.9064 7.2 12.7333L10 9V8V7H9V6H10H11Z" fill="white"/>
</svg>
