<svg width="16" height="16" viewBox="0 0 16 16" fill="none" xmlns="http://www.w3.org/2000/svg">
<path fill-rule="evenodd" clip-rule="evenodd" d="M4.5 1C3.67157 1 3 1.67157 3 2.5V3.5C3 4.32843 3.67157 5 4.5 5H5.5C6.32843 5 7 4.32843 7 3.5V2.5C7 1.67157 6.32843 1 5.5 1H4.5ZM2.5 6C1.67157 6 1 6.67157 1 7.5V11H3V14C3 14.5523 3.44772 15 4 15H6C6.55228 15 7 14.5523 7 14V11H8V8H9V7.5C9 6.67157 8.32843 6 7.5 6H2.5Z" fill="white" fill-opacity="0.5"/>
<path fill-rule="evenodd" clip-rule="evenodd" d="M10 7H11V9H13V7H14V9H15V11.3787C15 11.7765 14.842 12.158 14.5607 12.4393L13 14V15H11V14L9.43934 12.4393C9.15803 12.158 9 11.7765 9 11.3787V9H10V7Z" fill="white"/>
</svg>
