<svg width="16" height="16" viewBox="0 0 16 16" fill="none" xmlns="http://www.w3.org/2000/svg">
<path fill-rule="evenodd" clip-rule="evenodd" d="M4.5 1C3.67157 1 3 1.67157 3 2.5V3.5C3 4.32843 3.67157 5 4.5 5H5.5C6.32843 5 7 4.32843 7 3.5V2.5C7 1.67157 6.32843 1 5.5 1H4.5ZM8 9V8L12 8V6.70711C12 6.26166 12.5386 6.03857 12.8536 6.35355L15 8.5L12.8536 10.6464C12.5386 10.9614 12 10.7383 12 10.2929V9L8 9ZM1 7.5C1 6.67157 1.67157 6 2.5 6H7.5C8.15311 6 8.70873 6.4174 8.91465 7H7V10H9V11H7V14C7 14.5523 6.55228 15 6 15H4C3.44772 15 3 14.5523 3 14V11H1V7.5Z" fill="white"/>
</svg>
