<svg width="16" height="16" viewBox="0 0 16 16" fill="none" xmlns="http://www.w3.org/2000/svg">
<path fill-rule="evenodd" clip-rule="evenodd" d="M4.5 1C3.67157 1 3 1.67157 3 2.5V3.5C3 4.32843 3.67157 5 4.5 5H5.5C6.32843 5 7 4.32843 7 3.5V2.5C7 1.67157 6.32843 1 5.5 1H4.5ZM2.5 6H7.33692C5.92345 6.99537 5 8.63984 5 10.5C5 12.1193 5.69981 13.5752 6.8135 14.5817C6.63207 14.835 6.33531 15 6 15H4C3.44772 15 3 14.5523 3 14V11H1V7.5C1 6.67157 1.67157 6 2.5 6Z" fill="white" fill-opacity="0.5"/>
<path fill-rule="evenodd" clip-rule="evenodd" d="M13.4998 10.5C13.4998 9.05861 13.2087 7.70609 12.7171 6.69571C12.6916 6.64316 12.6652 6.59106 12.638 6.53951C13.9457 7.24701 14.8633 8.58325 14.9858 10.143C14.9144 10.5134 14.5642 10.9443 13.8116 11.3206C13.6988 11.377 13.5794 11.4307 13.4539 11.4814C13.4841 11.1622 13.4998 10.8341 13.4998 10.5ZM12.4097 11.7998C12.468 11.3896 12.4998 10.9536 12.4998 10.5C12.4998 9.17997 12.2311 7.98249 11.8179 7.13322C11.5281 6.53756 11.208 6.18537 10.9111 6.01855C10.7756 6.00627 10.6384 6 10.4997 6C10.3611 6 10.2239 6.00627 10.0885 6.01854C9.79154 6.18536 9.47143 6.53755 9.1816 7.13322C8.76838 7.98249 8.49976 9.17997 8.49976 10.5C8.49976 10.9537 8.53148 11.3896 8.58981 11.7998C9.16732 11.9274 9.81328 12 10.4997 12C11.1862 12 11.8322 11.9274 12.4097 11.7998ZM8.8148 12.862C9.34776 12.952 9.91453 13 10.4997 13C11.0849 13 11.6517 12.952 12.1847 12.862C12.083 13.2136 11.9598 13.5329 11.8203 13.8119C11.3953 14.6619 10.9006 14.9987 10.5021 15M12.5959 14.483C12.6372 14.4097 12.6768 14.335 12.7147 14.2591C12.9548 13.7791 13.1469 13.2183 13.281 12.6032C13.6337 12.4937 13.9617 12.3635 14.2589 12.215C14.437 12.1259 14.6091 12.0273 14.7713 11.9195C14.403 13.0282 13.6151 13.9455 12.5959 14.483ZM8.40369 14.4831C7.3844 13.9456 6.59646 13.0283 6.22818 11.9195C6.39032 12.0273 6.56242 12.1259 6.74058 12.215C7.03772 12.3636 7.36579 12.4938 7.71854 12.6032C7.85264 13.2183 8.04476 13.7791 8.28478 14.2591C8.3227 14.335 8.36234 14.4097 8.40369 14.4831ZM7.54557 11.4815C7.42008 11.4307 7.30065 11.377 7.18779 11.3206C6.43525 10.9443 6.08501 10.5134 6.01367 10.143C6.1361 8.5832 7.05382 7.24693 8.36154 6.53944C8.33435 6.59102 8.30796 6.64314 8.28239 6.69571C7.79078 7.70609 7.49976 9.05861 7.49976 10.5C7.49976 10.8341 7.5154 11.1622 7.54557 11.4815ZM8.8148 12.862C8.91656 13.2136 9.03968 13.5329 9.1792 13.8119C9.60504 14.6636 10.1008 15 10.4998 15" fill="white"/>
</svg>
