<svg width="16" height="16" viewBox="0 0 16 16" fill="none" xmlns="http://www.w3.org/2000/svg">
<path fill-rule="evenodd" clip-rule="evenodd" d="M5 2.5C5 1.67157 5.67157 1 6.5 1H7.5C8.32843 1 9 1.67157 9 2.5V3.5C9 4.32843 8.32843 5 7.5 5H6.5C5.67157 5 5 4.32843 5 3.5V2.5ZM9 6H5H2C1.44772 6 1 6.44772 1 7V8H5V10L2.8618 14.2764C2.69558 14.6088 2.93733 15 3.30902 15H5L6.71429 12H7.28571L8 13.25V11C8 10.2597 8.4022 9.61337 9 9.26756V8H10.2676C10.6134 7.4022 11.2597 7 12 7H13C13 6.44772 12.5523 6 12 6H9Z" fill="white" fill-opacity="0.5"/>
<path fill-rule="evenodd" clip-rule="evenodd" d="M15 12C15 12.5523 14.5523 13 14 13V11C14 9.89543 13.1046 9 12 9H11C11 8.44772 11.4477 8 12 8H14C14.5523 8 15 8.44772 15 9V12ZM9 14C9 14.5523 9.44772 15 10 15H12C12.5523 15 13 14.5523 13 14V11C13 10.4477 12.5523 10 12 10H10C9.44772 10 9 10.4477 9 11V14Z" fill="white"/>
</svg>
