<svg width="16" height="16" viewBox="0 0 16 16" fill="none" xmlns="http://www.w3.org/2000/svg">
<path fill-rule="evenodd" clip-rule="evenodd" d="M7.5 1C6.67157 1 6 1.67157 6 2.5V3.5C6 4.32843 6.67157 5 7.5 5H8.5C9.32843 5 10 4.32843 10 3.5V2.5C10 1.67157 9.32843 1 8.5 1H7.5ZM6 6H10H13C13.5523 6 14 6.44772 14 7V8H10V10L12.1382 14.2764C12.3044 14.6088 12.0627 15 11.691 15H10L8.28571 12H7.71429L6 15H4.30902C3.93733 15 3.69558 14.6088 3.8618 14.2764L6 10V8H2V7C2 6.44772 2.44772 6 3 6H6Z" fill="white"/>
</svg>
