<svg width="16" height="16" viewBox="0 0 16 16" fill="none" xmlns="http://www.w3.org/2000/svg">
<path fill-rule="evenodd" clip-rule="evenodd" d="M6.08535 2C6.03008 2.15639 6 2.32468 6 2.5V3H7.5H8V4H7.5H6.08535C6.29127 4.5826 6.84689 5 7.5 5H8.5C9.32843 5 10 4.32843 10 3.5V2.5C10 1.67157 9.32843 1 8.5 1H8V2H7.5H6.08535ZM5.5 6C4.84689 6 4.29127 6.4174 4.08535 7H7.5H8V8H7.5H4V9H7.5H8V10H7.5H4V11H6H7.5H8V12H7.5H6V13H7.5H8V14H7.5H6C6 14.5523 6.44772 15 7 15H9C9.55228 15 10 14.5523 10 14V11H12V7.5C12 6.67157 11.3284 6 10.5 6H5.5Z" fill="white"/>
</svg>
