<svg width="16" height="16" viewBox="0 0 16 16" fill="none" xmlns="http://www.w3.org/2000/svg">
<path fill-rule="evenodd" clip-rule="evenodd" d="M3 2.5C3 1.67157 3.67157 1 4.5 1H5.5C6.32843 1 7 1.67157 7 2.5V3.5C7 4.32843 6.32843 5 5.5 5H4.5C3.67157 5 3 4.32843 3 3.5V2.5ZM1 7.5C1 6.67157 1.67157 6 2.5 6H7.5C8.32843 6 9 6.67157 9 7.5V8.3756C8.99664 8.41662 8.99493 8.45811 8.99493 8.5V8.52724L8.97133 8.51362C8.2515 8.09802 7.33106 8.34465 6.91547 9.06448L6.41547 9.93051C5.99987 10.6503 6.2465 11.5708 6.96633 11.9864L6.98992 12L6.96633 12.0136C6.2465 12.4292 5.99987 13.3497 6.41547 14.0695L6.75437 14.6565C6.57104 14.867 6.30105 15 6 15H4C3.44772 15 3 14.5523 3 14V11H1V7.5Z" fill="white" fill-opacity="0.5"/>
<path fill-rule="evenodd" clip-rule="evenodd" d="M11.4999 8C11.7761 8 11.9999 8.22386 11.9999 8.5V9.17071C12.351 9.29481 12.6722 9.48242 12.9495 9.71974L13.531 9.38398C13.7702 9.24591 14.076 9.32784 14.214 9.56699L14.714 10.433C14.8521 10.6722 14.7702 10.978 14.531 11.116L13.9499 11.4515C13.9828 11.6294 13.9999 11.8127 13.9999 12C13.9999 12.1873 13.9828 12.3706 13.9499 12.5485L14.531 12.884C14.7702 13.022 14.8521 13.3278 14.714 13.567L14.214 14.433C14.076 14.6722 13.7702 14.7541 13.531 14.616L12.9495 14.2803C12.6722 14.5176 12.351 14.7052 11.9999 14.8293V15.5C11.9999 15.7761 11.7761 16 11.4999 16H10.4999C10.2238 16 9.99993 15.7761 9.99993 15.5V14.8293C9.64882 14.7052 9.3277 14.5176 9.05039 14.2803L8.46883 14.616C8.22969 14.7541 7.92389 14.6722 7.78582 14.433L7.28582 13.567C7.14775 13.3278 7.22969 13.022 7.46883 12.884L8.04995 12.5485C8.0171 12.3706 7.99993 12.1873 7.99993 12C7.99993 11.8127 8.0171 11.6294 8.04995 11.4515L7.46883 11.116C7.22969 10.978 7.14775 10.6722 7.28582 10.433L7.78582 9.56698C7.92389 9.32784 8.22969 9.2459 8.46883 9.38397L9.05039 9.71973C9.3277 9.48242 9.64882 9.29481 9.99993 9.17071V8.5C9.99993 8.22386 10.2238 8 10.4999 8H11.4999ZM12.4999 12C12.4999 12.8284 11.8284 13.5 10.9999 13.5C10.1715 13.5 9.49993 12.8284 9.49993 12C9.49993 11.1716 10.1715 10.5 10.9999 10.5C11.8284 10.5 12.4999 11.1716 12.4999 12Z" fill="white"/>
</svg>
