<svg width="16" height="16" viewBox="0 0 16 16" fill="none" xmlns="http://www.w3.org/2000/svg">
<path fill-rule="evenodd" clip-rule="evenodd" d="M4 8V11H6V14C6 14.5523 6.44772 15 7 15H8.87869L8.3787 14.5L9.0858 13.7929L9.43935 13.4393L10 12.8787V12.1213L9.43935 11.5607L9.0858 11.2071L8.3787 10.5L9.0858 9.79289L9.79291 9.08579L10.5 8.37868L11.2071 9.08579L11.5607 9.43934L12 9.87866V7.5C12 6.67157 11.3284 6 10.5 6H7H6H5.5C5.32468 6 5.15639 6.03008 5 6.08535V7V8H4ZM7 4.91465C7.15639 4.96992 7.32468 5 7.5 5H8.5C9.32843 5 10 4.32843 10 3.5V2.5C10 1.67157 9.32843 1 8.5 1H7.5C6.67157 1 6 1.67157 6 2.5V3H7V4V4.91465Z" fill="white" fill-opacity="0.5"/>
<path fill-rule="evenodd" clip-rule="evenodd" d="M3 2V4H1V5H3V7H4V5H6V4H4V2H3ZM15.2071 10.5L14.8536 10.8536L13.8536 11.8536L13.5 12.2071L12.7929 11.5L13.1465 11.1464L14.1465 10.1464L14.5 9.79289L15.2071 10.5ZM12.2071 13.5L11.8536 13.8536L10.8536 14.8536L10.5 15.2071L9.79291 14.5L10.1465 14.1464L11.1465 13.1464L11.5 12.7929L12.2071 13.5ZM13.1465 13.8536L12.7929 13.5L13.5 12.7929L13.8536 13.1464L14.8536 14.1464L15.2071 14.5L14.5 15.2071L14.1465 14.8536L13.1465 13.8536ZM9.79291 10.5L10.1465 10.8536L11.1465 11.8536L11.5 12.2071L12.2071 11.5L11.8536 11.1464L10.8536 10.1464L10.5 9.79289L9.79291 10.5Z" fill="white"/>
</svg>
