<svg width="16" height="16" viewBox="0 0 16 16" fill="none" xmlns="http://www.w3.org/2000/svg">
<path fill-rule="evenodd" clip-rule="evenodd" d="M4 2.5C4 1.67157 4.67157 1 5.5 1H13.5C14.3284 1 15 1.67157 15 2.5V13.5C15 14.3284 14.3284 15 13.5 15H7.73244C7.90261 14.7058 8 14.3643 8 14H11V13H8V6C8 4.89543 7.10457 4 6 4H4V2.5Z" fill="white" fill-opacity="0.5"/>
<path fill-rule="evenodd" clip-rule="evenodd" d="M2 5C1.44772 5 1 5.44772 1 6V14C1 14.5523 1.44772 15 2 15H6C6.55228 15 7 14.5523 7 14V6C7 5.44772 6.55228 5 6 5H2ZM5 13H3V14H5V13Z" fill="white"/>
</svg>
