<svg width="16" height="16" viewBox="0 0 16 16" fill="none" xmlns="http://www.w3.org/2000/svg">
<path fill-rule="evenodd" clip-rule="evenodd" d="M1 2.5C1 1.67157 1.67157 1 2.5 1H13.5C14.3284 1 15 1.67157 15 2.5V8H10.5C9.11929 8 8 9.11929 8 10.5V15H2.5C1.67157 15 1 14.3284 1 13.5V2.5ZM4.29289 6.70711L2 9V13.5C2 13.7761 2.22386 14 2.5 14H7V8L5.70711 6.70711C5.31658 6.31658 4.68342 6.31658 4.29289 6.70711ZM11 6C11.5523 6 12 5.55228 12 5C12 4.44772 11.5523 4 11 4C10.4477 4 10 4.44772 10 5C10 5.55228 10.4477 6 11 6Z" fill="white"/>
<path d="M9 10.5V15L15 9H10.5C9.67157 9 9 9.67157 9 10.5Z" fill="white" fill-opacity="0.5"/>
</svg>
