<svg width="16" height="16" viewBox="0 0 16 16" fill="none" xmlns="http://www.w3.org/2000/svg">
<path fill-rule="evenodd" clip-rule="evenodd" d="M2.5 3C2.22386 3 2 3.22386 2 3.5V5.5V6H1V5.5V3.5C1 2.67157 1.67157 2 2.5 2H4.5H5V3H4.5H2.5ZM11 2H11.5H13.5C14.3284 2 15 2.67157 15 3.5V5.5V6H14V5.5V3.5C14 3.22386 13.7761 3 13.5 3H11.5H11V2ZM2 10V10.5V12.5C2 12.7761 2.22386 13 2.5 13H4.5H5V14H4.5H2.5C1.67157 14 1 13.3284 1 12.5V10.5V10H2ZM15 10V10.5V12.5C15 13.3284 14.3284 14 13.5 14H11.5H11V13H11.5H13.5C13.7761 13 14 12.7761 14 12.5V10.5V10H15ZM11 5C11.5523 5 12 5.44772 12 6C12 6.55228 11.5523 7 11 7C10.4477 7 10 6.55228 10 6C10 5.44772 10.4477 5 11 5ZM3 8L4.29289 6.70711C4.68342 6.31658 5.31658 6.31658 5.70711 6.70711L9 10H13V12H3V8Z" fill="white"/>
</svg>
