<svg width="16" height="16" viewBox="0 0 16 16" fill="none" xmlns="http://www.w3.org/2000/svg">
<path fill-rule="evenodd" clip-rule="evenodd" d="M2.5 2C2.22386 2 2 2.22386 2 2.5V4.5V5H1V4.5V2.5C1 1.67157 1.67157 1 2.5 1H4.5H5V2H4.5H2.5ZM11 1H11.5H13.5C14.3284 1 15 1.67157 15 2.5V4.5V5H14V4.5V2.5C14 2.22386 13.7761 2 13.5 2H11.5H11V1ZM2 11V11.5V13.5C2 13.7761 2.22386 14 2.5 14H4.5H5V15H4.5H2.5C1.67157 15 1 14.3284 1 13.5V11.5V11H2ZM15 11V11.5V13.5C15 14.3284 14.3284 15 13.5 15H11.5H11V14H11.5H13.5C13.7761 14 14 13.7761 14 13.5V11.5V11H15ZM12 5C12 5.55228 11.5523 6 11 6C10.4477 6 10 5.55228 10 5C10 4.44772 10.4477 4 11 4C11.5523 4 12 4.44772 12 5ZM3 9L4.29289 7.70711C4.68342 7.31658 5.31658 7.31658 5.70711 7.70711L9 11H13V13H3V9Z" fill="white"/>
</svg>
