<svg width="16" height="16" viewBox="0 0 16 16" fill="none" xmlns="http://www.w3.org/2000/svg">
<path fill-rule="evenodd" clip-rule="evenodd" d="M1.82168 7.05365L4.50011 9.99998L7.17844 7.05364C8.47809 5.62395 8.42573 3.42556 7.05951 2.05935C5.64598 0.645837 3.35422 0.645793 1.94064 2.05926C0.574335 3.42547 0.521967 5.62394 1.82168 7.05365ZM6.00014 4.49984C6.00014 5.32826 5.32857 5.99984 4.50015 5.99984C3.67172 5.99984 3.00015 5.32826 3.00015 4.49984C3.00015 3.67141 3.67172 2.99984 4.50015 2.99984C5.32857 2.99984 6.00014 3.67141 6.00014 4.49984ZM12.207 12C11.1025 12 10.207 11.1046 10.207 10C10.207 8.89543 11.1025 8 12.207 8C13.3116 8 14.207 8.89543 14.207 10C14.207 11.1046 13.3116 12 12.207 12ZM12.207 13C11.5591 13 10.9592 12.7946 10.4688 12.4454L8.06058 14.8536L7.70703 15.2071L6.99992 14.5L7.35348 14.1464L9.76166 11.7383C9.41243 11.2479 9.20703 10.6479 9.20703 10C9.20703 8.34315 10.5502 7 12.207 7C13.8639 7 15.207 8.34315 15.207 10C15.207 11.6569 13.8639 13 12.207 13Z" fill="white"/>
</svg>
