<svg width="16" height="16" viewBox="0 0 16 16" fill="none" xmlns="http://www.w3.org/2000/svg">
<path fill-rule="evenodd" clip-rule="evenodd" d="M3 3C3.55228 3 4 2.55228 4 2C4 1.44772 3.55228 1 3 1C2.44772 1 2 1.44772 2 2C2 2.55228 2.44772 3 3 3ZM3 7C3.55228 7 4 6.55228 4 6C4 5.44772 3.55228 5 3 5C2.44772 5 2 5.44772 2 6C2 6.55228 2.44772 7 3 7Z" fill="white" fill-opacity="0.5"/>
<path fill-rule="evenodd" clip-rule="evenodd" d="M11 7.99975L9 5.99975C7.89543 4.89518 7.89543 3.10432 9 1.99975C10.1046 0.895183 11.8954 0.895183 13 1.99975C14.1046 3.10432 14.1046 4.89518 13 5.99975L11 7.99975ZM11 4.99988C11.5523 4.99988 12 4.55216 12 3.99988C12 3.44759 11.5523 2.99987 11 2.99987C10.4477 2.99987 10 3.44759 10 3.99988C10 4.55216 10.4477 4.99988 11 4.99988ZM12 10C12 10.5523 11.5523 11 11 11C10.4477 11 10 10.5523 10 10C10 9.44771 10.4477 9 11 9C11.5523 9 12 9.44771 12 10ZM3 11C3.55228 11 4 10.5523 4 10C4 9.44771 3.55228 9 3 9C2.44772 9 2 9.44771 2 10C2 10.5523 2.44772 11 3 11ZM4 14C4 14.5523 3.55228 15 3 15C2.44772 15 2 14.5523 2 14C2 13.4477 2.44772 13 3 13C3.55228 13 4 13.4477 4 14ZM7 11C7.55228 11 8 10.5523 8 10C8 9.44771 7.55228 9 7 9C6.44772 9 6 9.44771 6 10C6 10.5523 6.44772 11 7 11Z" fill="white"/>
</svg>
