<svg width="16" height="16" viewBox="0 0 16 16" fill="none" xmlns="http://www.w3.org/2000/svg">
<path fill-rule="evenodd" clip-rule="evenodd" d="M3.00006 7.99975L1.00006 5.99975C-0.104512 4.89518 -0.104511 3.10432 1.00006 1.99975C2.10463 0.895183 3.89549 0.895183 5.00006 1.99975C6.10463 3.10432 6.10463 4.89518 5.00006 5.99975L3.00006 7.99975ZM3.00006 4.99988C3.55234 4.99988 4.00006 4.55216 4.00006 3.99988C4.00006 3.44759 3.55234 2.99987 3.00006 2.99987C2.44777 2.99987 2.00006 3.44759 2.00006 3.99988C2.00006 4.55216 2.44777 4.99988 3.00006 4.99988Z" fill="white" fill-opacity="0.5"/>
<path fill-rule="evenodd" clip-rule="evenodd" d="M11 5.99975L13 7.99975L15 5.99975C16.1046 4.89518 16.1046 3.10432 15 1.99975C13.8954 0.895183 12.1046 0.895183 11 1.99975C9.89543 3.10432 9.89543 4.89518 11 5.99975ZM14 3.99988C14 4.55216 13.5523 4.99988 13 4.99988C12.4477 4.99988 12 4.55216 12 3.99988C12 3.44759 12.4477 2.99987 13 2.99987C13.5523 2.99987 14 3.44759 14 3.99988ZM2 11.2479V9H3V11.2479C3 12.7679 4.23214 14 5.75207 14C6.43194 14 7.08775 13.7483 7.5931 13.2935L10.3302 10.8302L9.35355 9.85355C9.03857 9.53857 9.26165 9 9.70711 9H13V12.2929C13 12.7383 12.4614 12.9614 12.1464 12.6464L11.0383 11.5383L8.26206 14.0368C7.57309 14.6569 6.67898 15 5.75207 15C3.67986 15 2 13.3201 2 11.2479Z" fill="white"/>
</svg>
