<svg width="16" height="16" viewBox="0 0 16 16" fill="none" xmlns="http://www.w3.org/2000/svg">
<path fill-rule="evenodd" clip-rule="evenodd" d="M3.00006 12.9998L1.00006 10.9998C-0.104512 9.89518 -0.104511 8.10432 1.00006 6.99975C2.10463 5.89518 3.89549 5.89518 5.00006 6.99975C6.10463 8.10432 6.10463 9.89518 5.00006 10.9998L3.00006 12.9998ZM3.00006 9.99988C3.55234 9.99988 4.00006 9.55216 4.00006 8.99988C4.00006 8.44759 3.55234 7.99987 3.00006 7.99987C2.44777 7.99987 2.00006 8.44759 2.00006 8.99988C2.00006 9.55216 2.44777 9.99988 3.00006 9.99988Z" fill="white" fill-opacity="0.5"/>
<path fill-rule="evenodd" clip-rule="evenodd" d="M13 6.99975L11 4.99975C9.89543 3.89518 9.89543 2.10432 11 0.999753C12.1046 -0.104817 13.8954 -0.104817 15 0.999753C16.1046 2.10432 16.1046 3.89518 15 4.99975L13 6.99975ZM13 3.99988C13.5523 3.99988 14 3.55216 14 2.99988C14 2.44759 13.5523 1.99987 13 1.99987C12.4477 1.99987 12 2.44759 12 2.99988C12 3.55216 12.4477 3.99988 13 3.99988ZM14 9C14 9.55229 13.5523 10 13 10C12.4477 10 12 9.55229 12 9C12 8.44771 12.4477 8 13 8C13.5523 8 14 8.44771 14 9ZM3 16C3.55228 16 4 15.5523 4 15C4 14.4477 3.55228 14 3 14C2.44772 14 2 14.4477 2 15C2 15.5523 2.44772 16 3 16ZM8 15C8 15.5523 7.55228 16 7 16C6.44772 16 6 15.5523 6 15C6 14.4477 6.44772 14 7 14C7.55228 14 8 14.4477 8 15ZM10 13C10.5523 13 11 12.5523 11 12C11 11.4477 10.5523 11 10 11C9.44772 11 9 11.4477 9 12C9 12.5523 9.44772 13 10 13Z" fill="white"/>
</svg>
