<svg width="16" height="16" viewBox="0 0 16 16" fill="none" xmlns="http://www.w3.org/2000/svg">
<path fill-rule="evenodd" clip-rule="evenodd" d="M7.43567 11.2099C7.33297 11.2226 7.23157 11.2685 7.14648 11.3536L6.81069 11.6893L6.25003 12.25L6.25006 12.25L7.14654 11.3536C7.23161 11.2685 7.33299 11.2227 7.43567 11.2099ZM6.25006 3.74996L6.25003 3.74999L6.81069 4.31065L7.14648 4.64645C7.24001 4.73997 7.35325 4.78606 7.46625 4.79297C7.35327 4.78605 7.24005 4.73996 7.14654 4.64645L6.25006 3.74996ZM15.2929 8.70711L9.00003 15V11.7071C9.00003 10.3707 7.38432 9.7015 6.43937 10.6464L6.10358 10.9822L3.12134 8L6.10358 5.01776L6.43938 5.35355C7.38433 6.29851 9.00003 5.62924 9.00003 4.29289V1L15.2929 7.29289C15.6834 7.68342 15.6834 8.31658 15.2929 8.70711Z" fill="white" fill-opacity="0.5"/>
<path fill-rule="evenodd" clip-rule="evenodd" d="M4.35364 1.85355C4.03866 1.53857 4.26175 1 4.7072 1H8.00009V4.29289C8.00009 4.73835 7.46152 4.96143 7.14654 4.64645L6.10364 3.60355L1.70718 8L6.10364 12.3965L7.14654 11.3536C7.46152 11.0386 8.00009 11.2617 8.00009 11.7071V15H4.7072C4.26175 15 4.03866 14.4614 4.35364 14.1464L5.39653 13.1036L0.646522 8.35355L0.292969 8L0.646522 7.64645L5.39653 2.89644L4.35364 1.85355Z" fill="white"/>
</svg>
