<svg width="16" height="16" viewBox="0 0 16 16" fill="none" xmlns="http://www.w3.org/2000/svg">
<path fill-rule="evenodd" clip-rule="evenodd" d="M7.29287 3.29292L5.99994 2C4.89537 0.895427 3.10451 0.895427 1.99994 2C0.895372 3.10457 0.895373 4.89543 1.99994 6L3.29287 7.29292L7.29287 3.29292ZM8.70708 12.7071L9.99994 14C11.1045 15.1046 12.8954 15.1046 13.9999 14C15.1045 12.8954 15.1045 11.1046 13.9999 10L12.7071 8.70713L8.70708 12.7071Z" fill="white" fill-opacity="0.5"/>
<path fill-rule="evenodd" clip-rule="evenodd" d="M6.00006 14L14.0001 6C15.1046 4.89543 15.1046 3.10457 14.0001 2C12.8955 0.895427 11.1046 0.895428 10.0001 2L2.00006 10C0.895489 11.1046 0.895488 12.8954 2.00006 14C3.10463 15.1046 4.89549 15.1046 6.00006 14ZM11 3H10V4H11V3ZM13 3H12V4H13V3ZM12 5H13V6H12V5ZM4 10H3V11H4V10ZM3 12H4V13H3V12ZM6 12H5V13H6V12ZM8 6L10 8L8 10L6 8L8 6Z" fill="white"/>
</svg>
