<svg width="16" height="16" viewBox="0 0 16 16" fill="none" xmlns="http://www.w3.org/2000/svg">
<path fill-rule="evenodd" clip-rule="evenodd" d="M13.5607 4.56066C13.842 4.84196 14 5.2235 14 5.62132V7L13 8H9L6 5L9 2L10.3787 2C10.7765 2 11.158 2.15804 11.4393 2.43934L12.4393 1.43934C13.0251 0.853553 13.9749 0.853553 14.5607 1.43934C15.1464 2.02513 15.1464 2.97487 14.5607 3.56066L13.5607 4.56066ZM7.17675 8.17675L5 6L2 9L2 10.3787C2 10.7765 2.15804 11.158 2.43934 11.4393L1.43934 12.4393C0.853553 13.0251 0.853553 13.9749 1.43934 14.5607C2.02513 15.1464 2.97487 15.1464 3.56066 14.5607L4.56066 13.5607C4.84196 13.842 5.2235 14 5.62132 14H6V10C6 9.1889 6.48283 8.49057 7.17675 8.17675Z" fill="white" fill-opacity="0.5"/>
<path fill-rule="evenodd" clip-rule="evenodd" d="M8 9C7.44772 9 7 9.44772 7 10V11C7 11.5523 7.44772 12 8 12H15C15.5523 12 16 11.5523 16 11V10C16 9.44772 15.5523 9 15 9H8ZM9 10H8V11H9V10ZM10 10H11V11H10V10ZM8 13C7.44772 13 7 13.4477 7 14V15C7 15.5523 7.44772 16 8 16H15C15.5523 16 16 15.5523 16 15V14C16 13.4477 15.5523 13 15 13H8ZM15 14H11V15H15V14ZM8 14H9V15H8V14Z" fill="white"/>
</svg>
