<svg width="16" height="16" viewBox="0 0 16 16" fill="none" xmlns="http://www.w3.org/2000/svg">
<path fill-rule="evenodd" clip-rule="evenodd" d="M14 5.62132C14 5.2235 13.842 4.84196 13.5607 4.56066L14.5607 3.56066C15.1464 2.97487 15.1464 2.02513 14.5607 1.43934C13.9749 0.853553 13.0251 0.853553 12.4393 1.43934L11.4393 2.43934C11.158 2.15804 10.7765 2 10.3787 2L9 2L6 5L9.31471 8.31471C9.53899 8.32885 9.76352 8.39364 9.97133 8.51362L9.99493 8.52724V8.5C9.99493 7.66881 10.6687 6.995 11.4999 6.995H12.4999C12.9155 6.995 13.2918 7.16347 13.5642 7.43584L14 7V5.62132ZM7.97281 8.97281C7.95277 9.00245 7.93363 9.03302 7.91547 9.06448L7.41547 9.93051C6.99987 10.6503 7.2465 11.5708 7.96633 11.9864L7.98992 12L7.96633 12.0136C7.35616 12.3659 7.086 13.0809 7.27097 13.729L7 14H5.62132C5.2235 14 4.84196 13.842 4.56066 13.5607L3.56066 14.5607C2.97487 15.1464 2.02513 15.1464 1.43934 14.5607C0.853553 13.9749 0.853553 13.0251 1.43934 12.4393L2.43934 11.4393C2.15804 11.158 2 10.7765 2 10.3787L2 9L5 6L7.97281 8.97281Z" fill="white" fill-opacity="0.5"/>
<path fill-rule="evenodd" clip-rule="evenodd" d="M12.4999 8C12.7761 8 12.9999 8.22386 12.9999 8.5V9.17071C13.351 9.29481 13.6722 9.48242 13.9495 9.71974L14.531 9.38398C14.7702 9.24591 15.076 9.32784 15.214 9.56699L15.714 10.433C15.8521 10.6722 15.7702 10.978 15.531 11.116L14.9499 11.4515C14.9828 11.6294 14.9999 11.8127 14.9999 12C14.9999 12.1873 14.9828 12.3706 14.9499 12.5485L15.531 12.884C15.7702 13.022 15.8521 13.3278 15.714 13.567L15.214 14.433C15.076 14.6722 14.7702 14.7541 14.531 14.616L13.9495 14.2803C13.6722 14.5176 13.351 14.7052 12.9999 14.8293V15.5C12.9999 15.7761 12.7761 16 12.4999 16H11.4999C11.2238 16 10.9999 15.7761 10.9999 15.5V14.8293C10.6488 14.7052 10.3277 14.5176 10.0504 14.2803L9.46883 14.616C9.22969 14.7541 8.92389 14.6722 8.78582 14.433L8.28582 13.567C8.14775 13.3278 8.22969 13.022 8.46883 12.884L9.04995 12.5485C9.0171 12.3706 8.99993 12.1873 8.99993 12C8.99993 11.8127 9.0171 11.6294 9.04995 11.4515L8.46883 11.116C8.22969 10.978 8.14775 10.6722 8.28582 10.433L8.78582 9.56698C8.92389 9.32784 9.22969 9.2459 9.46883 9.38397L10.0504 9.71973C10.3277 9.48242 10.6488 9.29481 10.9999 9.17071V8.5C10.9999 8.22386 11.2238 8 11.4999 8H12.4999ZM13.4999 12C13.4999 12.8284 12.8284 13.5 11.9999 13.5C11.1715 13.5 10.4999 12.8284 10.4999 12C10.4999 11.1716 11.1715 10.5 11.9999 10.5C12.8284 10.5 13.4999 11.1716 13.4999 12Z" fill="white"/>
</svg>
