<svg width="16" height="16" viewBox="0 0 16 16" fill="none" xmlns="http://www.w3.org/2000/svg">
<path fill-rule="evenodd" clip-rule="evenodd" d="M7.99999 3L6.99999 2L2.99999 6L2.99999 9.37867C2.99999 9.7765 3.15803 10.158 3.43934 10.4393L3.5 10.5L1.41421 12.5858C1.149 12.851 1 13.2107 1 13.5858C1 14.3668 1.63317 15 2.41421 15C2.78929 15 3.149 14.851 3.41421 14.5858L5.5 12.5L5.56065 12.5607C5.68892 12.6889 5.83802 12.7916 6 12.8653V11C6 9.34315 7.34315 8 9 8L13 8L15.5 5.5L14 3.99999L11.5 6.5L9.5 4.5L12 2L10.5 0.5L7.99999 3Z" fill="white" fill-opacity="0.5"/>
<path fill-rule="evenodd" clip-rule="evenodd" d="M9 9C7.89543 9 7 9.89543 7 11V14C7 15.1046 7.89543 16 9 16C10.1046 16 11 15.1046 11 14H12C12 15.1046 12.8954 16 14 16C15.1046 16 16 15.1046 16 14V11C16 9.89543 15.1046 9 14 9C13.2597 9 12.6134 9.4022 12.2676 10H10.7324C10.3866 9.4022 9.74028 9 9 9ZM10 14C10 13.4477 9.55228 13 9 13C8.44772 13 8 13.4477 8 14C8 14.5523 8.44772 15 9 15C9.55228 15 10 14.5523 10 14ZM14 15.125C14.5523 15.125 15 14.7332 15 14.25C15 13.7668 14.5523 13.375 14 13.375C13.4477 13.375 13 13.7668 13 14.25C13 14.7332 13.4477 15.125 14 15.125Z" fill="white"/>
</svg>
