<svg width="16" height="16" viewBox="0 0 16 16" fill="none" xmlns="http://www.w3.org/2000/svg">
<path fill-rule="evenodd" clip-rule="evenodd" d="M14 5.62132C14 5.2235 13.842 4.84196 13.5607 4.56066L14.5607 3.56066C15.1464 2.97487 15.1464 2.02513 14.5607 1.43934C13.9749 0.853553 13.0251 0.853553 12.4393 1.43934L11.4393 2.43934C11.158 2.15804 10.7765 2 10.3787 2L9 2L6 5L8.17692 7.17692C8.4907 6.48291 9.18908 6 10.0002 6H14V5.62132ZM5 6L8.05639 9.05639C8.14218 9.41071 8.324 9.73797 8.58603 10L9.58604 11L8.58603 12C8.324 12.262 8.14219 12.5893 8.0564 12.9436L7 14H5.62132C5.2235 14 4.84196 13.842 4.56066 13.5607L3.56066 14.5607C2.97487 15.1464 2.02513 15.1464 1.43934 14.5607C0.853553 13.9749 0.853553 13.0251 1.43934 12.4393L2.43934 11.4393C2.15804 11.158 2 10.7765 2 10.3787L2 9L5 6Z" fill="white" fill-opacity="0.5"/>
<path fill-rule="evenodd" clip-rule="evenodd" d="M12.2931 10.2929L12.0002 10.5858L11.7074 10.2929L10.0002 8.58579L10.0002 8H14.0002L14.0002 8.58579L12.2931 10.2929ZM14.0002 7H10.0002C9.44796 7 9.00024 7.44772 9.00024 8V8.58579C9.00024 8.851 9.1056 9.10536 9.29314 9.29289L10.2931 10.2929L11.0002 11L10.2931 11.7071L9.29314 12.7071C9.1056 12.8947 9.00024 13.149 9.00024 13.4142V14C9.00024 14.5523 9.44796 15 10.0002 15H14.0002C14.5525 15 15.0002 14.5523 15.0002 14V13.4142C15.0002 13.149 14.8949 12.8947 14.7074 12.7071L13.7073 11.7071L13.0002 11L13.7073 10.2929L14.7074 9.29289C14.8949 9.10536 15.0002 8.851 15.0002 8.58579V8C15.0002 7.44772 14.5525 7 14.0002 7Z" fill="white"/>
</svg>
