<svg width="16" height="16" viewBox="0 0 16 16" fill="none" xmlns="http://www.w3.org/2000/svg">
<path fill-rule="evenodd" clip-rule="evenodd" d="M6.99999 2L7.99999 3L10.5 0.5L12 2L9.5 4.5L11.5 6.5L11.9999 6.00006V7H11.4142C11.0539 7 10.7036 7.09722 10.3985 7.27714L10.2071 7.08576L9.49997 6.37865L8.79286 7.08576L8.08576 7.79286L7.37865 8.49997L8.08576 9.20708L8.23759 9.35891C7.80735 9.8401 7.48029 10.3987 7.27076 11H7H6V12V12.8653C5.83802 12.7916 5.68892 12.6889 5.56065 12.5607L5.5 12.5L3.41421 14.5858C3.149 14.851 2.78929 15 2.41421 15C1.63317 15 1 14.3668 1 13.5858C1 13.2107 1.149 12.851 1.41421 12.5858L3.5 10.5L3.43934 10.4393C3.15803 10.158 2.99999 9.7765 2.99999 9.37867L2.99999 6L6.99999 2ZM14.9999 6.00007L15.5 5.5L14 3.99999L12 6H12.9999H13.9999H14.9999V6.00007Z" fill="white" fill-opacity="0.5"/>
<path fill-rule="evenodd" clip-rule="evenodd" d="M12.9999 7H13.9999V8H14C14.5523 8 15 8.44771 15 9L16 9V10H15V11.5858C15 11.851 14.8946 12.1054 14.7071 12.2929L14.3536 12.6464L14.8535 13.1464L15.2071 13.5L14.5 14.2071L14.1464 13.8535L13.6464 13.3536L13.1314 13.8686C12.5499 14.4501 11.8022 14.827 11 14.9531V16H10V14.9133C9.89572 14.8658 9.79973 14.7997 9.71716 14.7172L9.35356 14.3536L11.8536 11.8536L12.2071 11.5L11.5 10.7929L11.1464 11.1465L8.64646 13.6465L8.28284 13.2828C8.20027 13.2003 8.13419 13.1043 8.08674 13H7V12H8.04687C8.173 11.1978 8.54993 10.4501 9.13137 9.86863L9.64645 9.35355L9.14642 8.85352L8.79286 8.49997L9.49997 7.79286L9.85352 8.14642L10.3536 8.64645L10.7071 8.29289C10.8946 8.10536 11.149 8 11.4142 8H12.9999V7Z" fill="white"/>
</svg>
