<svg width="16" height="16" viewBox="0 0 16 16" fill="none" xmlns="http://www.w3.org/2000/svg">
<path fill-rule="evenodd" clip-rule="evenodd" d="M8.07843 6H7V4H6V6H5V8.37868C5 8.7765 5.15803 9.15803 5.43934 9.43934L7 11V12H9V11L10 10V9V8.41421L8.73223 7.14645C8.41286 6.82707 8.18882 6.43018 8.07843 6ZM4.07843 9H3V7H2V9H1V11.3787C1 11.7765 1.15803 12.158 1.43934 12.4393L3 14V15H5V14L6 13V12V11.4142L4.73223 10.1464C4.41286 9.82707 4.18882 9.43018 4.07843 9Z" fill="white" fill-opacity="0.5"/>
<path fill-rule="evenodd" clip-rule="evenodd" d="M10 1H11V3H13V1H14V3H15V5.37868C15 5.7765 14.842 6.15804 14.5607 6.43934L13 8V9H11V8L9.43934 6.43934C9.15803 6.15803 9 5.7765 9 5.37868V3H10V1Z" fill="white"/>
</svg>
