<svg width="16" height="16" viewBox="0 0 16 16" fill="none" xmlns="http://www.w3.org/2000/svg">
<path fill-rule="evenodd" clip-rule="evenodd" d="M14 5.62132C14 5.2235 13.842 4.84196 13.5607 4.56066L14.5607 3.56066C15.1464 2.97487 15.1464 2.02513 14.5607 1.43934C13.9749 0.853553 13.0251 0.853553 12.4393 1.43934L11.4393 2.43934C11.158 2.15804 10.7765 2 10.3787 2L9 2L6 5L11 10L14 7V5.62132ZM10 11L5 6L2 9L2 10.3787C2 10.7765 2.15804 11.158 2.43934 11.4393L1.43934 12.4393C0.853553 13.0251 0.853553 13.9749 1.43934 14.5607C2.02513 15.1464 2.97487 15.1464 3.56066 14.5607L4.56066 13.5607C4.84196 13.842 5.2235 14 5.62132 14H7L10 11Z" fill="white"/>
</svg>
