<svg width="16" height="16" viewBox="0 0 16 16" fill="none" xmlns="http://www.w3.org/2000/svg">
<path fill-rule="evenodd" clip-rule="evenodd" d="M7.99999 3L6.99999 2L2.99999 6L2.99999 9.37867C2.99999 9.7765 3.15803 10.158 3.43934 10.4393L3.5 10.5L1.41421 12.5858C1.149 12.851 1 13.2107 1 13.5858C1 14.3668 1.63317 15 2.41421 15C2.78929 15 3.149 14.851 3.41421 14.5858L5.5 12.5L5.56065 12.5607C5.84196 12.842 6.22349 13 6.62132 13H7.24758C7.33409 12.5991 7.58317 12.2348 7.96633 12.0136L7.98992 12L7.96633 11.9864C7.2465 11.5708 6.99987 10.6503 7.41547 9.93051L7.91547 9.06448C8.33106 8.34465 9.2515 8.09802 9.97133 8.51362L9.99493 8.52724V8.5C9.99493 7.66881 10.6687 6.995 11.4999 6.995H12.4999C12.9155 6.995 13.2918 7.16347 13.5642 7.43584L15.5 5.5L14 3.99999L11.5 6.5L9.5 4.5L12 2L10.5 0.5L7.99999 3Z" fill="white" fill-opacity="0.5"/>
<path fill-rule="evenodd" clip-rule="evenodd" d="M12.4999 8C12.7761 8 12.9999 8.22386 12.9999 8.5V9.17071C13.351 9.29481 13.6722 9.48242 13.9495 9.71974L14.531 9.38398C14.7702 9.24591 15.076 9.32784 15.214 9.56699L15.714 10.433C15.8521 10.6722 15.7702 10.978 15.531 11.116L14.9499 11.4515C14.9828 11.6294 14.9999 11.8127 14.9999 12C14.9999 12.1873 14.9828 12.3706 14.9499 12.5485L15.531 12.884C15.7702 13.022 15.8521 13.3278 15.714 13.567L15.214 14.433C15.076 14.6722 14.7702 14.7541 14.531 14.616L13.9495 14.2803C13.6722 14.5176 13.351 14.7052 12.9999 14.8293V15.5C12.9999 15.7761 12.7761 16 12.4999 16H11.4999C11.2238 16 10.9999 15.7761 10.9999 15.5V14.8293C10.6488 14.7052 10.3277 14.5176 10.0504 14.2803L9.46883 14.616C9.22969 14.7541 8.92389 14.6722 8.78582 14.433L8.28582 13.567C8.14775 13.3278 8.22969 13.022 8.46883 12.884L9.04995 12.5485C9.0171 12.3706 8.99993 12.1873 8.99993 12C8.99993 11.8127 9.0171 11.6294 9.04995 11.4515L8.46883 11.116C8.22969 10.978 8.14775 10.6722 8.28582 10.433L8.78582 9.56698C8.92389 9.32784 9.22969 9.2459 9.46883 9.38397L10.0504 9.71973C10.3277 9.48242 10.6488 9.29481 10.9999 9.17071V8.5C10.9999 8.22386 11.2238 8 11.4999 8H12.4999ZM13.4999 12C13.4999 12.8284 12.8284 13.5 11.9999 13.5C11.1715 13.5 10.4999 12.8284 10.4999 12C10.4999 11.1716 11.1715 10.5 11.9999 10.5C12.8284 10.5 13.4999 11.1716 13.4999 12Z" fill="white"/>
</svg>
