<svg width="16" height="16" viewBox="0 0 16 16" fill="none" xmlns="http://www.w3.org/2000/svg">
<path d="M6.99999 2L7.99999 3L10.5 0.5L12 2L9.5 4.5L11.5 6.5L14 3.99999L15.5 5.5L13 8L14 9L9.99999 13H6.62132C6.22349 13 5.84196 12.842 5.56065 12.5607L5.5 12.5L3.41421 14.5858C3.149 14.851 2.78929 15 2.41421 15C1.63317 15 1 14.3668 1 13.5858C0.999999 13.2107 1.149 12.851 1.41421 12.5858L3.5 10.5L3.43934 10.4393C3.15803 10.158 2.99999 9.7765 2.99999 9.37867L2.99999 6L6.99999 2Z" fill="white"/>
</svg>
