<svg width="16" height="16" viewBox="0 0 16 16" fill="none" xmlns="http://www.w3.org/2000/svg">
<path fill-rule="evenodd" clip-rule="evenodd" d="M13.5607 4.56066C13.842 4.84196 14 5.2235 14 5.62132V7L9 7C8.70653 7 8.42782 7.06321 8.17675 7.17675L6 5L9 2L10.3787 2C10.7765 2 11.158 2.15804 11.4393 2.43934L12.4393 1.43934C13.0251 0.853553 13.9749 0.853553 14.5607 1.43934C15.1464 2.02513 15.1464 2.97487 14.5607 3.56066L13.5607 4.56066ZM7.17675 8.17675L5 6L2 9L2 10.3787C2 10.7765 2.15804 11.158 2.43934 11.4393L1.43934 12.4393C0.853553 13.0251 0.853553 13.9749 1.43934 14.5607C2.02513 15.1464 2.97487 15.1464 3.56066 14.5607L4.56066 13.5607C4.84196 13.842 5.2235 14 5.62132 14H7V9C7 8.70653 7.06321 8.42782 7.17675 8.17675Z" fill="white" fill-opacity="0.5"/>
<path fill-rule="evenodd" clip-rule="evenodd" d="M15 8H9C8.44772 8 8 8.44772 8 9V15L9 16H10V14H14V16H15C15.5523 16 16 15.5523 16 15V9C16 8.44772 15.5523 8 15 8ZM10 9H14V12H10V9Z" fill="white"/>
</svg>
