<svg width="16" height="16" viewBox="0 0 16 16" fill="none" xmlns="http://www.w3.org/2000/svg">
<path fill-rule="evenodd" clip-rule="evenodd" d="M7.99999 3L6.99999 2L2.99999 6L2.99999 9.37867C2.99999 9.7765 3.15803 10.158 3.43934 10.4393L3.5 10.5L1.41421 12.5858C1.149 12.851 1 13.2107 1 13.5858C1 14.3668 1.63317 15 2.41421 15C2.78929 15 3.149 14.851 3.41421 14.5858L5.5 12.5L5.56065 12.5607C5.84196 12.842 6.22349 13 6.62132 13H8V10C8 8.89543 8.89543 8 10 8L13 8L15.5 5.5L14 3.99999L11.5 6.5L9.5 4.5L12 2L10.5 0.5L7.99999 3Z" fill="white" fill-opacity="0.5"/>
<path fill-rule="evenodd" clip-rule="evenodd" d="M10 9C9.44772 9 9 9.44772 9 10V15C9 15.5523 9.44772 16 10 16H15C15.5523 16 16 15.5523 16 15V10C16 9.44772 15.5523 9 15 9H10ZM15 11H10V15H15V11Z" fill="white"/>
</svg>
