<svg width="16" height="16" viewBox="0 0 16 16" fill="none" xmlns="http://www.w3.org/2000/svg">
<path fill-rule="evenodd" clip-rule="evenodd" d="M14 5.62132C14 5.2235 13.842 4.84196 13.5607 4.56066L14.5607 3.56066C15.1464 2.97487 15.1464 2.02513 14.5607 1.43934C13.9749 0.853553 13.0251 0.853553 12.4393 1.43934L11.4393 2.43934C11.158 2.15804 10.7765 2 10.3787 2L9 2L6 5L8.43577 7.43578L8.78933 7.08222L9.49997 6.37158L10.2106 7.08222L10.3993 7.27086C10.7044 7.09176 11.0543 6.995 11.4142 6.995H11.9949V5.995H12.9999H13.9999H14V5.62132ZM5 6L7.43578 8.43578L7.37158 8.49997L8.08222 9.21061L8.23072 9.35911C7.80238 9.8391 7.47649 10.3958 7.26721 10.995H7H5.995V12V13V14H5.62132C5.2235 14 4.84196 13.842 4.56066 13.5607L3.56066 14.5607C2.97487 15.1464 2.02513 15.1464 1.43934 14.5607C0.853553 13.9749 0.853553 13.0251 1.43934 12.4393L2.43934 11.4393C2.15804 11.158 2 10.7765 2 10.3787L2 9L5 6Z" fill="white" fill-opacity="0.5"/>
<path fill-rule="evenodd" clip-rule="evenodd" d="M12.9999 7H13.9999V8H14C14.5523 8 15 8.44771 15 9L16 9V10H15V11.5858C15 11.851 14.8946 12.1054 14.7071 12.2929L14.3536 12.6464L14.8535 13.1464L15.2071 13.5L14.5 14.2071L14.1464 13.8535L13.6464 13.3536L13.1314 13.8686C12.5499 14.4501 11.8022 14.827 11 14.9531V16H10V14.9133C9.89572 14.8658 9.79973 14.7997 9.71716 14.7172L9.35356 14.3536L11.8536 11.8536L12.2071 11.5L11.5 10.7929L11.1464 11.1465L8.64646 13.6465L8.28284 13.2828C8.20027 13.2003 8.13419 13.1043 8.08674 13H7V12H8.04687C8.173 11.1978 8.54993 10.4501 9.13137 9.86863L9.64645 9.35355L9.14642 8.85352L8.79286 8.49997L9.49997 7.79286L9.85352 8.14642L10.3536 8.64645L10.7071 8.29289C10.8946 8.10536 11.149 8 11.4142 8H12.9999V7Z" fill="white"/>
</svg>
