<svg width="16" height="16" viewBox="0 0 16 16" fill="none" xmlns="http://www.w3.org/2000/svg">
<path fill-rule="evenodd" clip-rule="evenodd" d="M7.00004 1C6.44776 1 6.00004 1.44772 6.00004 2V5L8.00004 7L10 5V2C10 1.44772 9.55233 1 9.00004 1H7.00004ZM9 15C9.55229 15 10 14.5523 10 14V11L8 9L6 11L6 14C6 14.5523 6.44772 15 7 15H9ZM14 6C14.5523 6 15 6.44772 15 7V9C15 9.55229 14.5523 10 14 10H11L8.99999 8L11 6H14ZM1 9C1 9.55229 1.44772 10 2 10L5 10L7 8L5 6L2 6C1.44772 6 1 6.44772 1 7L1 9Z" fill="white"/>
</svg>
