<svg width="16" height="16" viewBox="0 0 16 16" fill="none" xmlns="http://www.w3.org/2000/svg">
<path fill-rule="evenodd" clip-rule="evenodd" d="M15.0001 3C15.0001 1.89543 14.1046 1 13.0001 1C11.8955 1 11.0001 1.89543 11.0001 3C11.0001 3.3709 11.101 3.71823 11.277 4.01598L9.29297 6H10V6.70718L11.9841 4.72309C12.2818 4.89904 12.6292 5 13.0001 5C14.1046 5 15.0001 4.10457 15.0001 3Z" fill="white" fill-opacity="0.5"/>
<path fill-rule="evenodd" clip-rule="evenodd" d="M5.70711 7C5.26165 7 5.03857 7.53857 5.35355 7.85355L6.39645 8.89645L4.01598 11.2769C3.71823 11.101 3.3709 11 3 11C1.89543 11 1 11.8954 1 13C1 14.1046 1.89543 15 3 15C4.10457 15 5 14.1046 5 13C5 12.6291 4.89904 12.2818 4.72309 11.984L7.10355 9.60355L8.14645 10.6464C8.46143 10.9614 9 10.7383 9 10.2929V7H5.70711Z" fill="white"/>
</svg>
