<svg width="16" height="16" viewBox="0 0 16 16" fill="none" xmlns="http://www.w3.org/2000/svg">
<path fill-rule="evenodd" clip-rule="evenodd" d="M13.5 1C14.3284 1 15 1.67157 15 2.5C15 3.32843 14.3284 4 13.5 4C13.2684 4 13.0491 3.94752 12.8533 3.85381L9.85355 6.85355L9.5 7.20711L8.79289 6.5L9.14645 6.14645L12.1462 3.14671C12.0525 2.95089 12 2.73157 12 2.5C12 1.67157 12.6716 1 13.5 1ZM2.5 15C1.67157 15 1 14.3284 1 13.5C1 12.6716 1.67157 12 2.5 12C2.73157 12 2.95089 12.0525 3.14671 12.1462L6.14645 9.14645L6.5 8.79289L7.20711 9.5L6.85355 9.85355L3.85381 12.8533C3.94752 13.0491 4 13.2684 4 13.5C4 14.3284 3.32843 15 2.5 15ZM2.85355 2.14645L2.5 1.79289L1.79289 2.5L2.14645 2.85355L4.14645 4.85355L4.5 5.20711L5.20711 4.5L4.85355 4.14645L2.85355 2.14645ZM7 2.5V2H6V2.5V4.5V5H7V4.5V2.5ZM2.5 6H2V7H2.5H4.5H5V6H4.5H2.5Z" fill="white"/>
</svg>
