<svg width="16" height="16" viewBox="0 0 16 16" fill="none" xmlns="http://www.w3.org/2000/svg">
<path fill-rule="evenodd" clip-rule="evenodd" d="M9.49996 1C8.14915 1 7.02557 1.90629 6.13058 3.07022C5.22437 4.24874 4.46836 5.79795 3.8649 7.31522C3.2592 8.83814 2.79625 10.3571 2.48506 11.4929C2.43526 11.6746 2.3893 11.8468 2.34722 12.0077C1.59053 12.0842 0.999949 12.7232 0.999949 13.5C0.999949 14.3285 1.67152 15 2.49995 15C3.32838 15 3.99995 14.3285 3.99995 13.5C3.99995 12.9739 3.7291 12.5111 3.31923 12.2433C3.35913 12.091 3.40257 11.9285 3.44952 11.7571C3.75481 10.6429 4.20663 9.16186 4.79411 7.68478C5.38383 6.20205 6.09941 4.75126 6.92332 3.67978C7.75844 2.59371 8.6235 2 9.49996 2C10.1712 2 10.8358 2.34569 11.4947 3.00893C11.861 3.37752 12.2114 3.83072 12.544 4.34408C12.2117 4.61921 12 5.03488 12 5.5C12 6.32843 12.6716 7 13.5 7C14.3284 7 15 6.32843 15 5.5C15 4.67494 14.3339 4.00546 13.5101 4.00003C13.1124 3.3615 12.6773 2.78039 12.2041 2.30412C11.4434 1.53846 10.5387 1 9.49996 1Z" fill="white"/>
</svg>
