<svg width="16" height="16" viewBox="0 0 16 16" fill="none" xmlns="http://www.w3.org/2000/svg">
<path fill-rule="evenodd" clip-rule="evenodd" d="M6.50004 15C7.85085 15 8.97443 14.0937 9.86942 12.9298C10.7756 11.7513 11.5316 10.202 12.1351 8.68478C12.7408 7.16186 13.2038 5.64288 13.5149 4.50712C13.5647 4.32535 13.6107 4.15323 13.6528 3.9923C14.4095 3.91577 15.0001 3.27684 15.0001 2.49998C15.0001 1.67155 14.3285 0.999977 13.5001 0.999977C12.6716 0.999977 12.0001 1.67155 12.0001 2.49998C12.0001 3.02608 12.2709 3.48892 12.6808 3.75667C12.6409 3.909 12.5974 4.07152 12.5505 4.24288C12.2452 5.35712 11.7934 6.83814 11.2059 8.31522C10.6162 9.79795 9.90059 11.2487 9.07668 12.3202C8.24156 13.4063 7.3765 14 6.50004 14C5.82883 14 5.16421 13.6543 4.50526 12.9911C4.13905 12.6225 3.78861 12.1693 3.45602 11.6559C3.78831 11.3808 4 10.9651 4 10.5C4 9.67157 3.32843 9 2.5 9C1.67157 9 1 9.67157 1 10.5C1 11.3251 1.66613 11.9945 2.48991 12C2.88759 12.6385 3.32267 13.2196 3.79587 13.6959C4.55657 14.4615 5.46128 15 6.50004 15Z" fill="white"/>
</svg>
