<svg width="16" height="16" viewBox="0 0 16 16" fill="none" xmlns="http://www.w3.org/2000/svg">
<path fill-rule="evenodd" clip-rule="evenodd" d="M11.6464 7.14645C11.9614 7.46143 11.7383 8 11.2929 8H8L8 4.70711C8 4.26165 8.53857 4.03857 8.85355 4.35355L9.89645 5.39645L12.1462 3.14671C12.0525 2.95089 12 2.73157 12 2.5C12 1.67157 12.6716 1 13.5 1C14.3284 1 15 1.67157 15 2.5C15 3.32843 14.3284 4 13.5 4C13.2684 4 13.0491 3.94752 12.8533 3.85381L10.6036 6.10355L11.6464 7.14645ZM8 8L4.70711 8C4.26165 8 4.03857 8.53857 4.35355 8.85355L5.39645 9.89645L3.14671 12.1462C2.95089 12.0525 2.73157 12 2.5 12C1.67157 12 1 12.6716 1 13.5C1 14.3284 1.67157 15 2.5 15C3.32843 15 4 14.3284 4 13.5C4 13.2684 3.94752 13.0491 3.85381 12.8533L6.10355 10.6036L7.14645 11.6464C7.46143 11.9614 8 11.7383 8 11.2929V8Z" fill="white"/>
</svg>
