<svg width="16" height="16" viewBox="0 0 16 16" fill="none" xmlns="http://www.w3.org/2000/svg">
<path fill-rule="evenodd" clip-rule="evenodd" d="M11 2.5C11 2.32877 11.0172 2.16156 11.05 2H6.91465C6.70873 1.4174 6.15311 1 5.5 1C4.67157 1 4 1.67157 4 2.5C4 3.32843 4.67157 4 5.5 4C6.15311 4 6.70873 3.5826 6.91465 3H11.05C11.0172 2.83845 11 2.67123 11 2.5ZM6 2.5C6 2.22386 5.77614 2 5.5 2C5.22386 2 5 2.22386 5 2.5C5 2.77614 5.22386 3 5.5 3C5.77614 3 6 2.77614 6 2.5ZM5.05005 13.5C5.05005 13.6712 5.03283 13.8384 5.00004 14L9.1354 14C9.34132 14.5826 9.89694 15 10.55 15C11.3785 15 12.05 14.3284 12.05 13.5C12.05 12.6716 11.3785 12 10.55 12C9.89694 12 9.34132 12.4174 9.1354 13L5.00004 13C5.03283 13.1616 5.05005 13.3288 5.05005 13.5ZM10.05 13.5C10.05 13.7761 10.2739 14 10.55 14C10.8262 14 11.05 13.7761 11.05 13.5C11.05 13.2239 10.8262 13 10.55 13C10.2739 13 10.05 13.2239 10.05 13.5Z" fill="white" fill-opacity="0.5"/>
<path fill-rule="evenodd" clip-rule="evenodd" d="M15 2.5C15 1.67157 14.3284 1 13.5 1C12.6716 1 12 1.67157 12 2.5C12 3.07601 12.3247 3.57618 12.801 3.82751C12.2346 5.66481 10.5232 7 8.5 7H8C5.0055 7 2.52337 9.19367 2.07295 12.0617C1.45256 12.2456 1 12.8199 1 13.5C1 14.3284 1.67157 15 2.5 15C3.32843 15 4 14.3284 4 13.5C4 12.8764 3.6195 12.3417 3.07801 12.1154C3.49565 9.77592 5.54043 8 8 8H8.5C11.0286 8 13.1586 6.29369 13.8014 3.9697C14.4854 3.83016 15 3.22518 15 2.5Z" fill="white"/>
</svg>
