<svg width="16" height="16" viewBox="0 0 16 16" fill="none" xmlns="http://www.w3.org/2000/svg">
<path fill-rule="evenodd" clip-rule="evenodd" d="M10 3.5C10 2.11929 11.1193 1 12.5 1C13.8807 1 15 2.11929 15 3.5C15 4.88071 13.8807 6 12.5 6V7C14.433 7 16 5.433 16 3.5C16 1.567 14.433 0 12.5 0C10.567 0 9 1.567 9 3.5H10ZM6 12.5C6 13.8807 4.88071 15 3.5 15C2.11929 15 1 13.8807 1 12.5C1 11.1193 2.11929 10 3.5 10V9C1.567 9 0 10.567 0 12.5C0 14.433 1.567 16 3.5 16C5.433 16 7 14.433 7 12.5H6ZM3.5 14C2.67157 14 2 13.3284 2 12.5C2 11.6716 2.67157 11 3.5 11C3.73157 11 3.95089 11.0525 4.14671 11.1462L11.1462 4.14671C11.0525 3.95089 11 3.73157 11 3.5C11 2.67157 11.6716 2 12.5 2C13.3284 2 14 2.67157 14 3.5C14 4.32843 13.3284 5 12.5 5C12.2684 5 12.0491 4.94752 11.8533 4.85381L4.85382 11.8533C4.94752 12.0491 5 12.2684 5 12.5C5 13.3284 4.32843 14 3.5 14Z" fill="white"/>
</svg>
