<svg width="16" height="16" viewBox="0 0 16 16" fill="none" xmlns="http://www.w3.org/2000/svg">
<path fill-rule="evenodd" clip-rule="evenodd" d="M15 2.5C15 1.67157 14.3284 1 13.5 1C12.6716 1 12 1.67157 12 2.5C12 3.07601 12.3247 3.57618 12.801 3.82751C12.5343 4.69264 12.0137 5.44644 11.3263 6.00194C11.3555 6.00065 11.3849 6 11.4143 6H12.7428C13.2275 5.4131 13.5928 4.72393 13.8014 3.9697C14.4854 3.83016 15 3.22518 15 2.5ZM8.5 7C8.93978 7 9.36483 6.93691 9.76658 6.8193L8.58655 7.99933C8.55775 7.99978 8.5289 8 8.5 8H8C5.54043 8 3.49565 9.77592 3.07801 12.1154C3.6195 12.3417 4 12.8764 4 13.5C4 14.3284 3.32843 15 2.5 15C1.67157 15 1 14.3284 1 13.5C1 12.8199 1.45256 12.2456 2.07295 12.0617C2.52337 9.19367 5.0055 7 8 7H8.5ZM5.00004 13H5.68168C5.76727 13.1481 5.87341 13.2875 6.00009 13.4142L6.58588 14H5.00004C5.03283 13.8384 5.05005 13.6712 5.05005 13.5C5.05005 13.3288 5.03283 13.1616 5.00004 13ZM11 2.5C11 2.32877 11.0172 2.16156 11.05 2H6.91465C6.70873 1.4174 6.15311 1 5.5 1C4.67157 1 4 1.67157 4 2.5C4 3.32843 4.67157 4 5.5 4C6.15311 4 6.70873 3.5826 6.91465 3H11.05C11.0172 2.83845 11 2.67123 11 2.5ZM6 2.5C6 2.22386 5.77614 2 5.5 2C5.22386 2 5 2.22386 5 2.5C5 2.77614 5.22386 3 5.5 3C5.77614 3 6 2.77614 6 2.5Z" fill="white" fill-opacity="0.5"/>
<path fill-rule="evenodd" clip-rule="evenodd" d="M15.0001 7H11.4143C11.1491 7 10.8947 7.10536 10.7072 7.29289L6.7072 11.2929C6.31668 11.6834 6.31668 12.3166 6.7072 12.7071L9.29299 15.2929C9.68351 15.6834 10.3167 15.6834 10.7072 15.2929L14.7072 11.2929C14.8947 11.1054 15.0001 10.851 15.0001 10.5858V7ZM13 8C12.4477 8 12 8.44772 12 9C12 9.55228 12.4477 10 13 10C13.5523 10 14 9.55228 14 9C14 8.44772 13.5523 8 13 8Z" fill="white"/>
</svg>
