<svg width="16" height="16" viewBox="0 0 16 16" fill="none" xmlns="http://www.w3.org/2000/svg">
<path fill-rule="evenodd" clip-rule="evenodd" d="M15 2.5C15 1.67157 14.3284 1 13.5 1C12.6716 1 12 1.67157 12 2.5C12 2.73157 12.0525 2.95089 12.1462 3.14671L12 3.29289L11.3536 2.64645C10.606 1.8989 9.39399 1.8989 8.64645 2.64645C7.8989 3.39399 7.8989 4.60601 8.64645 5.35355L9.64645 6.35355L10.6464 7.35355C11.0035 7.71058 11.0035 8.28942 10.6464 8.64645C10.2894 9.00347 9.71058 9.00347 9.35355 8.64645L8.35355 7.64645L7.35355 6.64645C6.60601 5.8989 5.39399 5.8989 4.64645 6.64645C3.8989 7.39399 3.8989 8.60601 4.64645 9.35355L5.64645 10.3536L6.64645 11.3536C7.00347 11.7106 7.00347 12.2894 6.64645 12.6464C6.28942 13.0035 5.71058 13.0035 5.35355 12.6464L4.35355 11.6464L4 11.2929L3.64645 11.6464L3.14671 12.1462C2.95089 12.0525 2.73157 12 2.5 12C1.67157 12 1 12.6716 1 13.5C1 14.3284 1.67157 15 2.5 15C3.32843 15 4 14.3284 4 13.5C4 13.2684 3.94752 13.0491 3.85381 12.8533L4 12.7071L4.64645 13.3536C5.39399 14.1011 6.60601 14.1011 7.35355 13.3536C8.1011 12.606 8.1011 11.394 7.35355 10.6464L6.35355 9.64645L5.35355 8.64645C4.99653 8.28942 4.99653 7.71058 5.35355 7.35355C5.71058 6.99653 6.28942 6.99653 6.64645 7.35355L7.64645 8.35355L8.64645 9.35355C9.39399 10.1011 10.606 10.1011 11.3536 9.35355C12.1011 8.60601 12.1011 7.39399 11.3536 6.64645L10.3536 5.64645L9.35355 4.64645C8.99653 4.28942 8.99653 3.71058 9.35355 3.35355C9.71058 2.99653 10.2894 2.99653 10.6464 3.35355L11.6464 4.35355L12 4.70711L12.3536 4.35355L12.8533 3.85381C13.0491 3.94752 13.2684 4 13.5 4C14.3284 4 15 3.32843 15 2.5Z" fill="white"/>
</svg>
