<svg width="16" height="16" viewBox="0 0 16 16" fill="none" xmlns="http://www.w3.org/2000/svg">
<path fill-rule="evenodd" clip-rule="evenodd" d="M9.93403 7.51558C9.92568 8.88393 8.81801 9.9916 7.44966 9.99995C6.49237 11.4301 5.93408 13.1498 5.93408 15H6.93408C6.93408 10.5817 10.5158 7 14.9341 7V6C13.0839 6 11.3641 6.55829 9.93403 7.51558Z" fill="white" fill-opacity="0.5"/>
<path fill-rule="evenodd" clip-rule="evenodd" d="M12.4338 2C12.1577 2 11.9338 2.22386 11.9338 2.5C11.9338 2.77614 12.1577 3 12.4338 3C12.71 3 12.9338 2.77614 12.9338 2.5C12.9338 2.22386 12.71 2 12.4338 2ZM12.4338 1C11.6054 1 10.9338 1.67157 10.9338 2.5C10.9338 2.73157 10.9863 2.95089 11.08 3.14671L8.81253 5.4142C9.09303 5.59997 9.33387 5.84081 9.51964 6.12131L11.7871 3.85382C11.9829 3.94752 12.2023 4 12.4338 4C13.2623 4 13.9338 3.32843 13.9338 2.5C13.9338 1.67157 13.2623 1 12.4338 1ZM6.05514 9.5858C5.77465 9.40003 5.53381 9.15919 5.34804 8.8787L3.08055 11.1462C2.88473 11.0525 2.66541 11 2.43384 11C1.60541 11 0.933838 11.6716 0.933838 12.5C0.933838 13.3284 1.60541 14 2.43384 14C3.26227 14 3.93384 13.3284 3.93384 12.5C3.93384 12.2684 3.88136 12.0491 3.78765 11.8533L6.05514 9.5858ZM2.43384 12C2.1577 12 1.93384 12.2239 1.93384 12.5C1.93384 12.7761 2.1577 13 2.43384 13C2.70998 13 2.93384 12.7761 2.93384 12.5C2.93384 12.2239 2.70998 12 2.43384 12ZM7.43384 6C6.60541 6 5.93384 6.67157 5.93384 7.5C5.93384 8.32843 6.60541 9 7.43384 9C8.26226 9 8.93384 8.32843 8.93384 7.5C8.93384 6.67157 8.26227 6 7.43384 6Z" fill="white"/>
</svg>
