<svg width="16" height="16" viewBox="0 0 16 16" fill="none" xmlns="http://www.w3.org/2000/svg">
<path fill-rule="evenodd" clip-rule="evenodd" d="M15 2.5C15 1.67157 14.3284 1 13.5 1C12.6716 1 12 1.67157 12 2.5C12 2.73157 12.0525 2.95089 12.1462 3.14671L3.14671 12.1462C2.95089 12.0525 2.73157 12 2.5 12C1.67157 12 1 12.6716 1 13.5C1 14.3284 1.67157 15 2.5 15C3.32843 15 4 14.3284 4 13.5C4 13.2684 3.94752 13.0491 3.85381 12.8533L12.8533 3.85381C13.0491 3.94752 13.2684 4 13.5 4C14.3284 4 15 3.32843 15 2.5Z" fill="white"/>
</svg>
