<svg width="16" height="16" viewBox="0 0 16 16" fill="none" xmlns="http://www.w3.org/2000/svg">
<path fill-rule="evenodd" clip-rule="evenodd" d="M4 1H12V7H8H4V1ZM5.76389 8H3V4H2.5C1.67157 4 1 4.67157 1 5.5V12.5C1 13.3284 1.67157 14 2.5 14H5.17071C5.06015 13.6872 5 13.3506 5 13V10C5 9.23165 5.28885 8.53076 5.76389 8ZM15 7.76389V5.5C15 4.67157 14.3284 4 13.5 4H13V7C13.7684 7 14.4692 7.28885 15 7.76389Z" fill="white" fill-opacity="0.5"/>
<path fill-rule="evenodd" clip-rule="evenodd" d="M8 8C6.89543 8 6 8.89543 6 10V13C6 14.1046 6.89543 15 8 15C9.10457 15 10 14.1046 10 13H11C11 14.1046 11.8954 15 13 15C14.1046 15 15 14.1046 15 13V10C15 8.89543 14.1046 8 13 8C12.2597 8 11.6134 8.4022 11.2676 9H9.73244C9.38663 8.4022 8.74028 8 8 8ZM9 13C9 12.4477 8.55228 12 8 12C7.44772 12 7 12.4477 7 13C7 13.5523 7.44772 14 8 14C8.55228 14 9 13.5523 9 13ZM13 14.125C13.5523 14.125 14 13.7332 14 13.25C14 12.7668 13.5523 12.375 13 12.375C12.4477 12.375 12 12.7668 12 13.25C12 13.7332 12.4477 14.125 13 14.125Z" fill="white"/>
</svg>
