<svg width="16" height="16" viewBox="0 0 16 16" fill="none" xmlns="http://www.w3.org/2000/svg">
<path d="M2 5C2 4.44772 2.44772 4 3 4H13C13.5523 4 14 4.44772 14 5V11C14 11.5523 13.5523 12 13 12H3C2.44772 12 2 11.5523 2 11V5Z" fill="white" fill-opacity="0.5"/>
<path fill-rule="evenodd" clip-rule="evenodd" d="M16 7.5V5C16 3.34315 14.6569 2 13 2H10.5H10V3L10.5 3L13 3C14.1046 3 15 3.89543 15 5V7.5V8H16V7.5ZM0 11C0 12.6569 1.34315 14 3 14H5.5H6V13H5.5H3C1.89543 13 1 12.1046 1 11L1 8.5L1 8H0V8.5V11Z" fill="white"/>
</svg>
