<svg width="16" height="16" viewBox="0 0 16 16" fill="none" xmlns="http://www.w3.org/2000/svg">
<path fill-rule="evenodd" clip-rule="evenodd" d="M3 2.5C3 2.32877 3.01722 2.16156 3.05001 2H2.5C1.67157 2 1 2.67157 1 3.5V12.5C1 13.3284 1.67157 14 2.5 14H3.05001C3.01722 13.8384 3 13.6712 3 13.5V2.5ZM13 13.5C13 13.6712 12.9828 13.8384 12.95 14H13.5C14.3284 14 15 13.3284 15 12.5V3.5C15 2.67157 14.3284 2 13.5 2H12.95C12.9828 2.16155 13 2.32877 13 2.5V13.5Z" fill="white" fill-opacity="0.5"/>
<path d="M4 2.5C4 1.67157 4.67157 1 5.5 1H10.5C11.3284 1 12 1.67157 12 2.5V13.5C12 14.3284 11.3284 15 10.5 15H5.5C4.67157 15 4 14.3284 4 13.5V2.5Z" fill="white"/>
</svg>
