<svg width="16" height="16" viewBox="0 0 16 16" fill="none" xmlns="http://www.w3.org/2000/svg">
<path fill-rule="evenodd" clip-rule="evenodd" d="M4 3H2.5C1.67157 3 1 3.67157 1 4.5V11.5C1 12.3284 1.67157 13 2.5 13H4V3ZM7 13H13.5C14.3284 13 15 12.3284 15 11.5V4.5C15 3.67157 14.3284 3 13.5 3H7V13Z" fill="white" fill-opacity="0.5"/>
<path fill-rule="evenodd" clip-rule="evenodd" d="M2.5 1H2V2H2.5H4C4.55228 2 5 2.44772 5 3V13C5 13.5523 4.55228 14 4 14H2.5H2V15H2.5H4C4.59735 15 5.13353 14.7381 5.5 14.3229C5.86647 14.7381 6.40265 15 7 15H8.5H9V14H8.5H7C6.44772 14 6 13.5523 6 13V3C6 2.44772 6.44772 2 7 2H8.5H9V1H8.5H7C6.40265 1 5.86647 1.26188 5.5 1.67709C5.13353 1.26188 4.59735 1 4 1H2.5Z" fill="white"/>
</svg>
