<svg width="16" height="16" viewBox="0 0 16 16" fill="none" xmlns="http://www.w3.org/2000/svg">
<path fill-rule="evenodd" clip-rule="evenodd" d="M1 12.5C1 13.3284 1.67157 14 2.5 14H13.5C14.3284 14 15 13.3284 15 12.5V3.5C15 2.67157 14.3284 2 13.5 2H2.5C1.67157 2 1 2.67157 1 3.5V12.5ZM5.85351 5.14645L5.49996 4.79289L4.79285 5.5L5.14641 5.85355L7.29285 8L5.14641 10.1464L4.79285 10.5L5.49996 11.2071L5.85351 10.8536L7.99996 8.70711L10.1464 10.8536L10.5 11.2071L11.2071 10.5L10.8535 10.1464L8.70707 8L10.8535 5.85355L11.2071 5.5L10.5 4.79289L10.1464 5.14645L7.99996 7.29289L5.85351 5.14645Z" fill="white"/>
</svg>
