<svg width="16" height="16" viewBox="0 0 16 16" fill="none" xmlns="http://www.w3.org/2000/svg">
<path fill-rule="evenodd" clip-rule="evenodd" d="M11.2998 2.35982L16 8L11.2998 13.6402C11.1099 13.8682 10.8284 14 10.5316 14H2.5C1.67157 14 1 13.3284 1 12.5V3.5C1 2.67157 1.67157 2 2.5 2H10.5316C10.8284 2 11.1099 2.13182 11.2998 2.35982ZM4.85355 5.14645L4.5 4.79289L3.79289 5.5L4.14645 5.85355L6.29289 8L4.14645 10.1464L3.79289 10.5L4.5 11.2071L4.85355 10.8536L7 8.70711L9.14645 10.8536L9.5 11.2071L10.2071 10.5L9.85355 10.1464L7.70711 8L9.85355 5.85355L10.2071 5.5L9.5 4.79289L9.14645 5.14645L7 7.29289L4.85355 5.14645Z" fill="white"/>
</svg>
