<svg width="16" height="16" viewBox="0 0 16 16" fill="none" xmlns="http://www.w3.org/2000/svg">
<path fill-rule="evenodd" clip-rule="evenodd" d="M4.70015 2.35982L0 8L4.70015 13.6402C4.89015 13.8682 5.1716 14 5.46838 14H13.5C14.3284 14 15 13.3284 15 12.5V3.5C15 2.67157 14.3284 2 13.5 2H5.46837C5.1716 2 4.89015 2.13182 4.70015 2.35982ZM6.85355 5.14645L6.5 4.79289L5.79289 5.5L6.14645 5.85355L8.29289 8L6.14645 10.1464L5.79289 10.5L6.5 11.2071L6.85355 10.8536L9 8.70711L11.1464 10.8536L11.5 11.2071L12.2071 10.5L11.8536 10.1464L9.70711 8L11.8536 5.85355L12.2071 5.5L11.5 4.79289L11.1464 5.14645L9 7.29289L6.85355 5.14645Z" fill="white"/>
</svg>
