<svg width="16" height="16" viewBox="0 0 16 16" fill="none" xmlns="http://www.w3.org/2000/svg">
<path fill-rule="evenodd" clip-rule="evenodd" d="M2 3.5C2 3.22386 2.22386 3 2.5 3H4.5H5V2H4.5H2.5C1.67157 2 1 2.67157 1 3.5V5.5V6H2V5.5V3.5ZM11.5 2H11V3H11.5H13.5C13.7761 3 14 3.22386 14 3.5V5.5V6H15V5.5V3.5C15 2.67157 14.3284 2 13.5 2H11.5ZM2 10.5V10H1V10.5V12.5C1 13.3284 1.67157 14 2.5 14H4.5H5V13H4.5H2.5C2.22386 13 2 12.7761 2 12.5V10.5ZM15 10.5V10H14V10.5V12.5C14 12.7761 13.7761 13 13.5 13H11.5H11V14H11.5H13.5C14.3284 14 15 13.3284 15 12.5V10.5ZM4 8C4 7.44772 4.44772 7 5 7C5.55228 7 6 7.44772 6 8C6 8.55228 5.55228 9 5 9C4.44772 9 4 8.55228 4 8ZM8 7C7.44772 7 7 7.44772 7 8C7 8.55228 7.44772 9 8 9C8.55228 9 9 8.55228 9 8C9 7.44772 8.55228 7 8 7ZM11 7C10.4477 7 10 7.44772 10 8C10 8.55228 10.4477 9 11 9C11.5523 9 12 8.55228 12 8C12 7.44772 11.5523 7 11 7Z" fill="white"/>
</svg>
