<svg width="16" height="16" viewBox="0 0 16 16" fill="none" xmlns="http://www.w3.org/2000/svg">
<path d="M2 12C2 10.8954 2.89543 10 4 10C5.10457 10 6 10.8954 6 12C6 13.1046 5.10457 14 4 14H2V12Z" fill="white" fill-opacity="0.5"/>
<path fill-rule="evenodd" clip-rule="evenodd" d="M11.6213 1H15V4.37868C15 4.7765 14.842 5.15804 14.5607 5.43934L9.43935 10.5607C9.15804 10.842 8.77651 11 8.37868 11H7.00001L5.00001 9V7.62132C5.00001 7.2235 5.15804 6.84196 5.43935 6.56066L10.5607 1.43934C10.842 1.15804 11.2235 1 11.6213 1ZM12 5.5C12 6.32843 11.3284 7 10.5 7C9.67158 7 9.00001 6.32843 9.00001 5.5C9.00001 4.67157 9.67158 4 10.5 4C11.3284 4 12 4.67157 12 5.5ZM4.62132 4H6.58579L4.73223 5.85355C4.41286 6.17293 4.18882 6.56982 4.07843 7H1L3.56066 4.43934C3.84197 4.15804 4.2235 4 4.62132 4ZM9 15V11.9216C9.43019 11.8112 9.82707 11.5871 10.1464 11.2678L12 9.41421L12 11.3787C12 11.7765 11.842 12.158 11.5607 12.4393L9 15Z" fill="white"/>
</svg>
