<svg width="16" height="16" viewBox="0 0 16 16" fill="none" xmlns="http://www.w3.org/2000/svg">
<path fill-rule="evenodd" clip-rule="evenodd" d="M7.29286 1.05025C7.68338 0.659722 8.31655 0.659722 8.70707 1.05025L9.65683 2H11C11.5522 2 12 2.44771 12 3V4.34314L12.9497 5.29289C13.3402 5.68341 13.3402 6.31658 12.9497 6.7071L12 7.65685V9C12 9.55228 11.5522 10 11 10H9.65681L8.70707 10.9497C8.31655 11.3403 7.68338 11.3403 7.29286 10.9497L6.34312 10H4.99996C4.44768 10 3.99996 9.55228 3.99996 9V7.65685L3.05022 6.7071C2.65969 6.31658 2.65969 5.68341 3.05022 5.29289L3.99996 4.34314V3C3.99996 2.44771 4.44768 2 4.99996 2H6.3431L7.29286 1.05025ZM10 6.00003C10 7.1046 9.10457 8.00003 8 8.00003C6.89543 8.00003 6 7.1046 6 6.00003C6 4.89546 6.89543 4.00003 8 4.00003C9.10457 4.00003 10 4.89546 10 6.00003ZM11 6.00003C11 7.65688 9.65685 9.00003 8 9.00003C6.34315 9.00003 5 7.65688 5 6.00003C5 4.34317 6.34315 3.00003 8 3.00003C9.65685 3.00003 11 4.34317 11 6.00003Z" fill="white"/>
</svg>
