<svg width="16" height="16" viewBox="0 0 16 16" fill="none" xmlns="http://www.w3.org/2000/svg">
<path fill-rule="evenodd" clip-rule="evenodd" d="M8 4.29289C8 4.73835 8.53857 4.96143 8.85355 4.64645L9.75205 3.74794C10.763 5.4293 10.5435 7.64369 9.09359 9.09359C7.38505 10.8021 4.61495 10.8021 2.90641 9.09359C1.19786 7.38505 1.19786 4.61495 2.90641 2.90641L2.1993 2.1993C0.100233 4.29837 0.100233 7.70163 2.1993 9.8007C4.29837 11.8998 7.70163 11.8998 9.8007 9.8007C11.643 7.95837 11.8684 5.11138 10.4767 3.02328L11.6464 1.85355C11.9614 1.53857 11.7383 1 11.2929 1H8V4.29289Z" fill="white" fill-opacity="0.5"/>
<path fill-rule="evenodd" clip-rule="evenodd" d="M12 11C12 10.4477 12.4477 10 13 10C13.5523 10 14 10.4477 14 11H12ZM11 11C11 9.89543 11.8954 9 13 9C14.1046 9 15 9.89543 15 11H15.5C15.7761 11 16 11.2239 16 11.5V14H10V11.5C10 11.2239 10.2239 11 10.5 11H11ZM10 15.5V15H16V15.5C16 15.7761 15.7761 16 15.5 16H10.5C10.2239 16 10 15.7761 10 15.5Z" fill="white"/>
</svg>
