<svg width="16" height="16" viewBox="0 0 16 16" fill="none" xmlns="http://www.w3.org/2000/svg">
<path fill-rule="evenodd" clip-rule="evenodd" d="M6 8C6 6.2504 6.27363 4.68901 6.69891 3.5833C6.91218 3.02877 7.15389 2.61433 7.39681 2.34719C7.6396 2.08019 7.84416 2 8 2V1C4.13401 1 1 4.13401 1 8C1 11.866 4.13401 15 8 15C11.866 15 15 11.866 15 8C15 6.44989 14.4957 5.01695 13.6429 3.85711L14.6464 2.85355C14.9614 2.53857 14.7383 2 14.2929 2L11 2V5.29289C11 5.73835 11.5386 5.96143 11.8536 5.64645L12.9263 4.57375C13.6033 5.54527 14 6.72603 14 8C14 8.15584 13.9198 8.3604 13.6528 8.60319C13.3857 8.84611 12.9712 9.08782 12.4167 9.30109C11.311 9.72637 9.7496 10 8 10C7.33853 10 6.70396 9.96089 6.11074 9.88925C6.03911 9.29604 6 8.66147 6 8ZM13.7326 9.77659C12.9753 12.2229 10.6952 14 8 14C7.84416 14 7.6396 13.9198 7.39681 13.6528C7.15389 13.3857 6.91218 12.9712 6.6989 12.4167C6.53132 11.981 6.38728 11.4745 6.27426 10.9136C6.82717 10.9702 7.40568 11 8 11C9.84025 11 11.5289 10.714 12.7757 10.2344C13.125 10.1001 13.4476 9.94751 13.7326 9.77659ZM6.22341 13.7326C4.33847 13.1491 2.85088 11.6615 2.26738 9.77659C2.55238 9.94751 2.87505 10.1001 3.22432 10.2344C3.80639 10.4583 4.48475 10.64 5.22988 10.7701C5.35999 11.5152 5.54168 12.1936 5.76556 12.7757C5.89989 13.125 6.05249 13.4476 6.22341 13.7326ZM2 8C2 5.30481 3.77707 3.02467 6.22342 2.26738C6.05249 2.55238 5.89989 2.87505 5.76556 3.22432C5.28601 4.47114 5 6.15975 5 8C5 8.59432 5.02983 9.17283 5.08638 9.72574C4.5255 9.61272 4.01902 9.46868 3.5833 9.30109C3.02877 9.08782 2.61433 8.84611 2.34719 8.60319C2.08019 8.3604 2 8.15584 2 8ZM7 8C7 7.36611 7.03814 6.76505 7.10598 6.21045C7.37502 6.07578 7.67866 6 8 6C9.10457 6 10 6.89543 10 8C10 8.32135 9.92421 8.625 9.78953 8.89405C9.23494 8.96188 8.63388 9.00002 8 9.00002C7.66707 9.00002 7.34319 8.9895 7.03034 8.96968C7.01052 8.65683 7 8.33294 7 8Z" fill="white"/>
</svg>
