<svg width="16" height="16" viewBox="0 0 16 16" fill="none" xmlns="http://www.w3.org/2000/svg">
<path fill-rule="evenodd" clip-rule="evenodd" d="M12.2071 1.20711L14.7929 3.79289C15.1834 4.18342 15.1834 4.81658 14.7929 5.20711L14.3535 5.64645L12.8535 4.14645L12.5 3.79289L11.7929 4.5L12.1464 4.85355L13.6464 6.35355L12.3535 7.64645L10.8535 6.14645L10.5 5.79289L9.79286 6.5L10.1464 6.85355L11.6464 8.35355L10.3535 9.64645L8.85352 8.14645L8.49997 7.79289L7.79286 8.5L8.14642 8.85355L9.64642 10.3536L8.35352 11.6464L6.85352 10.1464L6.49997 9.79289L5.79286 10.5L6.14642 10.8536L7.64642 12.3536L6.35352 13.6464L4.85352 12.1464L4.49997 11.7929L3.79286 12.5L4.14642 12.8536L5.64642 14.3536L5.20708 14.7929C4.81655 15.1834 4.18339 15.1834 3.79286 14.7929L1.20708 12.2071C0.816553 11.8166 0.816554 11.1834 1.20708 10.7929L10.7929 1.20711C11.1834 0.816582 11.8166 0.816582 12.2071 1.20711Z" fill="white"/>
</svg>
