<svg width="16" height="16" viewBox="0 0 16 16" fill="none" xmlns="http://www.w3.org/2000/svg">
<path fill-rule="evenodd" clip-rule="evenodd" d="M2 2.5C2 2.22386 2.22386 2 2.5 2H13.5C13.7761 2 14 2.22386 14 2.5V13.5C14 13.7761 13.7761 14 13.5 14H8V8.70711L10.1036 6.60355L11.1464 7.64645C11.4614 7.96143 12 7.73835 12 7.29289V4H8.70711C8.26165 4 8.03857 4.53857 8.35355 4.85355L9.39645 5.89645L7.29289 8H2V2.5ZM2.5 1C1.67157 1 1 1.67157 1 2.5V13.5C1 14.3284 1.67157 15 2.5 15H13.5C14.3284 15 15 14.3284 15 13.5V2.5C15 1.67157 14.3284 1 13.5 1H2.5Z" fill="white"/>
</svg>
