<svg width="16" height="16" viewBox="0 0 16 16" fill="none" xmlns="http://www.w3.org/2000/svg">
<path fill-rule="evenodd" clip-rule="evenodd" d="M5 3.5C5 4.32843 4.32843 5 3.5 5C2.67157 5 2 4.32843 2 3.5C2 2.67157 2.67157 2 3.5 2C4.32843 2 5 2.67157 5 3.5ZM3.5 6C2.11929 6 1 4.88071 1 3.5C1 2.11929 2.11929 1 3.5 1C4.88071 1 6 2.11929 6 3.5V4.58579C6 4.851 6.10536 5.10536 6.29289 5.29289L8 7L12.7071 2.29289C12.8946 2.10536 13.149 2 13.4142 2H15L9 8L15 14H13.4142C13.149 14 12.8946 13.8946 12.7071 13.7071L8 9L6.29289 10.7071C6.10536 10.8946 6 11.149 6 11.4142V12.5C6 13.8807 4.88071 15 3.5 15C2.11929 15 1 13.8807 1 12.5C1 11.1193 2.11929 10 3.5 10H4.58579C4.851 10 5.10536 9.89464 5.29289 9.70711L7 8L5.29289 6.29289C5.10536 6.10536 4.851 6 4.58579 6H3.5ZM5 12.5C5 11.6716 4.32843 11 3.5 11C2.67157 11 2 11.6716 2 12.5C2 13.3284 2.67157 14 3.5 14C4.32843 14 5 13.3284 5 12.5Z" fill="white"/>
</svg>
