<svg width="16" height="16" viewBox="0 0 16 16" fill="none" xmlns="http://www.w3.org/2000/svg">
<path fill-rule="evenodd" clip-rule="evenodd" d="M3 4V2.5C3 1.67157 3.67157 1 4.5 1H13.5C14.3284 1 15 1.67157 15 2.5V4L13 4V11V12V13.5C13 14.3284 12.3284 15 11.5 15H2.5C1.67157 15 1 14.3284 1 13.5V12H12V11H11V9.5C11 8.67157 10.3284 8 9.5 8H6.5C5.67157 8 5 8.67157 5 9.5V11H3V4ZM6 4.5C6 3.67157 6.67157 3 7.5 3H8.5C9.32843 3 10 3.67157 10 4.5V5.5C10 6.32843 9.32843 7 8.5 7H7.5C6.67157 7 6 6.32843 6 5.5V4.5Z" fill="white"/>
</svg>
