<svg width="16" height="16" viewBox="0 0 16 16" fill="none" xmlns="http://www.w3.org/2000/svg">
<path fill-rule="evenodd" clip-rule="evenodd" d="M3 2.5V4V11H12V12H1V13.5C1 14.3284 1.67157 15 2.5 15H11.5C12.3284 15 13 14.3284 13 13.5V12V11V4L15 4V2.5C15 1.67157 14.3284 1 13.5 1H4.5C3.67157 1 3 1.67157 3 2.5ZM10.8536 5.85355L11.2071 5.5L10.5 4.79289L10.1464 5.14645L7 8.29289L5.85355 7.14645L5.5 6.79289L4.79289 7.5L5.14645 7.85355L6.64645 9.35355L7 9.70711L7.35355 9.35355L10.8536 5.85355Z" fill="white"/>
</svg>
