<svg width="16" height="16" viewBox="0 0 16 16" fill="none" xmlns="http://www.w3.org/2000/svg">
<path fill-rule="evenodd" clip-rule="evenodd" d="M3 2.5V4V11H6.12602C6.04375 10.6804 6 10.3453 6 10C6 7.79086 7.79086 6 10 6C11.1947 6 12.2671 6.52375 13 7.35418V4L15 4V2.5C15 1.67157 14.3284 1 13.5 1H4.5C3.67157 1 3 1.67157 3 2.5ZM12.4983 14.6196L11.5621 13.6835C11.0822 13.8873 10.5543 14 10 14C8.51944 14 7.22675 13.1956 6.53513 12H1V13.5C1 14.3284 1.67157 15 2.5 15H11.5C11.8833 15 12.2331 14.8562 12.4983 14.6196Z" fill="white" fill-opacity="0.5"/>
<path fill-rule="evenodd" clip-rule="evenodd" d="M12 10C12 11.1046 11.1046 12 10 12C8.89543 12 8 11.1046 8 10C8 8.89543 8.89543 8 10 8C11.1046 8 12 8.89543 12 10ZM11.7383 12.4454C11.2479 12.7946 10.6479 13 10 13C8.34315 13 7 11.6569 7 10C7 8.34315 8.34315 7 10 7C11.6569 7 13 8.34315 13 10C13 10.6479 12.7946 11.2479 12.4454 11.7383L14.8536 14.1464L15.2071 14.5L14.5 15.2071L14.1464 14.8536L11.7383 12.4454Z" fill="white"/>
</svg>
