<svg width="16" height="16" viewBox="0 0 16 16" fill="none" xmlns="http://www.w3.org/2000/svg">
<path fill-rule="evenodd" clip-rule="evenodd" d="M3 4V2.5C3 1.67157 3.67157 1 4.5 1H13.5C14.3284 1 15 1.67157 15 2.5V4L13 4V6H11.4141C10.8836 6 10.3749 6.21071 9.99985 6.58579L5.99985 10.5858C5.87316 10.7125 5.76703 10.8519 5.68144 11H3V4ZM5.41406 12H1V13.5C1 14.3284 1.67157 15 2.5 15H7.58564L5.99985 13.4142C5.60933 13.0237 5.41406 12.5118 5.41406 12Z" fill="white" fill-opacity="0.5"/>
<path fill-rule="evenodd" clip-rule="evenodd" d="M14.9998 7H11.4141C11.1488 7 10.8945 7.10536 10.707 7.29289L6.70696 11.2929C6.31643 11.6834 6.31643 12.3166 6.70696 12.7071L9.29274 15.2929C9.68327 15.6834 10.3164 15.6834 10.707 15.2929L14.707 11.2929C14.8945 11.1054 14.9998 10.851 14.9998 10.5858V7ZM12.9998 8C12.4475 8 11.9998 8.44772 11.9998 9C11.9998 9.55228 12.4475 10 12.9998 10C13.552 10 13.9998 9.55228 13.9998 9C13.9998 8.44772 13.552 8 12.9998 8Z" fill="white"/>
</svg>
