<svg width="16" height="16" viewBox="0 0 16 16" fill="none" xmlns="http://www.w3.org/2000/svg">
<path fill-rule="evenodd" clip-rule="evenodd" d="M6 1H13.5C14.3284 1 15 1.67157 15 2.5V4L13 4V9.87869L12.5 10.3787L11.5607 9.43934L11.2071 9.08579L10.5 8.37868L9.79291 9.08579L9.0858 9.79289L8.3787 10.5L8.8787 11H3V9H4H5H6V8V6H8H9V5V4V3H8H6V1ZM9.87869 12L10.3787 12.5L9.43935 13.4393L9.0858 13.7929L8.3787 14.5L8.87869 15H2.5C1.67157 15 1 14.3284 1 13.5V12H9.87869Z" fill="white" fill-opacity="0.5"/>
<path fill-rule="evenodd" clip-rule="evenodd" d="M4 1V4H1V5H4V8H5V5H8V4H5V1H4ZM15.2071 10.5L14.8536 10.8536L13.8536 11.8536L13.5 12.2071L12.7929 11.5L13.1465 11.1464L14.1465 10.1464L14.5 9.79289L15.2071 10.5ZM12.2071 13.5L11.8536 13.8536L10.8536 14.8536L10.5 15.2071L9.79291 14.5L10.1465 14.1464L11.1465 13.1464L11.5 12.7929L12.2071 13.5ZM13.1465 13.8536L12.7929 13.5L13.5 12.7929L13.8536 13.1464L14.8536 14.1464L15.2071 14.5L14.5 15.2071L14.1465 14.8536L13.1465 13.8536ZM9.79291 10.5L10.1465 10.8536L11.1465 11.8536L11.5 12.2071L12.2071 11.5L11.8536 11.1464L10.8536 10.1464L10.5 9.79289L9.79291 10.5Z" fill="white"/>
</svg>
