<svg width="16" height="16" viewBox="0 0 16 16" fill="none" xmlns="http://www.w3.org/2000/svg">
<path fill-rule="evenodd" clip-rule="evenodd" d="M6 4H7V6H6V8C6 9.10457 6.89543 10 8 10H11V11C11 11.5523 10.5523 12 10 12H5C4.44772 12 4 11.5523 4 11V10H5V6V5C5 4.44772 5.44771 4 6 4ZM3 7H4V9H3V11C3 12.1046 3.89543 13 5 13H8V14C8 14.5523 7.55228 15 7 15H2C1.44772 15 1 14.5523 1 14V13H2V9V8C2 7.44772 2.44771 7 3 7Z" fill="white" fill-opacity="0.5"/>
<path fill-rule="evenodd" clip-rule="evenodd" d="M15 3L14 3V6V7V8C14 8.55228 13.5523 9 13 9H8C7.44772 9 7 8.55228 7 8V7H13V6H8V3V2C8 1.44772 8.44771 1 9 1H14C14.5523 1 15 1.44771 15 2V3Z" fill="white"/>
</svg>
