<svg width="16" height="16" viewBox="0 0 16 16" fill="none" xmlns="http://www.w3.org/2000/svg">
<path fill-rule="evenodd" clip-rule="evenodd" d="M3 4V2.5C3 1.67157 3.67157 1 4.5 1H13.5C14.3284 1 15 1.67157 15 2.5V4L13 4V5.995H12.9999H11.9949V6.995H11.4142C11.0543 6.995 10.7044 7.09176 10.3993 7.27086L10.2106 7.08222L9.49997 6.37158L8.78933 7.08222L8.08222 7.78933L7.37158 8.49997L8.08222 9.21061L8.23072 9.35911C7.80238 9.8391 7.47649 10.3958 7.26721 10.995H7H5.995V11H3V4ZM1 12H5.995V13V14.005H7H7.58372L7.93228 14.3536L7.93581 14.3571L8.57872 15H2.5C1.67157 15 1 14.3284 1 13.5V12Z" fill="white" fill-opacity="0.5"/>
<path fill-rule="evenodd" clip-rule="evenodd" d="M12.9999 7H13.9999V8H14C14.5523 8 15 8.44771 15 9L16 9V10H15V11.5858C15 11.851 14.8946 12.1054 14.7071 12.2929L14.3536 12.6464L14.8535 13.1464L15.2071 13.5L14.5 14.2071L14.1464 13.8535L13.6464 13.3536L13.1314 13.8686C12.5499 14.4501 11.8022 14.827 11 14.9531V16H10V14.9133C9.89572 14.8658 9.79973 14.7997 9.71716 14.7172L9.35356 14.3536L11.8536 11.8536L12.2071 11.5L11.5 10.7929L11.1464 11.1465L8.64646 13.6465L8.28284 13.2828C8.20027 13.2003 8.13419 13.1043 8.08674 13H7V12H8.04687C8.173 11.1978 8.54993 10.4501 9.13137 9.86863L9.64645 9.35355L9.14642 8.85352L8.79286 8.49997L9.49997 7.79286L9.85352 8.14642L10.3536 8.64645L10.7071 8.29289C10.8946 8.10536 11.149 8 11.4142 8H12.9999V7Z" fill="white"/>
</svg>
