<svg width="16" height="16" viewBox="0 0 16 16" fill="none" xmlns="http://www.w3.org/2000/svg">
<path fill-rule="evenodd" clip-rule="evenodd" d="M3 4V2.5C3 1.67157 3.67157 1 4.5 1H13.5C14.3284 1 15 1.67157 15 2.5V4L13 4V7H12H11H10H9V8V9H8V10V11H3V4ZM9.58579 15L8.73223 14.1464C8.26339 13.6776 8 13.0417 8 12.3787V12H1V13.5C1 14.3284 1.67157 15 2.5 15H9.58579Z" fill="white" fill-opacity="0.5"/>
<path fill-rule="evenodd" clip-rule="evenodd" d="M10 8H11V10H13V8H14V10H15V12.3787C15 12.7765 14.842 13.158 14.5607 13.4393L13 15V16H11V15L9.43934 13.4393C9.15803 13.158 9 12.7765 9 12.3787V10H10V8Z" fill="white"/>
</svg>
