<svg width="16" height="16" viewBox="0 0 16 16" fill="none" xmlns="http://www.w3.org/2000/svg">
<path fill-rule="evenodd" clip-rule="evenodd" d="M3 2.5V4V11H6V10C6 8.34315 7.34315 7 9 7H13V4L15 4V2.5C15 1.67157 14.3284 1 13.5 1H4.5C3.67157 1 3 1.67157 3 2.5ZM6.76389 15C6.28885 14.4692 6 13.7684 6 13V12H1V13.5C1 14.3284 1.67157 15 2.5 15H6.76389Z" fill="white" fill-opacity="0.5"/>
<path fill-rule="evenodd" clip-rule="evenodd" d="M9 8C7.89543 8 7 8.89543 7 10V13C7 14.1046 7.89543 15 9 15C10.1046 15 11 14.1046 11 13H12C12 14.1046 12.8954 15 14 15C15.1046 15 16 14.1046 16 13V10C16 8.89543 15.1046 8 14 8C13.2597 8 12.6134 8.4022 12.2676 9H10.7324C10.3866 8.4022 9.74028 8 9 8ZM10 13C10 12.4477 9.55228 12 9 12C8.44772 12 8 12.4477 8 13C8 13.5523 8.44772 14 9 14C9.55228 14 10 13.5523 10 13ZM14 14.125C14.5523 14.125 15 13.7332 15 13.25C15 12.7668 14.5523 12.375 14 12.375C13.4477 12.375 13 12.7668 13 13.25C13 13.7332 13.4477 14.125 14 14.125Z" fill="white"/>
</svg>
