<svg width="16" height="16" viewBox="0 0 16 16" fill="none" xmlns="http://www.w3.org/2000/svg">
<path fill-rule="evenodd" clip-rule="evenodd" d="M3 2.5V4V11H7.02746C7.27619 8.75003 9.18372 7 11.5 7C12.026 7 12.5308 7.09023 13 7.25606V4L15 4V2.5C15 1.67157 14.3284 1 13.5 1H4.5C3.67157 1 3 1.67157 3 2.5ZM8.67133 15C7.77372 14.2737 7.16111 13.209 7.02746 12H1V13.5C1 14.3284 1.67157 15 2.5 15H8.67133Z" fill="white" fill-opacity="0.5"/>
<path fill-rule="evenodd" clip-rule="evenodd" d="M11.5 15C13.433 15 15 13.433 15 11.5C15 9.567 13.433 8 11.5 8C9.567 8 8 9.567 8 11.5C8 13.433 9.567 15 11.5 15ZM11 9.5V11.5V11.7071L11.1464 11.8536L12.6464 13.3536L13.3536 12.6464L12 11.2929V9.5H11Z" fill="white"/>
</svg>
