<svg width="16" height="16" viewBox="0 0 16 16" fill="none" xmlns="http://www.w3.org/2000/svg">
<path fill-rule="evenodd" clip-rule="evenodd" d="M3 4V2.5C3 1.67157 3.67157 1 4.5 1H13.5C14.3284 1 15 1.67157 15 2.5V4L13 4V7.08579L12.7929 7.29289L10.6464 9.43934C10.1961 9.88971 10.1124 10.4924 10.2928 11H3V4ZM12 13V12H11.7071H1V13.5C1 14.3284 1.67157 15 2.5 15H9V14V13H10H10.5H12Z" fill="white" fill-opacity="0.5"/>
<path fill-rule="evenodd" clip-rule="evenodd" d="M13.5 8L11.3536 10.1464C11.0386 10.4614 11.2617 11 11.7071 11H13V11.5V13C13 13.5523 12.5523 14 12 14H10.5H10V15H10.5H12C13.1046 15 14 14.1046 14 13V11.5V11H15.2929C15.7383 11 15.9614 10.4614 15.6464 10.1464L13.5 8Z" fill="white"/>
</svg>
