<svg width="16" height="16" viewBox="0 0 16 16" fill="none" xmlns="http://www.w3.org/2000/svg">
<path fill-rule="evenodd" clip-rule="evenodd" d="M3 4V2.5C3 1.67157 3.67157 1 4.5 1H13.5C14.3284 1 15 1.67157 15 2.5V4L13 4V7C12.2597 7 11.6134 7.4022 11.2676 8H11C9.89543 8 9 8.89543 9 10V10.2676C8.69637 10.4432 8.4432 10.6964 8.26756 11H3V4ZM9.26756 15C9.09739 14.7058 9 14.3643 9 14V13.7324C8.4022 13.3866 8 12.7403 8 12H1V13.5C1 14.3284 1.67157 15 2.5 15H9.26756Z" fill="white" fill-opacity="0.5"/>
<path fill-rule="evenodd" clip-rule="evenodd" d="M14 9H15C15.5523 9 16 9.44772 16 10V11C15.4477 11 15 11.4477 15 12C15 12.5523 15.4477 13 16 13V14C16 14.5523 15.5523 15 15 15H14C14 14.4477 13.5523 14 13 14C12.4477 14 12 14.4477 12 15H11C10.4477 15 10 14.5523 10 14V13C9.44772 13 9 12.5523 9 12C9 11.4477 9.44772 11 10 11V10C10 9.44772 10.4477 9 11 9H12C12 8.44772 12.4477 8 13 8C13.5523 8 14 8.44772 14 9Z" fill="white"/>
</svg>
