<svg width="16" height="16" viewBox="0 0 16 16" fill="none" xmlns="http://www.w3.org/2000/svg">
<path fill-rule="evenodd" clip-rule="evenodd" d="M3 4V2.5C3 1.67157 3.67157 1 4.5 1H13.5C14.3284 1 15 1.67157 15 2.5V4L13 4V6.96705L10.2923 5.92563C9.26138 5.52912 8.10419 6.04342 7.70767 7.07437L6.19782 11H3V4ZM5.83785 12H1V13.5C1 14.3284 1.67157 15 2.5 15H8.91432L7.07437 14.2923C6.14 13.933 5.63001 12.9488 5.83785 12Z" fill="white" fill-opacity="0.5"/>
<path d="M8.64096 7.43335C8.83922 6.91787 9.41781 6.66072 9.93328 6.85898L14.5666 8.64102C15.0821 8.83928 15.3392 9.41787 15.141 9.93335L13.3589 14.5667C13.1607 15.0821 12.5821 15.3393 12.0666 15.141L7.43328 13.359C6.91781 13.1607 6.66066 12.5821 6.85892 12.0667L8.64096 7.43335Z" fill="white"/>
</svg>
