<svg width="16" height="16" viewBox="0 0 16 16" fill="none" xmlns="http://www.w3.org/2000/svg">
<path fill-rule="evenodd" clip-rule="evenodd" d="M3 4V2.5C3 1.67157 3.67157 1 4.5 1H13.5C14.3284 1 15 1.67157 15 2.5V4L13 4V7H12C10.8954 7 10 7.89543 10 9C8.89543 9 8 9.89543 8 11H3V4ZM8 12H1V13.5C1 14.3284 1.67157 15 2.5 15H8.26756C8.09739 14.7058 8 14.3643 8 14V12Z" fill="white" fill-opacity="0.5"/>
<path fill-rule="evenodd" clip-rule="evenodd" d="M15 12C15 12.5523 14.5523 13 14 13V11C14 9.89543 13.1046 9 12 9H11C11 8.44772 11.4477 8 12 8H14C14.5523 8 15 8.44772 15 9V12ZM9 14C9 14.5523 9.44772 15 10 15H12C12.5523 15 13 14.5523 13 14V11C13 10.4477 12.5523 10 12 10H10C9.44772 10 9 10.4477 9 11V14Z" fill="white"/>
</svg>
