<svg width="16" height="16" viewBox="0 0 16 16" fill="none" xmlns="http://www.w3.org/2000/svg">
<path fill-rule="evenodd" clip-rule="evenodd" d="M5 6.70718C5.55739 6.50903 6 5.99234 6 5.29289V4H11C11.5523 4 12 4.44771 12 5V6L11 6V9V9.29282C10.4426 9.49097 10 10.0077 10 10.7071L10 12H5C4.44772 12 4 11.5523 4 11V10H10V9H5V6.70718Z" fill="white" fill-opacity="0.5"/>
<path fill-rule="evenodd" clip-rule="evenodd" d="M5.00001 5.29289C5.00001 5.73835 4.46143 5.96143 4.14645 5.64645L3.07345 4.57344C1.44217 6.91301 1.67014 10.1554 3.75736 12.2426L4.11091 12.5962L3.40381 13.3033L3.05025 12.9497C0.571543 10.471 0.340362 6.59589 2.35671 3.8567L1.35356 2.85355C1.03858 2.53857 1.26166 2 1.70711 2H5.00001V5.29289ZM11 10.7071C11 10.2616 11.5386 10.0386 11.8536 10.3535L12.9266 11.4265C14.5578 9.08697 14.3299 5.84456 12.2426 3.75734L11.8891 3.40379L12.5962 2.69668L12.9498 3.05023C15.4285 5.52894 15.6596 9.40409 13.6433 12.1433L14.6464 13.1464C14.9614 13.4614 14.7383 14 14.2929 14H11L11 10.7071Z" fill="white"/>
</svg>
