<svg width="16" height="16" viewBox="0 0 16 16" fill="none" xmlns="http://www.w3.org/2000/svg">
<path fill-rule="evenodd" clip-rule="evenodd" d="M3 4V2.5C3 1.67157 3.67157 1 4.5 1H13.5C14.3284 1 15 1.67157 15 2.5V4L13 4V6.58579L8.58579 11H3V4ZM1 12H7.58579C7.21071 12.3751 7 12.8838 7 13.4142V15H2.5C1.67157 15 1 14.3284 1 13.5V12Z" fill="white" fill-opacity="0.5"/>
<path fill-rule="evenodd" clip-rule="evenodd" d="M8 15V13.4142C8 13.149 8.10536 12.8946 8.29289 12.7071L12.6464 8.35355L14.6464 10.3536L10.2929 14.7071C10.1054 14.8946 9.851 15 9.58579 15H8ZM15.3536 9.64645L16 9L14 7L13.3536 7.64645L15.3536 9.64645Z" fill="white"/>
</svg>
