<svg width="16" height="16" viewBox="0 0 16 16" fill="none" xmlns="http://www.w3.org/2000/svg">
<path fill-rule="evenodd" clip-rule="evenodd" d="M1 2.5C1 1.67157 1.67157 1 2.5 1H4.5H5V2H4.5H2.5C2.22386 2 2 2.22386 2 2.5V4.5V5H1V4.5V2.5ZM15 13.5C15 14.3284 14.3284 15 13.5 15H11.5H11V14H11.5H13.5C13.7761 14 14 13.7761 14 13.5V11.5V11H15V11.5V13.5ZM15 2.5C15 1.67157 14.3284 1 13.5 1H11.5H11V2H11.5L13.5 2C13.7761 2 14 2.22386 14 2.5V4.5V5H15V4.5V2.5ZM2.5 15C1.67157 15 1 14.3284 1 13.5V11.5V11H2L2 11.5L2 13.5C2 13.7761 2.22386 14 2.5 14H4.5H5V15H4.5H2.5ZM11 9V6H12V5C12 4.44772 11.5523 4 11 4H6C5.44771 4 5 4.44772 5 5V6V9H10V10H4V11C4 11.5523 4.44772 12 5 12H10C10.5523 12 11 11.5523 11 11V10V9Z" fill="white"/>
</svg>
