<svg width="16" height="16" viewBox="0 0 16 16" fill="none" xmlns="http://www.w3.org/2000/svg">
<path fill-rule="evenodd" clip-rule="evenodd" d="M2 2C1.44772 2 1 2.44772 1 3V5C1 5.55228 1.44772 6 2 6H14C14.5523 6 15 5.55228 15 5V3C15 2.44772 14.5523 2 14 2H2ZM3 5C3.55228 5 4 4.55228 4 4C4 3.44772 3.55228 3 3 3C2.44772 3 2 3.44772 2 4C2 4.55228 2.44772 5 3 5ZM7 4C7 4.55228 6.55228 5 6 5C5.44772 5 5 4.55228 5 4C5 3.44772 5.44772 3 6 3C6.55228 3 7 3.44772 7 4ZM9.99493 7.5C9.99493 7.32587 10.0245 7.15864 10.0789 7.00307C10.0529 7.00104 10.0266 7 10 7H2C1.44772 7 1 7.44772 1 8V10C1 10.5523 1.44772 11 2 11L7.98992 11L7.96633 10.9864C7.2465 10.5708 6.99987 9.65034 7.41547 8.93051L7.91547 8.06448C8.33106 7.34465 9.2515 7.09802 9.97133 7.51362L9.99493 7.52724V7.5ZM3 10C3.55228 10 4 9.55228 4 9C4 8.44772 3.55228 8 3 8C2.44772 8 2 8.44772 2 9C2 9.55228 2.44772 10 3 10Z" fill="white" fill-opacity="0.5"/>
<path fill-rule="evenodd" clip-rule="evenodd" d="M12.4999 7C12.7761 7 12.9999 7.22386 12.9999 7.5V8.17071C13.351 8.29481 13.6722 8.48242 13.9495 8.71974L14.531 8.38398C14.7702 8.24591 15.076 8.32784 15.214 8.56699L15.714 9.43302C15.8521 9.67216 15.7702 9.97796 15.531 10.116L14.9499 10.4515C14.9828 10.6294 14.9999 10.8127 14.9999 11C14.9999 11.1873 14.9828 11.3706 14.9499 11.5485L15.531 11.884C15.7702 12.022 15.8521 12.3278 15.714 12.567L15.214 13.433C15.076 13.6722 14.7702 13.7541 14.531 13.616L13.9495 13.2803C13.6722 13.5176 13.351 13.7052 12.9999 13.8293V14.5C12.9999 14.7761 12.7761 15 12.4999 15H11.4999C11.2238 15 10.9999 14.7761 10.9999 14.5V13.8293C10.6488 13.7052 10.3277 13.5176 10.0504 13.2803L9.46883 13.616C9.22969 13.7541 8.92389 13.6722 8.78582 13.433L8.28582 12.567C8.14775 12.3278 8.22969 12.022 8.46883 11.884L9.04995 11.5485C9.0171 11.3706 8.99993 11.1873 8.99993 11C8.99993 10.8127 9.0171 10.6294 9.04995 10.4515L8.46883 10.116C8.22969 9.97795 8.14775 9.67216 8.28582 9.43301L8.78582 8.56698C8.92389 8.32784 9.22969 8.2459 9.46883 8.38397L10.0504 8.71973C10.3277 8.48242 10.6488 8.29481 10.9999 8.17071V7.5C10.9999 7.22386 11.2238 7 11.4999 7H12.4999ZM13.4999 11C13.4999 11.8284 12.8284 12.5 11.9999 12.5C11.1715 12.5 10.4999 11.8284 10.4999 11C10.4999 10.1716 11.1715 9.5 11.9999 9.5C12.8284 9.5 13.4999 10.1716 13.4999 11Z" fill="white"/>
</svg>
