<svg width="16" height="16" viewBox="0 0 16 16" fill="none" xmlns="http://www.w3.org/2000/svg">
<path fill-rule="evenodd" clip-rule="evenodd" d="M2 3C1.44772 3 1 3.44772 1 4V6C1 6.55228 1.44772 7 2 7H14C14.5523 7 15 6.55228 15 6V4C15 3.44772 14.5523 3 14 3H2ZM3 6C3.55228 6 4 5.55228 4 5C4 4.44772 3.55228 4 3 4C2.44772 4 2 4.44772 2 5C2 5.55228 2.44772 6 3 6ZM7 5C7 5.55228 6.55228 6 6 6C5.44772 6 5 5.55228 5 5C5 4.44772 5.44772 4 6 4C6.55228 4 7 4.44772 7 5ZM2 8C1.44772 8 1 8.44772 1 9V11C1 11.5523 1.44772 12 2 12H14C14.5523 12 15 11.5523 15 11V9C15 8.44772 14.5523 8 14 8H2ZM13 10H6V11H13V10ZM4 10C4 10.5523 3.55228 11 3 11C2.44772 11 2 10.5523 2 10C2 9.44772 2.44772 9 3 9C3.55228 9 4 9.44772 4 10Z" fill="white"/>
</svg>
