<svg width="16" height="16" viewBox="0 0 16 16" fill="none" xmlns="http://www.w3.org/2000/svg">
<path fill-rule="evenodd" clip-rule="evenodd" d="M2 1C1.44772 1 1 1.44772 1 2V4C1 4.55228 1.44772 5 2 5H14C14.5523 5 15 4.55228 15 4V2C15 1.44772 14.5523 1 14 1H2ZM3 4C3.55228 4 4 3.55228 4 3C4 2.44772 3.55228 2 3 2C2.44772 2 2 2.44772 2 3C2 3.55228 2.44772 4 3 4ZM7 3C7 3.55228 6.55228 4 6 4C5.44772 4 5 3.55228 5 3C5 2.44772 5.44772 2 6 2C6.55228 2 7 2.44772 7 3ZM2 6C1.44772 6 1 6.44772 1 7V9C1 9.55228 1.44772 10 2 10H8V9.99999L9 9.99999H9.5H11V9.7071C11 8.37074 12.6157 7.70149 13.5607 8.64644L14.6629 9.7487C14.8697 9.5655 15 9.29797 15 9V7C15 6.44772 14.5523 6 14 6H2ZM10 8H6V9H10V8ZM4 8C4 8.55228 3.55228 9 3 9C2.44772 9 2 8.55228 2 8C2 7.44772 2.44772 7 3 7C3.55228 7 4 7.44772 4 8Z" fill="white" fill-opacity="0.5"/>
<path fill-rule="evenodd" clip-rule="evenodd" d="M12.8536 13.6464L15 11.5L12.8536 9.35354C12.5386 9.03856 12 9.26164 12 9.7071V11L9.5 11H9V12H9.5L12 12V13.2929C12 13.7383 12.5386 13.9614 12.8536 13.6464ZM7.14645 11.3536L5 13.5L7.14645 15.6465C7.46143 15.9614 8 15.7384 8 15.2929V14H10.5H11V13H10.5H8V11.7071C8 11.2617 7.46143 11.0386 7.14645 11.3536Z" fill="white"/>
</svg>
