<svg width="16" height="16" viewBox="0 0 16 16" fill="none" xmlns="http://www.w3.org/2000/svg">
<path fill-rule="evenodd" clip-rule="evenodd" d="M8 3.05478V13H8.8264L11.3685 10.1401C11.7753 9.68248 12 9.09149 12 8.4792V4.14569L8 3.05478Z" fill="white" fill-opacity="0.5"/>
<path fill-rule="evenodd" clip-rule="evenodd" d="M8 0.981739L8.13156 1.01762L13.6316 2.51762L14 2.6181V3V8.4792C14 9.58132 13.5955 10.6451 12.8633 11.4688L9.8737 14.8322L9.72453 15H9.5H6.5H6.27547L6.1263 14.8322L3.13666 11.4688C2.40445 10.6451 2 9.58132 2 8.4792V3V2.6181L2.36844 2.51762L7.86844 1.01762L8 0.981739ZM3 3.3819V8.4792C3 9.3364 3.31457 10.1638 3.88407 10.8045L6.72453 14H9.27547L12.1159 10.8045C12.6854 10.1638 13 9.3364 13 8.4792V3.3819L8 2.01826L3 3.3819Z" fill="white"/>
</svg>
