<svg width="16" height="16" viewBox="0 0 16 16" fill="none" xmlns="http://www.w3.org/2000/svg">
<path fill-rule="evenodd" clip-rule="evenodd" d="M2.5 3L8 1.5L13.5 3V8.4792C13.5 9.45886 13.1405 10.4045 12.4896 11.1367L9.5 14.5H6.5L3.51036 11.1367C2.85951 10.4045 2.5 9.45886 2.5 8.4792V3ZM11.2071 5.5L10.8536 5.85355L8.70711 8L10.8536 10.1464L11.2071 10.5L10.5 11.2071L10.1464 10.8536L8 8.70711L5.85355 10.8536L5.5 11.2071L4.79289 10.5L5.14645 10.1464L7.29289 8L5.14645 5.85355L4.79289 5.5L5.5 4.79289L5.85355 5.14645L8 7.29289L10.1464 5.14645L10.5 4.79289L11.2071 5.5Z" fill="white"/>
</svg>
