<svg width="16" height="16" viewBox="0 0 16 16" fill="none" xmlns="http://www.w3.org/2000/svg">
<path d="M2.56066 1.43934C2.84196 1.15804 3.2235 1 3.62132 1H4.37868C4.7765 1 5.15804 1.15804 5.43934 1.43934L6.56066 2.56066C6.84197 2.84197 7.2235 3 7.62132 3H8.37868C8.7765 3 9.15804 2.84196 9.43934 2.56066L10.5607 1.43934C10.842 1.15803 11.2235 1 11.6213 1H12.3787C12.7765 1 13.158 1.15804 13.4393 1.43934L15.5607 3.56066C15.842 3.84196 16 4.2235 16 4.62132V7.58579C16 8.47669 14.9229 8.92286 14.2929 8.29289L13 7V13.5C13 14.3284 12.3284 15 11.5 15H4.5C3.67157 15 3 14.3284 3 13.5V7L1.70711 8.29289C1.07714 8.92286 0 8.47669 0 7.58579V4.62132C0 4.2235 0.158035 3.84196 0.43934 3.56066L2.56066 1.43934Z" fill="white"/>
</svg>
