<svg width="16" height="16" viewBox="0 0 16 16" fill="none" xmlns="http://www.w3.org/2000/svg">
<path d="M7 3H9V11.2929C9 11.4255 8.94732 11.5527 8.85355 11.6464L8 12.5L7.14645 11.6464C7.05268 11.5527 7 11.4255 7 11.2929V3Z" fill="white" fill-opacity="0.5"/>
<path fill-rule="evenodd" clip-rule="evenodd" d="M2.56066 1.43934C2.84196 1.15804 3.2235 1 3.62132 1H4.37868C4.7765 1 5.15804 1.15804 5.43934 1.43934L6 2V11.5858C6 11.851 6.10536 12.1054 6.29289 12.2929L7 13V15H4.5C3.67157 15 3 14.3284 3 13.5V7L1.70711 8.29289C1.07714 8.92286 0 8.47669 0 7.58579V4.62132C0 4.2235 0.158035 3.84196 0.43934 3.56066L2.56066 1.43934ZM9 15H11.5C12.3284 15 13 14.3284 13 13.5V7L14.2929 8.29289C14.9229 8.92286 16 8.47669 16 7.58579V4.62132C16 4.2235 15.842 3.84196 15.5607 3.56066L13.4393 1.43934C13.158 1.15804 12.7765 1 12.3787 1H11.6213C11.2235 1 10.842 1.15803 10.5607 1.43934L10 2V11.5858C10 11.851 9.89464 12.1054 9.70711 12.2929L9 13V15Z" fill="white"/>
</svg>
