<svg width="16" height="16" viewBox="0 0 16 16" fill="none" xmlns="http://www.w3.org/2000/svg">
<path fill-rule="evenodd" clip-rule="evenodd" d="M2 7.92264V14C2 14.5523 2.44772 15 3 15H13C13.5523 15 14 14.5523 14 14V7.92264C13.7866 7.97302 13.5607 7.99999 13.324 7.99999C12.1682 7.99999 11.135 7.29987 10.7004 6.24253C10.2471 7.26193 9.22811 7.99999 8 7.99999C6.7719 7.99999 5.75289 7.26193 5.29959 6.24254C4.86498 7.29987 3.83185 7.99999 2.67596 7.99999C2.43929 7.99999 2.21345 7.97302 2 7.92264ZM12 9H4V13H12V9Z" fill="white" fill-opacity="0.5"/>
<path fill-rule="evenodd" clip-rule="evenodd" d="M5.99988 1H3.99988L1.32168 3.92167C0.241607 5.09994 1.07745 7 2.67584 7C3.46654 7 4.16854 6.49403 4.41858 5.7439L5.99988 1ZM9.99988 1H11.9999L14.6781 3.92167C15.7582 5.09994 14.9223 7 13.3239 7C12.5332 7 11.8312 6.49403 11.5812 5.7439L9.99988 1ZM6.99988 1H8.99988L9.89354 4.57464C10.2015 5.80661 9.26976 7 7.99988 7C6.73 7 5.79823 5.80661 6.10622 4.57464L6.99988 1Z" fill="white"/>
</svg>
