<svg width="16" height="16" viewBox="0 0 16 16" fill="none" xmlns="http://www.w3.org/2000/svg">
<path fill-rule="evenodd" clip-rule="evenodd" d="M1 3H2.5C2.77614 3 3 3.22386 3 3.5V4H4V3.5C4 2.67157 3.32843 2 2.5 2H1V3ZM15 5H2L4 11V11.5C4 11.676 4.03031 11.8449 4.086 12.0018C4.79014 12.0316 5.40008 12.4255 5.73244 13H10.2676C10.6134 12.4022 11.2597 12 12 12H11.5H5.5C5.22386 12 5 11.7761 5 11.5V11H12.2792C12.7097 11 13.0918 10.7246 13.2279 10.3162L15 5ZM5 14C5 14.5523 4.55228 15 4 15C3.44772 15 3 14.5523 3 14C3 13.4477 3.44772 13 4 13C4.55228 13 5 13.4477 5 14ZM12 15C12.5523 15 13 14.5523 13 14C13 13.4477 12.5523 13 12 13C11.4477 13 11 13.4477 11 14C11 14.5523 11.4477 15 12 15Z" fill="white"/>
</svg>
