<svg width="16" height="16" viewBox="0 0 16 16" fill="none" xmlns="http://www.w3.org/2000/svg">
<path fill-rule="evenodd" clip-rule="evenodd" d="M14.0001 6L6.00006 14C4.89549 15.1046 3.10463 15.1046 2.00006 14C0.895488 12.8954 0.895489 11.1046 2.00006 10L10.0001 2C11.1046 0.895428 12.8955 0.895427 14.0001 2C15.1046 3.10457 15.1046 4.89543 14.0001 6ZM11 3H10V4H11V3ZM3 10H4V11H3V10ZM13 5H12V6H13V5ZM5 12H6V13H5V12ZM7.50008 15C7.19162 15 6.9049 14.9069 6.6665 14.7472C6.68016 14.734 6.69374 14.7206 6.70724 14.7071L8.74756 12.6668C8.90706 12.9051 9.00008 13.1917 9.00008 13.5C9.00008 14.3284 8.3285 15 7.50008 15ZM12.5001 10C12.1918 10 11.9052 9.90699 11.6669 9.74749L13.7476 7.66678C13.9071 7.90511 14.0001 8.19169 14.0001 8.5C14.0001 9.32843 13.3285 10 12.5001 10Z" fill="white"/>
</svg>
