<svg width="16" height="16" viewBox="0 0 16 16" fill="none" xmlns="http://www.w3.org/2000/svg">
<path fill-rule="evenodd" clip-rule="evenodd" d="M8 1V1.5V4.5V5H7V4.5V1.5V1H8ZM8 12V12.5V14.5V15H7V14.5V12.5V12H8ZM13 9.5V9H12V9.5V14.5V15H13V14.5V9.5ZM3 7V7.5V14.5V15H2V14.5V7.5V7H3ZM13 1H12V2H13V1Z" fill="white" fill-opacity="0.5"/>
<path fill-rule="evenodd" clip-rule="evenodd" d="M2 1C1.44772 1 1 1.44772 1 2V3H4V2C4 1.44772 3.55228 1 3 1H2ZM7 6C6.44772 6 6 6.44772 6 7V8H9V7C9 6.44772 8.55228 6 8 6H7ZM11 4C11 3.44772 11.4477 3 12 3H13C13.5523 3 14 3.44772 14 4V5H11V4ZM3 6C3.55228 6 4 5.55228 4 5L4 4L1 4V5C1 5.55228 1.44772 6 2 6H3ZM9 10C9 10.5523 8.55228 11 8 11H7C6.44772 11 6 10.5523 6 10V9L9 9V10ZM13 8C13.5523 8 14 7.55228 14 7V6L11 6V7C11 7.55228 11.4477 8 12 8H13Z" fill="white"/>
</svg>
