<svg width="16" height="16" viewBox="0 0 16 16" fill="none" xmlns="http://www.w3.org/2000/svg">
<path fill-rule="evenodd" clip-rule="evenodd" d="M10.9646 10H10.9645C10.9879 9.8367 11 9.66976 11 9.5C11 7.567 9.43297 6 7.49997 6C7.33021 6 7.16328 6.01208 6.99999 6.03544V5.02746C7.16415 5.00932 7.33097 5 7.49997 5C9.98525 5 12 7.01472 12 9.5C12 9.6605 11.9916 9.81905 11.9752 9.97521C14.2371 9.73783 16 7.82479 16 5.5C16 3.01472 13.9853 1 11.5 1C10.7063 1 9.96063 1.20547 9.31322 1.56613C10.3208 2.09286 11.1265 2.95295 11.584 4H10.4649C10.0015 3.19897 9.26833 2.57355 8.38962 2.24798C7.95678 2.08761 7.48862 2 7 2C4.79086 2 3 3.79086 3 6C3 6.54065 3.10726 7.05625 3.30167 7.52667C2.51547 8.06755 2 8.97358 2 10C2 10.0567 2.00157 10.1131 2.00468 10.1691C2.31614 10.0596 2.65111 10 3 10C4.60012 10 5.90764 11.2527 5.99531 12.8309C6.06465 12.8066 6.13281 12.7797 6.19971 12.7505C6.6017 12.9115 7.04051 13 7.5 13C9.26324 13 10.7219 11.6961 10.9646 10Z" fill="white" fill-opacity="0.5"/>
<path d="M5 13C5 14.1046 4.10457 15 3 15C1.89543 15 1 14.1046 1 13C1 11.8954 1.89543 11 3 11C4.10457 11 5 11.8954 5 13Z" fill="white"/>
</svg>
