<svg width="16" height="16" viewBox="0 0 16 16" fill="none" xmlns="http://www.w3.org/2000/svg">
<path fill-rule="evenodd" clip-rule="evenodd" d="M5.85351 1.14645L5.49995 0.792892L4.79285 1.5L5.1464 1.85355L6.99995 3.70711V7H3.70706L1.85351 5.14645L1.49995 4.79289L0.792847 5.5L1.1464 5.85355L2.79285 7.5L1.1464 9.14645L0.792847 9.5L1.49995 10.2071L1.85351 9.85355L3.70706 8H6.99995V11.2929L5.1464 13.1464L4.79285 13.5L5.49995 14.2071L5.85351 13.8536L7.49995 12.2071L9.1464 13.8536L9.49995 14.2071L10.2071 13.5L9.85351 13.1464L7.99995 11.2929V8H11.2928L13.1464 9.85355L13.5 10.2071L14.2071 9.5L13.8535 9.14645L12.2071 7.5L13.8535 5.85355L14.2071 5.5L13.5 4.79289L13.1464 5.14645L11.2928 7H7.99995V3.70711L9.85351 1.85355L10.2071 1.5L9.49995 0.792892L9.1464 1.14645L7.49995 2.79289L5.85351 1.14645ZM5.99991 5.29289L4.35346 3.64645L3.99991 3.29289L3.2928 4L3.64635 4.35355L5.2928 6H5.99991V5.29289ZM3.64635 10.6464L5.2928 9H5.99991V9.7071L4.35346 11.3536L3.99991 11.7071L3.2928 11L3.64635 10.6464ZM8.99991 9.7071V9H9.70701L11.3535 10.6464L11.707 11L10.9999 11.7071L10.6464 11.3536L8.99991 9.7071ZM11.3535 4.35355L9.70701 6H8.99991V5.29289L10.6464 3.64645L10.9999 3.29289L11.707 4L11.3535 4.35355Z" fill="white"/>
</svg>
