<svg width="16" height="16" viewBox="0 0 16 16" fill="none" xmlns="http://www.w3.org/2000/svg">
<path fill-rule="evenodd" clip-rule="evenodd" d="M5.85363 1.14645L5.50008 0.792892L4.79297 1.5L5.14652 1.85355L7.00008 3.70711V7H3.70718L1.85363 5.14645L1.50008 4.79289L0.792969 5.5L1.14652 5.85355L2.79297 7.5L1.14652 9.14645L0.792969 9.5L1.50008 10.2071L1.85363 9.85355L3.70718 8H7.00008V11.2929L5.14652 13.1464L4.79297 13.5L5.50008 14.2071L5.85363 13.8536L7.50008 12.2071L9.14652 13.8536L9.50008 14.2071L10.2072 13.5L9.85363 13.1464L8.00008 11.2929V8H11.293L13.1465 9.85355L13.5001 10.2071L14.2072 9.5L13.8536 9.14645L12.2072 7.5L13.8536 5.85355L14.2072 5.5L13.5001 4.79289L13.1465 5.14645L11.293 7H8.00008V3.70711L9.85363 1.85355L10.2072 1.5L9.50008 0.792892L9.14652 1.14645L7.50008 2.79289L5.85363 1.14645ZM6.00003 5.29289L4.35358 3.64645L4.00003 3.29289L3.29292 4L3.64648 4.35355L5.29292 6H6.00003V5.29289ZM3.64648 10.6464L5.29292 9H6.00003V9.7071L4.35358 11.3536L4.00003 11.7071L3.29292 11L3.64648 10.6464ZM9.00003 9.7071V9H9.70714L11.3536 10.6464L11.7071 11L11 11.7071L10.6465 11.3536L9.00003 9.7071ZM11.3536 4.35355L9.70714 6H9.00003V5.29289L10.6465 3.64645L11 3.29289L11.7071 4L11.3536 4.35355Z" fill="white"/>
</svg>
