<svg width="16" height="16" viewBox="0 0 16 16" fill="none" xmlns="http://www.w3.org/2000/svg">
<path fill-rule="evenodd" clip-rule="evenodd" d="M2 6.5V9.5C2 9.77614 2.22386 10 2.5 10H4L7.14645 13.1464C7.46143 13.4614 8 13.2383 8 12.7929V3.20711C8 2.76165 7.46143 2.53857 7.14645 2.85355L4 6H2.5C2.22386 6 2 6.22386 2 6.5ZM15 7.99998C15 9.85649 14.2625 11.637 12.9498 12.9497L12.2427 12.2426C13.3679 11.1174 14 9.59128 14 7.99998C14 6.40868 13.3679 4.88256 12.2427 3.75734L12.9498 3.05023C14.2625 4.36299 15 6.14346 15 7.99998ZM12 8C12 9.06086 11.5786 10.0783 10.8284 10.8284L10.1213 10.1213C10.6839 9.55871 11 8.79565 11 8C11 7.20435 10.6839 6.44129 10.1213 5.87868L10.8284 5.17157C11.5786 5.92172 12 6.93913 12 8Z" fill="white"/>
</svg>
