<svg width="16" height="16" viewBox="0 0 16 16" fill="none" xmlns="http://www.w3.org/2000/svg">
<path fill-rule="evenodd" clip-rule="evenodd" d="M2 4.49983V7.49983C2 7.77597 2.22386 7.99983 2.5 7.99983H4V6.5C4 5.67157 4.67157 5 5.5 5H6.58579L8 3.58579V1.20693C8 0.761482 7.46143 0.538399 7.14645 0.853382L4 3.99983H2.5C2.22386 3.99983 2 4.22369 2 4.49983ZM5.5 5.99983C5.22386 5.99983 5 6.22369 5 6.49983V9.49983C5 9.77597 5.22386 9.99983 5.5 9.99983H7V8.5C7 7.67157 7.67157 7 8.5 7H9.58579L11 5.58579V3.20693C11 2.76148 10.4614 2.5384 10.1464 2.85338L7 5.99983H5.5Z" fill="white" fill-opacity="0.5"/>
<path d="M8 11.5V8.5C8 8.22386 8.22386 8 8.5 8H10L13.1464 4.85355C13.4614 4.53857 14 4.76165 14 5.20711V14.7929C14 15.2383 13.4614 15.4614 13.1464 15.1464L10 12H8.5C8.22386 12 8 11.7761 8 11.5Z" fill="white"/>
</svg>
