<svg width="16" height="16" viewBox="0 0 16 16" fill="none" xmlns="http://www.w3.org/2000/svg">
<path fill-rule="evenodd" clip-rule="evenodd" d="M1 9.5V6.5C1 6.22386 1.22386 6 1.5 6H3L6.14645 2.85355C6.46143 2.53857 7 2.76165 7 3.20711V12.7929C7 13.2383 6.46143 13.4614 6.14645 13.1464L3 10H1.5C1.22386 10 1 9.77614 1 9.5ZM9.5 4.79289L9.85355 5.14645L12 7.29289L14.1464 5.14645L14.5 4.79289L15.2071 5.5L14.8536 5.85355L12.7071 8L14.8536 10.1464L15.2071 10.5L14.5 11.2071L14.1464 10.8536L12 8.70711L9.85355 10.8536L9.5 11.2071L8.79289 10.5L9.14645 10.1464L11.2929 8L9.14645 5.85355L8.79289 5.5L9.5 4.79289Z" fill="white"/>
</svg>
