<svg width="16" height="16" viewBox="0 0 16 16" fill="none" xmlns="http://www.w3.org/2000/svg">
<path fill-rule="evenodd" clip-rule="evenodd" d="M5.99998 5.16785C6.61934 5.06315 7.24727 5.00703 7.87804 5.00062L7.37866 5.5L8.43932 6.56066L9.37866 7.5L8.43932 8.43934L7.37866 9.5L9.49998 11.6213L10.5606 10.5607L11.5 9.62132L12.4393 10.5607L13.4393 11.5607L10.8715 14.1286C10.4981 12.8967 9.35376 12 7.99998 12C6.64622 12 5.50189 12.8967 5.12852 14.1285L0.575391 9.57538C-0.0103956 8.98959 -0.0154053 8.0312 0.638844 7.52302C1.36725 6.95723 2.15941 6.47658 2.99998 6.0913V8H5.99998V5.16785ZM15.552 9.43069L14.5606 8.43934L13.6213 7.5L14.3213 6.79996C14.6804 7.02245 15.0275 7.2638 15.3612 7.52301C15.964 7.99124 16.0071 8.84167 15.552 9.43069Z" fill="white" fill-opacity="0.5"/>
<path fill-rule="evenodd" clip-rule="evenodd" d="M4 3V0H5V3H8V4H5V7H4V4H1V3H4ZM13.8536 5.85355L14.2071 5.5L13.5 4.79289L13.1464 5.14645L12.1464 6.14645L11.7929 6.5L12.5 7.20711L12.8536 6.85355L13.8536 5.85355ZM10.8536 8.85355L11.2071 8.5L10.5 7.79289L10.1464 8.14645L9.14645 9.14645L8.79289 9.5L9.5 10.2071L9.85355 9.85355L10.8536 8.85355ZM11.7929 8.5L12.1464 8.85355L13.1464 9.85355L13.5 10.2071L14.2071 9.5L13.8536 9.14645L12.8536 8.14645L12.5 7.79289L11.7929 8.5ZM9.14645 5.85355L8.79289 5.5L9.5 4.79289L9.85355 5.14645L10.8536 6.14645L11.2071 6.5L10.5 7.20711L10.1464 6.85355L9.14645 5.85355ZM8 13C6.89543 13 6 13.8954 6 15H10C10 13.8954 9.10457 13 8 13Z" fill="white"/>
</svg>
