<svg width="16" height="16" viewBox="0 0 16 16" fill="none" xmlns="http://www.w3.org/2000/svg">
<path fill-rule="evenodd" clip-rule="evenodd" d="M3 12V10H4V12H6V13H4V15H3V13H1V12H3Z" fill="white" fill-opacity="0.5"/>
<path fill-rule="evenodd" clip-rule="evenodd" d="M6 1V5H2V6H6V10H7V6H11V5H7V1H6ZM15.2071 8.5L14.8536 8.85355L13.8536 9.85355L13.5 10.2071L12.7929 9.5L13.1464 9.14645L14.1464 8.14645L14.5 7.79289L15.2071 8.5ZM12.2071 11.5L11.8536 11.8536L10.8536 12.8536L10.5 13.2071L9.79289 12.5L10.1464 12.1464L11.1464 11.1464L11.5 10.7929L12.2071 11.5ZM13.1464 11.8536L12.7929 11.5L13.5 10.7929L13.8536 11.1464L14.8536 12.1464L15.2071 12.5L14.5 13.2071L14.1464 12.8536L13.1464 11.8536ZM9.79289 8.5L10.1464 8.85355L11.1464 9.85355L11.5 10.2071L12.2071 9.5L11.8536 9.14645L10.8536 8.14645L10.5 7.79289L9.79289 8.5Z" fill="white"/>
</svg>
