<svg width="16" height="16" viewBox="0 0 16 16" fill="none" xmlns="http://www.w3.org/2000/svg">
<path fill-rule="evenodd" clip-rule="evenodd" d="M15.0001 4.49992L15.0001 3.99992H14.5012C14.5008 3.99992 14.5005 3.99991 14.5001 3.99991L10.0504 3.99991C9.79853 3.99991 9.55696 3.89985 9.37885 3.72174C9.00837 3.35127 9.00795 2.75088 9.37757 2.37988C9.378 2.37945 9.37842 2.37902 9.37885 2.3786L10.475 1.28246L10.8285 0.928909L10.4755 0.575893C10.4753 0.575713 10.4752 0.575534 10.475 0.575354C10.4748 0.575174 10.4746 0.574995 10.4744 0.574816L10.1214 0.221802L9.76875 0.57448C9.76846 0.574771 9.76817 0.575063 9.76788 0.575355L6.62165 3.72158C6.44351 3.89972 6.20191 3.99979 5.94998 3.99979C5.42591 3.99979 5.00096 3.57538 5.0001 3.05151L5.0001 1.49992V0.999918L4.5012 0.999918C4.50083 0.999917 4.50047 0.999917 4.5001 0.999917C4.49973 0.999917 4.49936 0.999917 4.499 0.999918L4.0001 0.999918L4.0001 1.49893C4.0001 1.49926 4.0001 1.49959 4.0001 1.49992L4.0001 5.9495C4.0001 6.20141 3.90003 6.443 3.7219 6.62113C3.3511 6.99194 2.74997 6.99206 2.37902 6.62149C2.3789 6.62137 2.37877 6.62125 2.37865 6.62113L1.28258 5.52506L0.929031 5.17151L0.576352 5.52419C0.57606 5.52448 0.575768 5.52477 0.575476 5.52506C0.575185 5.52535 0.574893 5.52564 0.574603 5.52594L0.221924 5.87861L0.575477 6.23217L3.72193 9.37862C3.72196 9.37865 3.72199 9.37868 3.72203 9.37872C3.90007 9.55682 4.0001 9.79834 4.0001 10.0502C4.0001 10.5747 3.57489 10.9999 3.05037 10.9999L1.5001 10.9999C1.49977 10.9999 1.49944 10.9999 1.49911 10.9999H1.0001L1.0001 11.4988C1.0001 11.4992 1.0001 11.4995 1.0001 11.4999C1.0001 11.5003 1.0001 11.5006 1.0001 11.501L1.0001 11.9999H1.5001H5.94999C5.95042 11.9999 5.95085 11.9999 5.95128 11.9999C6.19841 12.0003 6.43552 12.0969 6.61239 12.2691L6.63061 12.2873C6.99237 12.6588 6.98934 13.2533 6.62152 13.6211L5.52524 14.7174C5.52493 14.7177 5.52462 14.718 5.52431 14.7183L5.17169 15.071L5.52524 15.4245L5.87879 15.7781L6.23235 15.4245L9.37892 12.2779C9.37929 12.2776 9.37966 12.2772 9.38003 12.2768C9.5544 12.103 9.78932 12.0039 10.0351 11.9999H10.0659C10.5832 12.0082 11.0001 12.4301 11.0001 12.9495V14.4999C11.0001 14.5002 11.0001 14.5006 11.0001 14.5009V14.9999L11.5001 14.9999L12.0001 14.9999V14.4999V10.0499C12.0001 10.0495 12.0001 10.0491 12.0001 10.0487C12.0004 9.80158 12.097 9.56451 12.2692 9.38766L12.2876 9.36926C12.6588 9.00787 13.2526 9.01066 13.6204 9.37763C13.6207 9.3779 13.621 9.37817 13.6213 9.37844L14.7176 10.4748L15.0712 10.8284L15.4247 10.4748L15.7783 10.1213L15.4247 9.7677L12.2783 6.62125C12.2782 6.62119 12.2782 6.62114 12.2781 6.62109C12.1004 6.44331 12.0005 6.20234 12.0001 5.95102C12.0001 5.95057 12.0001 5.95012 12.0001 5.94967C12.0001 5.94922 12.0001 5.94876 12.0001 5.94831C12.0008 5.42495 12.4249 5.00081 12.9482 4.99992H14.5001H15.0001L15.0001 4.49992ZM10.0001 7.99992C10.0001 9.10449 9.10467 9.99992 8.0001 9.99992C7.99578 9.99992 7.99147 9.9999 7.98716 9.99988C6.88855 9.99292 6.0001 9.10017 6.0001 7.99992C6.0001 7.86185 6.01409 7.72704 6.04073 7.59685C6.22722 6.68548 7.0336 5.99992 8.0001 5.99992C9.10467 5.99992 10.0001 6.89535 10.0001 7.99992Z" fill="white"/>
</svg>
