<svg width="16" height="16" viewBox="0 0 16 16" fill="none" xmlns="http://www.w3.org/2000/svg">
<path fill-rule="evenodd" clip-rule="evenodd" d="M15 4.49992L15 3.99992H14.5011C14.5007 3.99992 14.5003 3.99991 14.5 3.99991L10.0503 3.99991C9.79841 3.99991 9.55683 3.89985 9.37872 3.72174C9.00825 3.35127 9.00783 2.75088 9.37745 2.37988C9.37787 2.37945 9.3783 2.37902 9.37872 2.3786L10.4749 1.28246L10.8284 0.928909L10.4754 0.575893C10.4752 0.575713 10.475 0.575534 10.4749 0.575354C10.4747 0.575174 10.4745 0.574995 10.4743 0.574816L10.1213 0.221802L9.76863 0.57448C9.76834 0.574771 9.76805 0.575063 9.76776 0.575355L6.62153 3.72158C6.44339 3.89972 6.20179 3.99979 5.94986 3.99979C5.42579 3.99979 5.00084 3.57538 4.99998 3.05151L4.99998 1.49992V0.999918L4.50108 0.999918C4.50071 0.999917 4.50035 0.999917 4.49998 0.999917C4.49961 0.999917 4.49924 0.999917 4.49887 0.999918L3.99998 0.999918L3.99998 1.49893C3.99998 1.49926 3.99998 1.49959 3.99998 1.49992L3.99998 5.9495C3.99998 6.20141 3.89991 6.443 3.72178 6.62113C3.35097 6.99194 2.74985 6.99206 2.37889 6.62149C2.37877 6.62137 2.37865 6.62125 2.37853 6.62113L1.28246 5.52506L0.928909 5.17151L0.57623 5.52419C0.575937 5.52448 0.575646 5.52477 0.575354 5.52506C0.575062 5.52535 0.574771 5.52564 0.574481 5.52594L0.221802 5.87861L0.575355 6.23217L3.72181 9.37862C3.72184 9.37865 3.72187 9.37868 3.72191 9.37872C3.89995 9.55682 3.99998 9.79834 3.99998 10.0502C3.99998 10.5747 3.57477 10.9999 3.05024 10.9999L1.49998 10.9999C1.49965 10.9999 1.49932 10.9999 1.49899 10.9999H0.999979L0.999979 11.4988C0.999979 11.4992 0.999978 11.4995 0.999978 11.4999C0.999978 11.5003 0.999979 11.5006 0.999979 11.501L0.999979 11.9999H1.49998H5.94987C5.9503 11.9999 5.95073 11.9999 5.95116 11.9999C6.19829 12.0003 6.4354 12.0969 6.61227 12.2691L6.63049 12.2873C6.99225 12.6588 6.98922 13.2533 6.6214 13.6211L5.52512 14.7174C5.52481 14.7177 5.5245 14.718 5.52419 14.7183L5.17156 15.071L5.52512 15.4245L5.87867 15.7781L6.23222 15.4245L9.37879 12.2779C9.37916 12.2776 9.37953 12.2772 9.3799 12.2768C9.55428 12.103 9.7892 12.0039 10.035 11.9999H10.0658C10.5831 12.0082 11 12.4301 11 12.9495V14.4999C11 14.5002 11 14.5006 11 14.5009V14.9999L11.5 14.9999L12 14.9999V14.4999V10.0499C12 10.0495 12 10.0491 12 10.0487C12.0003 9.80158 12.0969 9.56451 12.269 9.38766L12.2874 9.36926C12.6587 9.00787 13.2525 9.01066 13.6203 9.37763C13.6206 9.3779 13.6209 9.37817 13.6211 9.37844L14.7175 10.4748L15.0711 10.8284L15.4246 10.4748L15.7782 10.1213L15.4246 9.7677L12.2782 6.62125C12.2781 6.62119 12.278 6.62114 12.278 6.62109C12.1003 6.44331 12.0003 6.20234 12 5.95102C12 5.95057 12 5.95012 12 5.94967C12 5.94922 12 5.94876 12 5.94831C12.0007 5.42495 12.4247 5.00081 12.9481 4.99992H14.5H15L15 4.49992ZM9.99998 7.99992C9.99998 9.10449 9.10455 9.99992 7.99998 9.99992C7.99566 9.99992 7.99135 9.9999 7.98704 9.99988C6.88843 9.99292 5.99998 9.10017 5.99998 7.99992C5.99998 7.86185 6.01397 7.72704 6.04061 7.59685C6.2271 6.68548 7.03348 5.99992 7.99998 5.99992C9.10455 5.99992 9.99998 6.89535 9.99998 7.99992Z" fill="white"/>
</svg>
