<svg width="16" height="16" viewBox="0 0 16 16" fill="none" xmlns="http://www.w3.org/2000/svg">
<path fill-rule="evenodd" clip-rule="evenodd" d="M10.0516 6.46581C9.63331 7.38711 9.80299 8.5101 10.5607 9.26777C10.842 9.54907 11 9.9306 11 10.3284V13C11 13.5523 10.5523 14 10 14C9.44772 14 9 13.5523 9 13V10C9 9.44772 8.55228 9 8 9V10V13C8 14.1046 8.89543 15 10 15C11.1046 15 12 14.1046 12 13V10.3284C12 9.66539 11.7366 9.0295 11.2678 8.56066C10.914 8.20692 10.7739 7.72046 10.8474 7.26158L10.0516 6.46581Z" fill="white" fill-opacity="0.5"/>
<path fill-rule="evenodd" clip-rule="evenodd" d="M1 2C1 1.44772 1.44772 1 2 1H6C6.55228 1 7 1.44772 7 2V9C7 9.55229 6.55228 10 6 10H2C1.44772 10 1 9.55229 1 9V2ZM3 4C3.55228 4 4 3.55228 4 3C4 2.44772 3.55228 2 3 2C2.44772 2 2 2.44772 2 3C2 3.55228 2.44772 4 3 4ZM5 7C5 7.55228 4.55228 8 4 8C3.44772 8 3 7.55228 3 7C3 6.44772 3.44772 6 4 6C4.55228 6 5 6.44772 5 7ZM6 7C6 8.10457 5.10457 9 4 9C2.89543 9 2 8.10457 2 7C2 5.89543 2.89543 5 4 5C5.10457 5 6 5.89543 6 7ZM14.1036 2H14.75C14.8881 2 15 2.11193 15 2.25V2.89645C15 2.96275 14.9737 3.02634 14.9268 3.07322L13 5V5.89645C13 5.96275 12.9737 6.02634 12.9268 6.07322L12.1768 6.82322C12.0792 6.92085 11.9209 6.92085 11.8232 6.82322L10.1768 5.17678C10.0792 5.07915 10.0792 4.92085 10.1768 4.82322L10.9268 4.07322C10.9737 4.02634 11.0373 4 11.1036 4H12L13.9268 2.07322C13.9737 2.02634 14.0373 2 14.1036 2Z" fill="white"/>
</svg>
