<svg width="16" height="16" viewBox="0 0 16 16" fill="none" xmlns="http://www.w3.org/2000/svg">
<path fill-rule="evenodd" clip-rule="evenodd" d="M6.30505 3.60381C5.83013 3.8626 5.29577 4 4.74997 4C4.20418 4 3.66981 3.8626 3.19489 3.60381L2.39997 4.2L2.33606 4.24793C3.04466 4.73695 3.88638 5 4.74997 5C5.61357 5 6.45528 4.73695 7.16388 4.24793L6.30505 3.60381ZM12.8051 2.39619C12.3301 2.1374 11.7958 2 11.25 2C10.7042 2 10.1698 2.1374 9.69489 2.39619L8.83606 1.75207C9.54466 1.26305 10.3864 1 11.25 1C12.1136 1 12.9553 1.26305 13.6639 1.75207L13.6 1.8L12.8051 2.39619Z" fill="white" fill-opacity="0.5"/>
<path fill-rule="evenodd" clip-rule="evenodd" d="M2.8 2.65C3.36256 2.22808 4.0468 2 4.75 2C5.4532 2 6.13744 2.22808 6.7 2.65L8.7 4.15C9.43566 4.70174 10.3304 5 11.25 5C12.1696 5 13.0643 4.70174 13.8 4.15L14.8 3.4L14.2 2.6L13.2 3.35C12.6374 3.77192 11.9532 4 11.25 4C10.5468 4 9.86256 3.77192 9.3 3.35L7.3 1.85C6.56434 1.29826 5.66957 1 4.75 1C3.83043 1 2.93566 1.29826 2.2 1.85L1.2 2.6L1.8 3.4L2.8 2.65ZM2 6C1.44772 6 1 6.44772 1 7V14C1 14.5523 1.44772 15 2 15H6C6.55228 15 7 14.5523 7 14V7C7 6.44772 6.55228 6 6 6H2ZM4 8C4 8.55228 3.55228 9 3 9C2.44772 9 2 8.55228 2 8C2 7.44772 2.44772 7 3 7C3.55228 7 4 7.44772 4 8ZM4 13C4.55228 13 5 12.5523 5 12C5 11.4477 4.55228 11 4 11C3.44772 11 3 11.4477 3 12C3 12.5523 3.44772 13 4 13ZM4 14C5.10457 14 6 13.1046 6 12C6 10.8954 5.10457 10 4 10C2.89543 10 2 10.8954 2 12C2 13.1046 2.89543 14 4 14ZM14 6C14.5523 6 15 6.44772 15 7V14C15 14.5523 14.5523 15 14 15H10C9.44772 15 9 14.5523 9 14V7C9 6.44772 9.44772 6 10 6H14ZM12 8C12 8.55228 12.4477 9 13 9C13.5523 9 14 8.55228 14 8C14 7.44772 13.5523 7 13 7C12.4477 7 12 7.44772 12 8ZM12 13C11.4477 13 11 12.5523 11 12C11 11.4477 11.4477 11 12 11C12.5523 11 13 11.4477 13 12C13 12.5523 12.5523 13 12 13ZM12 14C10.8954 14 10 13.1046 10 12C10 10.8954 10.8954 10 12 10C13.1046 10 14 10.8954 14 12C14 13.1046 13.1046 14 12 14Z" fill="white"/>
</svg>
