<svg width="16" height="16" viewBox="0 0 16 16" fill="none" xmlns="http://www.w3.org/2000/svg">
<path fill-rule="evenodd" clip-rule="evenodd" d="M5 7H3V9H5V11H3V13H5V11H7V13H9V11H11V13H13V11H11V9H13V7H11V9H9V7H7V9H5V7ZM7 9H9V11H7V9Z" fill="white" fill-opacity="0.5"/>
<path fill-rule="evenodd" clip-rule="evenodd" d="M1.29289 2.70711C1.10536 2.89464 1 3.149 1 3.41421V14C1 14.5523 1.44772 15 2 15H14C14.5523 15 15 14.5523 15 14V3.41421C15 3.149 14.8946 2.89464 14.7071 2.70711L13.2929 1.29289C13.1054 1.10536 12.851 1 12.5858 1H3.41421C3.149 1 2.89464 1.10536 2.70711 1.29289L1.29289 2.70711ZM14 14V6H2V14H14ZM13 4C13 4.55228 12.5523 5 12 5C11.4477 5 11 4.55228 11 4C11 3.44772 11.4477 3 12 3C12.5523 3 13 3.44772 13 4ZM9 5C9.55229 5 10 4.55228 10 4C10 3.44772 9.55229 3 9 3C8.44772 3 8 3.44772 8 4C8 4.55228 8.44772 5 9 5Z" fill="white"/>
</svg>
