<svg width="16" height="16" viewBox="0 0 16 16" fill="none" xmlns="http://www.w3.org/2000/svg">
<path fill-rule="evenodd" clip-rule="evenodd" d="M5.41421 1C5.149 1 4.89464 1.10536 4.70711 1.29289L3.29289 2.70711C3.10536 2.89464 3 3.149 3 3.41421V14C3 14.5523 3.44772 15 4 15H12C12.5523 15 13 14.5523 13 14V3.41421C13 3.149 12.8946 2.89464 12.7071 2.70711L11.2929 1.29289C11.1054 1.10536 10.851 1 10.5858 1H5.41421ZM7 5C7 5.55228 6.55228 6 6 6C5.44772 6 5 5.55228 5 5C5 4.44772 5.44772 4 6 4C6.55228 4 7 4.44772 7 5ZM8 13C9.10457 13 10 12.1046 10 11C10 9.89543 9.10457 9 8 9C6.89543 9 6 9.89543 6 11C6 12.1046 6.89543 13 8 13ZM8 14C9.65685 14 11 12.6569 11 11C11 9.34315 9.65685 8 8 8C6.34315 8 5 9.34315 5 11C5 12.6569 6.34315 14 8 14Z" fill="white"/>
</svg>
