<svg width="16" height="16" viewBox="0 0 16 16" fill="none" xmlns="http://www.w3.org/2000/svg">
<path fill-rule="evenodd" clip-rule="evenodd" d="M8.78582 1.56698L7.9198 1.06698C7.93296 1.04418 7.94664 1.02185 7.9608 1H2.5C1.67157 1 1 1.67157 1 2.5V10.5C1 11.3284 1.67157 12 2.5 12H5V14.7929C5 15.2383 5.53857 15.4614 5.85355 15.1464L9 12H13.5C14.3284 12 15 11.3284 15 10.5V7.66701C14.6769 7.7149 14.3359 7.65807 14.031 7.48205L14.0004 7.46439L13.9999 7.46468V7.5C13.9999 8.32843 13.3284 9 12.4999 9H11.4999C10.6715 9 9.99993 8.32843 9.99993 7.5V7.46468L9.99943 7.46439L9.96883 7.48205C9.25139 7.89626 8.33401 7.65045 7.9198 6.93301L7.4198 6.06698C7.00558 5.34955 7.2514 4.43216 7.96883 4.01795L7.99992 4L7.96883 3.98205C7.25139 3.56783 7.00558 2.65045 7.4198 1.93301L7.9198 1.06698L8.78582 1.56698Z" fill="white" fill-opacity="0.5"/>
<path fill-rule="evenodd" clip-rule="evenodd" d="M12.4999 0C12.7761 0 12.9999 0.223858 12.9999 0.5V1.17071C13.351 1.29481 13.6722 1.48242 13.9495 1.71974L14.531 1.38398C14.7702 1.24591 15.076 1.32784 15.214 1.56699L15.714 2.43302C15.8521 2.67216 15.7702 2.97796 15.531 3.11603L14.9499 3.45154C14.9828 3.62936 14.9999 3.81267 14.9999 4C14.9999 4.18733 14.9828 4.37065 14.9499 4.54847L15.531 4.88398C15.7702 5.02205 15.8521 5.32784 15.714 5.56699L15.214 6.43302C15.076 6.67216 14.7702 6.7541 14.531 6.61603L13.9495 6.28027C13.6722 6.51758 13.351 6.70519 12.9999 6.82929V7.5C12.9999 7.77614 12.7761 8 12.4999 8H11.4999C11.2238 8 10.9999 7.77614 10.9999 7.5V6.82929C10.6488 6.70519 10.3277 6.51758 10.0504 6.28026L9.46883 6.61602C9.22969 6.75409 8.92389 6.67216 8.78582 6.43301L8.28582 5.56698C8.14775 5.32784 8.22969 5.02204 8.46883 4.88397L9.04995 4.54846C9.0171 4.37064 8.99993 4.18733 8.99993 4C8.99993 3.81267 9.0171 3.62935 9.04995 3.45153L8.46883 3.11602C8.22969 2.97795 8.14775 2.67216 8.28582 2.43301L8.78582 1.56698C8.92389 1.32784 9.22969 1.2459 9.46883 1.38397L10.0504 1.71973C10.3277 1.48242 10.6488 1.29481 10.9999 1.17071V0.5C10.9999 0.223858 11.2238 0 11.4999 0H12.4999ZM13.4999 4C13.4999 4.82843 12.8284 5.5 11.9999 5.5C11.1715 5.5 10.4999 4.82843 10.4999 4C10.4999 3.17157 11.1715 2.5 11.9999 2.5C12.8284 2.5 13.4999 3.17157 13.4999 4Z" fill="white"/>
</svg>
