<svg width="16" height="16" viewBox="0 0 16 16" fill="none" xmlns="http://www.w3.org/2000/svg">
<path fill-rule="evenodd" clip-rule="evenodd" d="M1 1C1 0.447715 1.44772 0 2 0H5.58579C5.851 0 6.10536 0.105357 6.29289 0.292893L8 2L7 3H1V1ZM1 5C1 4.44772 1.44772 4 2 4H7.08579C7.351 4 7.60536 3.89464 7.79289 3.70711L9.20711 2.29289C9.39464 2.10536 9.649 2 9.91421 2H14C14.5523 2 15 2.44772 15 3V11C15 11.5523 14.5523 12 14 12H9L5.85355 15.1464C5.53857 15.4614 5 15.2383 5 14.7929V12H2C1.44772 12 1 11.5523 1 11V5Z" fill="white"/>
</svg>
