<svg width="16" height="16" viewBox="0 0 16 16" fill="none" xmlns="http://www.w3.org/2000/svg">
<path fill-rule="evenodd" clip-rule="evenodd" d="M2.5 1C1.67157 1 1 1.67157 1 2.5V10.5C1 11.3284 1.67157 12 2.5 12H5V14.7929C5 15.2383 5.53857 15.4614 5.85355 15.1464L9 12H13.5C14.3284 12 15 11.3284 15 10.5V2.5C15 1.67157 14.3284 1 13.5 1H2.5ZM4 7.5V5.5C4 5.22386 4.22386 5 4.5 5H6L8.14645 2.85355C8.46143 2.53857 9 2.76165 9 3.20711V9.79289C9 10.2383 8.46143 10.4614 8.14645 10.1464L6 8H4.5C4.22386 8 4 7.77614 4 7.5ZM10.9749 8.97487C11.6313 8.31849 12 7.42826 12 6.5C12 5.57174 11.6313 4.6815 10.9749 4.02512L10.2678 4.73223C10.7366 5.20107 11 5.83696 11 6.5C11 7.16304 10.7366 7.79893 10.2678 8.26777L10.9749 8.97487Z" fill="white"/>
</svg>
