<svg width="16" height="16" viewBox="0 0 16 16" fill="none" xmlns="http://www.w3.org/2000/svg">
<path fill-rule="evenodd" clip-rule="evenodd" d="M4.5 11C2.567 11 1 9.433 1 7.5V6.5C1 4.567 2.567 3 4.5 3C4.58468 3 4.66865 3.00301 4.75182 3.00892C5.55826 1.79793 6.93595 1 8.5 1C10.4972 1 12.1906 2.30115 12.7786 4.10203C14.058 4.44491 15 5.61245 15 7V8C15 9.65685 13.6569 11 12 11H9L5.85355 14.1464C5.53857 14.4614 5 14.2383 5 13.7929V11H4.5ZM7.5 3C7.22386 3 7 3.22386 7 3.5V6.5L8 7.5L9 6.5V3.5C9 3.22386 8.77614 3 8.5 3H7.5ZM7 9C7 8.44772 7.44772 8 8 8C8.55228 8 9 8.44772 9 9C9 9.55229 8.55228 10 8 10C7.44772 10 7 9.55229 7 9Z" fill="white"/>
</svg>
