<svg width="16" height="16" viewBox="0 0 16 16" fill="none" xmlns="http://www.w3.org/2000/svg">
<path fill-rule="evenodd" clip-rule="evenodd" d="M2.5 1C1.67157 1 1 1.67157 1 2.5V10.5C1 11.3284 1.67157 12 2.5 12H5V14.7929C5 15.2383 5.53857 15.4614 5.85355 15.1464L9 12H13.5C14.3284 12 15 11.3284 15 10.5V2.5C15 1.67157 14.3284 1 13.5 1H2.5ZM7.5 3C7.22386 3 7 3.22386 7 3.5V6.5L8 7.5L9 6.5V3.5C9 3.22386 8.77614 3 8.5 3H7.5ZM7 9C7 8.44772 7.44772 8 8 8C8.55228 8 9 8.44772 9 9C9 9.55229 8.55228 10 8 10C7.44772 10 7 9.55229 7 9Z" fill="white"/>
</svg>
