<svg width="16" height="16" viewBox="0 0 16 16" fill="none" xmlns="http://www.w3.org/2000/svg">
<path fill-rule="evenodd" clip-rule="evenodd" d="M1 2.5C1 1.67157 1.67157 1 2.5 1H13.5C14.3284 1 15 1.67157 15 2.5V10.5C15 11.3284 14.3284 12 13.5 12H9L5.85355 15.1464C5.53857 15.4614 5 15.2383 5 14.7929V12H2.5C1.67157 12 1 11.3284 1 10.5V2.5ZM10.1708 3.27639L9.94721 3.72361L6.94721 9.72361L6.72361 10.1708L5.82918 9.72361L6.05279 9.27639L9.05279 3.27639L9.27639 2.82918L10.1708 3.27639Z" fill="white"/>
</svg>
