<svg width="16" height="16" viewBox="0 0 16 16" fill="none" xmlns="http://www.w3.org/2000/svg">
<path fill-rule="evenodd" clip-rule="evenodd" d="M1 2.5C1 1.67157 1.67157 1 2.5 1H13.5C14.3284 1 15 1.67157 15 2.5V10.5C15 11.3284 14.3284 12 13.5 12H9L5.85355 15.1464C5.53857 15.4614 5 15.2383 5 14.7929V12H2.5C1.67157 12 1 11.3284 1 10.5V2.5ZM5.05278 8.27639L4.19098 10H5.30901L5.94721 8.72361L6.30901 8H9.69098L10.0528 8.72361L10.691 10H11.809L10.9472 8.27639L10.4472 7.27639L8.44721 3.27639L8.30901 3H7.69098L7.55278 3.27639L5.55278 7.27639L5.05278 8.27639ZM9.19098 7L8 4.61803L6.80901 7H9.19098Z" fill="white"/>
</svg>
