<svg width="16" height="16" viewBox="0 0 16 16" fill="none" xmlns="http://www.w3.org/2000/svg">
<path fill-rule="evenodd" clip-rule="evenodd" d="M13.4344 10.5464C12.4766 12.587 10.4033 14 8 14C5.59668 14 3.52339 12.587 2.56558 10.5464C2.75489 10.6787 2.95627 10.8018 3.16676 10.9151C4.42919 11.5949 6.13889 12 8 12C9.86111 12 11.5708 11.5949 12.8332 10.9151C13.0437 10.8018 13.2451 10.6787 13.4344 10.5464ZM14 8C14 4.68629 11.3137 2 8 2C4.68629 2 2 4.68629 2 8C2 8.69442 2.53038 9.43669 3.64086 10.0346C4.73096 10.6216 6.27126 11 8 11C9.72874 11 11.269 10.6216 12.3591 10.0346C13.4696 9.43669 14 8.69442 14 8ZM1 8C1 4.13401 4.13401 1 8 1C11.866 1 15 4.13401 15 8C15 11.866 11.866 15 8 15C4.13401 15 1 11.866 1 8Z" fill="white"/>
</svg>
