<svg width="16" height="16" viewBox="0 0 16 16" fill="none" xmlns="http://www.w3.org/2000/svg">
<path fill-rule="evenodd" clip-rule="evenodd" d="M1.38159 10.2856C2.32893 13.0293 4.9343 15 7.99996 15C11.0656 15 13.671 13.0293 14.6183 10.2856C14.2877 10.527 13.9138 10.7417 13.5147 10.928C12.0775 11.5986 10.1272 12 7.99995 12C5.87267 12 3.92238 11.5986 2.48521 10.928C2.08612 10.7417 1.71217 10.527 1.38159 10.2856Z" fill="white" fill-opacity="0.5"/>
<path fill-rule="evenodd" clip-rule="evenodd" d="M15 8C15 4.13401 11.866 1 8 1C4.13401 1 1 4.13401 1 8C1 8.65685 1.59025 9.40677 2.90814 10.0218C4.18543 10.6179 5.98515 11 8 11C10.0149 11 11.8146 10.6179 13.0919 10.0218C14.4097 9.40677 15 8.65685 15 8ZM5.00006 6C5.55235 6 6.00006 5.55228 6.00006 5C6.00006 4.44772 5.55235 4 5.00006 4C4.44778 4 4.00006 4.44772 4.00006 5C4.00006 5.55228 4.44778 6 5.00006 6Z" fill="white"/>
</svg>
