<svg width="16" height="16" viewBox="0 0 16 16" fill="none" xmlns="http://www.w3.org/2000/svg">
<path fill-rule="evenodd" clip-rule="evenodd" d="M4.13354 10.5882C2.82879 11.0468 2 11.7331 2 12.5C2 13.8807 4.68629 15 8 15C11.3137 15 14 13.8807 14 12.5C14 11.7331 13.1712 11.0468 11.8665 10.5882C10.8222 11.4691 9.4731 12 8 12C6.5269 12 5.17778 11.4691 4.13354 10.5882Z" fill="white" fill-opacity="0.5"/>
<path d="M13 6C13 8.76142 10.7614 11 8 11C5.23858 11 3 8.76142 3 6C3 3.23858 5.23858 1 8 1C10.7614 1 13 3.23858 13 6Z" fill="white"/>
</svg>
