<svg width="16" height="16" viewBox="0 0 16 16" fill="none" xmlns="http://www.w3.org/2000/svg">
<path fill-rule="evenodd" clip-rule="evenodd" d="M14.6184 10.2856C14.2878 10.527 13.9138 10.7417 13.5147 10.928C12.0776 11.5986 10.1273 12 8 12C5.87272 12 3.92243 11.5986 2.48526 10.928C2.08617 10.7417 1.71222 10.527 1.38163 10.2856C2.32897 13.0293 4.93434 15 8 15C11.0657 15 13.671 13.0293 14.6184 10.2856ZM15 8C15 4.13401 11.866 1 8 1C4.13401 1 1 4.13401 1 8C1 8.65685 1.59025 9.40677 2.90814 10.0218C4.18543 10.6179 5.98515 11 8 11C10.0149 11 11.8146 10.6179 13.0919 10.0218C14.4097 9.40677 15 8.65685 15 8Z" fill="white"/>
</svg>
