<svg width="16" height="16" viewBox="0 0 16 16" fill="none" xmlns="http://www.w3.org/2000/svg">
<path fill-rule="evenodd" clip-rule="evenodd" d="M15.2071 1.5L14.8535 1.85355L11.8717 4.83536C12.5772 5.69734 13.0004 6.79924 13.0004 8C13.0004 10.7614 10.7619 13 8.00044 13C7.16587 13 6.37905 12.7955 5.68736 12.4339L6.12516 11.9961C7.1714 11.9315 7.99996 11.0625 7.99996 10C7.99996 8.89543 7.10453 8 5.99996 8C4.93742 8 4.0684 8.82858 4.00381 9.87485L3.56618 10.3125C3.2048 9.62093 3.00044 8.83433 3.00044 8C3.00044 5.23857 5.23902 3 8.00044 3C9.20095 3 10.3026 3.42309 11.1645 4.12831L14.1464 1.14645L14.5 0.792892L15.2071 1.5ZM1.1464 14.1464L5.6464 9.64645L6.35351 10.3536L1.85351 14.8536L1.49995 15.2071L0.792847 14.5L1.1464 14.1464Z" fill="white"/>
</svg>
