<svg width="16" height="16" viewBox="0 0 16 16" fill="none" xmlns="http://www.w3.org/2000/svg">
<path fill-rule="evenodd" clip-rule="evenodd" d="M5.97819 13.0919C5.79546 12.7003 5.63284 12.2597 5.49517 11.7788C6.28487 11.9047 7.12754 11.9722 7.99997 11.9722C8.8724 11.9722 9.71507 11.9047 10.5048 11.7788C10.3671 12.2597 10.2045 12.7003 10.0218 13.0919C9.40674 14.4097 8.65682 15 7.99997 15C7.34312 15 6.5932 14.4097 5.97819 13.0919ZM5.07201 13.5147C4.80302 12.9384 4.57736 12.2794 4.40354 11.5597C3.69809 11.3871 3.05179 11.1645 2.48523 10.9001C2.08102 10.7115 1.70259 10.4937 1.3689 10.2484C2.06206 12.2934 3.67461 13.9141 5.71439 14.6184C5.47294 14.2878 5.25825 13.9138 5.07201 13.5147ZM7.99997 10.9722C7.01908 10.9722 6.08918 10.8816 5.24573 10.7199C5.0881 9.88554 4.99997 8.96758 4.99997 8C4.99997 7.57912 5.01665 7.16762 5.04846 6.76831C5.94492 6.91644 6.9468 7 7.99997 7C9.05315 7 10.055 6.91644 10.9515 6.76831C10.9833 7.16762 11 7.57912 11 8C11 8.96758 10.9118 9.88554 10.7542 10.7199C9.91076 10.8816 8.98086 10.9722 7.99997 10.9722ZM10.8378 5.77346C9.99119 5.91639 9.02712 6 7.99997 6C6.97282 6 6.00875 5.91639 5.16219 5.77346C5.3281 4.66936 5.61299 3.6907 5.97819 2.90814C6.59321 1.59025 7.34313 1 7.99997 1C8.65682 1 9.40674 1.59025 10.0218 2.90814C10.3869 3.6907 10.6718 4.66936 10.8378 5.77346ZM11.9383 6.56927C11.9789 7.03418 12 7.51244 12 8C12 8.85861 11.9346 9.6884 11.8125 10.4672C12.2803 10.3317 12.7095 10.1724 13.0918 9.99395C14.4045 9.38138 14.9953 8.63497 14.9999 7.98C14.9974 7.07291 14.8223 6.2064 14.5058 5.41156C14.4373 5.47639 14.3649 5.53688 14.2907 5.59297C13.9012 5.88745 13.3683 6.13658 12.7524 6.33918C12.4988 6.4226 12.2266 6.49958 11.9383 6.56927ZM14.0045 4.4H14C14 4.44354 13.968 4.5833 13.6876 4.79526C13.4194 4.99809 13.0003 5.20492 12.4399 5.38925C12.246 5.45306 12.0382 5.51314 11.8181 5.56888C11.6385 4.40371 11.3321 3.35131 10.9279 2.48526C10.7417 2.08617 10.527 1.71222 10.2856 1.38163C11.851 1.92215 13.1648 3.00243 14.0045 4.4ZM4.18183 5.56888C4.36149 4.40371 4.66785 3.35131 5.07201 2.48526C5.25825 2.08617 5.47294 1.71222 5.71439 1.38163C4.14893 1.92215 2.83511 3.00243 1.99541 4.4H1.99997C1.99997 4.44354 2.03191 4.5833 2.3123 4.79526C2.58059 4.99809 2.99964 5.20492 3.56002 5.38925C3.75399 5.45306 3.96174 5.51314 4.18183 5.56888ZM1.49412 5.41156C1.17761 6.2064 1.00254 7.07291 1 7.98C1.00467 8.63497 1.59546 9.38138 2.90811 9.99395C3.29049 10.1724 3.71968 10.3317 4.18744 10.4672C4.06536 9.6884 3.99997 8.85861 3.99997 8C3.99997 7.51244 4.02105 7.03418 4.06163 6.56927C3.77333 6.49958 3.50115 6.4226 3.24754 6.33918C2.63164 6.13658 2.09879 5.88745 1.70925 5.59297C1.63505 5.53688 1.56262 5.4764 1.49412 5.41156ZM11.5964 11.5597C11.4226 12.2794 11.1969 12.9384 10.9279 13.5147C10.7417 13.9138 10.527 14.2878 10.2856 14.6184C12.3253 13.9141 13.9379 12.2934 14.631 10.2484C14.2974 10.4937 13.9189 10.7115 13.5147 10.9001C12.9482 11.1645 12.3019 11.3871 11.5964 11.5597Z" fill="white"/>
</svg>
