<svg width="16" height="16" viewBox="0 0 16 16" fill="none" xmlns="http://www.w3.org/2000/svg">
<path fill-rule="evenodd" clip-rule="evenodd" d="M4.99994 6H2.5C1.67157 6 1 6.67157 1 7.5V13.5C1 14.3284 1.67157 15 2.5 15H8.5C9.32843 15 10 14.3284 10 13.5V11H7.49994C7.43443 11 7.36952 10.9975 7.30528 10.9925L7.94721 12.2764L8.44721 13.2764L8.80901 14H7.69098L7.55278 13.7236L7.19098 13H3.80901L3.44721 13.7236L3.30901 14H2.19098L2.55278 13.2764L3.05278 12.2764L4.99994 8.38208V6ZM5.38902 9.84L4.30901 12H6.69098L5.90259 10.4232C5.70268 10.257 5.52909 10.0602 5.38902 9.84Z" fill="white" fill-opacity="0.5"/>
<path fill-rule="evenodd" clip-rule="evenodd" d="M6 2.5C6 1.67157 6.67157 1 7.5 1H13.5C14.3284 1 15 1.67157 15 2.5V8.5C15 9.32843 14.3284 10 13.5 10H7.5C6.67157 10 6 9.32843 6 8.5V2.5ZM8 2H8.5H11C12.1046 2 13 2.89543 13 4C13 4.59735 12.7381 5.13353 12.3229 5.5C12.7381 5.86647 13 6.40265 13 7C13 8.10457 12.1046 9 11 9H8.5H8V8.5V6V5.5V5V2.5V2ZM9 5H11C11.5523 5 12 4.55228 12 4C12 3.44772 11.5523 3 11 3H9V5ZM9 6V8H11C11.5523 8 12 7.55228 12 7C12 6.44772 11.5523 6 11 6H9Z" fill="white"/>
</svg>
