<svg width="16" height="16" viewBox="0 0 16 16" fill="none" xmlns="http://www.w3.org/2000/svg">
<path fill-rule="evenodd" clip-rule="evenodd" d="M4.15825 1.43978C4.34699 0.920742 4.92075 0.652988 5.43979 0.841727L14.5602 4.15824C15.0792 4.34698 15.347 4.92074 15.1582 5.43978L14.5909 7H14H13H12H11H10H9V8V9H8V10V12.3787C8 13.0417 8.26339 13.6776 8.73223 14.1464L9.27765 14.6919L1.43978 11.8417C0.920744 11.653 0.652989 11.0792 0.841729 10.5602L4.15825 1.43978Z" fill="white" fill-opacity="0.5"/>
<path fill-rule="evenodd" clip-rule="evenodd" d="M10 8H11V10H13V8H14V10H15V12.3787C15 12.7765 14.842 13.158 14.5607 13.4393L13 15V16H11V15L9.43934 13.4393C9.15803 13.158 9 12.7765 9 12.3787V10H10V8Z" fill="white"/>
</svg>
