<svg width="16" height="16" viewBox="0 0 16 16" fill="none" xmlns="http://www.w3.org/2000/svg">
<path fill-rule="evenodd" clip-rule="evenodd" d="M11 13.5L11 12L6.5 12C5.11929 12 4 10.8807 4 9.5L4 5L2.5 5C1.67157 5 0.999999 5.67157 0.999999 6.5L0.999997 13.5C0.999997 14.3284 1.67157 15 2.5 15L9.5 15C10.3284 15 11 14.3284 11 13.5ZM13.5 2.00001L12 2.00001L12 1.00001L13.5 1.00001C14.3284 1.00001 15 1.67158 15 2.50001L15 4.00001L14 4.00001L14 2.50001C14 2.22386 13.7761 2.00001 13.5 2.00001ZM11 2.00001L9 2.00001L9 1.00001L11 1.00001L11 2.00001ZM8 2.00001L6.5 2.00001C6.22386 2.00001 6 2.22386 6 2.50001L6 4.00001L5 4.00001L5 2.50001C5 1.67158 5.67157 1.00001 6.5 1.00001L8 1.00001L8 2.00001ZM14 7.00001L14 5.00001L15 5.00001L15 7.00001L14 7.00001ZM6 5.00001L6 7.00001L5 7L5 5.00001L6 5.00001ZM14 9.50001L14 8.00001L15 8.00001L15 9.50001C15 10.3284 14.3284 11 13.5 11L12 11L12 10L13.5 10C13.7761 10 14 9.77615 14 9.50001ZM6 8.00001L6 9.50001C6 9.77615 6.22386 10 6.5 10L8 10L8 11L6.5 11C5.67157 11 5 10.3284 5 9.50001L5 8.00001L6 8.00001ZM9 10L11 10L11 11L9 11L9 10Z" fill="white"/>
</svg>
