<svg width="16" height="16" viewBox="0 0 16 16" fill="none" xmlns="http://www.w3.org/2000/svg">
<path fill-rule="evenodd" clip-rule="evenodd" d="M14 5.69877V5.0186L13.9489 5H11V3.92769L8 2.83678V5H5V2.05114L3.92769 5H5V8H2.83677L2 10.3011V10.9814L2.0512 11H5V12.0723L8 13.1632V11H11V13.9488L12.0723 11H11V8H13.1632L14 5.69877ZM8 8V11H5V8H8ZM8 8H11V5H8V8ZM12.0454 14L11.8417 14.5602C11.653 15.0792 11.0792 15.347 10.5602 15.1582L7.37502 14L5 13.1364L1.43978 11.8417C0.920744 11.653 0.652989 11.0792 0.841729 10.5602L2.86362 5L3.95453 2L4.15825 1.43978C4.34699 0.920744 4.92075 0.652989 5.43979 0.841729L8.62503 2L11 2.86363L14.5602 4.15824C15.0792 4.34698 15.347 4.92075 15.1582 5.43978L13.1363 11L12.0454 14Z" fill="white"/>
</svg>
