<svg width="16" height="16" viewBox="0 0 16 16" fill="none" xmlns="http://www.w3.org/2000/svg">
<path fill-rule="evenodd" clip-rule="evenodd" d="M1 13.5C1 14.3284 1.67157 15 2.5 15L7.5 15C8.32843 15 9 14.3284 9 13.5L9 13L5.5 13C4.11929 13 3 11.8807 3 10.5L3 7L2.5 7C1.67157 7 1 7.67157 1 8.5L1 13.5ZM4 10.5C4 11.3284 4.67157 12 5.5 12L10.5 12C11.3284 12 12 11.3284 12 10.5L12 10L8.5 10C7.11929 10 6 8.88071 6 7.5L6 4L5.5 4C4.67157 4 4 4.67157 4 5.5L4 10.5Z" fill="white" fill-opacity="0.5"/>
<path d="M7 7.5C7 8.32843 7.67157 9 8.5 9L13.5 9C14.3284 9 15 8.32843 15 7.5L15 2.5C15 1.67157 14.3284 1 13.5 1L8.5 0.999999C7.67157 0.999999 7 1.67157 7 2.5L7 7.5Z" fill="white"/>
</svg>
