<svg width="16" height="16" viewBox="0 0 16 16" fill="none" xmlns="http://www.w3.org/2000/svg">
<path fill-rule="evenodd" clip-rule="evenodd" d="M2.5 15C1.67157 15 0.999999 14.3284 0.999999 13.5L1 8.5C1 7.67157 1.67157 7 2.5 7L3 7L3 10.5C3 11.8807 4.11929 13 5.5 13L9 13L9 13.5C9 14.3284 8.32843 15 7.5 15L2.5 15Z" fill="white" fill-opacity="0.5"/>
<path fill-rule="evenodd" clip-rule="evenodd" d="M15.2071 1.49996L14.8536 1.85352L12.6036 4.10358L13.6464 5.14645C13.9614 5.46143 13.7383 6 13.2929 6L10 6V2.70711C10 2.26165 10.5386 2.03857 10.8536 2.35355L11.8965 3.39648L14.1464 1.14642L14.5 0.792864L15.2071 1.49996ZM9 4V6V7H10L12 7L12 10.5C12 11.3284 11.3284 12 10.5 12H5.5C4.67157 12 4 11.3284 4 10.5V5.5C4 4.67157 4.67157 4 5.5 4H9Z" fill="white"/>
</svg>
