<svg width="16" height="16" viewBox="0 0 16 16" fill="none" xmlns="http://www.w3.org/2000/svg">
<path fill-rule="evenodd" clip-rule="evenodd" d="M1 13.5C1 14.3284 1.67157 15 2.5 15L9.5 15C10.3284 15 11 14.3284 11 13.5L11 12L6.5 12C5.11929 12 4 10.8807 4 9.5L4 5L2.5 5C1.67157 5 1 5.67157 1 6.5L1 13.5Z" fill="white" fill-opacity="0.5"/>
<path fill-rule="evenodd" clip-rule="evenodd" d="M6.5 11C5.67157 11 5 10.3284 5 9.5L5 2.5C5 1.67157 5.67157 1 6.5 1L13.5 1C14.3284 1 15 1.67157 15 2.5L15 9.5C15 10.3284 14.3284 11 13.5 11L6.5 11ZM6 8.41421V10H7.58579C7.851 10 8.10536 9.89464 8.29289 9.70711L12.6464 5.35355L10.6464 3.35355L6.29289 7.70711C6.10536 7.89464 6 8.149 6 8.41421ZM14 4L13.3536 4.64645L11.3536 2.64645L12 2L14 4Z" fill="white"/>
</svg>
