<svg width="16" height="16" viewBox="0 0 16 16" fill="none" xmlns="http://www.w3.org/2000/svg">
<path fill-rule="evenodd" clip-rule="evenodd" d="M1 13.5C1 14.3284 1.67157 15 2.5 15L9.5 15C10.3284 15 11 14.3284 11 13.5L11 12L6.5 12C5.11929 12 4 10.8807 4 9.5L4 5L2.5 5C1.67157 5 1 5.67157 1 6.5L1 13.5Z" fill="white" fill-opacity="0.5"/>
<path fill-rule="evenodd" clip-rule="evenodd" d="M5 9.5C5 10.3284 5.67157 11 6.5 11L13.5 11C14.3284 11 15 10.3284 15 9.5L15 2.5C15 1.67157 14.3284 0.999998 13.5 0.999998H6.5C5.67157 0.999998 5 1.67157 5 2.5V9.5ZM9 2H11V5H14V7H11V10H9V7H6L6 5H9V2Z" fill="white"/>
</svg>
