<svg width="16" height="16" viewBox="0 0 16 16" fill="none" xmlns="http://www.w3.org/2000/svg">
<path fill-rule="evenodd" clip-rule="evenodd" d="M10 10V11V12.5C10 13.3284 9.32843 14 8.5 14H3.5C2.67157 14 2 13.3284 2 12.5V7.5C2 6.67157 2.67157 6 3.5 6H5H6V5V3.5C6 2.67157 6.67157 2 7.5 2H12.5C13.3284 2 14 2.67157 14 3.5V8.5C14 9.32843 13.3284 10 12.5 10H11H10ZM12 11H12.5C13.8807 11 15 9.88071 15 8.5V3.5C15 2.11929 13.8807 1 12.5 1H7.5C6.11929 1 5 2.11929 5 3.5V4V5H4H3.5C2.11929 5 1 6.11929 1 7.5V12.5C1 13.8807 2.11929 15 3.5 15H8.5C9.88071 15 11 13.8807 11 12.5V12V11H12Z" fill="white" fill-opacity="0.5"/>
<path fill-rule="evenodd" clip-rule="evenodd" d="M12.5 3C12.7761 3 13 3.22386 13 3.5V8.5C13 8.77614 12.7761 9 12.5 9H9V12.5C9 12.7761 8.77614 13 8.5 13H3.5C3.22386 13 3 12.7761 3 12.5V7.5C3 7.22386 3.22386 7 3.5 7H7V3.5C7 3.22386 7.22386 3 7.5 3H12.5Z" fill="white"/>
</svg>
