<svg width="16" height="16" viewBox="0 0 16 16" fill="none" xmlns="http://www.w3.org/2000/svg">
<path fill-rule="evenodd" clip-rule="evenodd" d="M5 2.49994V5L9.5 5C10.3284 5 11 5.67157 11 6.5L11 10.9999H11V11.0001H6.50001C5.67158 11.0001 5.00001 10.3285 5.00001 9.50006V5.00006H2.50004C1.67161 5.00006 1.00004 5.67164 1.00004 6.50006V13.5001C1.00004 14.3285 1.67161 15.0001 2.50004 15.0001H9.50004C10.3285 15.0001 11 14.3285 11 13.5001V10.9999H13.5C14.3284 10.9999 15 10.3284 15 9.49994V2.49994C15 1.67151 14.3284 0.999939 13.5 0.999939H6.5C5.67157 0.999939 5 1.67151 5 2.49994Z" fill="white"/>
</svg>
