<svg width="16" height="16" viewBox="0 0 16 16" fill="none" xmlns="http://www.w3.org/2000/svg">
<path fill-rule="evenodd" clip-rule="evenodd" d="M12 1C11.4477 1 11 1.44772 11 2V4C11 4.55228 11.4477 5 12 5H14C14.5523 5 15 4.55228 15 4V2C15 1.44772 14.5523 1 14 1H12ZM8.79354 5.33772C9.18705 4.96673 9.80421 4.97582 10.1866 5.35824L11.7929 6.96453C12.1834 7.35505 12.1834 7.98821 11.7929 8.37873L10.2271 9.94457C9.82886 10.3428 9.18049 10.3338 8.79349 9.92465L7.18832 8.22769C6.80836 7.82599 6.8265 7.19218 7.22883 6.81288L8.79354 5.33772ZM3 6C2.44772 6 2 6.44772 2 7V9C2 9.55229 2.44772 10 3 10H5C5.55228 10 6 9.55229 6 9V7C6 6.44772 5.55228 6 5 6H3ZM1 12C1 11.4477 1.44772 11 2 11H4C4.55228 11 5 11.4477 5 12V14C5 14.5523 4.55228 15 4 15H2C1.44772 15 1 14.5523 1 14V12ZM7 11C6.44772 11 6 11.4477 6 12V14C6 14.5523 6.44772 15 7 15H9C9.55229 15 10 14.5523 10 14V12C10 11.4477 9.55229 11 9 11H7ZM12 11C11.4477 11 11 11.4477 11 12V14C11 14.5523 11.4477 15 12 15H14C14.5523 15 15 14.5523 15 14V12C15 11.4477 14.5523 11 14 11H12Z" fill="white"/>
</svg>
