<svg width="16" height="16" viewBox="0 0 16 16" fill="none" xmlns="http://www.w3.org/2000/svg">
<path fill-rule="evenodd" clip-rule="evenodd" d="M5 6L4.5 6C3.67157 6 3 6.67157 3 7.5L3 11.5C3 12.3284 3.67157 13 4.5 13L8.5 13C9.32843 13 10 12.3284 10 11.5L10 11L7.5 11C6.11929 11 5 9.88071 5 8.5L5 6Z" fill="white" fill-opacity="0.5"/>
<path fill-rule="evenodd" clip-rule="evenodd" d="M1 2.5C1 1.67157 1.67157 1 2.5 1H4.5H5V2H4.5H2.5C2.22386 2 2 2.22386 2 2.5V4.5V5H1V4.5V2.5ZM11.5 10H7.5C6.67157 10 6 9.32843 6 8.5V4.5C6 3.67157 6.67157 3 7.5 3H11.5C12.3284 3 13 3.67157 13 4.5V8.5C13 9.32843 12.3284 10 11.5 10ZM13.5 15C14.3284 15 15 14.3284 15 13.5V11.5V11H14V11.5L14 13.5C14 13.7761 13.7761 14 13.5 14H11.5H11V15H11.5H13.5ZM13.5 1C14.3284 1 15 1.67157 15 2.5V4.5V5H14V4.5L14 2.5C14 2.22386 13.7761 2 13.5 2L11.5 2H11V1H11.5H13.5ZM1 13.5C1 14.3284 1.67157 15 2.5 15H4.5H5V14H4.5H2.5C2.22386 14 2 13.7761 2 13.5V11.5V11H1V11.5V13.5Z" fill="white"/>
</svg>
