<svg width="16" height="16" viewBox="0 0 16 16" fill="none" xmlns="http://www.w3.org/2000/svg">
<path fill-rule="evenodd" clip-rule="evenodd" d="M11 12V13.5001C11 14.3285 10.3284 15.0001 9.5 15.0001H2.5C1.67157 15.0001 1 14.3285 1 13.5001V6.50006C1 5.67163 1.67157 5.00006 2.5 5.00006H3.99997V9.50004C3.99997 10.8807 5.11926 12 6.49997 12H11Z" fill="white" fill-opacity="0.5"/>
<path fill-rule="evenodd" clip-rule="evenodd" d="M6.5 0.999998C5.67157 0.999998 5 1.67157 5 2.5L5 9.5C5 10.3284 5.67157 11 6.5 11L13.5 11C14.3284 11 15 10.3284 15 9.5L15 2.5C15 1.67157 14.3284 0.999998 13.5 0.999998L6.5 0.999998ZM6.5 2L7.70712 2L6 3.70712V2.5C6 2.36308 6.05503 2.23902 6.14418 2.14873L6.14873 2.14418C6.23903 2.05503 6.36309 2 6.5 2ZM6 5.29291L6 6.70712L10.7071 2L9.29291 2L6 5.29291ZM6 9.5C6 9.56174 6.01119 9.62087 6.03165 9.67546L13.6755 2.03165C13.6209 2.01119 13.5617 2 13.5 2H12.2929L6 8.29291V9.5ZM7.29291 10H8.70712L14 4.70712V3.29291L7.29291 10ZM10.2929 10H11.7071L14 7.70712V6.29291L10.2929 10ZM14 9.5V9.29291L13.2929 10H13.5C13.7761 10 14 9.77614 14 9.5Z" fill="white"/>
</svg>
