<svg width="16" height="16" viewBox="0 0 16 16" fill="none" xmlns="http://www.w3.org/2000/svg">
<path fill-rule="evenodd" clip-rule="evenodd" d="M5.85355 5.64645L8 3.5L5.85355 1.35355C5.53857 1.03857 5 1.26165 5 1.70711V3L4.5 3H4C2.89543 3 2 3.89543 2 5L2 6.5L2 7L3 7L3 6.5L3 5C3 4.44772 3.44771 4 4 4H4.5H5L5 5.29289C5 5.73835 5.53857 5.96143 5.85355 5.64645ZM1 13.5C1 14.3284 1.67157 15 2.5 15H6.5C7.20125 15 7.7901 14.5188 7.95438 13.8686L7.29289 13.2071L6.58579 12.5L7.29289 11.7929L8 11.0858V9.5C8 8.67157 7.32843 8 6.5 8H2.5C1.67157 8 1 8.67157 1 9.5V13.5Z" fill="white" fill-opacity="0.5"/>
<path fill-rule="evenodd" clip-rule="evenodd" d="M10.1464 10.3536L8 12.5L10.1464 14.6464C10.4614 14.9614 11 14.7383 11 14.2929L11 13L11.5 13L12 13C13.1046 13 14 12.1046 14 11L14 9.5L14 9L13 9L13 9.5L13 11C13 11.5523 12.5523 12 12 12L11.5 12L11 12L11 10.7071C11 10.2617 10.4614 10.0386 10.1464 10.3536ZM15 2.5C15 1.67157 14.3284 0.999999 13.5 0.999999L9.5 0.999999C8.79876 0.999999 8.2099 1.4812 8.04562 2.13141L8.70711 2.79289L9.41421 3.5L8.70711 4.20711L8 4.91421L8 6.5C8 7.32843 8.67157 8 9.5 8L13.5 8C14.3284 8 15 7.32843 15 6.5L15 2.5Z" fill="white"/>
</svg>
