<svg width="16" height="16" viewBox="0 0 16 16" fill="none" xmlns="http://www.w3.org/2000/svg">
<path fill-rule="evenodd" clip-rule="evenodd" d="M11 2H7V3H5V4H7V5H5V6H7V7H5V8H7V9H5V10H7V11H5V12H7V13H5V14H9V13H11V12H9V11H11V10H9V9H11V8H9V7H11V6H9V5H11V4H9V3H11V2Z" fill="white" fill-opacity="0.5"/>
<path fill-rule="evenodd" clip-rule="evenodd" d="M2.5 2H11V3H9V4H11V5H9V6H11V7H9V8H11V9H9V10H11V11H9V12H11V13H9V14H2.5C2.22386 14 2 13.7761 2 13.5V2.5C2 2.22386 2.22386 2 2.5 2ZM1 2.5C1 1.67157 1.67157 1 2.5 1H13.5C14.3284 1 15 1.67157 15 2.5V13.5C15 14.3284 14.3284 15 13.5 15H2.5C1.67157 15 1 14.3284 1 13.5V2.5Z" fill="white"/>
</svg>
