<svg width="16" height="16" viewBox="0 0 16 16" fill="none" xmlns="http://www.w3.org/2000/svg">
<path d="M2.5 15H5.5C6.32843 15 7 14.3284 7 13.5V10.5C7 9.67157 6.32843 9 5.5 9H2.5C1.67157 9 1 9.67157 1 10.5V13.5C1 14.3284 1.67157 15 2.5 15Z" fill="white" fill-opacity="0.5"/>
<path fill-rule="evenodd" clip-rule="evenodd" d="M7.5 1L5.35355 3.14645C5.03857 3.46143 5.26165 4 5.70711 4H7V5H5C3.89543 5 3 5.89543 3 7V8H4V7C4 6.44772 4.44772 6 5 6H7.5H10C10.5523 6 11 6.44772 11 7V8H12V7C12 5.89543 11.1046 5 10 5H8V4H9.29289C9.73835 4 9.96143 3.46143 9.64645 3.14645L7.5 1ZM12.5 15C13.3284 15 14 14.3284 14 13.5V10.5C14 9.67157 13.3284 9 12.5 9H9.5C8.67157 9 8 9.67157 8 10.5V13.5C8 14.3284 8.67157 15 9.5 15H12.5Z" fill="white"/>
</svg>
