<svg width="16" height="16" viewBox="0 0 16 16" fill="none" xmlns="http://www.w3.org/2000/svg">
<path fill-rule="evenodd" clip-rule="evenodd" d="M12 13.5C12 14.3284 11.3284 15 10.5 15L2.5 15C1.67157 15 1 14.3284 1 13.5L1 5.5C1 4.67157 1.67157 4 2.5 4L3 4L3 10.5C3 11.8807 4.11929 13 5.5 13L12 13L12 13.5Z" fill="white" fill-opacity="0.5"/>
<path fill-rule="evenodd" clip-rule="evenodd" d="M5.5 1C4.67157 1 4 1.67157 4 2.5V10.5C4 11.3284 4.67157 12 5.5 12H13.5C14.3284 12 15 11.3284 15 10.5V2.5C15 1.67157 14.3284 1 13.5 1H5.5ZM7 5.5V7.5C7 7.77614 7.22386 8 7.5 8H9L11.1464 10.1464C11.4614 10.4614 12 10.2383 12 9.79289V3.20711C12 2.76165 11.4614 2.53857 11.1464 2.85355L9 5H7.5C7.22386 5 7 5.22386 7 5.5Z" fill="white"/>
</svg>
