<svg width="16" height="16" viewBox="0 0 16 16" fill="none" xmlns="http://www.w3.org/2000/svg">
<path fill-rule="evenodd" clip-rule="evenodd" d="M5 6L4.5 6C3.67157 6 3 6.67157 3 7.5L3 11.5C3 12.3284 3.67157 13 4.5 13L8.5 13C9.32843 13 10 12.3284 10 11.5L10 11L7.5 11C6.11929 11 5 9.88071 5 8.5L5 6Z" fill="white" fill-opacity="0.5"/>
<path fill-rule="evenodd" clip-rule="evenodd" d="M13.5 2L2.5 2C2.22386 2 2 2.22386 2 2.5L2 13.5C2 13.7761 2.22386 14 2.5 14L13.5 14C13.7761 14 14 13.7761 14 13.5L14 2.5C14 2.22386 13.7761 2 13.5 2ZM2.5 1L13.5 1C14.3284 1 15 1.67157 15 2.5L15 13.5C15 14.3284 14.3284 15 13.5 15L2.5 15C1.67157 15 1 14.3284 1 13.5L1 2.5C1 1.67157 1.67157 1 2.5 1ZM11.5 3L7.5 3C6.67157 3 6 3.67157 6 4.5L6 8.5C6 9.32843 6.67157 10 7.5 10L11.5 10C12.3284 10 13 9.32843 13 8.5L13 4.5C13 3.67157 12.3284 3 11.5 3Z" fill="white"/>
</svg>
