<svg width="16" height="16" viewBox="0 0 16 16" fill="none" xmlns="http://www.w3.org/2000/svg">
<path fill-rule="evenodd" clip-rule="evenodd" d="M4.99994 6H2.5C1.67157 6 1 6.67157 1 7.5V13.5C1 14.3284 1.67157 15 2.5 15H8.5C9.32843 15 10 14.3284 10 13.5V11H7.49994C7.43443 11 7.36952 10.9975 7.30528 10.9925L7.94721 12.2764L8.44721 13.2764L8.80901 14H7.69098L7.55278 13.7236L7.19098 13H3.80901L3.44721 13.7236L3.30901 14H2.19098L2.55278 13.2764L3.05278 12.2764L4.99994 8.38208V6ZM5.38902 9.84L4.30901 12H6.69098L5.90259 10.4232C5.70268 10.257 5.52909 10.0602 5.38902 9.84Z" fill="white" fill-opacity="0.5"/>
<path fill-rule="evenodd" clip-rule="evenodd" d="M7.5 1C6.67157 1 6 1.67157 6 2.5V8.5C6 9.32843 6.67157 10 7.5 10H13.5C14.3284 10 15 9.32843 15 8.5V2.5C15 1.67157 14.3284 1 13.5 1H7.5ZM11 2.5V2H10V2.5V3H7.5H7V4H7.5H10.5H12V5C12 5.15738 11.9259 5.30557 11.8 5.4L10.5 6.375L8.8 5.1L8.4 4.8L7.8 5.6L8.2 5.9L9.66667 7L8.2 8.1L7.8 8.4L8.4 9.2L8.8 8.9L10.5 7.625L12.2 8.9L12.6 9.2L13.2 8.4L12.8 8.1L11.3333 7L12.4 6.2C12.7777 5.91672 13 5.47214 13 5V4H13.5H14V3H13.5H12.5H11V2.5Z" fill="white"/>
</svg>
