<svg width="16" height="16" viewBox="0 0 16 16" fill="none" xmlns="http://www.w3.org/2000/svg">
<path fill-rule="evenodd" clip-rule="evenodd" d="M2.5 1C1.67157 1 1 1.67157 1 2.5V13.5C1 14.3284 1.67157 15 2.5 15H13.5C14.3284 15 15 14.3284 15 13.5V2.5C15 1.67157 14.3284 1 13.5 1H2.5ZM4 10.4142V12H5.58579C5.851 12 6.10536 11.8946 6.29289 11.7071L10.6464 7.35355L8.64645 5.35355L4.29289 9.70711C4.10536 9.89464 4 10.149 4 10.4142ZM12 6L11.3536 6.64645L9.35355 4.64645L10 4L12 6Z" fill="white"/>
</svg>
