<svg width="16" height="16" viewBox="0 0 16 16" fill="none" xmlns="http://www.w3.org/2000/svg">
<path fill-rule="evenodd" clip-rule="evenodd" d="M11.0008 12C12.2179 11.0854 13 9.63325 13 8H11.4142C11.149 8 10.8946 8.10536 10.7071 8.29289L9.29289 9.70711C9.10536 9.89464 9 10.149 9 10.4142V12H11.0008ZM8 3C10.0503 3 11.8124 4.2341 12.584 6H8H3.41604C4.1876 4.2341 5.94968 3 8 3ZM4.99918 12C3.7821 11.0854 3 9.63325 3 8H4.58579C4.851 8 5.10536 8.10536 5.29289 8.29289L6.70711 9.70711C6.89464 9.89464 7 10.149 7 10.4142V12H4.99918ZM11.6076 14C13.6404 12.7751 15 10.5463 15 8C15 4.13401 11.866 1 8 1C4.13401 1 1 4.13401 1 8C1 10.5463 2.35958 12.7751 4.39241 14H11.6076ZM8 9C8.55228 9 9 8.55228 9 8C9 7.44772 8.55228 7 8 7C7.44772 7 7 7.44772 7 8C7 8.55228 7.44772 9 8 9Z" fill="white"/>
</svg>
