<svg width="16" height="16" viewBox="0 0 16 16" fill="none" xmlns="http://www.w3.org/2000/svg">
<path fill-rule="evenodd" clip-rule="evenodd" d="M7.86466 5.03544C7.95292 4.70518 7.99998 4.35808 7.99998 4C7.99998 3.64185 7.95291 3.29469 7.86461 2.96437L14.1422 1.2823C14.4089 1.21083 14.6843 1.36894 14.7436 1.63864C15.0855 3.1942 15.0855 4.8056 14.7436 6.36115C14.6843 6.63086 14.4089 6.78897 14.1422 6.7175L7.86466 5.03544ZM6.00031 7.46468C6.60731 7.11347 7.11345 6.60733 7.46465 6.00033L14.8253 10.25C15.0644 10.3881 15.1472 10.6945 15 10.9281C13.9642 12.5727 12.5727 13.9643 10.9281 15.0001C10.6944 15.1472 10.3881 15.0645 10.25 14.8253L6.00031 7.46468ZM2.96443 7.86466C3.29472 7.95294 3.64185 8 3.99998 8C4.35809 8 4.70521 7.95294 5.03549 7.86467L6.71756 14.1422C6.78903 14.409 6.63092 14.6843 6.36121 14.7436C4.80566 15.0855 3.19426 15.0855 1.63871 14.7436C1.369 14.6843 1.21089 14.409 1.28236 14.1422L2.96443 7.86466Z" fill="white" fill-opacity="0.5"/>
<path d="M7 4C7 5.65685 5.65685 7 4 7C2.34315 7 1 5.65685 1 4C1 2.34315 2.34315 1 4 1C5.65685 1 7 2.34315 7 4Z" fill="white"/>
</svg>
