<svg width="16" height="16" viewBox="0 0 16 16" fill="none" xmlns="http://www.w3.org/2000/svg">
<path fill-rule="evenodd" clip-rule="evenodd" d="M8 0V3H7V0H8ZM11 7.5C11 9.433 9.433 11 7.5 11C5.567 11 4 9.433 4 7.5C4 5.567 5.567 4 7.5 4C9.433 4 11 5.567 11 7.5ZM11.0356 4.67159L13.1569 2.55027L12.4498 1.84316L10.3285 3.96448L11.0356 4.67159ZM15 8H12V7H15V8ZM10.3285 11.0355L12.4498 13.1568L13.1569 12.4497L11.0356 10.3284L10.3285 11.0355ZM8 12V15H7V12H8ZM2.55023 13.1569L4.67155 11.0356L3.96444 10.3285L1.84312 12.4498L2.55023 13.1569ZM3 8H0V7H3V8ZM1.84312 2.55023L3.96444 4.67155L4.67155 3.96444L2.55023 1.84312L1.84312 2.55023Z" fill="white"/>
</svg>
