<svg width="16" height="16" viewBox="0 0 16 16" fill="none" xmlns="http://www.w3.org/2000/svg">
<path fill-rule="evenodd" clip-rule="evenodd" d="M4.94907 4C4.80625 4 4.67025 4.06107 4.57536 4.16782L1.16898 8H7H9H14.831L11.4246 4.16782C11.3298 4.06107 11.1938 4 11.0509 4H10V3H11.0509C11.4794 3 11.8874 3.18322 12.172 3.50345L15.8737 7.66782L16 7.8099V8V9V9.58579C16 9.851 15.8946 10.1054 15.7071 10.2929L15.2929 10.7071C15.1054 10.8946 15 11.149 15 11.4142V12C15 12.5523 14.5523 13 14 13H11.4142C11.149 13 10.8946 12.8946 10.7071 12.7071L9.29289 11.2929C9.10536 11.1054 9 10.851 9 10.5858V10H7V10.5858C7 10.851 6.89464 11.1054 6.70711 11.2929L5.29289 12.7071C5.10536 12.8946 4.851 13 4.58579 13H2C1.44772 13 1 12.5523 1 12V11.4142C1 11.149 0.894643 10.8946 0.707107 10.7071L0.292893 10.2929C0.105356 10.1054 0 9.851 0 9.58579V9V8V7.8099L0.126295 7.66782L3.82795 3.50345C4.1126 3.18322 4.52061 3 4.94907 3H6V4H4.94907Z" fill="white"/>
</svg>
