<svg width="16" height="16" viewBox="0 0 16 16" fill="none" xmlns="http://www.w3.org/2000/svg">
<path fill-rule="evenodd" clip-rule="evenodd" d="M10.5 2H2.5C2.22386 2 2 2.22386 2 2.5V13.5C2 13.7761 2.22386 14 2.5 14H7.75777C8.01056 14.3776 8.31899 14.7149 8.67133 15H2.5C1.67157 15 1 14.3284 1 13.5V2.5C1 1.67157 1.67157 1 2.5 1H10.5C11.3284 1 12 1.67157 12 2.5V7.02746C11.8358 7.00932 11.669 7 11.5 7C11.331 7 11.1642 7.00932 11 7.02746V2.5C11 2.22386 10.7761 2 10.5 2ZM7.25606 10C7.3819 9.64397 7.55127 9.30851 7.75777 9H7V10H7.25606ZM8.67133 8C9.06488 7.68154 9.51322 7.42811 10 7.25606V7H7V8H8.67133ZM3 3H6V4H3V3ZM6 5H3V6H6V5ZM3 7H6V8H3V7ZM6 9H3V10H6V9ZM7 3H10V4H7V3ZM10 5H7V6H10V5ZM15 11.5C15 13.433 13.433 15 11.5 15C9.567 15 8 13.433 8 11.5C8 9.567 9.567 8 11.5 8C13.433 8 15 9.567 15 11.5ZM11 11.5V9.5H12V11.2929L13.3536 12.6464L12.6464 13.3536L11.1464 11.8536L11 11.7071V11.5Z" fill="white"/>
</svg>
