<svg width="16" height="16" viewBox="0 0 16 16" fill="none" xmlns="http://www.w3.org/2000/svg">
<path fill-rule="evenodd" clip-rule="evenodd" d="M9.41421 1H12V5.5V6L11 7L10.2071 7.79289C9.81658 8.18342 9.18342 8.18342 8.79289 7.79289L7 6L5.75 7.25C5.33579 7.66421 4.66421 7.66421 4.25 7.25C3.83579 6.83579 3.83579 6.16421 4.25 5.75L5 5L6 4L8.70711 1.29289C8.89464 1.10536 9.149 1 9.41421 1ZM4.58579 4H2.5C1.67157 4 1 4.67157 1 5.5V13.5C1 14.3284 1.67157 15 2.5 15H10.5C11.3284 15 12 14.3284 12 13.5V7.41421L11 8.41421V13.5C11 13.7761 10.7761 14 10.5 14H2.5C2.22386 14 2 13.7761 2 13.5V5.5C2 5.22386 2.22386 5 2.5 5H3.58579L4.58579 4ZM6 10H3V11H6V10ZM3 12H6V13H3V12ZM10 10H7V11H10V10ZM7 12H10V13H7V12ZM15 1H13V6.5C13 6.77614 13.2239 7 13.5 7H15V1Z" fill="white"/>
</svg>
