<svg width="16" height="16" viewBox="0 0 16 16" fill="none" xmlns="http://www.w3.org/2000/svg">
<path fill-rule="evenodd" clip-rule="evenodd" d="M9.00009 1H5.41431C5.14909 1 4.89474 1.10536 4.7072 1.29289L0.707199 5.29289C0.316675 5.68342 0.316676 6.31658 0.7072 6.70711L2.48218 8.48209C2.56987 8.15375 2.7425 7.84338 3.00009 7.58579L7.00009 3.58579C7.37517 3.21071 7.88387 3 8.41431 3H9.00009V1ZM12.0001 4H8.41431C8.14909 4 7.89474 4.10536 7.7072 4.29289L3.7072 8.29289C3.31668 8.68342 3.31668 9.31658 3.7072 9.70711L5.48218 11.4821C5.56987 11.1537 5.7425 10.8434 6.00009 10.5858L10.0001 6.58579C10.3752 6.21071 10.8839 6 11.4143 6H12.0001V4Z" fill="white" fill-opacity="0.5"/>
<path fill-rule="evenodd" clip-rule="evenodd" d="M15.0001 7H11.4143C11.1491 7 10.8947 7.10536 10.7072 7.29289L6.7072 11.2929C6.31668 11.6834 6.31668 12.3166 6.7072 12.7071L9.29299 15.2929C9.68351 15.6834 10.3167 15.6834 10.7072 15.2929L14.7072 11.2929C14.8947 11.1054 15.0001 10.851 15.0001 10.5858V7ZM13 8C12.4477 8 12 8.44772 12 9C12 9.55228 12.4477 10 13 10C13.5523 10 14 9.55228 14 9C14 8.44772 13.5523 8 13 8Z" fill="white"/>
</svg>
