<svg width="16" height="16" viewBox="0 0 16 16" fill="none" xmlns="http://www.w3.org/2000/svg">
<path fill-rule="evenodd" clip-rule="evenodd" d="M2 3.5C2 3.22386 2.22386 3 2.5 3H4.5H5V2H4.5H2.5C1.67157 2 1 2.67157 1 3.5V5.5V6H2V5.5V3.5ZM11.5 2H11V3H11.5H13.5C13.7761 3 14 3.22386 14 3.5V5.5V6H15V5.5V3.5C15 2.67157 14.3284 2 13.5 2H11.5ZM2 10.5V10H1V10.5V12.5C1 13.3284 1.67157 14 2.5 14H4.5H5V13H4.5H2.5C2.22386 13 2 12.7761 2 12.5V10.5ZM15 10.5V10H14V10.5V12.5C14 12.7761 13.7761 13 13.5 13H11.5H11V14H11.5H13.5C14.3284 14 15 13.3284 15 12.5V10.5ZM5.05279 10.2764L4.69098 11H5.80902L5.94721 10.7236L6.30902 10H9.69098L10.0528 10.7236L10.191 11H11.309L10.9472 10.2764L10.4472 9.27639L8.44721 5.27639L8.30902 5H7.69098L7.55279 5.27639L5.55279 9.27639L5.05279 10.2764ZM8 6.61803L6.80902 9H9.19098L8 6.61803Z" fill="white"/>
</svg>
