<svg width="16" height="16" viewBox="0 0 16 16" fill="none" xmlns="http://www.w3.org/2000/svg">
<path fill-rule="evenodd" clip-rule="evenodd" d="M1 3.5C1 2.67157 1.67157 2 2.5 2H13.5C14.3284 2 15 2.67157 15 3.5V12.5C15 13.3284 14.3284 14 13.5 14H2.5C1.67157 14 1 13.3284 1 12.5V3.5ZM4.69098 11L5.05279 10.2764L5.55279 9.27639L7.55279 5.27639L7.69098 5H8.30902L8.44721 5.27639L10.4472 9.27639L10.9472 10.2764L11.309 11H10.191L10.0528 10.7236L9.69098 10H6.30902L5.94721 10.7236L5.80902 11H4.69098ZM6.80902 9L8 6.61803L9.19098 9H6.80902Z" fill="white"/>
</svg>
