<svg width="16" height="16" viewBox="0 0 16 16" fill="none" xmlns="http://www.w3.org/2000/svg">
<path fill-rule="evenodd" clip-rule="evenodd" d="M2.5 1C1.67157 1 1 1.67157 1 2.5V13.5C1 14.3284 1.67157 15 2.5 15H13.5C14.3284 15 15 14.3284 15 13.5V2.5C15 1.67157 14.3284 1 13.5 1H2.5ZM5.05278 10.2764L4.69098 11H5.80901L5.94721 10.7236L6.30901 10H9.69098L10.0528 10.7236L10.191 11H11.309L10.9472 10.2764L10.4472 9.27639L8.44721 5.27639L8.30901 5H7.69098L7.55278 5.27639L5.55278 9.27639L5.05278 10.2764ZM8 6.61803L6.80901 9H9.19098L8 6.61803Z" fill="white"/>
</svg>
