<svg width="16" height="16" viewBox="0 0 16 16" fill="none" xmlns="http://www.w3.org/2000/svg">
<path fill-rule="evenodd" clip-rule="evenodd" d="M13.5 3H2.5C2.22386 3 2 3.22386 2 3.5V12.5C2 12.7761 2.22386 13 2.5 13H7.04336C7.01474 13.1352 7 13.2739 7 13.4142V14H2.5C1.67157 14 1 13.3284 1 12.5V3.5C1 2.67157 1.67157 2 2.5 2H13.5C14.3284 2 15 2.67157 15 3.5V6H14V3.5C14 3.22386 13.7761 3 13.5 3ZM8.65591 10.9299L9.40127 10.1845L8.94721 9.27639L6.94721 5.27639L6.80901 5H6.19098L6.05278 5.27639L4.05278 9.27639L3.55278 10.2764L3.19098 11H4.30901L4.44721 10.7236L4.80901 10H8.19098L8.55278 10.7236L8.65591 10.9299ZM7.69098 9H5.30901L6.5 6.61803L7.69098 9ZM8 13.4142V15H9.58579C9.851 15 10.1054 14.8946 10.2929 14.7071L14.6464 10.3536L12.6464 8.35355L8.29289 12.7071C8.10536 12.8946 8 13.149 8 13.4142ZM16 9L15.3536 9.64645L13.3536 7.64645L14 7L16 9Z" fill="white"/>
</svg>
