<svg width="16" height="16" viewBox="0 0 16 16" fill="none" xmlns="http://www.w3.org/2000/svg">
<path fill-rule="evenodd" clip-rule="evenodd" d="M15 3V6.5V7H14V6.5V3C14 2.44772 13.5523 2 13 2L9.5 2L9 2V1H9.5H13C14.1046 1 15 1.89543 15 3ZM3 15C1.89543 15 1 14.1046 1 13V9.5V9H2V9.5L2 13C2 13.5523 2.44772 14 3 14H6.5H7V15H6.5H3ZM5.05278 10.2764L4.69098 11H5.80901L5.94721 10.7236L6.30901 10H9.69098L10.0528 10.7236L10.191 11H11.309L10.9472 10.2764L10.4472 9.27639L8.44721 5.27639L8.30901 5H7.69098L7.55278 5.27639L5.55278 9.27639L5.05278 10.2764ZM8 6.61803L6.80901 9H9.19098L8 6.61803Z" fill="white"/>
</svg>
