<svg width="16" height="16" viewBox="0 0 16 16" fill="none" xmlns="http://www.w3.org/2000/svg">
<path fill-rule="evenodd" clip-rule="evenodd" d="M8 4H6V10.2676C5.4022 10.6134 5 11.2597 5 12C5 13.1046 5.89543 14 7 14C8.10457 14 9 13.1046 9 12C9 11.2597 8.5978 10.6134 8 10.2676V4Z" fill="white" fill-opacity="0.5"/>
<path fill-rule="evenodd" clip-rule="evenodd" d="M5 9.73237L4.74974 10.0159C4.28243 10.5454 4 11.2385 4 12C4 13.6569 5.34315 15 7 15C8.65685 15 10 13.6569 10 12C10 11.2385 9.71757 10.5454 9.25026 10.0159L9 9.73237V9.35418V3C9 1.89543 8.10457 1 7 1C5.89543 1 5 1.89543 5 3V9.35418V9.73237ZM4 3C4 1.34315 5.34315 0 7 0C8.65685 0 10 1.34315 10 3V9.35418C10.6224 10.0593 11 10.9856 11 12C11 14.2091 9.20914 16 7 16C4.79086 16 3 14.2091 3 12C3 10.9856 3.37764 10.0593 4 9.35418V3ZM11 2H13V3H11V2ZM13 4H11V5H13V4ZM11 6H13V7H11V6ZM13 8H11V9H13V8Z" fill="white"/>
</svg>
