<svg width="16" height="16" viewBox="0 0 16 16" fill="none" xmlns="http://www.w3.org/2000/svg">
<path fill-rule="evenodd" clip-rule="evenodd" d="M14 9V8H9V9H14ZM9 6V7H14V6H9ZM9 4H14V5H9V4Z" fill="white" fill-opacity="0.5"/>
<path fill-rule="evenodd" clip-rule="evenodd" d="M3 2C3 1.44772 3.44772 1 4 1H14C14.5523 1 15 1.44772 15 2V3H3V2ZM15 13C15 13.5523 14.5523 14 14 14L4 14C3.44772 14 3 13.5523 3 13L3 12L15 12V13ZM1 6H6C6.55228 6 7 6.44772 7 7C7 7.55228 6.55228 8 6 8H5.5C4.67157 8 4 8.67157 4 9.5C4 10.3284 4.67157 11 5.5 11H14V10H5.5C5.22386 10 5 9.77614 5 9.5C5 9.22386 5.22386 9 5.5 9H6C7.10457 9 8 8.10457 8 7C8 5.89543 7.10457 5 6 5H1V6Z" fill="white"/>
</svg>
