<svg width="16" height="16" viewBox="0 0 16 16" fill="none" xmlns="http://www.w3.org/2000/svg">
<path fill-rule="evenodd" clip-rule="evenodd" d="M11.8536 9.14645L15 6L14 5H12.7071C12.2544 5 11.8201 4.82014 11.5 4.5C11.1799 4.17986 11 3.74565 11 3.29289V2L10 1L6.85355 4.14645L7.85355 5.14645L8.20711 5.5L7.5 6.20711L7.14645 5.85355L6.14645 4.85355L1 10L2 11H3.29289C3.74565 11 4.17986 11.1799 4.5 11.5C4.82014 11.8201 5 12.2544 5 12.7071V14L6 15L11.1464 9.85355L10.1464 8.85355L9.79289 8.5L10.5 7.79289L10.8536 8.14645L11.8536 9.14645Z" fill="white"/>
</svg>
