<svg width="16" height="16" viewBox="0 0 16 16" fill="none" xmlns="http://www.w3.org/2000/svg">
<path fill-rule="evenodd" clip-rule="evenodd" d="M10.6189 7.91175C10.8408 7.75118 11.0998 7.65919 11.3642 7.63577L14 5L13 4H11.7071C11.2544 4 10.8201 3.82014 10.5 3.5C10.1799 3.17986 10 2.74565 10 2.29289V1L9 0L5.85355 3.14645L6.85355 4.14645L7.20711 4.5L6.5 5.20711L6.14645 4.85355L5.14645 3.85355L0 9L1 10H2.29289C2.74565 10 3.17986 10.1799 3.5 10.5C3.82014 10.8201 4 11.2544 4 11.7071V13L5 14L6.92428 12.0757C6.53317 11.216 7.04517 10.1244 8.07903 9.97413L9.18684 9.81316L9.78541 9.21459L10.024 8.73112L9.14645 7.85355L8.79289 7.5L9.5 6.79289L9.85355 7.14645L10.6189 7.91175Z" fill="white" fill-opacity="0.5"/>
<path d="M11.0516 8.90849C11.235 8.53687 11.765 8.53687 11.9484 8.90849L12.7062 10.444C12.779 10.5916 12.9198 10.6938 13.0827 10.7175L14.7772 10.9637C15.1873 11.0233 15.351 11.5273 15.0543 11.8166L13.8281 13.0118C13.7103 13.1267 13.6565 13.2922 13.6843 13.4544L13.9738 15.142C14.0438 15.5505 13.6151 15.862 13.2483 15.6691L11.7327 14.8723C11.587 14.7957 11.413 14.7957 11.2673 14.8723L9.75171 15.6691C9.3849 15.862 8.95618 15.5505 9.02624 15.142L9.3157 13.4544C9.34352 13.2922 9.28974 13.1267 9.1719 13.0118L7.94573 11.8166C7.64897 11.5273 7.81273 11.0233 8.22284 10.9637L9.91736 10.7175C10.0802 10.6938 10.221 10.5916 10.2938 10.444L11.0516 8.90849Z" fill="white"/>
</svg>
