<svg width="16" height="16" viewBox="0 0 16 16" fill="none" xmlns="http://www.w3.org/2000/svg">
<path fill-rule="evenodd" clip-rule="evenodd" d="M3 5H2.5C1.67157 5 1 5.67157 1 6.5V13.5C1 14.3284 1.67157 15 2.5 15H13.5C14.3284 15 15 14.3284 15 13.5V6.5C15 5.67157 14.3284 5 13.5 5H13V6V7H3V6V5ZM3 8H13V9H3V8Z" fill="white" fill-opacity="0.5"/>
<path d="M5 1C3.89543 1 3 1.89543 3 3V3.17157C3 3.70201 3.21071 4.21071 3.58579 4.58579L4 5V6H12V5L12.4142 4.58579C12.7893 4.21071 13 3.70201 13 3.17157V3C13 1.89543 12.1046 1 11 1H10.8284C10.298 1 9.78929 1.21071 9.41421 1.58579L9 2H7L6.58579 1.58579C6.21071 1.21071 5.70201 1 5.17157 1H5Z" fill="white"/>
</svg>
