<svg width="16" height="16" viewBox="0 0 16 16" fill="none" xmlns="http://www.w3.org/2000/svg">
<path fill-rule="evenodd" clip-rule="evenodd" d="M2.5 7C2.22386 7 2 7.22386 2 7.5V9H1V7.5C1 6.67157 1.67157 6 2.5 6H8V7H2.5ZM13 7H12V6H13C14.1046 6 15 6.89543 15 8V9H14V8C14 7.44772 13.5523 7 13 7Z" fill="white" fill-opacity="0.5"/>
<path fill-rule="evenodd" clip-rule="evenodd" d="M4 1H5V5H4V1ZM9 5.82929C7.83481 5.41746 7 4.30622 7 3C7 2.23165 7.28885 1.53076 7.76389 1H9V3L10 4L11 3V1H12.2361C12.7111 1.53076 13 2.23165 13 3C13 4.30622 12.1652 5.41746 11 5.82929V9H9V5.82929ZM3 9H6V8.5C6 8.22386 5.77614 8 5.5 8H3.5C3.22386 8 3 8.22386 3 8.5V9ZM15 10H1V14C1 14.5523 1.44772 15 2 15H14C14.5523 15 15 14.5523 15 14V10Z" fill="white"/>
</svg>
