<svg width="16" height="16" viewBox="0 0 16 16" fill="none" xmlns="http://www.w3.org/2000/svg">
<path fill-rule="evenodd" clip-rule="evenodd" d="M14 4L12 6H9.99997V4L12 2L11 1C8.79083 1 6.99997 2.79086 6.99997 5C6.99997 5.58694 7.12639 6.14435 7.35348 6.6465L6.46916 7.53081C6.09115 7.32988 5.61133 7.38864 5.29286 7.70711L1.20708 11.7929C0.816553 12.1834 0.816554 12.8166 1.20708 13.2071L2.79286 14.7929C3.18339 15.1834 3.81655 15.1834 4.20708 14.7929L8.29286 10.7071C8.61133 10.3886 8.67009 9.90882 8.46916 9.53081L9.35348 8.64649C9.85562 8.87358 10.413 9 11 9C13.2091 9 15 7.20914 15 5L14 4Z" fill="white"/>
</svg>
