<svg width="16" height="16" viewBox="0 0 16 16" fill="none" xmlns="http://www.w3.org/2000/svg">
<path fill-rule="evenodd" clip-rule="evenodd" d="M10 11V10C10 9.44772 10.4477 9 11 9H15C15.5523 9 16 9.44771 16 10V11L15 11V13V14V15C15 15.5523 14.5523 16 14 16H10C9.44772 16 9 15.5523 9 15V14H14V13H10V11Z" fill="white" fill-opacity="0.5"/>
<path fill-rule="evenodd" clip-rule="evenodd" d="M14 3L12 5H9.99997V3L12 1L11 0C8.79083 0 6.99997 1.79086 6.99997 4C6.99997 4.58694 7.12639 5.14435 7.35348 5.6465L6.46916 6.53081C6.09115 6.32988 5.61133 6.38864 5.29286 6.70711L1.20708 10.7929C0.816553 11.1834 0.816554 11.8166 1.20708 12.2071L2.79286 13.7929C3.18339 14.1834 3.81655 14.1834 4.20708 13.7929L8.29286 9.70711C8.61133 9.38864 8.67009 8.90882 8.46916 8.53081L9.35348 7.64649C9.85562 7.87358 10.413 8 11 8C13.2091 8 15 6.20914 15 4L14 3Z" fill="white"/>
</svg>
