<svg width="16" height="16" viewBox="0 0 16 16" fill="none" xmlns="http://www.w3.org/2000/svg">
<path fill-rule="evenodd" clip-rule="evenodd" d="M12.4462 6.968C12.102 6.38556 11.6144 5.89795 11.032 5.55378L11.2929 5.29286C11.6834 4.90234 12.3166 4.90234 12.7071 5.29286C13.0976 5.68339 13.0976 6.31655 12.7071 6.70708L12.4462 6.968ZM8.03198 8.5538C8.61442 8.89796 9.10203 9.38557 9.4462 9.96801L9.70712 9.7071C10.0976 9.31657 10.0976 8.68341 9.70712 8.29288C9.31659 7.90236 8.68343 7.90236 8.2929 8.29288L8.03198 8.5538ZM7 12C7 12.5523 6.55228 13 6 13C5.44772 13 5 12.5523 5 12C5 11.4477 5.44772 11 6 11C6.55228 11 7 11.4477 7 12Z" fill="white" fill-opacity="0.5"/>
<path fill-rule="evenodd" clip-rule="evenodd" d="M15 1.5V1H14V1.5V2.53513C14.3764 2.75287 14.714 3.03018 15 3.35418V1.5ZM1 14H1.5H3.76389H5.5H6C7.10457 14 8 13.1046 8 12C8 10.8954 7.10457 10 6 10C4.89543 10 4 10.8954 4 12C4 12.3643 4.09739 12.7058 4.26756 13H3.17071C3.06015 12.6872 3 12.3506 3 12C3 10.3431 4.34315 9 6 9C7.65685 9 9 10.3431 9 12C9 13.6569 7.65685 15 6 15H5.5H1.5H1V14ZM7.17707 8.17599C7.27373 7.96204 7.40998 7.76162 7.58581 7.58579C8.36686 6.80474 9.63319 6.80474 10.4142 7.58579C11.1953 8.36684 11.1953 9.63316 10.4142 10.4142L9.86454 10.9639C9.95291 11.2944 10 11.6417 10 12C10 12.0841 9.99743 12.1676 9.99232 12.2503L11.1213 11.1213C12.2929 9.94975 12.2929 8.05025 11.1213 6.87868C9.94977 5.70711 8.05028 5.70711 6.8787 6.87868C6.55027 7.20711 6.31391 7.59276 6.16962 8.00353C6.51887 8.0181 6.85655 8.07745 7.17707 8.17599ZM10.5858 4.58579C10.41 4.76162 10.2737 4.96204 10.1771 5.17599C9.85655 5.07745 9.51887 5.0181 9.16962 5.00353C9.31391 4.59276 9.55027 4.20711 9.87871 3.87868C11.0503 2.70711 12.9498 2.70711 14.1213 3.87868C15.2929 5.05025 15.2929 6.94975 14.1213 8.12132L12.9923 9.25036C12.9974 9.16756 13 9.08408 13 9C13 8.64168 12.9529 8.29437 12.8645 7.96392L13.4142 7.41421C14.1953 6.63316 14.1953 5.36684 13.4142 4.58579C12.6332 3.80474 11.3669 3.80474 10.5858 4.58579Z" fill="white"/>
</svg>
