<svg width="16" height="16" viewBox="0 0 16 16" fill="none" xmlns="http://www.w3.org/2000/svg">
<path fill-rule="evenodd" clip-rule="evenodd" d="M10.0858 1.00001C10.4836 1.00001 10.8651 1.15804 11.1464 1.43935L12.5607 2.85356C12.842 3.13487 13 3.5164 13 3.91422V7.00001V8.50001V9.00001V11H3V9.00001V8.50001V7.00001V3.91422C3 3.5164 3.15804 3.13487 3.43934 2.85356L4.85355 1.43935C5.13486 1.15804 5.51639 1.00001 5.91421 1.00001H10.0858ZM4 9.00001C4 9.55229 4.44772 10 5 10C5.55228 10 6 9.55229 6 9C6 8.44772 5.55228 8 5 8C4.44772 8 4 8.44772 4 9.00001ZM4 7.00001V4.00001H12V7.00001H4ZM12 9.00001C12 8.44772 11.5523 8 11 8C10.4477 8 10 8.44772 10 9C10 9.55229 10.4477 10 11 10C11.5523 10 12 9.55229 12 9.00001ZM5 12.5V12H4V12.5V13H2.5H2V14H2.5H4V14.5V15H5V14.5V14H11V14.5V15H12V14.5V14H13.5H14V13H13.5H12V12.5V12H11V12.5V13H5V12.5Z" fill="white"/>
</svg>
