<svg width="16" height="16" viewBox="0 0 16 16" fill="none" xmlns="http://www.w3.org/2000/svg">
<path fill-rule="evenodd" clip-rule="evenodd" d="M2.5 5.99999H3.78827C3.85934 6.19968 3.97697 6.39099 4.14664 6.56066L4.58598 6.99999H2.5C2.22386 6.99999 2 7.22385 2 7.49999V11.5C2 11.7761 2.22386 12 2.5 12H6C6 13.1046 6.89543 14 8 14C9.10457 14 10 13.1046 10 12H13.5C13.7761 12 14 11.7761 14 11.5V7.49999C14 7.22385 13.7761 6.99999 13.5 6.99999H11.4144L11.8537 6.56066C12.0234 6.39099 12.1411 6.19968 12.2121 5.99999H13.5C14.3284 5.99999 15 6.67157 15 7.49999V13.5C15 14.3284 14.3284 15 13.5 15H2.5C1.67157 15 1 14.3284 1 13.5V7.49999C1 6.67157 1.67157 5.99999 2.5 5.99999Z" fill="white" fill-opacity="0.5"/>
<path fill-rule="evenodd" clip-rule="evenodd" d="M9 1H7V5L5.2073 5C4.76185 5 4.53877 5.53857 4.85375 5.85355L8.00019 9L11.1466 5.85355C11.4616 5.53857 11.2385 5 10.7931 5H9V1Z" fill="white"/>
</svg>
