<svg width="16" height="16" viewBox="0 0 16 16" fill="none" xmlns="http://www.w3.org/2000/svg">
<path fill-rule="evenodd" clip-rule="evenodd" d="M6.00039 5.99999V6.99999H2.5C2.22386 6.99999 2 7.22385 2 7.49999V11.5C2 11.7761 2.22386 12 2.5 12H6C6 13.1046 6.89543 14 8 14C9.10457 14 10 13.1046 10 12H13.5C13.7761 12 14 11.7761 14 11.5V7.49999C14 7.22385 13.7761 6.99999 13.5 6.99999H10.0004V5.99999H10.7931H13.5C14.3284 5.99999 15 6.67157 15 7.49999V13.5C15 14.3284 14.3284 15 13.5 15H2.5C1.67157 15 1 14.3284 1 13.5V7.49999C1 6.67157 1.67157 5.99999 2.5 5.99999H5.2073H6.00039Z" fill="white" fill-opacity="0.5"/>
<path fill-rule="evenodd" clip-rule="evenodd" d="M7.0004 9L9.0004 9L9.0004 5L10.7931 5C11.2385 5 11.4616 4.46143 11.1466 4.14645L8.0002 1L4.85376 4.14645C4.53877 4.46143 4.76186 5 5.20731 5L7.0004 5L7.0004 9Z" fill="white"/>
</svg>
