<svg width="16" height="16" viewBox="0 0 16 16" fill="none" xmlns="http://www.w3.org/2000/svg">
<path fill-rule="evenodd" clip-rule="evenodd" d="M9 13.197L6.12268 10H9V13.197ZM8.37732 14L5 10.2474V13.5C5 13.7761 5.22386 14 5.5 14H8.37732ZM5 8.75258L8.37732 5H5V8.75258ZM9 9H6.12268L9 5.80298V9ZM10 9.70711V13.5V13.5858L11.8536 11.7322C11.9473 11.6385 12 11.5113 12 11.3787V7.70711L10 9.70711ZM12 6.29289L10 8.29289V4.70711L12 2.70711V6.29289ZM9.29289 4L11.2929 2H7.62132C7.48871 2 7.36154 2.05268 7.26777 2.14645L5.41421 4H9.29289ZM4.43934 3.56066C4.15804 3.84196 4 4.2235 4 4.62132V13.5C4 14.3284 4.67157 15 5.5 15H9.37868C9.7765 15 10.158 14.842 10.4393 14.5607L12.5607 12.4393C12.842 12.158 13 11.7765 13 11.3787V2.5C13 1.67157 12.3284 1 11.5 1H7.62132C7.2235 1 6.84196 1.15804 6.56066 1.43934L4.43934 3.56066Z" fill="white"/>
</svg>
