<svg width="16" height="16" viewBox="0 0 16 16" fill="none" xmlns="http://www.w3.org/2000/svg">
<path fill-rule="evenodd" clip-rule="evenodd" d="M8 13.197L5.12268 10H8V13.197ZM7.37732 14L4 10.2474V13.5C4 13.7761 4.22386 14 4.5 14H7.37732ZM4 8.75258L7.37732 5H4V8.75258ZM8 9H5.12268L8 5.80298V9ZM9 9.70711V13.5V13.5858L10.8536 11.7322C10.9473 11.6385 11 11.5113 11 11.3787V7.70711L9 9.70711ZM11 6.29289L9 8.29289V4.70711L11 2.70711V6.29289ZM8.29289 4L10.2929 2H6.62132C6.48871 2 6.36154 2.05268 6.26777 2.14645L4.41421 4H8.29289ZM3.43934 3.56066C3.15804 3.84196 3 4.2235 3 4.62132V13.5C3 14.3284 3.67157 15 4.5 15H8.37868C8.7765 15 9.15804 14.842 9.43934 14.5607L11.5607 12.4393C11.842 12.158 12 11.7765 12 11.3787V2.5C12 1.67157 11.3284 1 10.5 1H6.62132C6.2235 1 5.84196 1.15804 5.56066 1.43934L3.43934 3.56066Z" fill="white"/>
</svg>
