<svg width="16" height="16" viewBox="0 0 16 16" fill="none" xmlns="http://www.w3.org/2000/svg">
<path fill-rule="evenodd" clip-rule="evenodd" d="M6.64039 0H9.35961C9.6849 0 9.92358 0.305694 9.84468 0.621268L9.09468 3.62127C9.03904 3.84385 8.83905 4 8.60961 4H7.39039C7.16095 4 6.96096 3.84385 6.90532 3.62127L6.15532 0.621268C6.07642 0.305694 6.3151 0 6.64039 0ZM1.5 7C1.22386 7 1 7.22386 1 7.5V8.5C1 8.77614 1.22386 9 1.5 9H3.5C3.77614 9 4 8.77614 4 8.5V7.5C4 7.22386 3.77614 7 3.5 7H1.5ZM15 7.5C15 7.22386 14.7761 7 14.5 7H12.5C12.2239 7 12 7.22386 12 7.5V8.5C12 8.77614 12.2239 9 12.5 9H14.5C14.7761 9 15 8.77614 15 8.5V7.5ZM1.5 13C1.22386 13 1 13.2239 1 13.5V14.5C1 14.7761 1.22386 15 1.5 15H3.5C3.77614 15 4 14.7761 4 14.5V13.5C4 13.2239 3.77614 13 3.5 13H1.5ZM15 13.5C15 13.2239 14.7761 13 14.5 13H12.5C12.2239 13 12 13.2239 12 13.5V14.5C12 14.7761 12.2239 15 12.5 15H14.5C14.7761 15 15 14.7761 15 14.5V13.5ZM2.5 10C2.22386 10 2 10.2239 2 10.5V11.5C2 11.7761 2.22386 12 2.5 12H3.5C3.77614 12 4 11.7761 4 11.5V10.5C4 10.2239 3.77614 10 3.5 10H2.5ZM14 10.5C14 10.2239 13.7761 10 13.5 10H12.5C12.2239 10 12 10.2239 12 10.5V11.5C12 11.7761 12.2239 12 12.5 12H13.5C13.7761 12 14 11.7761 14 11.5V10.5ZM10.6295 1.60535C12.3384 2.43987 13.5921 4.06252 13.9171 6.00003H11.874C11.6163 4.99857 10.9805 4.1489 10.1278 3.61223L10.6295 1.60535ZM2.08301 6.00003H4.12606C4.38381 4.99857 5.01965 4.1489 5.87233 3.61223L5.37061 1.60535C3.66167 2.43987 2.40805 4.06252 2.08301 6.00003Z" fill="white"/>
<path d="M6 8C6 6.89543 6.89543 6 8 6C9.10457 6 10 6.89543 10 8V13H6V8Z" fill="white" fill-opacity="0.5"/>
</svg>
