<svg width="16" height="16" viewBox="0 0 16 16" fill="none" xmlns="http://www.w3.org/2000/svg">
<path fill-rule="evenodd" clip-rule="evenodd" d="M6.27145 5.02145L6.25 5L5.83211 4.58211C5.44158 4.19158 4.80842 4.19158 4.4179 4.58211L3 6V9.99994L1.20711 11.7928C0.816584 12.1834 0.816584 12.8165 1.20711 13.207L2.79289 14.7928C3.18342 15.1834 3.81658 15.1834 4.20711 14.7928L6 12.9999H10L11.4179 11.5821C11.8084 11.1916 11.8084 10.5584 11.4179 10.1679L11 9.75L10.9786 9.72855L9.35356 11.3536L9 11.7071L8.64645 11.3536L4.64645 7.35355L4.2929 7L4.64645 6.64645L6.27145 5.02145Z" fill="white" fill-opacity="0.5"/>
<path fill-rule="evenodd" clip-rule="evenodd" d="M9.99999 1H13C14.1046 1 15 1.89543 15 3V6L11.8535 9.14645L11.3535 8.64645L11 8.29289L10.6464 8.64645L8.99999 10.2929L5.70709 7L7.35354 5.35355L7.70709 5L7.35354 4.64645L6.85354 4.14645L9.99999 1ZM14 3C14 3.55228 13.5523 4 13 4C12.4477 4 12 3.55228 12 3C12 2.44772 12.4477 2 13 2C13.5523 2 14 2.44772 14 3Z" fill="white"/>
</svg>
