<svg width="16" height="16" viewBox="0 0 16 16" fill="none" xmlns="http://www.w3.org/2000/svg">
<path fill-rule="evenodd" clip-rule="evenodd" d="M7.5 2C7.22386 2 7 2.22386 7 2.5V5H9V2.5C9 2.22386 8.77614 2 8.5 2H7.5ZM1 9.5V9H0V9.5V11.5V12H1V11.5V9.5ZM16 9.5V9H15V9.5V11.5V12H16V11.5V9.5Z" fill="white" fill-opacity="0.5"/>
<path fill-rule="evenodd" clip-rule="evenodd" d="M2 8.41421C2 8.149 2.10536 7.89464 2.29289 7.70711L3.70711 6.29289C3.89464 6.10536 4.149 6 4.41421 6H11.5858C11.851 6 12.1054 6.10536 12.2929 6.29289L13.7071 7.70711C13.8946 7.89464 14 8.149 14 8.41421V12C14 13.1046 13.1046 14 12 14H4C2.89543 14 2 13.1046 2 12V8.41421ZM13 12C13 12.5523 12.5523 13 12 13C11.4477 13 11 12.5523 11 12C11 11.4477 11.4477 11 12 11C12.5523 11 13 11.4477 13 12ZM4 13C4.55228 13 5 12.5523 5 12C5 11.4477 4.55228 11 4 11C3.44772 11 3 11.4477 3 12C3 12.5523 3.44772 13 4 13Z" fill="white"/>
</svg>
