<svg width="16" height="16" viewBox="0 0 16 16" fill="none" xmlns="http://www.w3.org/2000/svg">
<path fill-rule="evenodd" clip-rule="evenodd" d="M1.43934 4.56066C1.15804 4.84196 1 5.2235 1 5.62132V13.5C1 14.3284 1.67157 15 2.5 15H10.3787C10.7765 15 11.158 14.842 11.4393 14.5607L14.2929 11.7071C14.6834 11.3166 14.6834 10.6834 14.2929 10.2929L5.70711 1.70711C5.31658 1.31658 4.68342 1.31658 4.29289 1.70711L1.43934 4.56066ZM2.85355 5.14645L2.5 4.79289L1.79289 5.5L2.14645 5.85355L10.1464 13.8536L10.5 14.2071L11.2071 13.5L10.8536 13.1464L2.85355 5.14645Z" fill="white"/>
</svg>
