<svg width="16" height="16" viewBox="0 0 16 16" fill="none" xmlns="http://www.w3.org/2000/svg">
<path fill-rule="evenodd" clip-rule="evenodd" d="M8.99999 3C8.99999 3.55228 8.55227 4 7.99999 4C7.4477 4 6.99999 3.55228 6.99999 3C6.99999 2.44772 7.4477 2 7.99999 2C8.55227 2 8.99999 2.44772 8.99999 3ZM9.73242 4C9.90259 3.70583 9.99999 3.36429 9.99999 3C9.99999 1.89543 9.10456 1 7.99999 1C6.89542 1 5.99999 1.89543 5.99999 3C5.99999 3.36429 6.09738 3.70583 6.26755 4H4.25185C3.52692 4 2.90573 4.51844 2.77605 5.23167L1.3215 13.2317C1.15409 14.1524 1.86145 15 2.79731 15H13.2027C14.1385 15 14.8459 14.1524 14.6785 13.2317L13.1493 4.82111C13.0628 4.34562 12.6487 4 12.1654 4H9.73242ZM10.1464 10.8536L8 13L5.85355 10.8536C5.53857 10.5386 5.76165 10 6.20711 10H7V6H9V10H9.79289C10.2383 10 10.4614 10.5386 10.1464 10.8536Z" fill="white"/>
</svg>
