<svg width="16" height="16" viewBox="0 0 16 16" fill="none" xmlns="http://www.w3.org/2000/svg">
<path fill-rule="evenodd" clip-rule="evenodd" d="M11 1V1.5V3.5V4H12V3.5V1.5V1H11ZM16 5H15.5H13.5H13V6H13.5H15.5H16V5ZM11.5 5.00005H12V6.00005H11.5H10.9142C10.7816 6.00005 10.6544 6.05272 10.5606 6.14649L7.70711 9.00003L8.35353 9.64637L7.64646 10.3535L6.64645 9.35362L6.64641 9.35358L5.64642 8.35348L6.35357 7.64641L7 8.29292L9.85354 5.43939C10.1348 5.15808 10.5164 5.00005 10.9142 5.00005H11.5ZM6.64645 10.6464C6.84171 10.8417 6.84171 11.1583 6.64645 11.3536L3.5 14.5C2.94771 15.0523 2.05228 15.0523 1.5 14.5C0.947714 13.9477 0.947713 13.0523 1.5 12.5L4.64645 9.35355C4.84171 9.15829 5.15829 9.15829 5.35355 9.35355L6.64645 10.6464ZM7.87871 6L8.87871 5H8.5H7.5H7V6H7.5H7.87871ZM11 7.5V7H12V7.5V9.5V10H11V9.5V7.5Z" fill="white"/>
</svg>
