<svg width="16" height="16" viewBox="0 0 16 16" fill="none" xmlns="http://www.w3.org/2000/svg">
<path fill-rule="evenodd" clip-rule="evenodd" d="M15 7V2.5C15 1.67157 14.3284 1 13.5 1H2.5C1.67157 1 1 1.67157 1 2.5V13.5C1 14.3284 1.67157 15 2.5 15H7V14H2.5C2.22386 14 2 13.7761 2 13.5V4.5C2 4.22386 2.22386 4 2.5 4H13.5C13.7761 4 14 4.22386 14 4.5V7H15Z" fill="white" fill-opacity="0.5"/>
<path fill-rule="evenodd" clip-rule="evenodd" d="M9 8C8.44772 8 8 8.44772 8 9V13C8 13.5523 8.44772 14 9 14H10V15.2929C10 15.7383 10.5386 15.9614 10.8536 15.6464L12.5 14H15C15.5523 14 16 13.5523 16 13V9C16 8.44772 15.5523 8 15 8H9Z" fill="white"/>
</svg>
