<svg width="16" height="16" viewBox="0 0 16 16" fill="none" xmlns="http://www.w3.org/2000/svg">
<path fill-rule="evenodd" clip-rule="evenodd" d="M11 12V13.5C11 14.3284 10.3284 15 9.5 15H2.5C1.67157 15 1 14.3284 1 13.5V6.5C1 5.67157 1.67157 5 2.5 5H4V8H2.5C2.22386 8 2 8.22386 2 8.5V13.5C2 13.7761 2.22386 14 2.5 14H9.5C9.77614 14 10 13.7761 10 13.5V12H11Z" fill="white" fill-opacity="0.5"/>
<path fill-rule="evenodd" clip-rule="evenodd" d="M13.5 1C14.3284 1 15 1.67157 15 2.5V9.5C15 10.3284 14.3284 11 13.5 11H6.5C5.67157 11 5 10.3284 5 9.5V2.5C5 1.67157 5.67157 1 6.5 1H13.5ZM13.5 4C13.7761 4 14 4.22386 14 4.5V9.5C14 9.77614 13.7761 10 13.5 10H6.5C6.22386 10 6 9.77614 6 9.5V4.5C6 4.22386 6.22386 4 6.5 4H13.5Z" fill="white"/>
</svg>
