<svg width="16" height="16" viewBox="0 0 16 16" fill="none" xmlns="http://www.w3.org/2000/svg">
<path fill-rule="evenodd" clip-rule="evenodd" d="M2.5 1C1.67157 1 1 1.67157 1 2.5V13.5C1 14.3284 1.67157 15 2.5 15H7.95491C7.94133 14.9789 7.92819 14.9574 7.91553 14.9355L7.41553 14.0695C7.40227 14.0465 7.38968 14.0234 7.37777 14H2.5C2.22386 14 2 13.7761 2 13.5V4.5C2 4.22386 2.22386 4 2.5 4H13.5C13.7761 4 14 4.22386 14 4.5V8.37651C14.0033 8.41724 14.005 8.45842 14.005 8.5V8.52725L14.0286 8.51362C14.3342 8.33716 14.676 8.28009 15 8.32793V2.5C15 1.67157 14.3284 1 13.5 1H2.5Z" fill="white" fill-opacity="0.5"/>
<path fill-rule="evenodd" clip-rule="evenodd" d="M12.5 8C12.7761 8 13 8.22386 13 8.5V9.17071C13.3511 9.29481 13.6722 9.48242 13.9495 9.71974L14.5311 9.38398C14.7702 9.24591 15.076 9.32784 15.2141 9.56699L15.7141 10.433C15.8522 10.6722 15.7702 10.978 15.5311 11.116L14.95 11.4515C14.9828 11.6294 15 11.8127 15 12C15 12.1873 14.9828 12.3706 14.95 12.5485L15.5311 12.884C15.7702 13.022 15.8522 13.3278 15.7141 13.567L15.2141 14.433C15.076 14.6722 14.7702 14.7541 14.5311 14.616L13.9495 14.2803C13.6722 14.5176 13.3511 14.7052 13 14.8293V15.5C13 15.7761 12.7761 16 12.5 16H11.5C11.2239 16 11 15.7761 11 15.5V14.8293C10.6489 14.7052 10.3278 14.5176 10.0504 14.2803L9.46889 14.616C9.22975 14.7541 8.92395 14.6722 8.78588 14.433L8.28588 13.567C8.14781 13.3278 8.22975 13.022 8.46889 12.884L9.05001 12.5485C9.01716 12.3706 8.99999 12.1873 8.99999 12C8.99999 11.8127 9.01716 11.6294 9.05001 11.4515L8.46889 11.116C8.22975 10.978 8.14781 10.6722 8.28588 10.433L8.78588 9.56698C8.92395 9.32784 9.22975 9.2459 9.46889 9.38397L10.0504 9.71973C10.3278 9.48242 10.6489 9.29481 11 9.17071V8.5C11 8.22386 11.2239 8 11.5 8H12.5ZM13.5 12C13.5 12.8284 12.8284 13.5 12 13.5C11.1716 13.5 10.5 12.8284 10.5 12C10.5 11.1716 11.1716 10.5 12 10.5C12.8284 10.5 13.5 11.1716 13.5 12Z" fill="white"/>
</svg>
