<svg width="16" height="16" viewBox="0 0 16 16" fill="none" xmlns="http://www.w3.org/2000/svg">
<path fill-rule="evenodd" clip-rule="evenodd" d="M1 2.5C1 1.67157 1.67157 1 2.5 1H13.5C14.3284 1 15 1.67157 15 2.5V13.5C15 14.3284 14.3284 15 13.5 15H2.5C1.67157 15 1 14.3284 1 13.5V2.5ZM2 4.5C2 4.22386 2.22386 4 2.5 4H13.5C13.7761 4 14 4.22386 14 4.5V13.5C14 13.7761 13.7761 14 13.5 14H2.5C2.22386 14 2 13.7761 2 13.5V4.5ZM6.9 7.2L6.5541 6.7388L6.14645 7.14645L4.29289 9H3.5H3V10H3.5H4.5H4.70711L4.85355 9.85355L6.4459 8.2612L9.1 11.8L9.4459 12.2612L9.85355 11.8536L11.7071 10H12.5H13V9H12.5H11.5H11.2929L11.1464 9.14645L9.5541 10.7388L6.9 7.2Z" fill="white"/>
</svg>
