<svg width="16" height="16" viewBox="0 0 16 16" fill="none" xmlns="http://www.w3.org/2000/svg">
<path fill-rule="evenodd" clip-rule="evenodd" d="M13.5 1C14.3284 1 15 1.67157 15 2.5V7.58579L14.7071 7.29289L14 6.58579V4.5C14 4.22386 13.7761 4 13.5 4H2.5C2.22386 4 2 4.22386 2 4.5V13.5C2 13.7761 2.22386 14 2.5 14H7.04336C7.01474 14.1352 7 14.2739 7 14.4142V15H2.5C1.67157 15 1 14.3284 1 13.5V2.5C1 1.67157 1.67157 1 2.5 1H13.5Z" fill="white" fill-opacity="0.5"/>
<path fill-rule="evenodd" clip-rule="evenodd" d="M8 16V14.4142C8 14.149 8.10536 13.8946 8.29289 13.7071L12.6464 9.35355L14.6464 11.3536L10.2929 15.7071C10.1054 15.8946 9.851 16 9.58579 16H8ZM15.3536 10.6464L16 10L14 8L13.3536 8.64645L15.3536 10.6464Z" fill="white"/>
</svg>
