<svg width="16" height="16" viewBox="0 0 16 16" fill="none" xmlns="http://www.w3.org/2000/svg">
<path fill-rule="evenodd" clip-rule="evenodd" d="M1 2.5C1 1.67157 1.67157 1 2.5 1H13.5C14.3284 1 15 1.67157 15 2.5V13.5C15 14.3284 14.3284 15 13.5 15H2.5C1.67157 15 1 14.3284 1 13.5V2.5ZM2 4.5C2 4.22386 2.22386 4 2.5 4H13.5C13.7761 4 14 4.22386 14 4.5V13.5C14 13.7761 13.7761 14 13.5 14H2.5C2.22386 14 2 13.7761 2 13.5V4.5ZM4.85355 6.14645L4.5 5.79289L3.79289 6.5L4.14645 6.85355L6.29289 9L4.14645 11.1464L3.79289 11.5L4.5 12.2071L4.85355 11.8536L7.35355 9.35355L7.70711 9L7.35355 8.64645L4.85355 6.14645ZM8.5 11H8V12H8.5H11.5H12V11H11.5H8.5Z" fill="white"/>
</svg>
