<svg width="16" height="16" viewBox="0 0 16 16" fill="none" xmlns="http://www.w3.org/2000/svg">
<path fill-rule="evenodd" clip-rule="evenodd" d="M15 6V2.5C15 1.67157 14.3284 1 13.5 1H2.5C1.67157 1 1 1.67157 1 2.5V13.5C1 14.3284 1.67157 15 2.5 15H6V14H2.5C2.22386 14 2 13.7761 2 13.5V4.5C2 4.22386 2.22386 4 2.5 4H13.5C13.7761 4 14 4.22386 14 4.5V6H15Z" fill="white" fill-opacity="0.5"/>
<path fill-rule="evenodd" clip-rule="evenodd" d="M12.3536 7.85355C12.0386 7.53857 12.2617 7 12.7071 7H16V10.2929C16 10.7383 15.4614 10.9614 15.1464 10.6464L14.1036 9.60355L9.60355 14.1036L10.6464 15.1464C10.9614 15.4614 10.7383 16 10.2929 16H7V12.7071C7 12.2617 7.53857 12.0386 7.85355 12.3536L8.89645 13.3964L13.3964 8.89645L12.3536 7.85355Z" fill="white"/>
</svg>
