<svg width="16" height="16" viewBox="0 0 16 16" fill="none" xmlns="http://www.w3.org/2000/svg">
<path fill-rule="evenodd" clip-rule="evenodd" d="M14.5607 11.4393L11.9362 14.0638C11.9779 13.8826 12 13.6939 12 13.5V6.5C12 5.99046 11.8476 5.51652 11.5858 5.1213L13.8536 2.85355L14.2071 2.5L13.5 1.79289L13.1464 2.14645L10.8787 4.4142C10.4835 4.15244 10.0095 4 9.5 4H2.5C2.30611 4 2.11737 4.02207 1.93616 4.06384L4.56066 1.43934C4.84197 1.15803 5.2235 1 5.62132 1H13.5C14.3284 1 15 1.67157 15 2.5V10.3787C15 10.7765 14.842 11.158 14.5607 11.4393Z" fill="white" fill-opacity="0.5"/>
<path fill-rule="evenodd" clip-rule="evenodd" d="M2.5 5C1.67157 5 1 5.67157 1 6.5V13.5C1 14.3284 1.67157 15 2.5 15H9.5C10.3284 15 11 14.3284 11 13.5V6.5C11 5.67157 10.3284 5 9.5 5H2.5ZM2.5 8C2.22386 8 2 8.22386 2 8.5V13.5C2 13.7761 2.22386 14 2.5 14H9.5C9.77614 14 10 13.7761 10 13.5V8.5C10 8.22386 9.77614 8 9.5 8H2.5Z" fill="white"/>
</svg>
