<svg width="16" height="16" viewBox="0 0 16 16" fill="none" xmlns="http://www.w3.org/2000/svg">
<path fill-rule="evenodd" clip-rule="evenodd" d="M1 2.5C1 1.67157 1.67157 1 2.5 1H13.5C14.3284 1 15 1.67157 15 2.5V6.52779C14.6934 6.25338 14.3584 6.01003 14 5.80269V4.5C14 4.22386 13.7761 4 13.5 4H2.5C2.22386 4 2 4.22386 2 4.5V13.5C2 13.7761 2.22386 14 2.5 14H5.80269C6.01003 14.3584 6.25338 14.6934 6.52779 15H2.5C1.67157 15 1 14.3284 1 13.5V2.5Z" fill="white" fill-opacity="0.5"/>
<path fill-rule="evenodd" clip-rule="evenodd" d="M14 13.6458C13.2671 14.4762 12.1947 15 11 15C10.6547 15 10.3196 14.9562 10 14.874V14L9 13V12L7.10135 10.1013C7.50916 8.32492 9.09985 7 11 7C11.3453 7 11.6804 7.04375 12 7.12602V7.58576C12 7.85098 11.8946 8.10533 11.7071 8.29287L10.2929 9.70708C10.1054 9.89462 9.851 9.99997 9.58579 9.99997H9V11H11H11.5858C11.851 11 12.1054 11.1053 12.2929 11.2929L13.7071 12.7071C13.8946 12.8946 14 13.149 14 13.4142V13.6458ZM15.1483 13.7923C14.25 15.1241 12.7273 16 11 16C8.23858 16 6 13.7614 6 11C6 11 6 11 6 11C6 10.5136 6.06946 10.0434 6.19901 9.59875C6.19901 9.59875 6.19901 9.59875 6.19901 9.59875C6.80489 7.51937 8.72501 6 11 6C11.3425 6 11.6769 6.03443 12 6.10002V6.10001C13.3052 6.36496 14.4258 7.13835 15.1461 8.20445C15.6852 9.00246 16 9.96447 16 11C16 12.0341 15.686 12.995 15.1483 13.7923Z" fill="white"/>
</svg>
