<svg width="16" height="16" viewBox="0 0 16 16" fill="none" xmlns="http://www.w3.org/2000/svg">
<path fill-rule="evenodd" clip-rule="evenodd" d="M15 2.5C15 1.67157 14.3284 1 13.5 1H6.5C5.67157 1 5 1.67157 5 2.5V4H6.5H9.5H13.5C13.7761 4 14 4.22386 14 4.5V9.5C14 9.77614 13.7761 10 13.5 10H12V11H13.5C14.3284 11 15 10.3284 15 9.5V2.5Z" fill="white" fill-opacity="0.5"/>
<path fill-rule="evenodd" clip-rule="evenodd" d="M9.5 5C10.3284 5 11 5.67157 11 6.5V13.5C11 14.3284 10.3284 15 9.5 15H2.5C1.67157 15 1 14.3284 1 13.5V6.5C1 5.67157 1.67157 5 2.5 5H9.5ZM9.5 8C9.77614 8 10 8.22386 10 8.5V13.5C10 13.7761 9.77614 14 9.5 14H2.5C2.22386 14 2 13.7761 2 13.5V8.5C2 8.22386 2.22386 8 2.5 8H9.5Z" fill="white"/>
</svg>
