<svg width="16" height="16" viewBox="0 0 16 16" fill="none" xmlns="http://www.w3.org/2000/svg">
<path fill-rule="evenodd" clip-rule="evenodd" d="M2.5 1C1.67157 1 1 1.67157 1 2.5V13.5C1 14.3284 1.67157 15 2.5 15H6.05001C6.01722 14.8384 6 14.6712 6 14.5V14H2.5C2.22386 14 2 13.7761 2 13.5V4.5C2 4.22386 2.22386 4 2.5 4H13.5C13.7761 4 14 4.22386 14 4.5V7.58579L14.4142 8H14.5C14.6712 8 14.8384 8.01722 15 8.05001V2.5C15 1.67157 14.3284 1 13.5 1H2.5Z" fill="white" fill-opacity="0.5"/>
<path fill-rule="evenodd" clip-rule="evenodd" d="M8.5 9C7.67157 9 7 9.67157 7 10.5V14.5C7 15.3284 7.67157 16 8.5 16H14.5C15.3284 16 16 15.3284 16 14.5V10.5C16 9.67157 15.3284 9 14.5 9H14L13 8H10L9 9H8.5ZM13 12.5C13 13.3284 12.3284 14 11.5 14C10.6716 14 10 13.3284 10 12.5C10 11.6716 10.6716 11 11.5 11C12.3284 11 13 11.6716 13 12.5ZM14 12.5C14 13.8807 12.8807 15 11.5 15C10.1193 15 9 13.8807 9 12.5C9 11.1193 10.1193 10 11.5 10C12.8807 10 14 11.1193 14 12.5Z" fill="white"/>
</svg>
