<svg width="16" height="16" viewBox="0 0 16 16" fill="none" xmlns="http://www.w3.org/2000/svg">
<path fill-rule="evenodd" clip-rule="evenodd" d="M4.5 3C3.67157 3 3 3.67157 3 4.5V11.5C3 12.3284 3.67157 13 4.5 13H11.5C12.3284 13 13 12.3284 13 11.5V4.5C13 3.67157 12.3284 3 11.5 3H4.5ZM4.5 6C4.22386 6 4 6.22386 4 6.5V11.5C4 11.7761 4.22386 12 4.5 12H11.5C11.7761 12 12 11.7761 12 11.5V6.5C12 6.22386 11.7761 6 11.5 6H4.5Z" fill="white" fill-opacity="0.5"/>
<path fill-rule="evenodd" clip-rule="evenodd" d="M15 6.5V4.5C15 2.567 13.433 1 11.5 1H9.5H9V2L9.5 2L11.5 2C12.8807 2 14 3.11929 14 4.5V6.5V7H15V6.5ZM1 11.5C1 13.433 2.567 15 4.5 15H6.5H7V14H6.5H4.5C3.11929 14 2 12.8807 2 11.5L2 9.5V9H1V9.5V11.5Z" fill="white"/>
</svg>
