<svg width="16" height="16" viewBox="0 0 16 16" fill="none" xmlns="http://www.w3.org/2000/svg">
<path fill-rule="evenodd" clip-rule="evenodd" d="M1 2.5C1 1.67157 1.67157 1 2.5 1H13.5C14.3284 1 15 1.67157 15 2.5V7H14V4.5C14 4.22386 13.7761 4 13.5 4H2.5C2.22386 4 2 4.22386 2 4.5V13.5C2 13.7761 2.22386 14 2.5 14H8.5L9.5 15H2.5C1.67157 15 1 14.3284 1 13.5V2.5Z" fill="white" fill-opacity="0.5"/>
<path fill-rule="evenodd" clip-rule="evenodd" d="M10 8H11V10H13V8H14V10H15V12.3787C15 12.7765 14.842 13.158 14.5607 13.4393L13 15V16H11V15L9.43934 13.4393C9.15803 13.158 9 12.7765 9 12.3787V10H10V8Z" fill="white"/>
</svg>
