<svg width="16" height="16" viewBox="0 0 16 16" fill="none" xmlns="http://www.w3.org/2000/svg">
<path fill-rule="evenodd" clip-rule="evenodd" d="M1 2.5C1 1.67157 1.67157 1 2.5 1H13.5C14.3284 1 15 1.67157 15 2.5V5H14V4.5C14 4.22386 13.7761 4 13.5 4H2.5C2.22386 4 2 4.22386 2 4.5V13.5C2 13.7761 2.22386 14 2.5 14H6.5L7.5 15H2.5C1.67157 15 1 14.3284 1 13.5V2.5Z" fill="white" fill-opacity="0.5"/>
<path fill-rule="evenodd" clip-rule="evenodd" d="M12 6H11V8H10V10.3787C10 10.7765 10.158 11.158 10.4393 11.4393L12 13V14H14V13L15.5607 11.4393C15.842 11.158 16 10.7765 16 10.3787V8H15V6H14V8H12V6ZM9 8H8V10H7V12.3787C7 12.7765 7.15803 13.158 7.43934 13.4393L9 15V16H11V15V14V13.4142L9.73223 12.1464C9.26339 11.6776 9 11.0417 9 10.3787V10V8Z" fill="white"/>
</svg>
