<svg width="16" height="16" viewBox="0 0 16 16" fill="none" xmlns="http://www.w3.org/2000/svg">
<path fill-rule="evenodd" clip-rule="evenodd" d="M4.41421 5.99995H5V8.5C5 8.67122 5.01721 8.83841 5.05 8.99995H2.5H2V9.99995H2.5H5.49978C5.64205 10.1894 5.81059 10.3579 6 10.5002V13.5V14H7V13.5V10.95C7.16155 10.9828 7.32877 11 7.5 11H10V11.5857C10 11.851 9.89464 12.1053 9.70711 12.2928L7.29289 14.7071C7.10536 14.8946 6.851 15 6.58579 15H2C1.44772 15 1 14.5522 1 14V9.41417C1 9.14895 1.10536 8.8946 1.29289 8.70706L3.70711 6.29285C3.89464 6.10531 4.149 5.99995 4.41421 5.99995Z" fill="white" fill-opacity="0.5"/>
<path fill-rule="evenodd" clip-rule="evenodd" d="M7.5 0C6.67157 0 6 0.671573 6 1.5V8.5C6 9.32843 6.67157 10 7.5 10H14.5C15.3284 10 16 9.32843 16 8.5V1.5C16 0.671573 15.3284 0 14.5 0H7.5ZM7.5 3C7.22386 3 7 3.22386 7 3.5V8.5C7 8.77614 7.22386 9 7.5 9H14.5C14.7761 9 15 8.77614 15 8.5V3.5C15 3.22386 14.7761 3 14.5 3H7.5Z" fill="white"/>
</svg>
