<svg width="16" height="16" viewBox="0 0 16 16" fill="none" xmlns="http://www.w3.org/2000/svg">
<path fill-rule="evenodd" clip-rule="evenodd" d="M1 2.5C1 1.67157 1.67157 1 2.5 1H13.5C14.3284 1 15 1.67157 15 2.5V7H14V4.5C14 4.22386 13.7761 4 13.5 4H2.5C2.22386 4 2 4.22386 2 4.5V13.5C2 13.7761 2.22386 14 2.5 14H7V15H2.5C1.67157 15 1 14.3284 1 13.5V2.5Z" fill="white" fill-opacity="0.5"/>
<path fill-rule="evenodd" clip-rule="evenodd" d="M8.29289 9.70711C8.10536 9.89464 8 10.149 8 10.4142V15C8 15.5523 8.44772 16 9 16H13.5858C13.851 16 14.1054 15.8946 14.2929 15.7071L15.7071 14.2929C15.8946 14.1054 16 13.851 16 13.5858V9C16 8.44772 15.5523 8 15 8H10.4142C10.149 8 9.89464 8.10536 9.70711 8.29289L8.29289 9.70711ZM14.8536 9.85355L15.2071 9.5L14.5 8.79289L14.1464 9.14645L13.2929 10H9.5H9V11H9.5H13V14.5V15H14V14.5V10.7071L14.8536 9.85355Z" fill="white"/>
</svg>
