<svg width="16" height="16" viewBox="0 0 16 16" fill="none" xmlns="http://www.w3.org/2000/svg">
<path fill-rule="evenodd" clip-rule="evenodd" d="M2.5 1C1.67157 1 1 1.67157 1 2.5V13.5C1 14.3284 1.67157 15 2.5 15H8.91432L7.07437 14.2923C6.88376 14.219 6.71082 14.1197 6.55803 14H2.5C2.22386 14 2 13.7761 2 13.5V4.5C2 4.22386 2.22386 4 2.5 4H13.5C13.7761 4 14 4.22386 14 4.5V7.35166L14.9256 7.70767C14.9507 7.71733 14.9755 7.72743 15 7.73797V2.5C15 1.67157 14.3284 1 13.5 1H2.5Z" fill="white" fill-opacity="0.5"/>
<path d="M8.64102 7.43335C8.83928 6.91787 9.41787 6.66072 9.93334 6.85898L14.5667 8.64102C15.0821 8.83928 15.3393 9.41787 15.141 9.93335L13.359 14.5667C13.1607 15.0821 12.5821 15.3393 12.0667 15.141L7.43334 13.359C6.91787 13.1607 6.66072 12.5821 6.85898 12.0667L8.64102 7.43335Z" fill="white"/>
</svg>
