<svg width="16" height="16" viewBox="0 0 16 16" fill="none" xmlns="http://www.w3.org/2000/svg">
<path fill-rule="evenodd" clip-rule="evenodd" d="M13.4374 2.15035C13.6327 1.95508 13.9493 1.95508 14.1445 2.15035L14.8516 2.85745C15.0469 3.05272 15.0469 3.3693 14.8516 3.56456L9.9152 8.50098L14.8516 13.4374C15.0469 13.6326 15.0469 13.9492 14.8516 14.1445L14.1445 14.8516C13.9492 15.0469 13.6326 15.0469 13.4374 14.8516L8.50098 9.9152L3.56459 14.8516C3.36933 15.0469 3.05274 15.0469 2.85748 14.8516L2.15038 14.1445C1.95511 13.9492 1.95511 13.6326 2.15038 13.4374L7.08677 8.50098L2.15035 3.56456C1.95508 3.3693 1.95508 3.05272 2.15035 2.85745L2.85745 2.15035C3.05272 1.95508 3.3693 1.95508 3.56456 2.15035L8.50098 7.08677L13.4374 2.15035Z" fill="white"/>
</svg>
